<svg version="1.1" id="campus-logo-api" xmlns="http://www.w3.org/2000/svg" xmlns:xlink="http://www.w3.org/1999/xlink" x="0px" y="0px"
	 viewBox="0 0 47.304001 16.737139" style="enable-background:new 0 0 47.304001 16.737139;" xml:space="preserve" aria-labelledby="ibkrAPIsvg">
	<title id="ibkrAPIsvg">IBKR API</title>
<style type="text/css">
	.st0{fill:none;}
	.text-fill{fill:#000;}
</style>
<g>
	<g>
		<path class="text-fill" d="M1.969391,5.005297v8.96286h-1.970779v-8.96286H1.969391z"/>
		<path class="text-fill" d="M7.01843,5.005297c0.426794,0,0.815943,0.037644,1.167449,0.112931C8.537385,5.193516,8.838634,5.31709,9.089724,5.488556
			C9.340813,5.66022,9.535338,5.88825,9.673399,6.172648c0.138158,0.284693,0.207139,0.6361,0.207139,1.054518
			c0,0.451922-0.102585,0.828458-0.307555,1.129805C9.367814,8.658219,9.064594,8.90517,8.66293,9.097528
			c0.552339,0.159148,0.964449,0.437436,1.23643,0.834764c0.271882,0.397625,0.407971,0.876843,0.407971,1.437362
			c0,0.451921-0.087803,0.84324-0.263605,1.173756c-0.175703,0.330713-0.412307,0.600526-0.70922,0.809636
			c-0.297208,0.209308-0.636101,0.364021-1.016775,0.464437C7.93676,13.9179,7.54564,13.968158,7.143975,13.968158H2.800654
			v-8.96286H7.01843z M6.767438,8.633091c0.351408,0,0.640141-0.083565,0.866102-0.25109
			c0.225961-0.167229,0.338991-0.439308,0.338991-0.815943c0-0.209012-0.037742-0.380675-0.11303-0.514695
			C7.784214,6.917639,7.683798,6.812887,7.558253,6.7376c-0.125545-0.075386-0.269911-0.127516-0.4331-0.156981
			C6.961964,6.55145,6.792469,6.536767,6.616765,6.536767H4.771432v2.096323H6.767438z M6.88037,12.436687
			c0.192456,0,0.376635-0.018822,0.552339-0.056466c0.175704-0.037643,0.330516-0.100416,0.464437-0.188317
			c0.133822-0.087901,0.240447-0.207139,0.320169-0.357813c0.079426-0.150575,0.119238-0.343031,0.119238-0.577369
			c0-0.460199-0.129881-0.788745-0.38915-0.985438c-0.259564-0.196496-0.602595-0.29504-1.029389-0.29504H4.771432v2.460443H6.88037
			z"/>
		<path class="text-fill" d="M12.782606,5.005297v3.715695l3.502348-3.715695h2.460344l-3.50225,3.539893l3.841241,5.422968h-2.47296
			l-2.698918-4.029557l-1.129806,1.14232v2.887238h-1.970779v-8.96286H12.782606z"/>
		<path class="text-fill" d="M24.407513,5.005297c0.401665,0,0.763617,0.064842,1.085855,0.194526
			c0.322041,0.12988,0.598259,0.307555,0.828457,0.533516c0.230101,0.225961,0.405903,0.487595,0.527309,0.784606
			c0.121208,0.29711,0.182011,0.61718,0.182011,0.96031c0,0.52721-0.111059,0.98337-0.332685,1.368281
			c-0.221821,0.385012-0.583675,0.677785-1.085854,0.878716v0.02503c0.242615,0.067108,0.443447,0.169495,0.602594,0.307555
			c0.158854,0.138158,0.288734,0.301347,0.389151,0.489566c0.100416,0.188317,0.173536,0.395456,0.219654,0.621417
			c0.045921,0.225962,0.077259,0.451922,0.094109,0.677884c0.008278,0.142395,0.016655,0.309723,0.025129,0.502081
			c0.008278,0.192653,0.022961,0.38915,0.043951,0.589982c0.020792,0.200931,0.054296,0.391317,0.100416,0.57116
			c0.045921,0.180138,0.114902,0.332684,0.207138,0.458229h-1.970877c-0.108791-0.284398-0.175703-0.62329-0.200832-1.016776
			c-0.025129-0.393289-0.062773-0.769923-0.11293-1.129806c-0.06711-0.468575-0.209309-0.811607-0.426794-1.029389
			c-0.217783-0.217486-0.573328-0.326377-1.067034-0.326377h-1.970877v3.502348h-1.970779v-8.96286H24.407513z M23.704599,9.059884
			c0.451824,0,0.790813-0.100416,1.016775-0.301249s0.338892-0.527209,0.338892-0.979132
			c0-0.435071-0.11293-0.751003-0.338892-0.947795c-0.225962-0.196496-0.564951-0.294941-1.016775-0.294941h-2.159195v2.523117
			H23.704599z"/>
	</g>
	<g>
		<path class="text-fill" d="M34.726532,4.997314l3.504513,8.968973h-1.31889l-0.979706-2.700476h-3.79369l-1.004843,2.700476h-1.218618
			l3.492077-8.968973H34.726532z M35.555431,10.26043l-1.494827-4.182602h-0.025135l-1.519962,4.182602H35.555431z"/>
		<path class="text-fill" d="M42.594837,4.997314c0.904572,0,1.589149,0.232427,2.054005,0.69728c0.464581,0.464854,0.69701,1.116189,0.69701,1.953466
			s-0.23243,1.490234-0.69701,1.959413c-0.464855,0.469177-1.149433,0.699442-2.054005,0.690794h-2.738316v3.668019H38.66304
			V4.997314H42.594837z M42.192955,9.293427c0.67836,0.008648,1.174564-0.129726,1.488609-0.414584
			c0.314049-0.284318,0.471073-0.695119,0.471073-1.230782c0-0.536203-0.157024-0.944302-0.471073-1.224835
			c-0.314045-0.280534-0.810249-0.421071-1.488609-0.421071h-2.336433v3.291272H42.192955z"/>
		<path class="text-fill" d="M47.08794,4.997314v8.968973h-1.193481V4.997314H47.08794z"/>
		<path class="text-fill" d="M27.842607,9.014578h2.604185v0.934445h-2.604185V9.014578z"/>
	</g>
</g>
<g>
	<rect x="0.000288" y="-0.000509" class="st0" width="47.304001" height="16.74"/>
</g>
</svg>
