<?xml version="1.0" encoding="iso-8859-1"?>
<!-- Generator: Adobe Illustrator 16.0.0, SVG Export Plug-In . SVG Version: 6.00 Build 0)  -->
<!DOCTYPE svg PUBLIC "-//W3C//DTD SVG 1.1//EN" "http://www.w3.org/Graphics/SVG/1.1/DTD/svg11.dtd">
<svg version="1.1" id="art_blk" xmlns="http://www.w3.org/2000/svg" xmlns:xlink="http://www.w3.org/1999/xlink" x="0px" y="0px"
	 width="40.375px" height="40.375px" viewBox="0 0 40.375 40.375" enable-background="new 0 0 40.375 40.375" xml:space="preserve">
<g>
	<polygon fill="#1C2021" points="34.606,34.076 18.606,34.076 18.606,33.076 33.606,33.076 33.606,8.909 34.606,8.909 	"/>
	<g>
		<rect x="18.676" y="27.479" fill="#1C2021" width="1" height="2.25"/>
		<rect x="18.676" y="9.062" fill="#1C2021" width="1" height="3"/>
		<rect x="29.342" y="26.729" fill="#1C2021" width="1" height="3"/>
		<rect x="29.342" y="9.062" fill="#1C2021" width="1" height="3"/>
	</g>
	<path fill="#1C2021" d="M16.258,6.562v4.136H13.62l-4.875,5.335H4.768v9.167h5.882l4.19,1.12l1.418,0.003v5.906h16.5V6.562H16.258z
		 M15.035,25.336l-4.19-1.12l-5.076-0.017v-7.167h3.417l4.875-5.335h2.197v2.898h0.001h9.438c0.644,0,1.167,0.523,1.167,1.166
		c0,0.158-0.034,0.29-0.081,0.407c-0.012,0.03-0.027,0.055-0.041,0.083c-0.041,0.081-0.086,0.155-0.136,0.213
		c-0.016,0.019-0.032,0.04-0.048,0.056c-0.049,0.051-0.097,0.093-0.138,0.124c-0.014,0.01-0.032,0.026-0.043,0.034
		c0,0-0.001,0-0.001,0h-5.904v1h3.837h2.205h0.432c0.781,0,1.417,0.635,1.417,1.416s-0.636,1.416-1.417,1.416l-0.432-0.004v-0.016
		H20.94v1h5.23c0.027,0.049,0.053,0.117,0.078,0.184c0.008,0.023,0.018,0.042,0.025,0.067c0.027,0.092,0.047,0.195,0.047,0.312
		c0,0.643-0.574,1.143-1.148,1.148l-5.013,0.008v1h3.935c0.01,0.044,0.021,0.092,0.028,0.129c0.053,0.267,0.01,0.487-0.128,0.656
		c-0.174,0.213-0.493,0.34-0.853,0.34h-6.883H15.035z M31.758,31.229h-14.5v-4.893h5.883c0.666,0,1.258-0.258,1.626-0.706
		c0.222-0.271,0.458-0.729,0.349-1.409h0.038c1.194,0,2.166-0.972,2.166-2.166c0-0.206-0.03-0.395-0.076-0.562
		c1.192-0.148,2.118-1.167,2.118-2.397c0-1.102-0.742-2.034-1.753-2.323c0.147-0.267,0.254-0.601,0.254-1.011
		c0-1.194-0.972-2.166-2.167-2.166h-8.438V7.562h14.5V31.229z"/>
</g>
</svg>
