<?xml version="1.0" encoding="iso-8859-1"?>
<!-- Generator: Adobe Illustrator 16.0.0, SVG Export Plug-In . SVG Version: 6.00 Build 0)  -->
<!DOCTYPE svg PUBLIC "-//W3C//DTD SVG 1.1//EN" "http://www.w3.org/Graphics/SVG/1.1/DTD/svg11.dtd">
<svg version="1.1" id="art_blk" xmlns="http://www.w3.org/2000/svg" xmlns:xlink="http://www.w3.org/1999/xlink" x="0px" y="0px"
	 width="40.375px" height="40.375px" viewBox="0 0 40.375 40.375" enable-background="new 0 0 40.375 40.375" xml:space="preserve">
<g>
	<path fill="#1C2021" d="M33.191,13.315L24.41,4.504l-0.16,0.002H9.501v29.089h23.687h0.002V13.457l-0.001-0.001L33.191,13.315z
		 M24.708,6.23l6.763,6.774h-6.763V6.23z M32.189,32.595H10.501V5.506h13.207v8.103l-0.001,0.396h0.001h8.481V32.595z"/>
	<rect x="14.441" y="18.619" fill="#1C2021" width="14" height="1.5"/>
	<rect x="14.441" y="22.952" fill="#1C2021" width="14" height="1.5"/>
	<rect x="14.441" y="27.285" fill="#1C2021" width="11.934" height="1.5"/>
	<polygon fill="#1C2021" points="8.355,7.526 7.355,7.535 7.355,35.615 30.378,35.615 30.387,34.615 8.355,34.615 	"/>
</g>
</svg>
