<?xml version="1.0" encoding="iso-8859-1"?>
<!-- Generator: Adobe Illustrator 16.0.0, SVG Export Plug-In . SVG Version: 6.00 Build 0)  -->
<!DOCTYPE svg PUBLIC "-//W3C//DTD SVG 1.1//EN" "http://www.w3.org/Graphics/SVG/1.1/DTD/svg11.dtd">
<svg version="1.1" id="art_blk" xmlns="http://www.w3.org/2000/svg" xmlns:xlink="http://www.w3.org/1999/xlink" x="0px" y="0px"
	 width="40.375px" height="40.375px" viewBox="0 0 40.375 40.375" enable-background="new 0 0 40.375 40.375" xml:space="preserve">
<g>
	<g>
		<path fill="#FFFFFF" d="M30.708,28.412l-0.948-0.959c-1.836-1.858-5.158-2.882-9.353-2.882s-7.517,1.023-9.353,2.882l-0.948,0.959
			l0.007-1.349c0.026-5.635,2.901-8.592,4.135-9.602l0.696,0.852c-1.021,0.835-3.286,3.155-3.674,7.517
			c2.122-1.529,5.304-2.358,9.137-2.358c3.83,0,7.011,0.828,9.133,2.355c-0.435-4.554-3.046-7.04-3.893-7.733l0.696-0.852
			c1.016,0.831,4.331,3.993,4.358,9.821L30.708,28.412z"/>
	</g>
	<g>
		<g>
			<g>
				<rect x="7.031" y="22.115" fill="#FFFFFF" width="1.1" height="11.418"/>
			</g>
			<g>
				<rect x="5.031" y="22.115" fill="#FFFFFF" width="1.1" height="11.418"/>
			</g>
		</g>
		<g>
			<rect x="4.72" y="20.588" fill="#FFFFFF" width="3.75" height="1.1"/>
		</g>
		<g>
			<path fill="#FFFFFF" d="M6.539,21.687c-0.304,0-0.55-0.247-0.55-0.55v-4.843c0-0.304,0.246-0.55,0.55-0.55s0.55,0.246,0.55,0.55
				v4.843C7.089,21.44,6.843,21.687,6.539,21.687z"/>
		</g>
	</g>
	<g>
		<path fill="#FFFFFF" d="M19.991,20.188l-19.279-5.8l19.279-5.799l19.281,5.799L19.991,20.188z M4.53,14.388l15.461,4.651
			l15.462-4.651l-15.462-4.65L4.53,14.388z"/>
	</g>
</g>
</svg>
