<?xml version="1.0" encoding="iso-8859-1"?>
<!-- Generator: Adobe Illustrator 16.0.0, SVG Export Plug-In . SVG Version: 6.00 Build 0)  -->
<!DOCTYPE svg PUBLIC "-//W3C//DTD SVG 1.1//EN" "http://www.w3.org/Graphics/SVG/1.1/DTD/svg11.dtd">
<svg version="1.1" id="art_blk" xmlns="http://www.w3.org/2000/svg" xmlns:xlink="http://www.w3.org/1999/xlink" x="0px" y="0px"
	 width="40.375px" height="40.375px" viewBox="0 0 40.375 40.375" enable-background="new 0 0 40.375 40.375" xml:space="preserve">
<path fill="#1C2021" d="M31.704,28.672v-22.5H11.037v0.021C9.356,6.3,8.444,8.068,8.444,9.735v21.375h0.019
	c0.03,0.591,0.189,1.177,0.489,1.684c0.528,0.891,1.372,1.379,2.374,1.379c0.015,0,0.03,0,0.045,0.001h20.167v-1h-1.016v-4.501
	H31.704z M12.037,7.172h18.667v20.5H12.037V7.172z M11.037,7.198v20.533c-0.623,0.091-1.167,0.331-1.593,0.732V9.735
	C9.444,8.543,10.04,7.316,11.037,7.198z M29.521,33.173h-18.16c-0.01,0-0.02,0-0.03,0c-0.821,0-1.279-0.481-1.52-0.889
	c-0.464-0.785-0.481-1.873-0.042-2.646c0.249-0.439,0.758-0.964,1.768-0.967h17.983V33.173z"/>
</svg>
