<?xml version="1.0" encoding="iso-8859-1"?>
<!-- Generator: Adobe Illustrator 16.0.0, SVG Export Plug-In . SVG Version: 6.00 Build 0)  -->
<!DOCTYPE svg PUBLIC "-//W3C//DTD SVG 1.1//EN" "http://www.w3.org/Graphics/SVG/1.1/DTD/svg11.dtd">
<svg version="1.1" id="art_blk" xmlns="http://www.w3.org/2000/svg" xmlns:xlink="http://www.w3.org/1999/xlink" x="0px" y="0px"
	 width="40.375px" height="40.375px" viewBox="0 0 40.375 40.375" enable-background="new 0 0 40.375 40.375" xml:space="preserve">
<g>
	<path fill="#FFFFFF" d="M20.238,21.487c-4.633,0-8.401-3.769-8.401-8.402c0-4.632,3.769-8.4,8.401-8.4
		c4.632,0,8.401,3.768,8.401,8.4C28.639,17.718,24.87,21.487,20.238,21.487z M20.238,5.784c-4.026,0-7.302,3.275-7.302,7.301
		c0,4.026,3.276,7.302,7.302,7.302s7.301-3.276,7.301-7.302C27.539,9.06,24.264,5.784,20.238,5.784z"/>
</g>
<g>
	<polygon fill="#FFFFFF" points="20.147,37.796 15.305,24.974 8.531,26.669 8.531,34.573 7.431,34.573 7.431,25.81 15.989,23.669 
		20.147,34.683 24.305,23.669 32.863,25.81 32.863,34.573 31.763,34.573 31.763,26.669 24.989,24.974 	"/>
</g>
</svg>
