<?xml version="1.0" encoding="iso-8859-1"?>
<!-- Generator: Adobe Illustrator 16.0.0, SVG Export Plug-In . SVG Version: 6.00 Build 0)  -->
<!DOCTYPE svg PUBLIC "-//W3C//DTD SVG 1.1//EN" "http://www.w3.org/Graphics/SVG/1.1/DTD/svg11.dtd">
<svg version="1.1" id="art_blk" xmlns="http://www.w3.org/2000/svg" xmlns:xlink="http://www.w3.org/1999/xlink" x="0px" y="0px"
	 width="40.375px" height="40.375px" viewBox="0 0 40.375 40.375" enable-background="new 0 0 40.375 40.375" xml:space="preserve">
<g>
	<path fill="#231F20" d="M7.896,5.198h-1v3.333h-1.75v12.5h1.75v10.334h1V21.031h1.75v-12.5h-1.75V5.198z M8.646,20.031h-2.5v-10.5
		h2.5V20.031z"/>
	<path fill="#231F20" d="M14.334,9.136h-1v3.896h-1.75v12.5h1.75v7.354h1v-7.354h1.75v-12.5h-1.75V9.136z M15.084,24.531h-2.5v-10.5
		h2.5V24.531z"/>
	<path fill="#231F20" d="M20.771,5.011h-1v6.646h-1.75v12.5h1.75v4.542h1v-4.542h1.75v-12.5h-1.75V5.011z M21.521,23.156h-2.5v-10.5
		h2.5V23.156z"/>
	<path fill="#231F20" d="M27.209,11.198h-1v7.646h-1.75v12.5h1.75v3.729h1v-3.729h1.75v-12.5h-1.75V11.198z M27.959,30.344h-2.5
		v-10.5h2.5V30.344z"/>
	<path fill="#231F20" d="M35.396,13.156h-1.75v-2.521h-1v2.521h-1.75v12.5h1.75v7.229h1v-7.229h1.75V13.156z M34.396,24.656h-2.5
		v-10.5h2.5V24.656z"/>
</g>
</svg>
