<?xml version="1.0" encoding="iso-8859-1"?>
<!-- Generator: Adobe Illustrator 16.0.0, SVG Export Plug-In . SVG Version: 6.00 Build 0)  -->
<!DOCTYPE svg PUBLIC "-//W3C//DTD SVG 1.1//EN" "http://www.w3.org/Graphics/SVG/1.1/DTD/svg11.dtd">
<svg version="1.1" id="art_blk" xmlns="http://www.w3.org/2000/svg" xmlns:xlink="http://www.w3.org/1999/xlink" x="0px" y="0px"
	 width="40.375px" height="40.375px" viewBox="0 0 40.375 40.375" enable-background="new 0 0 40.375 40.375" xml:space="preserve">
<path fill="#231F20" d="M30.59,26.7c-1.08,0-2.036,0.497-2.685,1.262l-6.644-4.077c0.418-0.765,0.678-1.628,0.678-2.56
	c0-0.842-0.212-1.629-0.558-2.339l6.495-3.987c0.648,0.785,1.617,1.297,2.713,1.297c1.95,0,3.535-1.586,3.536-3.536
	c0-1.95-1.586-3.535-3.536-3.535c-1.949,0-3.535,1.586-3.535,3.535c0,0.464,0.096,0.905,0.259,1.311l-6.505,3.994
	c-0.984-1.278-2.512-2.116-4.245-2.116c-0.398,0-0.784,0.051-1.159,0.133l-1.41-3.79c1.082-0.605,1.824-1.749,1.824-3.075
	c0-1.95-1.586-3.536-3.536-3.536c-1.951,0-3.537,1.586-3.537,3.536c0,1.95,1.587,3.536,3.537,3.536c0.239,0,0.471-0.025,0.697-0.07
	l1.394,3.743c-1.874,0.841-3.187,2.716-3.187,4.9c0,1.645,0.758,3.101,1.926,4.087l-1.955,2.419
	c-0.502-0.274-1.069-0.444-1.681-0.444c-1.95,0-3.535,1.586-3.535,3.535s1.586,3.534,3.535,3.534c1.95,0,3.537-1.585,3.537-3.534
	c0-0.946-0.379-1.802-0.987-2.438l1.986-2.457c0.763,0.415,1.623,0.673,2.55,0.673c1.642,0,3.095-0.755,4.082-1.919l6.68,4.101
	c-0.174,0.417-0.271,0.873-0.271,1.353c0,1.949,1.586,3.535,3.535,3.535c1.95,0,3.536-1.586,3.536-3.535S32.54,26.7,30.59,26.7z
	 M30.59,10.313c1.35,0,2.449,1.098,2.449,2.448c0,1.35-1.1,2.449-2.449,2.449s-2.449-1.099-2.449-2.449
	C28.141,11.411,29.24,10.313,30.59,10.313z M9.833,9.218c0-1.35,1.099-2.449,2.45-2.449c1.35,0,2.449,1.099,2.449,2.449
	c0,1.35-1.099,2.449-2.449,2.449C10.932,11.667,9.833,10.568,9.833,9.218z M9.477,33.37c-1.35,0-2.448-1.099-2.448-2.448
	s1.098-2.449,2.448-2.449s2.449,1.098,2.45,2.449C11.927,32.271,10.828,33.37,9.477,33.37z M16.564,25.615
	c-2.366,0-4.291-1.924-4.291-4.289c0-2.366,1.925-4.291,4.291-4.291c2.365,0,4.29,1.924,4.29,4.291
	C20.854,23.691,18.929,25.615,16.564,25.615z M30.59,32.682c-1.35,0-2.449-1.098-2.449-2.449c0-1.349,1.1-2.447,2.449-2.447
	s2.449,1.099,2.449,2.447C33.039,31.583,31.939,32.682,30.59,32.682z"/>
</svg>
