<?xml version="1.0" encoding="iso-8859-1"?>
<!-- Generator: Adobe Illustrator 16.0.0, SVG Export Plug-In . SVG Version: 6.00 Build 0)  -->
<!DOCTYPE svg PUBLIC "-//W3C//DTD SVG 1.1//EN" "http://www.w3.org/Graphics/SVG/1.1/DTD/svg11.dtd">
<svg version="1.1" id="art_blk" xmlns="http://www.w3.org/2000/svg" xmlns:xlink="http://www.w3.org/1999/xlink" x="0px" y="0px"
	 width="40.375px" height="40.375px" viewBox="0 0 40.375 40.375" enable-background="new 0 0 40.375 40.375" xml:space="preserve">
<g>
	<path fill="#1C2021" d="M36.492,27.225H7.689V8.753h28.803V27.225z M8.689,26.225h26.803V9.753H8.689V26.225z"/>
	<polygon fill="#1C2021" points="33.908,29.307 5.607,29.307 5.607,11.335 6.607,11.335 6.607,28.307 33.908,28.307 	"/>
	<polygon fill="#1C2021" points="31.853,31.361 3.55,31.361 3.55,13.391 4.55,13.391 4.55,30.361 31.853,30.361 	"/>
	<path fill="#1C2021" d="M22.089,21.777c-2.088,0-3.787-1.7-3.787-3.789c0-2.088,1.699-3.787,3.787-3.787s3.787,1.699,3.787,3.787
		C25.876,20.078,24.178,21.777,22.089,21.777z M22.089,15.201c-1.537,0-2.787,1.25-2.787,2.787c0,1.538,1.25,2.789,2.787,2.789
		s2.787-1.251,2.787-2.789C24.876,16.452,23.626,15.201,22.089,15.201z"/>
	<g>
		<rect x="10.443" y="11.478" fill="#1C2021" width="3.381" height="1"/>
		<rect x="30.355" y="11.478" fill="#1C2021" width="3.381" height="1"/>
		<rect x="10.443" y="23.5" fill="#1C2021" width="3.381" height="1"/>
		<rect x="30.355" y="23.5" fill="#1C2021" width="3.381" height="1"/>
	</g>
</g>
</svg>
