<?xml version="1.0" encoding="iso-8859-1"?>
<!-- Generator: Adobe Illustrator 16.0.0, SVG Export Plug-In . SVG Version: 6.00 Build 0)  -->
<!DOCTYPE svg PUBLIC "-//W3C//DTD SVG 1.1//EN" "http://www.w3.org/Graphics/SVG/1.1/DTD/svg11.dtd">
<svg version="1.1" id="art_blk" xmlns="http://www.w3.org/2000/svg" xmlns:xlink="http://www.w3.org/1999/xlink" x="0px" y="0px"
	 width="40.375px" height="40.375px" viewBox="0 0 40.375 40.375" enable-background="new 0 0 40.375 40.375" xml:space="preserve">
<path fill="#231F20" d="M32.262,8.377c-3.419-1.786-8.677-2.721-12.104-2.721c-3.427,0-8.685,0.935-12.104,2.721L7.759,8.531v11.058
	c0,4.563,3.322,12.856,12.234,15.681l0.166,0.053l0.165-0.053c8.912-2.822,12.232-11.117,12.232-15.681V8.531L32.262,8.377z
	 M20.159,6.756c3.116,0,8.062,0.856,11.3,2.446v4.313c-3.369-0.728-8.12-1.111-11.3-1.111s-7.931,0.384-11.3,1.111V9.202
	C12.098,7.612,17.043,6.756,20.159,6.756z M20.159,34.167c-8.228-2.694-11.3-10.353-11.3-14.578v-4.95
	c3.297-0.744,8.105-1.136,11.3-1.136c3.194,0,8.002,0.393,11.3,1.137v4.949C31.459,23.812,28.387,31.473,20.159,34.167z"/>
</svg>
