<?xml version="1.0" encoding="iso-8859-1"?>
<!-- Generator: Adobe Illustrator 16.0.0, SVG Export Plug-In . SVG Version: 6.00 Build 0)  -->
<!DOCTYPE svg PUBLIC "-//W3C//DTD SVG 1.1//EN" "http://www.w3.org/Graphics/SVG/1.1/DTD/svg11.dtd">
<svg version="1.1" id="art_blk" xmlns="http://www.w3.org/2000/svg" xmlns:xlink="http://www.w3.org/1999/xlink" x="0px" y="0px"
	 width="40.375px" height="40.375px" viewBox="0 0 40.375 40.375" enable-background="new 0 0 40.375 40.375" xml:space="preserve">
<g>
	<path fill="#231F20" d="M33.338,27.47H6.848V8.904h26.49V27.47z M7.848,26.47h24.49V9.904H7.848V26.47z"/>
</g>
<g>
	<rect x="4.78" y="30.741" fill="#231F20" width="30.625" height="1"/>
</g>
<g>
	<polygon fill="#231F20" points="30.729,25.184 9.142,25.184 9.142,11.35 10.142,11.35 10.142,24.184 30.729,24.184 	"/>
</g>
<g>
	<rect x="31.732" y="28.762" fill="#231F20" width="3.303" height="1"/>
</g>
<g>
	<rect x="15.335" y="28.762" fill="#231F20" width="9.514" height="1"/>
</g>
<g>
	<rect x="28.782" y="28.762" fill="#231F20" width="1.982" height="1"/>
</g>
<g>
	<rect x="25.92" y="28.762" fill="#231F20" width="1.981" height="1"/>
</g>
<g>
	<rect x="12.31" y="28.762" fill="#231F20" width="1.982" height="1"/>
</g>
<g>
	<rect x="9.447" y="28.762" fill="#231F20" width="1.982" height="1"/>
</g>
<g>
	<rect x="5.175" y="28.762" fill="#231F20" width="3.349" height="1"/>
</g>
</svg>
