<?xml version="1.0" encoding="iso-8859-1"?>
<!-- Generator: Adobe Illustrator 16.0.0, SVG Export Plug-In . SVG Version: 6.00 Build 0)  -->
<!DOCTYPE svg PUBLIC "-//W3C//DTD SVG 1.1//EN" "http://www.w3.org/Graphics/SVG/1.1/DTD/svg11.dtd">
<svg version="1.1" id="art_blk" xmlns="http://www.w3.org/2000/svg" xmlns:xlink="http://www.w3.org/1999/xlink" x="0px" y="0px"
	 width="40.375px" height="40.375px" viewBox="0 0 40.375 40.375" enable-background="new 0 0 40.375 40.375" xml:space="preserve">
<g>
	<path fill="#FFFFFF" d="M32.522,18.523c0-6.904-5.596-12.499-12.5-12.499c-6.903,0-12.5,5.595-12.5,12.499v5.082h0.035
		c-0.01,0.139-0.021,0.277-0.021,0.42c0,3.312,2.668,5.998,5.961,5.998h0.025V18.025h-0.025c-2.08,0-3.908,1.074-4.975,2.697v-2.199
		c0-6.341,5.159-11.499,11.5-11.499c6.342,0,11.5,5.157,11.5,11.499v2.176c-1.07-1.613-2.896-2.678-4.973-2.678h-0.027v12.002h0.027
		c0.494,0,0.973-0.068,1.433-0.182c-1.493,1.434-3.368,2.465-5.46,2.932v-1.75h-5v3h5v-0.234c3.182-0.648,5.92-2.494,7.723-5.059
		c1.385-1.1,2.277-2.797,2.277-4.709c0-0.141-0.012-0.277-0.021-0.416h0.021V18.523z M12.522,19.123v9.803
		c-2.27-0.457-3.986-2.48-3.986-4.9C8.536,21.604,10.252,19.58,12.522,19.123z M21.522,33.023h-3v-1h3V33.023z M27.522,28.924
		v-9.807c2.278,0.457,4,2.482,4,4.904C31.522,26.438,29.809,28.459,27.522,28.924z"/>
</g>
</svg>
