<?xml version="1.0" encoding="iso-8859-1"?>
<!-- Generator: Adobe Illustrator 16.0.0, SVG Export Plug-In . SVG Version: 6.00 Build 0)  -->
<!DOCTYPE svg PUBLIC "-//W3C//DTD SVG 1.1//EN" "http://www.w3.org/Graphics/SVG/1.1/DTD/svg11.dtd">
<svg version="1.1" id="art_blk" xmlns="http://www.w3.org/2000/svg" xmlns:xlink="http://www.w3.org/1999/xlink" x="0px" y="0px"
	 width="40.375px" height="40.375px" viewBox="0 0 40.375 40.375" enable-background="new 0 0 40.375 40.375" xml:space="preserve">
<g>
	<path fill="#FFFFFF" d="M16.564,26.7c-2.965,0-5.377-2.411-5.377-5.375c0-2.965,2.412-5.377,5.377-5.377
		c2.964,0,5.375,2.412,5.375,5.377C21.94,24.289,19.528,26.7,16.564,26.7z M16.564,17.035c-2.366,0-4.291,1.925-4.291,4.291
		c0,2.365,1.925,4.289,4.291,4.289c2.365,0,4.289-1.924,4.289-4.289C20.853,18.959,18.929,17.035,16.564,17.035z"/>
	<path fill="#FFFFFF" d="M30.59,16.296c-1.95,0-3.536-1.586-3.536-3.536c0-1.949,1.586-3.535,3.536-3.535s3.536,1.585,3.536,3.535
		C34.125,14.71,32.54,16.296,30.59,16.296z M30.59,10.313c-1.35,0-2.449,1.098-2.449,2.448c0,1.35,1.099,2.449,2.449,2.449
		s2.449-1.099,2.449-2.449C33.039,11.411,31.94,10.313,30.59,10.313z"/>
	<path fill="#FFFFFF" d="M12.283,12.753c-1.95,0-3.537-1.586-3.537-3.536s1.586-3.536,3.537-3.536c1.95,0,3.536,1.586,3.536,3.536
		S14.233,12.753,12.283,12.753z M12.283,6.769c-1.351,0-2.45,1.099-2.45,2.449s1.099,2.449,2.45,2.449
		c1.35,0,2.449-1.099,2.449-2.449S13.633,6.769,12.283,6.769z"/>
	<path fill="#FFFFFF" d="M30.59,33.769c-1.95,0-3.536-1.586-3.536-3.535s1.586-3.534,3.536-3.534s3.536,1.585,3.536,3.534
		S32.54,33.769,30.59,33.769z M30.59,27.785c-1.35,0-2.449,1.099-2.449,2.448c0,1.351,1.099,2.449,2.449,2.449
		s2.449-1.099,2.449-2.449C33.039,28.884,31.94,27.785,30.59,27.785z"/>
	<path fill="#FFFFFF" d="M9.477,34.456c-1.949,0-3.535-1.585-3.535-3.534s1.585-3.535,3.535-3.535c1.95,0,3.537,1.586,3.537,3.535
		S11.427,34.456,9.477,34.456z M9.477,28.473c-1.35,0-2.448,1.099-2.448,2.449c0,1.35,1.098,2.448,2.448,2.448
		c1.351,0,2.45-1.099,2.45-2.448C11.926,29.571,10.827,28.473,9.477,28.473z"/>
	
		<rect x="23.809" y="12.151" transform="matrix(0.5232 0.8522 -0.8522 0.5232 25.6948 -12.8735)" fill="#FFFFFF" width="1.086" height="8.749"/>
	
		<rect x="19.978" y="25.875" transform="matrix(0.8523 0.5231 -0.5231 0.8523 17.4162 -8.8358)" fill="#FFFFFF" width="8.748" height="1.086"/>
	
		<rect x="12.047" y="24.945" transform="matrix(0.7777 0.6286 -0.6286 0.7777 19.7233 -1.9298)" fill="#FFFFFF" width="1.087" height="3.955"/>
	
		<rect x="11.662" y="13.86" transform="matrix(0.3489 0.9372 -0.9372 0.3489 22.7452 -3.931)" fill="#FFFFFF" width="5.08" height="1.087"/>
</g>
</svg>
