<?xml version="1.0" encoding="iso-8859-1"?>
<!-- Generator: Adobe Illustrator 24.1.0, SVG Export Plug-In . SVG Version: 6.00 Build 0)  -->
<svg version="1.1" xmlns="http://www.w3.org/2000/svg" xmlns:xlink="http://www.w3.org/1999/xlink" x="0px" y="0px"
	 viewBox="0 0 40.375 40.375" enable-background="new 0 0 40.375 40.375" xml:space="preserve">
<g id="back" display="none">
	<rect display="inline" fill="#929497" width="40.375" height="40.375"/>
</g>
<g id="grid">
</g>
<g id="art_blk">
	<path fill="#1C2021" d="M32.265,12.225H6.498V7.958h25.767V12.225z M7.598,11.125h23.567V9.058H7.598V11.125z"/>
	<path fill="#1C2021" d="M32.265,18.975H6.498v-4.266h25.767V18.975z M7.598,17.875h23.567v-2.067H7.598V17.875z"/>
	<path fill="#1C2021" d="M18.848,25.725H6.498v-4.267h12.35V25.725z M7.598,24.625h10.15v-2.067H7.598V24.625z"/>
	<polygon fill="#1C2021" points="27.653,30.967 24.519,26.882 25.629,26.03 27.698,28.727 33.843,21.354 34.918,22.251 	"/>
	<path fill="#1C2021" d="M32.656,26.874c0.112,0.418,0.191,0.849,0.191,1.301c0,2.784-2.266,5.05-5.05,5.05
		c-2.784,0-5.05-2.266-5.05-5.05s2.266-5.05,5.05-5.05c0.948,0,1.826,0.279,2.585,0.735l0.927-1.088
		c-1.012-0.66-2.217-1.047-3.512-1.047c-3.557,0-6.45,2.894-6.45,6.45s2.894,6.45,6.45,6.45c3.557,0,6.45-2.894,6.45-6.45
		c0-0.896-0.184-1.749-0.515-2.524L32.656,26.874z"/>
</g>
</svg>
