<?xml version="1.0" encoding="iso-8859-1"?>
<!-- Generator: Adobe Illustrator 16.0.0, SVG Export Plug-In . SVG Version: 6.00 Build 0)  -->
<!DOCTYPE svg PUBLIC "-//W3C//DTD SVG 1.1//EN" "http://www.w3.org/Graphics/SVG/1.1/DTD/svg11.dtd">
<svg version="1.1" id="Layer_1" xmlns="http://www.w3.org/2000/svg" xmlns:xlink="http://www.w3.org/1999/xlink" x="0px" y="0px"
	 width="40.375px" height="40.375px" viewBox="0 0 40.375 40.375" enable-background="new 0 0 40.375 40.375" xml:space="preserve">
<g id="art_blk">
	<g>
		<rect x="14.095" y="16.702" fill="#231F20" width="12" height="1"/>
		<rect x="14.095" y="20.702" fill="#231F20" width="12" height="1"/>
		<rect x="14.095" y="24.703" fill="#231F20" width="8" height="1"/>
		<path fill="#231F20" d="M23.096,6.702c0-1.656-1.344-3-3-3c-1.656,0-3,1.344-3,3h-9v28.001h24V6.702H23.096z M18.095,8.999V8.417
			V6.702c0-1.102,0.898-2,2-2c1.104,0,2,0.898,2,2v1.715v0.582l0.506,0.287c0.981,0.559,1.733,1.408,2.168,2.416h-9.347
			c0.432-1.008,1.186-1.857,2.167-2.416L18.095,8.999z M31.096,33.703h-22V7.702h8v0.715c-1.561,0.889-2.691,2.447-3,4.285h12
			c-0.308-1.839-1.438-3.396-3-4.285V7.702h8V33.703z"/>
	</g>
</g>
</svg>
