<?xml version="1.0" encoding="utf-8"?>
<!-- Generator: Adobe Illustrator 24.1.2, SVG Export Plug-In . SVG Version: 6.00 Build 0)  -->
<svg version="1.1" id="New" xmlns="http://www.w3.org/2000/svg" xmlns:xlink="http://www.w3.org/1999/xlink" x="0px" y="0px"
	 viewBox="0 0 400.1 71" style="enable-background:new 0 0 400.1 71;" xml:space="preserve">
<style type="text/css">
	.st0{fill:#FFFFFF;}
	.st1{fill:url(#SVGID_1_);}
	.st2{fill:#D61F27;}
	.st3{fill:url(#SVGID_2_);}
</style>
<g>
	<path class="st0" d="M55.8,66.9h-6.3V36.6h6.3V66.9z"/>
	<path class="st0" d="M79.3,45.8c1.5,1.2,2.2,3.2,2.2,6v15.1h-6V53.3c0-1.2-0.2-2.1-0.5-2.7c-0.6-1.1-1.7-1.7-3.3-1.7
		c-2,0-3.3,0.8-4.1,2.5c-0.4,0.9-0.6,2-0.6,3.4v12.1h-5.8V44.6H67v3.3c0.7-1.1,1.5-2,2.1-2.5c1.2-0.9,2.7-1.4,4.6-1.4
		C76,44,77.9,44.6,79.3,45.8z"/>
	<path class="st0" d="M84.3,48.9v-4.2h3.1v-6.2h5.8v6.2h3.6v4.2h-3.6v11.8c0,0.9,0.1,1.5,0.3,1.7c0.2,0.2,0.9,0.3,2.1,0.3
		c0.2,0,0.4,0,0.6,0s0.4,0,0.6,0v4.4L94,67.2c-2.8,0.1-4.7-0.4-5.7-1.4c-0.7-0.7-1-1.7-1-3.1V48.9H84.3z"/>
	<path class="st0" d="M114.9,45c1.6,0.7,2.8,1.8,3.9,3.3c0.9,1.3,1.5,2.9,1.8,4.6c0.2,1,0.2,2.5,0.2,4.4h-16.3
		c0.1,2.2,0.9,3.8,2.3,4.7c0.9,0.6,2,0.8,3.2,0.8c1.3,0,2.4-0.3,3.2-1c0.5-0.4,0.9-0.9,1.2-1.5h6c-0.2,1.3-0.9,2.7-2.2,4
		c-2,2.2-4.8,3.3-8.4,3.3c-3,0-5.6-0.9-7.9-2.8c-2.3-1.8-3.4-4.8-3.4-9c0-3.9,1-6.8,3.1-8.9c2.1-2.1,4.7-3.1,8-3.1
		C111.6,43.9,113.3,44.3,114.9,45z M106.1,50c-0.8,0.9-1.3,2-1.6,3.5h10.1c-0.1-1.6-0.6-2.7-1.6-3.5c-0.9-0.8-2.1-1.2-3.5-1.2
		C108.1,48.7,106.9,49.2,106.1,50z"/>
	<path class="st0" d="M136.6,44c0.1,0,0.2,0,0.5,0v6c-0.4,0-0.7-0.1-1-0.1s-0.5,0-0.7,0c-2.4,0-3.9,0.8-4.7,2.3
		c-0.4,0.9-0.7,2.2-0.7,4v10.7h-5.9V44.5h5.6v3.9c0.9-1.5,1.7-2.5,2.4-3.1c1.1-0.9,2.5-1.4,4.3-1.4C136.4,44,136.5,44,136.6,44z"/>
	<path class="st0" d="M149.3,53.3c1.1-0.1,1.9-0.3,2.3-0.5c0.8-0.4,1.3-0.9,1.3-1.7c0-0.9-0.3-1.5-1-1.9c-0.6-0.3-1.6-0.5-2.8-0.5
		c-1.4,0-2.4,0.3-3,1c-0.4,0.5-0.7,1.2-0.8,2.1h-5.6c0.1-2,0.7-3.6,1.6-4.8c1.6-2,4.2-3,8-3c2.5,0,4.6,0.5,6.6,1.5
		c1.9,1,2.9,2.8,2.9,5.5v10.3c0,0.7,0,1.6,0,2.6c0,0.8,0.2,1.3,0.3,1.6c0.2,0.3,0.5,0.5,0.9,0.7v0.9h-6.4c-0.2-0.5-0.3-0.9-0.4-1.3
		c-0.1-0.4-0.1-0.8-0.2-1.4c-0.8,0.9-1.7,1.6-2.8,2.2c-1.3,0.7-2.7,1.1-4.3,1.1c-2,0-3.7-0.6-5-1.7c-1.3-1.2-2-2.8-2-4.9
		c0-2.7,1.1-4.7,3.2-6c1.2-0.7,2.9-1.1,5.2-1.4L149.3,53.3z M152.8,56c-0.4,0.2-0.8,0.4-1.1,0.6c-0.4,0.1-0.9,0.3-1.6,0.4l-1.3,0.2
		c-1.2,0.2-2.1,0.5-2.7,0.8c-0.9,0.5-1.4,1.4-1.4,2.5c0,1,0.3,1.7,0.8,2.2c0.6,0.4,1.2,0.7,2.1,0.7c1.3,0,2.5-0.4,3.5-1.1
		c1.1-0.7,1.6-2.1,1.7-4V56z"/>
	<path class="st0" d="M177.1,52.5c-0.1-0.8-0.4-1.6-0.8-2.3c-0.7-0.9-1.7-1.4-3.1-1.4c-2,0-3.3,1-4.1,2.9c-0.4,1-0.6,2.4-0.6,4.1
		c0,1.6,0.2,3,0.6,4c0.7,1.9,2,2.8,3.9,2.8c1.4,0,2.3-0.4,2.9-1.1c0.6-0.7,0.9-1.7,1-2.9h6c-0.1,1.8-0.8,3.5-1.9,5
		c-1.8,2.6-4.6,3.8-8.2,3.8c-3.6,0-6.3-1.1-8-3.2s-2.5-4.9-2.5-8.3c0-3.8,0.9-6.8,2.8-9c1.9-2.1,4.5-3.2,7.8-3.2
		c2.8,0,5.1,0.6,6.9,1.9c1.8,1.3,2.8,3.5,3.2,6.7h-5.9V52.5z"/>
	<path class="st0" d="M184.9,48.9v-4.2h3.1v-6.2h5.8v6.2h3.6v4.2h-3.6v11.8c0,0.9,0.1,1.5,0.3,1.7s0.9,0.3,2.1,0.3
		c0.2,0,0.4,0,0.6,0c0.2,0,0.4,0,0.6,0v4.4l-2.8,0.1c-2.8,0.1-4.7-0.4-5.7-1.4c-0.7-0.7-1-1.7-1-3.1V48.9H184.9z"/>
	<path class="st0" d="M207.3,41.8h-5.9v-5.4h5.9V41.8z M201.3,44.5h5.9v22.4h-5.9V44.5z"/>
	<path class="st0" d="M226.3,44.5h6.3l-8.1,22.4h-6.2l-8-22.4h6.6l4.7,16.5L226.3,44.5z"/>
	<path class="st0" d="M249.7,45c1.6,0.7,2.8,1.8,3.9,3.3c0.9,1.3,1.5,2.9,1.8,4.6c0.2,1,0.2,2.5,0.2,4.4h-16.3
		c0.1,2.2,0.9,3.8,2.3,4.7c0.9,0.6,2,0.8,3.2,0.8c1.3,0,2.4-0.3,3.2-1c0.5-0.4,0.9-0.9,1.2-1.5h6c-0.2,1.3-0.9,2.7-2.2,4
		c-2,2.2-4.8,3.3-8.4,3.3c-3,0-5.6-0.9-7.9-2.8c-2.3-1.8-3.4-4.8-3.4-9c0-3.9,1-6.8,3.1-8.9c2.1-2.1,4.7-3.1,8-3.1
		C246.3,43.9,248.1,44.3,249.7,45z M240.9,50c-0.8,0.9-1.3,2-1.6,3.5h10.1c-0.1-1.6-0.6-2.7-1.6-3.5c-0.9-0.8-2.1-1.2-3.5-1.2
		C242.9,48.7,241.7,49.2,240.9,50z"/>
	<path class="st0" d="M259.4,36.7h13c3.6,0,6.1,1.1,7.6,3.2c0.9,1.2,1.3,2.7,1.3,4.3c0,1.9-0.5,3.5-1.6,4.7
		c-0.6,0.6-1.4,1.2-2.4,1.8c1.5,0.6,2.7,1.3,3.5,2c1.4,1.3,2,3.1,2,5.4c0,1.9-0.6,3.7-1.8,5.3c-1.8,2.4-4.7,3.5-8.7,3.5h-12.8V36.7
		H259.4z M270.9,49.5c1.7,0,3.1-0.2,4.1-0.7c1.5-0.8,2.3-2.1,2.3-4.1s-0.8-3.3-2.4-4c-0.9-0.4-2.3-0.6-4.1-0.6h-7.4v9.3L270.9,49.5
		L270.9,49.5z M272.3,63.4c2.5,0,4.3-0.7,5.4-2.2c0.7-0.9,1-2,1-3.3c0-2.2-1-3.7-3-4.5c-1.1-0.4-2.4-0.6-4.2-0.6h-8.2v10.6H272.3z"
		/>
	<path class="st0" d="M287.1,44.9h3.5v3.8c0.3-0.7,1-1.6,2.1-2.7c1.1-1.1,2.4-1.6,3.9-1.6c0.1,0,0.2,0,0.3,0c0.2,0,0.4,0,0.8,0.1
		v3.9c-0.2,0-0.4-0.1-0.6-0.1s-0.4,0-0.6,0c-1.9,0-3.3,0.6-4.3,1.8s-1.5,2.6-1.5,4.1v12.6H287V44.9H287.1z"/>
	<path class="st0" d="M316.6,47.1c1.9,1.9,2.9,4.7,2.9,8.3c0,3.5-0.9,6.5-2.6,8.8c-1.7,2.3-4.4,3.5-8,3.5c-3,0-5.4-1-7.2-3.1
		c-1.8-2-2.6-4.8-2.6-8.2c0-3.7,0.9-6.6,2.8-8.8s4.4-3.3,7.5-3.3C312.3,44.3,314.7,45.2,316.6,47.1z M314.4,61.7
		c0.9-1.9,1.3-3.9,1.3-6.2c0-2-0.3-3.7-1-5c-1-2-2.8-3-5.3-3c-2.2,0-3.9,0.9-4.9,2.6c-1,1.7-1.5,3.8-1.5,6.2c0,2.3,0.5,4.3,1.5,5.8
		c1,1.6,2.6,2.3,4.8,2.3C311.8,64.5,313.4,63.6,314.4,61.7z"/>
	<path class="st0" d="M323.7,36.7h3.5v17.5l9.5-9.3h4.7l-8.4,8.2l8.9,13.8h-4.7l-6.9-11.2l-3,2.9v8.2h-3.5V36.7H323.7z"/>
	<path class="st0" d="M357.3,45.5c1.5,0.7,2.6,1.7,3.3,2.8c0.7,1.1,1.2,2.4,1.5,3.9c0.2,1,0.3,2.6,0.3,4.8h-16
		c0.1,2.2,0.6,4,1.6,5.4s2.5,2,4.5,2c1.9,0,3.4-0.6,4.6-1.9c0.6-0.7,1.1-1.6,1.4-2.6h3.6c-0.1,0.8-0.4,1.7-1,2.7
		c-0.5,1-1.1,1.8-1.8,2.4c-1.1,1.1-2.5,1.8-4.1,2.2c-0.9,0.2-1.9,0.3-3,0.3c-2.7,0-5-1-6.9-3s-2.8-4.8-2.8-8.4c0-3.5,1-6.4,2.9-8.6
		c1.9-2.2,4.4-3.3,7.5-3.3C354.3,44.4,355.8,44.8,357.3,45.5z M358.6,54.1c-0.1-1.6-0.5-2.9-1-3.8c-1-1.8-2.7-2.7-5-2.7
		c-1.7,0-3.1,0.6-4.2,1.8s-1.7,2.8-1.8,4.7H358.6z"/>
	<path class="st0" d="M366.8,44.9h3.5v3.8c0.3-0.7,1-1.6,2.1-2.7c1.1-1.1,2.4-1.6,3.9-1.6c0.1,0,0.2,0,0.3,0c0.2,0,0.4,0,0.8,0.1
		v3.9c-0.2,0-0.4-0.1-0.6-0.1s-0.4,0-0.6,0c-1.9,0-3.3,0.6-4.3,1.8s-1.5,2.6-1.5,4.1v12.6h-3.7V44.9H366.8z"/>
	<path class="st0" d="M382.9,60c0.1,1.2,0.4,2.2,0.9,2.8c0.9,1.2,2.6,1.8,4.9,1.8c1.4,0,2.6-0.3,3.7-0.9s1.6-1.5,1.6-2.8
		c0-0.9-0.4-1.7-1.3-2.2c-0.5-0.3-1.6-0.6-3.2-1l-3-0.7c-1.9-0.5-3.3-1-4.2-1.6c-1.6-1-2.4-2.4-2.4-4.1c0-2.1,0.8-3.8,2.3-5
		c1.5-1.3,3.6-1.9,6.1-1.9c3.4,0,5.8,1,7.3,2.9c0.9,1.2,1.4,2.6,1.4,4h-3.5c-0.1-0.8-0.4-1.6-0.9-2.3c-0.9-1-2.4-1.4-4.5-1.4
		c-1.4,0-2.5,0.3-3.2,0.8s-1.1,1.2-1.1,2.1c0,1,0.5,1.7,1.4,2.3c0.6,0.3,1.4,0.6,2.5,0.9l2.5,0.6c2.7,0.6,4.5,1.3,5.4,1.9
		c1.4,0.9,2.2,2.4,2.2,4.5c0,2-0.8,3.6-2.3,5.1c-1.5,1.4-3.8,2.1-6.9,2.1c-3.3,0-5.7-0.7-7-2.2c-1.4-1.5-2.1-3.3-2.2-5.5h3.5V60z"/>
	<path class="st0" d="M55.8,66.9h-6.3V36.6h6.3V66.9z"/>
	<path class="st0" d="M79.3,45.8c1.5,1.2,2.2,3.2,2.2,6v15.1h-6V53.3c0-1.2-0.2-2.1-0.5-2.7c-0.6-1.1-1.7-1.7-3.3-1.7
		c-2,0-3.3,0.8-4.1,2.5c-0.4,0.9-0.6,2-0.6,3.4v12.1h-5.8V44.6H67v3.3c0.7-1.1,1.5-2,2.1-2.5c1.2-0.9,2.7-1.4,4.6-1.4
		C76,44,77.9,44.6,79.3,45.8z"/>
	<path class="st0" d="M84.3,48.9v-4.2h3.1v-6.2h5.8v6.2h3.6v4.2h-3.6v11.8c0,0.9,0.1,1.5,0.3,1.7c0.2,0.2,0.9,0.3,2.1,0.3
		c0.2,0,0.4,0,0.6,0s0.4,0,0.6,0v4.4L94,67.2c-2.8,0.1-4.7-0.4-5.7-1.4c-0.7-0.7-1-1.7-1-3.1V48.9H84.3z"/>
	<path class="st0" d="M114.9,45c1.6,0.7,2.8,1.8,3.9,3.3c0.9,1.3,1.5,2.9,1.8,4.6c0.2,1,0.2,2.5,0.2,4.4h-16.3
		c0.1,2.2,0.9,3.8,2.3,4.7c0.9,0.6,2,0.8,3.2,0.8c1.3,0,2.4-0.3,3.2-1c0.5-0.4,0.9-0.9,1.2-1.5h6c-0.2,1.3-0.9,2.7-2.2,4
		c-2,2.2-4.8,3.3-8.4,3.3c-3,0-5.6-0.9-7.9-2.8c-2.3-1.8-3.4-4.8-3.4-9c0-3.9,1-6.8,3.1-8.9c2.1-2.1,4.7-3.1,8-3.1
		C111.6,43.9,113.3,44.3,114.9,45z M106.1,50c-0.8,0.9-1.3,2-1.6,3.5h10.1c-0.1-1.6-0.6-2.7-1.6-3.5c-0.9-0.8-2.1-1.2-3.5-1.2
		C108.1,48.7,106.9,49.2,106.1,50z"/>
	<path class="st0" d="M136.6,44c0.1,0,0.2,0,0.5,0v6c-0.4,0-0.7-0.1-1-0.1s-0.5,0-0.7,0c-2.4,0-3.9,0.8-4.7,2.3
		c-0.4,0.9-0.7,2.2-0.7,4v10.7h-5.9V44.5h5.6v3.9c0.9-1.5,1.7-2.5,2.4-3.1c1.1-0.9,2.5-1.4,4.3-1.4C136.4,44,136.5,44,136.6,44z"/>
	<path class="st0" d="M149.3,53.3c1.1-0.1,1.9-0.3,2.3-0.5c0.8-0.4,1.3-0.9,1.3-1.7c0-0.9-0.3-1.5-1-1.9c-0.6-0.3-1.6-0.5-2.8-0.5
		c-1.4,0-2.4,0.3-3,1c-0.4,0.5-0.7,1.2-0.8,2.1h-5.6c0.1-2,0.7-3.6,1.6-4.8c1.6-2,4.2-3,8-3c2.5,0,4.6,0.5,6.6,1.5
		c1.9,1,2.9,2.8,2.9,5.5v10.3c0,0.7,0,1.6,0,2.6c0,0.8,0.2,1.3,0.3,1.6c0.2,0.3,0.5,0.5,0.9,0.7v0.9h-6.4c-0.2-0.5-0.3-0.9-0.4-1.3
		c-0.1-0.4-0.1-0.8-0.2-1.4c-0.8,0.9-1.7,1.6-2.8,2.2c-1.3,0.7-2.7,1.1-4.3,1.1c-2,0-3.7-0.6-5-1.7c-1.3-1.2-2-2.8-2-4.9
		c0-2.7,1.1-4.7,3.2-6c1.2-0.7,2.9-1.1,5.2-1.4L149.3,53.3z M152.8,56c-0.4,0.2-0.8,0.4-1.1,0.6c-0.4,0.1-0.9,0.3-1.6,0.4l-1.3,0.2
		c-1.2,0.2-2.1,0.5-2.7,0.8c-0.9,0.5-1.4,1.4-1.4,2.5c0,1,0.3,1.7,0.8,2.2c0.6,0.4,1.2,0.7,2.1,0.7c1.3,0,2.5-0.4,3.5-1.1
		c1.1-0.7,1.6-2.1,1.7-4V56z"/>
	<path class="st0" d="M177.1,52.5c-0.1-0.8-0.4-1.6-0.8-2.3c-0.7-0.9-1.7-1.4-3.1-1.4c-2,0-3.3,1-4.1,2.9c-0.4,1-0.6,2.4-0.6,4.1
		c0,1.6,0.2,3,0.6,4c0.7,1.9,2,2.8,3.9,2.8c1.4,0,2.3-0.4,2.9-1.1c0.6-0.7,0.9-1.7,1-2.9h6c-0.1,1.8-0.8,3.5-1.9,5
		c-1.8,2.6-4.6,3.8-8.2,3.8c-3.6,0-6.3-1.1-8-3.2s-2.5-4.9-2.5-8.3c0-3.8,0.9-6.8,2.8-9c1.9-2.1,4.5-3.2,7.8-3.2
		c2.8,0,5.1,0.6,6.9,1.9c1.8,1.3,2.8,3.5,3.2,6.7h-5.9V52.5z"/>
	<path class="st0" d="M184.9,48.9v-4.2h3.1v-6.2h5.8v6.2h3.6v4.2h-3.6v11.8c0,0.9,0.1,1.5,0.3,1.7s0.9,0.3,2.1,0.3
		c0.2,0,0.4,0,0.6,0c0.2,0,0.4,0,0.6,0v4.4l-2.8,0.1c-2.8,0.1-4.7-0.4-5.7-1.4c-0.7-0.7-1-1.7-1-3.1V48.9H184.9z"/>
	<path class="st0" d="M207.3,41.8h-5.9v-5.4h5.9V41.8z M201.3,44.5h5.9v22.4h-5.9V44.5z"/>
	<path class="st0" d="M226.3,44.5h6.3l-8.1,22.4h-6.2l-8-22.4h6.6l4.7,16.5L226.3,44.5z"/>
	<path class="st0" d="M249.7,45c1.6,0.7,2.8,1.8,3.9,3.3c0.9,1.3,1.5,2.9,1.8,4.6c0.2,1,0.2,2.5,0.2,4.4h-16.3
		c0.1,2.2,0.9,3.8,2.3,4.7c0.9,0.6,2,0.8,3.2,0.8c1.3,0,2.4-0.3,3.2-1c0.5-0.4,0.9-0.9,1.2-1.5h6c-0.2,1.3-0.9,2.7-2.2,4
		c-2,2.2-4.8,3.3-8.4,3.3c-3,0-5.6-0.9-7.9-2.8c-2.3-1.8-3.4-4.8-3.4-9c0-3.9,1-6.8,3.1-8.9c2.1-2.1,4.7-3.1,8-3.1
		C246.3,43.9,248.1,44.3,249.7,45z M240.9,50c-0.8,0.9-1.3,2-1.6,3.5h10.1c-0.1-1.6-0.6-2.7-1.6-3.5c-0.9-0.8-2.1-1.2-3.5-1.2
		C242.9,48.7,241.7,49.2,240.9,50z"/>
	<path class="st0" d="M259.4,36.7h13c3.6,0,6.1,1.1,7.6,3.2c0.9,1.2,1.3,2.7,1.3,4.3c0,1.9-0.5,3.5-1.6,4.7
		c-0.6,0.6-1.4,1.2-2.4,1.8c1.5,0.6,2.7,1.3,3.5,2c1.4,1.3,2,3.1,2,5.4c0,1.9-0.6,3.7-1.8,5.3c-1.8,2.4-4.7,3.5-8.7,3.5h-12.8V36.7
		H259.4z M270.9,49.5c1.7,0,3.1-0.2,4.1-0.7c1.5-0.8,2.3-2.1,2.3-4.1s-0.8-3.3-2.4-4c-0.9-0.4-2.3-0.6-4.1-0.6h-7.4v9.3L270.9,49.5
		L270.9,49.5z M272.3,63.4c2.5,0,4.3-0.7,5.4-2.2c0.7-0.9,1-2,1-3.3c0-2.2-1-3.7-3-4.5c-1.1-0.4-2.4-0.6-4.2-0.6h-8.2v10.6H272.3z"
		/>
	<path class="st0" d="M287.1,44.9h3.5v3.8c0.3-0.7,1-1.6,2.1-2.7c1.1-1.1,2.4-1.6,3.9-1.6c0.1,0,0.2,0,0.3,0c0.2,0,0.4,0,0.8,0.1
		v3.9c-0.2,0-0.4-0.1-0.6-0.1s-0.4,0-0.6,0c-1.9,0-3.3,0.6-4.3,1.8s-1.5,2.6-1.5,4.1v12.6H287V44.9H287.1z"/>
	<path class="st0" d="M316.6,47.1c1.9,1.9,2.9,4.7,2.9,8.3c0,3.5-0.9,6.5-2.6,8.8c-1.7,2.3-4.4,3.5-8,3.5c-3,0-5.4-1-7.2-3.1
		c-1.8-2-2.6-4.8-2.6-8.2c0-3.7,0.9-6.6,2.8-8.8s4.4-3.3,7.5-3.3C312.3,44.3,314.7,45.2,316.6,47.1z M314.4,61.7
		c0.9-1.9,1.3-3.9,1.3-6.2c0-2-0.3-3.7-1-5c-1-2-2.8-3-5.3-3c-2.2,0-3.9,0.9-4.9,2.6c-1,1.7-1.5,3.8-1.5,6.2c0,2.3,0.5,4.3,1.5,5.8
		c1,1.6,2.6,2.3,4.8,2.3C311.8,64.5,313.4,63.6,314.4,61.7z"/>
	<path class="st0" d="M323.7,36.7h3.5v17.5l9.5-9.3h4.7l-8.4,8.2l8.9,13.8h-4.7l-6.9-11.2l-3,2.9v8.2h-3.5V36.7H323.7z"/>
	<path class="st0" d="M357.3,45.5c1.5,0.7,2.6,1.7,3.3,2.8c0.7,1.1,1.2,2.4,1.5,3.9c0.2,1,0.3,2.6,0.3,4.8h-16
		c0.1,2.2,0.6,4,1.6,5.4s2.5,2,4.5,2c1.9,0,3.4-0.6,4.6-1.9c0.6-0.7,1.1-1.6,1.4-2.6h3.6c-0.1,0.8-0.4,1.7-1,2.7
		c-0.5,1-1.1,1.8-1.8,2.4c-1.1,1.1-2.5,1.8-4.1,2.2c-0.9,0.2-1.9,0.3-3,0.3c-2.7,0-5-1-6.9-3s-2.8-4.8-2.8-8.4c0-3.5,1-6.4,2.9-8.6
		c1.9-2.2,4.4-3.3,7.5-3.3C354.3,44.4,355.8,44.8,357.3,45.5z M358.6,54.1c-0.1-1.6-0.5-2.9-1-3.8c-1-1.8-2.7-2.7-5-2.7
		c-1.7,0-3.1,0.6-4.2,1.8s-1.7,2.8-1.8,4.7H358.6z"/>
	<path class="st0" d="M366.8,44.9h3.5v3.8c0.3-0.7,1-1.6,2.1-2.7c1.1-1.1,2.4-1.6,3.9-1.6c0.1,0,0.2,0,0.3,0c0.2,0,0.4,0,0.8,0.1
		v3.9c-0.2,0-0.4-0.1-0.6-0.1s-0.4,0-0.6,0c-1.9,0-3.3,0.6-4.3,1.8s-1.5,2.6-1.5,4.1v12.6h-3.7V44.9H366.8z"/>
	<path class="st0" d="M382.9,60c0.1,1.2,0.4,2.2,0.9,2.8c0.9,1.2,2.6,1.8,4.9,1.8c1.4,0,2.6-0.3,3.7-0.9s1.6-1.5,1.6-2.8
		c0-0.9-0.4-1.7-1.3-2.2c-0.5-0.3-1.6-0.6-3.2-1l-3-0.7c-1.9-0.5-3.3-1-4.2-1.6c-1.6-1-2.4-2.4-2.4-4.1c0-2.1,0.8-3.8,2.3-5
		c1.5-1.3,3.6-1.9,6.1-1.9c3.4,0,5.8,1,7.3,2.9c0.9,1.2,1.4,2.6,1.4,4h-3.5c-0.1-0.8-0.4-1.6-0.9-2.3c-0.9-1-2.4-1.4-4.5-1.4
		c-1.4,0-2.5,0.3-3.2,0.8s-1.1,1.2-1.1,2.1c0,1,0.5,1.7,1.4,2.3c0.6,0.3,1.4,0.6,2.5,0.9l2.5,0.6c2.7,0.6,4.5,1.3,5.4,1.9
		c1.4,0.9,2.2,2.4,2.2,4.5c0,2-0.8,3.6-2.3,5.1c-1.5,1.4-3.8,2.1-6.9,2.1c-3.3,0-5.7-0.7-7-2.2c-1.4-1.5-2.1-3.3-2.2-5.5h3.5V60z"/>
</g>
<g>
	
		<linearGradient id="SVGID_1_" gradientUnits="userSpaceOnUse" x1="3655.8076" y1="20.7" x2="3683.9077" y2="20.7" gradientTransform="matrix(-1 0 0 -1 3686.2446 72)">
		<stop  offset="0" style="stop-color:#D61F27"/>
		<stop  offset="1" style="stop-color:#961B1E"/>
	</linearGradient>
	<polygon class="st1" points="30.4,66.8 2.3,66.8 2.3,35.8 	"/>
	<ellipse class="st2" cx="26.5" cy="43.4" rx="8.4" ry="8.4"/>
	<polygon class="st2" points="30.4,3.3 2.3,35.8 2.3,66.8 	"/>
	
		<linearGradient id="SVGID_2_" gradientUnits="userSpaceOnUse" x1="3655.8076" y1="20.7" x2="3683.9077" y2="20.7" gradientTransform="matrix(-1 0 0 -1 3686.2446 72)">
		<stop  offset="0" style="stop-color:#D61F27"/>
		<stop  offset="1" style="stop-color:#961B1E"/>
	</linearGradient>
	<polygon class="st3" points="30.4,66.8 2.3,66.8 2.3,35.8 	"/>
	<ellipse class="st2" cx="26.5" cy="43.4" rx="8.4" ry="8.4"/>
	<polygon class="st2" points="30.4,3.3 2.3,35.8 2.3,66.8 	"/>
</g>
<g>
	<path class="st0" d="M57.7,11.8c-1.2,3.9-3.2,6.9-6,9.1c-0.4-0.5-1.5-1.5-2.1-1.9c3.7-2.4,5.6-6.4,6.4-11.8h-5.1V4.8h20.8
		c-0.4,1.7-0.8,3.7-1.2,5.4h5.9c0,0,0,0.7-0.1,1.1c-0.5,4.8-0.9,6.8-1.7,7.6c-0.6,0.6-1.2,0.8-2.1,0.9c-0.8,0.1-2.3,0.1-3.8,0
		c-0.1-0.7-0.4-1.8-0.9-2.4c1.4,0.1,2.9,0.2,3.4,0.2s0.8,0,1.1-0.3c0.5-0.4,0.8-1.7,1.1-4.6h-6.3c0.4-1.4,0.9-3.4,1.3-5.4h-9.7
		c-0.1,0.8-0.3,1.6-0.4,2.3h6.4h0.4l1.5,0.5c-0.6,2.4-1.4,4.3-2.5,5.8c1.3,0.9,2.3,1.7,3.1,2.4l-1.7,1.8c-0.8-0.7-1.8-1.6-2.9-2.4
		c-1.3,1.3-2.9,2.1-4.8,2.8c-0.3-0.6-1.1-1.5-1.6-1.9c1.7-0.5,3.1-1.3,4.3-2.3c-1.1-0.7-2.2-1.3-3.3-1.8l1.7-1.5
		c1,0.5,2.1,1,3.2,1.7c0.6-0.8,1.1-1.7,1.5-2.7h-5.9V11.8z M77.7,28.2v2.5H49.9v-2.5h3.3V21h21v7.2H77.7z M56,28.2h3.4v-5H56V28.2z
		 M62,23.3v5h3.4v-5H62z M68,23.3v5h3.5v-5H68z"/>
	<path class="st0" d="M87.2,25.7c0.8,0.1,1.6,0.8,3,1.7c1.9,1.1,4.5,1.3,7.6,1.3c3.3,0,7.9-0.2,10.9-0.6c-0.3,0.8-0.7,2.2-0.8,2.9
		c-2.4,0.2-7.2,0.3-10.2,0.3c-3.6,0-6-0.4-8.1-1.5c-1.2-0.7-2.1-1.6-2.8-1.6c-1.1,0-2.8,1.7-4.5,3.6l-1.9-2.5
		c1.3-1.2,2.6-2.2,3.9-2.9v-8.6h-3.6v-2.6H87v10.5H87.2z M85.6,11c-0.9-1.5-2.9-3.6-4.7-5.1l2.2-1.6c1.8,1.4,3.8,3.4,4.8,4.9
		L85.6,11z M91.2,16.9c-0.6,0.2-1,0.5-1.6,0.7c-0.4-0.6-1.1-1.6-1.7-2c2.7-0.9,5.7-2.5,7.7-4.4h-6.7V9h8.3V7
		c-2.3,0.2-4.7,0.2-6.8,0.3c-0.1-0.6-0.4-1.4-0.6-2c5.4-0.2,11.9-0.7,15.4-1.4l1.8,1.9c-2,0.4-4.5,0.7-7,1V9h8.4v2.2h-6.9
		c1.9,1.8,4.8,3.4,7.6,4.1c-0.6,0.5-1.3,1.5-1.7,2.1c-2.6-1-5.3-2.8-7.3-4.9V16h-2.7v-3.4c-1.6,1.6-3.5,3-5.6,4.1H103
		c-0.2,0.9-0.4,1.8-0.6,2.6h5c0,0-0.1,0.7-0.1,1c-0.3,3.5-0.6,5.1-1.4,5.7c-0.6,0.6-1.2,0.7-2,0.8c-0.7,0.1-2.2,0.1-3.7,0
		c0-0.7-0.3-1.6-0.7-2.2c1.4,0.1,2.7,0.2,3.3,0.2c0.5,0,0.8,0,1-0.2c0.3-0.3,0.6-1.2,0.8-3.1h-5.2c0.2-0.7,0.5-1.6,0.7-2.5h-3
		c-0.6,3.9-2.1,6.8-6.9,8.4c-0.2-0.6-1-1.6-1.5-2.1c4-1.2,5.3-3.3,5.8-6.2h-3.3L91.2,16.9L91.2,16.9z"/>
	<path class="st0" d="M121,22.6c0.2,0.8,0.8,1.9,1.1,2.5c-5.3,4.4-6.2,5.1-6.7,5.8c-0.3-0.6-1.3-1.5-1.8-1.9
		c0.7-0.6,1.8-1.9,1.8-3.6v-9.8h-4v-2.7h6.8v12L121,22.6z M117.6,10.6c-1-1.3-3.1-3.3-4.7-4.8l1.9-1.7c1.6,1.3,3.8,3.3,4.9,4.5
		L117.6,10.6z M139.3,27.7v2.7h-18.5v-2.7h2.5V13.5h2.8v14.2h3.6V8.2h-8V5.5h17v2.7h-6.2v7.5h5.6v2.6h-5.6v9.4
		C132.5,27.7,139.3,27.7,139.3,27.7z"/>
	<path class="st0" d="M162.2,16.2c2.1,2,5,3.6,8.2,4.4c-0.6,0.6-1.4,1.6-1.8,2.3c-1.5-0.5-2.9-1.1-4.3-1.9c-0.4,5.8-0.8,8.3-1.7,9.2
		c-0.6,0.6-1.3,0.9-2.2,1s-2.4,0.1-4.1,0c-0.1-0.8-0.3-2-0.8-2.7c1.5,0.2,2.9,0.2,3.5,0.2c0.5,0,0.8-0.1,1.1-0.3
		c0.5-0.5,0.8-2.2,1.1-6.3h-6.8c-0.9,4.5-2.9,7.6-9.4,9.4c-0.3-0.7-1-1.9-1.6-2.4c5.6-1.3,7.3-3.7,8-7H147v-1.2
		c-1.1,0.7-2.4,1.4-3.8,2.1c-0.3-0.7-1.1-1.8-1.8-2.4c2.8-1.2,5.1-2.7,6.9-4.4h-6v-2.5h8.4c0.6-0.9,1.2-1.7,1.7-2.6h-8.2V8.5h4.8
		c-0.5-1-1.4-2.4-2.2-3.5l2.2-1.1c1,1.1,2.1,2.7,2.5,3.8L150,8.5h3.6c0.7-1.7,1.1-3.5,1.3-5.3l3,0.3c-0.3,1.7-0.7,3.3-1.2,4.9h3.2
		c0.9-1.3,2-3.1,2.6-4.5l2.6,0.8c-0.8,1.3-1.7,2.6-2.5,3.6h4.5V11h-11.5c-0.4,0.9-0.9,1.8-1.4,2.6h15v2.5h-7V16.2z M162.1,19.6
		c-1.2-1-2.3-2.1-3.2-3.3h-6.4c-1,1.2-2.1,2.3-3.4,3.3H162.1z"/>
</g>
</svg>
