<?xml version="1.0" encoding="utf-8"?>
<!-- Generator: Adobe Illustrator 22.0.1, SVG Export Plug-In . SVG Version: 6.00 Build 0)  -->
<svg version="1.1" id="Layer_1" xmlns="http://www.w3.org/2000/svg" xmlns:xlink="http://www.w3.org/1999/xlink" x="0px" y="0px"
	 viewBox="0 0 134 40" style="enable-background:new 0 0 134 40;" xml:space="preserve">
<style type="text/css">
	.st0{fill:#222222;}
	.st1{fill:url(#SVGID_1_);}
	.st2{fill:#D81222;}
	.st3{fill:#FFFFFF;}
</style>
<path class="st0" d="M4,0h126c2.2,0,4,1.8,4,4v32c0,2.2-1.8,4-4,4H4c-2.2,0-4-1.8-4-4V4C0,1.8,1.8,0,4,0z"/>
<linearGradient id="SVGID_1_" gradientUnits="userSpaceOnUse" x1="-277.7607" y1="-38.7297" x2="-278.7612" y2="-39.7301" gradientTransform="matrix(12.028 0 0 13.257 3361.936 549.5423)">
	<stop  offset="0" style="stop-color:#D81222"/>
	<stop  offset="1" style="stop-color:#6C0911"/>
</linearGradient>
<path class="st1" d="M24,32.8H12V19.5L24,32.8z"/>
<circle class="st2" cx="22.3" cy="22.8" r="3.6"/>
<path class="st2" d="M24,5.6L12,19.5v13.3L24,5.6z"/>
<path class="st3" d="M36.9,8.9h-2.5V8h6.1v0.9H38V16h-1L36.9,8.9L36.9,8.9z"/>
<path class="st3" d="M40.7,10.2h0.9v0.9c0.5-0.6,1.1-1.1,1.9-1.1v1c-0.1,0-0.2,0-0.4,0c-0.6,0-1.3,0.5-1.6,0.9V16h-0.9L40.7,10.2
	L40.7,10.2z"/>
<path class="st3" d="M45,17.5c0.4,0,0.7-0.1,0.9-0.6l0.4-0.9l-2.4-5.9h1l1.9,4.8l1.9-4.8h1l-2.9,7c-0.3,0.8-0.9,1.2-1.7,1.2
	c-0.2,0-0.5,0-0.7-0.1l0.1-0.8C44.6,17.5,44.8,17.5,45,17.5z"/>
<path class="st3" d="M53.5,8.6c0-0.3,0.3-0.6,0.6-0.6s0.6,0.3,0.6,0.6s-0.3,0.6-0.6,0.6C53.8,9.2,53.5,9,53.5,8.6z M53.7,10.2h0.9
	V16h-0.9V10.2z"/>
<path class="st3" d="M56.5,14.8V11h-1v-0.8h1V8.6h0.9v1.6h1.2V11h-1.2v3.6c0,0.4,0.2,0.7,0.6,0.7c0.3,0,0.5-0.1,0.6-0.2l0.3,0.7
	c-0.2,0.2-0.6,0.4-1.1,0.4C57,16.1,56.5,15.7,56.5,14.8z"/>
<path class="st3" d="M62.8,8.6c0-0.3,0.3-0.6,0.6-0.6C63.8,8,64,8.3,64,8.6s-0.3,0.6-0.6,0.6C63.1,9.2,62.8,9,62.8,8.6z M63,10.2
	h0.9V16H63V10.2z"/>
<path class="st3" d="M69.6,12.2c0-1-0.5-1.3-1.3-1.3c-0.7,0-1.4,0.4-1.7,0.9V16h-0.9v-5.8h0.9V11c0.4-0.5,1.2-1,2.1-1
	c1.2,0,1.8,0.6,1.8,1.9V16h-0.9V12.2z"/>
<path class="st3" d="M35.1,21.3H37V32h-1.9V21.3z"/>
<path class="st3" d="M39.3,21.3h5.3c2,0,3,1.2,3,2.7c0,1.3-0.9,2.2-1.9,2.4c1.1,0.2,2.1,1.3,2.1,2.6c0,1.6-1.1,2.9-3.1,2.9h-5.4
	C39.3,31.9,39.3,21.3,39.3,21.3z M44.1,25.7c1,0,1.5-0.6,1.5-1.4s-0.5-1.4-1.5-1.4h-3v2.8H44.1z M44.2,30.4c1,0,1.6-0.6,1.6-1.5
	c0-0.8-0.6-1.5-1.6-1.5h-3.1v3H44.2z"/>
<path class="st3" d="M52.4,27.5l-0.9,1.1V32h-1.9V21.3h1.9v5.1l4.2-5.1H58l-4.3,5l4.7,5.6H56L52.4,27.5z"/>
<path class="st3" d="M63.3,28h-1.9v4h-1.9V21.3h4.7c2.1,0,3.5,1.4,3.5,3.3s-1.2,2.9-2.5,3.1l2.6,4.2h-2.2L63.3,28z M64,23h-2.6v3.4
	H64c1.1,0,1.8-0.7,1.8-1.7S65.1,23,64,23z"/>
<path class="st3" d="M83,23.9L79.7,32h-0.8l-3.3-8.1V32h-1.9V21.3h2.6l2.9,7.2l2.9-7.2h2.6V32H83V23.9z"/>
<path class="st3" d="M86.6,28.1c0-2.2,1.5-4,4-4s4,1.8,4,4s-1.5,4.1-4,4.1S86.6,30.4,86.6,28.1z M92.8,28.1c0-1.4-0.8-2.6-2.2-2.6
	c-1.4,0-2.2,1.2-2.2,2.6s0.8,2.6,2.2,2.6S92.8,29.5,92.8,28.1z"/>
<path class="st3" d="M96.2,21.3h1.7v4c0.6-0.8,1.5-1.3,2.5-1.3c2,0,3.4,1.6,3.4,4.1s-1.5,4-3.4,4c-1,0-1.9-0.5-2.5-1.2V32h-1.7V21.3
	z M99.9,30.7c1.3,0,2.2-1.1,2.2-2.6s-0.8-2.6-2.2-2.6c-0.8,0-1.6,0.5-2,1.1v3.1C98.3,30.3,99.1,30.7,99.9,30.7z"/>
<path class="st3" d="M105.3,21.9c0-0.6,0.5-1,1-1c0.6,0,1,0.5,1,1s-0.5,1-1,1C105.8,23,105.3,22.5,105.3,21.9z M105.5,24.3h1.7V32
	h-1.7V24.3z"/>
<path class="st3" d="M109.4,21.3h1.7V32h-1.7V21.3z"/>
<path class="st3" d="M116.7,24.1c2.3,0,3.8,1.8,3.8,4.2v0.4h-6c0.1,1.2,1,2.1,2.5,2.1c0.8,0,1.6-0.3,2.2-0.8l0.8,1.1
	c-0.8,0.7-1.9,1.1-3.1,1.1c-2.3,0-4-1.6-4-4.1C112.8,25.9,114.4,24.1,116.7,24.1z M114.5,27.5h4.4c0-0.9-0.7-2-2.2-2
	C115.2,25.5,114.6,26.6,114.5,27.5z"/>
</svg>
