<svg xmlns="http://www.w3.org/2000/svg" width="48" height="46" viewBox="0 0 48 46"><path d="M21,3a2,2,0,0,0-2,2v8a2,2,0,0,0,2,2h4v6H11a4.03,4.03,0,0,0-4,4v8h4V25H25v8h4V25H43v8h4V25a4.03,4.03,0,0,0-4-4H29V15h4a2,2,0,0,0,2-2V5a2,2,0,0,0-2-2ZM5,37a2,2,0,0,0-2,2v8a2,2,0,0,0,2,2h8a2,2,0,0,0,2-2V39a2,2,0,0,0-2-2Zm18,0a2,2,0,0,0-2,2v8a2,2,0,0,0,2,2h8a2,2,0,0,0,2-2V39a2,2,0,0,0-2-2Zm18,0a2,2,0,0,0-2,2v8a2,2,0,0,0,2,2h8a2,2,0,0,0,2-2V39a2,2,0,0,0-2-2Z" transform="translate(-3 -3)" fill="#a02200"/></svg>