<svg xmlns="http://www.w3.org/2000/svg" viewBox="105 1424 32 32"><defs><style>.a{fill:#fff;}.b{fill:none;}</style></defs><g transform="translate(-1373 -206)"><g transform="translate(1480.667 1634)"><path class="a" d="M4.667,3A2.672,2.672,0,0,0,2,5.667V24.333A2.672,2.672,0,0,0,4.667,27H26a2.672,2.672,0,0,0,2.667-2.667V5.667A2.672,2.672,0,0,0,26,3Zm0,2.667H26V24.333H4.667ZM6,8.333V11H7.333V8.333Zm2.667,0V11H14V8.333Zm8,0V11H18V8.333Zm2.667,0V11h5.333V8.333ZM6,13.667v2.667H7.333V13.667Zm2.667,0v2.667H14V13.667Zm8,0v2.667H18V13.667Zm2.667,0v2.667h5.333V13.667ZM6,19v2.667H7.333V19Zm2.667,0v2.667H14V19Zm8,0v2.667H18V19Zm2.667,0v2.667h5.333V19Z" transform="translate(-2 -3)"/></g><rect class="b" width="32" height="32" transform="translate(1478 1630)"/></g></svg>