<svg xmlns="http://www.w3.org/2000/svg" viewBox="404 1424 32 32"><defs><style>.a{fill:#fff;}.b{fill:none;}</style></defs><g transform="translate(-1062 178)"><g transform="translate(1468.667 1248.667)"><path class="a" d="M15.333,2A13.333,13.333,0,1,0,28.667,15.333,13.373,13.373,0,0,0,15.333,2Zm0,2.667A10.667,10.667,0,1,1,4.667,15.333,10.7,10.7,0,0,1,15.333,4.667Zm-.125,4c-4.4,0-3.875,4-3.875,4H14c0-1.865.932-2,1.333-2,1.068,0,1.333,1.219,1.333,1.75C16.667,15.219,14,14.531,14,18h2.667c0-2.266,2.667-2.385,2.667-5.583C19.333,11.219,18.677,8.667,15.208,8.667ZM14,19.333V22h2.667V19.333Z" transform="translate(-2 -2)"/></g><rect class="b" width="32" height="32" transform="translate(1466 1246)"/></g></svg>