<svg xmlns="http://www.w3.org/2000/svg" viewBox="404 1348 32 32"><defs><style>.a{fill:#fff;}.b{fill:none;}</style></defs><g transform="translate(-1456 53)"><g transform="translate(1862.667 1297.667)"><path class="a" d="M12.667,2A5.333,5.333,0,1,0,18,7.333,5.33,5.33,0,0,0,12.667,2ZM25.708,14a.826.826,0,0,0-.583.25l-1.417,1.417L27,18.958l1.417-1.417a.824.824,0,0,0,0-1.167L26.292,14.25A.826.826,0,0,0,25.708,14ZM12.667,15.333C4.562,15.333,2,20.667,2,20.667v2.667H12.667l6.542-6.542A13.961,13.961,0,0,0,12.667,15.333Zm10,1.333L14,25.333v3.333h3.333L26,20Z" transform="translate(-2 -2)"/></g><rect class="b" width="32" height="32" transform="translate(1860 1295)"/></g></svg>