<svg xmlns="http://www.w3.org/2000/svg" viewBox="217 2732 40 40"><defs><style>.a{fill:#d81222;}.b{fill:none;}</style></defs><g transform="translate(322 -151)"><path class="a" d="M16.333,2A13.263,13.263,0,0,0,3,15.333c0,3.835.5,6.022,2.5,8.854A14.436,14.436,0,0,1,8,32.521v2.813H23A3.34,3.34,0,0,1,26.333,32a4.912,4.912,0,0,0,5-5V22.99l2.656-1.667a2.151,2.151,0,0,0,.521-2.344l-3.333-5.625C29.341,4.689,23.5,2,16.333,2Zm-.156,6.667h3.49a.865.865,0,0,1,.521.313l.156,2.188a6.979,6.979,0,0,1,1.51.833l1.979-.99c.169-.169.521-.013.521.156l1.667,3.021c.169.169-.039.469-.208.469L23.99,16.01a1.241,1.241,0,0,1,.365.99v.833l1.823,1.354a.534.534,0,0,1,.156.469l-1.667,3.021c-.169.169-.352.326-.521.156L22.01,22a6.979,6.979,0,0,1-1.51.833l-.156,2.188c0,.169-.189.313-.521.313h-3.49a.865.865,0,0,1-.521-.312l-.156-2.187A6.979,6.979,0,0,1,14.146,22l-1.979.99c-.169.169-.521.013-.521-.156L9.979,19.812c-.169-.169.039-.469.208-.469L12.01,17.99V16.323l-2.188-1.51c-.169-.169-.156-.293-.156-.625l1.667-3.021c.169-.169.352-.326.521-.156L13.99,12a6.979,6.979,0,0,1,1.51-.833l.156-2.188C15.656,8.81,15.845,8.667,16.177,8.667ZM18,13.51A3.49,3.49,0,1,0,21.49,17,3.481,3.481,0,0,0,18,13.51Z" transform="translate(-104.667 2884.333)"/><rect class="b" width="40" height="40" transform="translate(-105 2883)"/></g></svg>