<svg xmlns="http://www.w3.org/2000/svg" viewBox="13329 359 80 80">
  <defs>
    <style>
      .cls-1 {
        opacity: 0.4;
      }

      .cls-2 {
        fill: none;
      }
    </style>
  </defs>
  <g id="Group_566" data-name="Group 566" class="cls-1" transform="translate(12049 -1720)">
    <g id="icons8-approximately_equal" transform="translate(1294.4 2104.6)">
      <path id="Path_117" data-name="Path 117" d="M23.344,16a77.192,77.192,0,0,0-14.25,1.9v3.4c2.719-.637,9.288-2.1,14.25-2.1,4.163,0,7.338,1.131,10.7,2.25,3.519,1.281,7.038,2.55,12,2.55a77.192,77.192,0,0,0,14.25-1.9V18.7h-.15c-2.719.637-9.287,2.1-14.25,2.1a28.459,28.459,0,0,1-10.85-2.4A30.929,30.929,0,0,0,23.344,16Zm0,20.8a77.192,77.192,0,0,0-14.25,1.9v3.4c2.719-.637,9.288-2.1,14.25-2.1,4.163,0,7.338,1.131,10.7,2.25,3.519,1.281,7.038,2.55,12,2.55a77.192,77.192,0,0,0,14.25-1.9V39.5h-.15c-2.719.637-9.287,2.1-14.25,2.1a28.459,28.459,0,0,1-10.85-2.4A30.929,30.929,0,0,0,23.344,36.8Z" transform="translate(-9.094 -16)"/>
    </g>
    <rect id="Rectangle_463" data-name="Rectangle 463" class="cls-2" width="80" height="80" transform="translate(1280 2079)"/>
  </g>
</svg>
