<svg xmlns="http://www.w3.org/2000/svg" viewBox="12884 -64 80 80">
  <defs>
    <style>
      .cls-1 {
        opacity: 0.4;
      }

      .cls-2 {
        fill: none;
      }
    </style>
  </defs>
  <g id="Group_563" data-name="Group 563" class="cls-1" transform="translate(680 -1693)">
    <path id="icons8-sorting_arrows_horizontal" d="M58.869,3.971a1.621,1.621,0,0,0-1,2.8l10.05,10.05h-50.5q-.075,0-.15,0a1.6,1.6,0,0,0,.15,3.2h50.5l-10.05,10.05a1.626,1.626,0,0,0,2.3,2.3l12.55-12.6a.816.816,0,0,0,.35-.35q.052-.048.1-.1a1.6,1.6,0,0,0,.15-.3q.027-.049.05-.1,0-.025,0-.05.029-.074.05-.15a1.6,1.6,0,0,0,0-.5q0-.05,0-.1,0-.025,0-.05-.023-.051-.05-.1,0-.025,0-.05-.023-.051-.05-.1,0-.025,0-.05-.023-.051-.05-.1l-.05-.05q-.023-.051-.05-.1a1.6,1.6,0,0,0-.2-.25h-.05q-.048-.052-.1-.1l-12.65-12.7a1.6,1.6,0,0,0-1.3-.5ZM4.619,16.821a1.6,1.6,0,1,0,1.6,1.6A1.6,1.6,0,0,0,4.619,16.821Zm6.4,0a1.6,1.6,0,1,0,1.6,1.6A1.6,1.6,0,0,0,11.019,16.821Zm6.2,25.6a1.6,1.6,0,0,0-.95.45l-12.55,12.6-.15.05q-.052.048-.1.1v.05q-.052.048-.1.1t-.1.1q0,.025,0,.05-.052.048-.1.1,0,.025,0,.05a1.6,1.6,0,0,0-.2.55q0,.025,0,.05,0,.075,0,.15,0,.05,0,.1,0,.025,0,.05a1.6,1.6,0,0,0,.2.6q.023.051.05.1l.05.05q.023.051.05.1l.05.05.05.05.05.05a1.6,1.6,0,0,0,.3.25l12.5,12.55a1.626,1.626,0,0,0,2.3-2.3L8.519,58.421h50.5a1.6,1.6,0,1,0,0-3.2H8.519l10.05-10.05a1.6,1.6,0,0,0-1.35-2.75Zm48.2,12.8a1.6,1.6,0,1,0,1.6,1.6A1.6,1.6,0,0,0,65.419,55.221Zm6.4,0a1.6,1.6,0,1,0,1.6,1.6A1.6,1.6,0,0,0,71.819,55.221Z" transform="translate(12205.832 1631.435)"/>
    <rect id="Rectangle_449" data-name="Rectangle 449" class="cls-2" width="80" height="80" transform="translate(12204 1629)"/>
  </g>
</svg>
