<?xml version="1.0" encoding="utf-8"?>
<!-- Generator: Adobe Illustrator 21.0.2, SVG Export Plug-In . SVG Version: 6.00 Build 0)  -->
<svg version="1.1" id="Layer_1" xmlns="http://www.w3.org/2000/svg" xmlns:xlink="http://www.w3.org/1999/xlink" x="0px" y="0px"
	 viewBox="0 0 404.8 475" style="enable-background:new 0 0 404.8 475;" xml:space="preserve">
<style type="text/css">
	.st0{opacity:0.2;fill:#FE4A41;enable-background:new    ;}
	.st1{opacity:5.000000e-02;fill:#FE4A41;enable-background:new    ;}
	.st2{opacity:0.6;fill:#FE4A41;enable-background:new    ;}
	.st3{fill:#F0F0F0;}
	.st4{opacity:0.4;fill:#2BB576;enable-background:new    ;}
	.st5{opacity:0.2;fill:#2BB576;enable-background:new    ;}
	.st6{opacity:5.000000e-02;fill:#2BB576;enable-background:new    ;}
	.st7{enable-background:new    ;}
	.st8{fill:#95989A;}
	.st9{fill:#444444;}
	.st10{fill:#FFFFFF;}
	.st11{opacity:0.8;fill:#FE4A41;enable-background:new    ;}
	.st12{opacity:0.8;fill:#2BB576;enable-background:new    ;}
	.st13{opacity:9.800000e-02;}
</style>
<path id="Rectangle_496" class="st0" d="M84.8,34.1h314c1.7,0,3,1.3,3,3v14c0,1.7-1.3,3-3,3h-314c-1.7,0-3-1.3-3-3v-14
	C81.8,35.4,83.1,34.1,84.8,34.1z"/>
<path id="Rectangle_524" class="st1" d="M84.8,2h314c1.7,0,3,1.3,3,3v14c0,1.7-1.3,3-3,3h-314c-1.7,0-3-1.3-3-3V5
	C81.8,3.3,83.1,2,84.8,2z"/>
<path id="Rectangle_497" class="st2" d="M84.8,66.3h314c1.7,0,3,1.3,3,3v14c0,1.7-1.3,3-3,3h-314c-1.7,0-3-1.3-3-3v-14
	C81.8,67.6,83.1,66.3,84.8,66.3z"/>
<path id="Rectangle_499" class="st3" d="M84.8,130.6h314c1.7,0,3,1.3,3,3v14c0,1.7-1.3,3-3,3h-314c-1.7,0-3-1.3-3-3v-14
	C81.8,131.9,83.1,130.6,84.8,130.6z"/>
<path id="Rectangle_500" class="st3" d="M84.8,162.7h314c1.7,0,3,1.3,3,3v14c0,1.7-1.3,3-3,3h-314c-1.7,0-3-1.3-3-3v-14
	C81.8,164,83.1,162.7,84.8,162.7z"/>
<path id="Rectangle_501" class="st3" d="M84.8,194.9h314c1.7,0,3,1.3,3,3v14c0,1.7-1.3,3-3,3h-314c-1.7,0-3-1.3-3-3v-14
	C81.8,196.2,83.1,194.9,84.8,194.9z"/>
<path id="Rectangle_503" class="st3" d="M84.8,259.1h314c1.7,0,3,1.3,3,3v14c0,1.7-1.3,3-3,3h-314c-1.7,0-3-1.3-3-3v-14
	C81.8,260.4,83.1,259.1,84.8,259.1z"/>
<path id="Rectangle_504" class="st3" d="M84.8,291.3h314c1.7,0,3,1.3,3,3v14c0,1.7-1.3,3-3,3h-314c-1.7,0-3-1.3-3-3v-14
	C81.8,292.6,83.1,291.3,84.8,291.3z"/>
<path id="Rectangle_505" class="st3" d="M84.8,323.4h314c1.7,0,3,1.3,3,3v14c0,1.7-1.3,3-3,3h-314c-1.7,0-3-1.3-3-3v-14
	C81.8,324.7,83.1,323.4,84.8,323.4z"/>
<path id="Rectangle_507" class="st4" d="M84.8,387.7h314c1.7,0,3,1.3,3,3v14c0,1.7-1.3,3-3,3h-314c-1.7,0-3-1.3-3-3v-14
	C81.8,389,83.1,387.7,84.8,387.7z"/>
<path id="Rectangle_508" class="st5" d="M84.8,419.9h314c1.7,0,3,1.3,3,3v14c0,1.7-1.3,3-3,3h-314c-1.7,0-3-1.3-3-3v-14
	C81.8,421.2,83.1,419.9,84.8,419.9z"/>
<path id="Rectangle_509" class="st6" d="M84.8,452h314c1.7,0,3,1.3,3,3v14c0,1.7-1.3,3-3,3h-314c-1.7,0-3-1.3-3-3v-14
	C81.8,453.3,83.1,452,84.8,452z"/>
<g class="st7">
	<path class="st8" d="M16.3,32.3v3.3h-3.4v-3.2c-3.8-0.3-6.5-1.8-8.5-3.7l2.8-3.9c1.4,1.4,3.3,2.6,5.7,3.1v-5.7
		c-3.7-0.9-7.7-2.3-7.7-7.2c0-3.7,2.9-6.8,7.7-7.2V4.5h3.4v3.4c2.9,0.3,5.4,1.4,7.3,3.2l-2.8,3.7c-1.3-1.2-2.8-1.9-4.5-2.3v5
		c3.7,1,7.9,2.4,7.9,7.3C24.2,28.7,21.6,31.8,16.3,32.3z M13.2,16.7v-4.6c-1.8,0.2-2.8,1.1-2.8,2.4C10.4,15.6,11.6,16.2,13.2,16.7z
		 M19,25.3c0-1.3-1.3-1.9-3-2.4v5C18,27.6,19,26.5,19,25.3z"/>
	<path class="st8" d="M38.4,32.3v3.3H35v-3.2c-3.8-0.3-6.5-1.8-8.5-3.7l2.8-3.9c1.4,1.4,3.3,2.6,5.7,3.1v-5.7
		c-3.7-0.9-7.7-2.3-7.7-7.2c0-3.7,2.9-6.8,7.7-7.2V4.5h3.4v3.4c2.9,0.3,5.4,1.4,7.3,3.2l-2.8,3.7c-1.3-1.2-2.8-1.9-4.5-2.3v5
		c3.7,1,7.9,2.4,7.9,7.3C46.3,28.7,43.7,31.8,38.4,32.3z M35.3,16.7v-4.6c-1.8,0.2-2.8,1.1-2.8,2.4C32.5,15.6,33.7,16.2,35.3,16.7z
		 M41.1,25.3c0-1.3-1.3-1.9-3-2.4v5C40.1,27.6,41.1,26.5,41.1,25.3z"/>
	<path class="st8" d="M60.5,32.3v3.3h-3.4v-3.2c-3.8-0.3-6.5-1.8-8.5-3.7l2.8-3.9c1.4,1.4,3.3,2.6,5.7,3.1v-5.7
		c-3.7-0.9-7.7-2.3-7.7-7.2c0-3.7,2.9-6.8,7.7-7.2V4.5h3.4v3.4c2.9,0.3,5.4,1.4,7.3,3.2L65,14.8c-1.3-1.2-2.8-1.9-4.5-2.3v5
		c3.7,1,7.9,2.4,7.9,7.3C68.4,28.7,65.8,31.8,60.5,32.3z M57.4,16.7v-4.6c-1.8,0.2-2.8,1.1-2.8,2.4C54.6,15.6,55.8,16.2,57.4,16.7z
		 M63.2,25.3c0-1.3-1.3-1.9-3-2.4v5C62.3,27.6,63.2,26.5,63.2,25.3z"/>
</g>
<g>
	<path id="Rectangle_502" class="st9" d="M84.8,224h314c1.7,0,3,1.3,3,3v20c0,1.7-1.3,3-3,3h-314c-1.7,0-3-1.3-3-3v-20
		C81.8,225.3,83.1,224,84.8,224z"/>
	<g class="st7">
		<path class="st10" d="M177.7,239.4c0.8,0.9,2.2,1.6,3.8,1.6c1.4,0,2.1-0.7,2.1-1.4c0-0.9-1-1.2-2.4-1.5c-2-0.5-4.5-1-4.5-3.7
			c0-2,1.7-3.6,4.6-3.6c1.9,0,3.5,0.6,4.7,1.7l-1.4,1.9c-1-0.9-2.3-1.3-3.4-1.3c-1.2,0-1.8,0.5-1.8,1.2c0,0.8,1,1.1,2.4,1.4
			c2,0.4,4.5,1,4.5,3.7c0,2.2-1.6,3.9-4.8,3.9c-2.3,0-4-0.8-5.1-1.9L177.7,239.4z"/>
		<path class="st10" d="M190.6,231h5.6c2.6,0,4,1.8,4,3.9c0,2.1-1.4,3.8-4,3.8h-3.1v4.3h-2.6L190.6,231L190.6,231z M195.9,233.2
			h-2.7v3.3h2.7c1,0,1.8-0.6,1.8-1.7C197.6,233.9,196.9,233.2,195.9,233.2z"/>
		<path class="st10" d="M204.5,231h2.6v9.8h5.1v2.3h-7.6L204.5,231L204.5,231z"/>
		<path class="st10" d="M216.6,231h2.6v12h-2.6V231z"/>
		<path class="st10" d="M227,233.2h-3.5V231h9.6v2.3h-3.5v9.8H227V233.2z"/>
		<path class="st10" d="M245.3,239.4c0.8,0.9,2.2,1.6,3.8,1.6c1.4,0,2.1-0.7,2.1-1.4c0-0.9-1-1.2-2.4-1.5c-2-0.5-4.5-1-4.5-3.7
			c0-2,1.7-3.6,4.6-3.6c1.9,0,3.5,0.6,4.7,1.7l-1.4,1.9c-1-0.9-2.3-1.3-3.4-1.3c-1.2,0-1.8,0.5-1.8,1.2c0,0.8,1,1.1,2.4,1.4
			c2,0.4,4.5,1,4.5,3.7c0,2.2-1.6,3.9-4.8,3.9c-2.3,0-4-0.8-5.1-1.9L245.3,239.4z"/>
		<path class="st10" d="M258.3,231h5.6c2.6,0,4,1.8,4,3.9c0,2.1-1.4,3.8-4,3.8h-3.1v4.3h-2.6L258.3,231L258.3,231z M263.5,233.2
			h-2.7v3.3h2.7c1,0,1.8-0.6,1.8-1.7C265.3,233.9,264.5,233.2,263.5,233.2z"/>
		<path class="st10" d="M276.6,238.7h-1.9v4.3h-2.6v-12h5.6c2.5,0,4,1.6,4,3.9c0,2.1-1.3,3.3-2.6,3.6l2.7,4.6h-2.9L276.6,238.7z
			 M277.4,233.2h-2.7v3.3h2.7c1,0,1.8-0.6,1.8-1.7C279.2,233.8,278.5,233.2,277.4,233.2z"/>
		<path class="st10" d="M286.5,231h8.5v2.2h-5.9v2.6h5.8v2.2h-5.8v2.8h5.9v2.2h-8.5V231z"/>
		<path class="st10" d="M307.3,240.9h-5.4l-0.8,2.1h-2.8l4.6-12h3.2l4.6,12h-2.8L307.3,240.9z M302.6,238.7h4l-2-5.5L302.6,238.7z"
			/>
		<path class="st10" d="M314.7,231h4.7c3.8,0,6.4,2.4,6.4,6s-2.6,6-6.4,6h-4.7V231z M319.4,240.7c2.4,0,3.8-1.7,3.8-3.7
			c0-2.1-1.3-3.8-3.8-3.8h-2.2v7.5H319.4z"/>
	</g>
</g>
<g>
	<path id="Rectangle_498" class="st11" d="M84.8,95.4h314c1.7,0,3,1.3,3,3v20c0,1.7-1.3,3-3,3h-314c-1.7,0-3-1.3-3-3v-20
		C81.8,96.7,83.1,95.4,84.8,95.4z"/>
	<g class="st7">
		<path class="st10" d="M233.1,112.3h-5.4l-0.8,2.1h-2.8l4.6-12h3.2l4.6,12h-2.8L233.1,112.3z M228.4,110.1h4l-2-5.5L228.4,110.1z"
			/>
		<path class="st10" d="M240.9,110.8c0.8,0.9,2.2,1.6,3.8,1.6c1.4,0,2.1-0.7,2.1-1.4c0-0.9-1-1.2-2.4-1.5c-2-0.5-4.5-1-4.5-3.7
			c0-2,1.7-3.6,4.6-3.6c1.9,0,3.5,0.6,4.7,1.7l-1.4,1.9c-1-0.9-2.3-1.3-3.4-1.3c-1.2,0-1.8,0.5-1.8,1.2c0,0.8,1,1.1,2.4,1.4
			c2,0.4,4.5,1,4.5,3.7c0,2.2-1.6,3.9-4.8,3.9c-2.3,0-4-0.8-5.1-1.9L240.9,110.8z"/>
		<path class="st10" d="M257.3,109.6l-0.9,1.1v3.7h-2.6v-12h2.6v5.4l4.2-5.4h3.2L259,108l5.1,6.4h-3.2L257.3,109.6z"/>
	</g>
</g>
<g>
	<path id="Rectangle_506" class="st12" d="M84.8,352.6h314c1.7,0,3,1.3,3,3v20c0,1.7-1.3,3-3,3h-314c-1.7,0-3-1.3-3-3v-20
		C81.8,353.9,83.1,352.6,84.8,352.6z"/>
	<g class="st7">
		<path class="st10" d="M227.2,359.6h6.3c2.3,0,3.5,1.5,3.5,3.1c0,1.5-0.9,2.5-2.1,2.8c1.3,0.2,2.3,1.4,2.3,3c0,1.8-1.2,3.2-3.5,3.2
			h-6.5V359.6z M233,364.4c0.9,0,1.4-0.6,1.4-1.3c0-0.7-0.5-1.3-1.4-1.3h-3.2v2.6L233,364.4L233,364.4z M233.1,369.4
			c1,0,1.5-0.6,1.5-1.4s-0.5-1.4-1.5-1.4h-3.3v2.8H233.1z"/>
		<path class="st10" d="M241.8,359.6h2.6v12h-2.6V359.6z"/>
		<path class="st10" d="M249.5,359.6h4.7c3.8,0,6.4,2.4,6.4,6s-2.6,6-6.4,6h-4.7L249.5,359.6L249.5,359.6z M254.2,369.3
			c2.4,0,3.8-1.7,3.8-3.7c0-2.1-1.3-3.8-3.8-3.8H252v7.5H254.2z"/>
	</g>
</g>
<g class="st7">
	<path class="st8" d="M39.4,467v3.3H36v-3.2c-3.8-0.3-6.5-1.8-8.5-3.7l2.8-3.9c1.4,1.4,3.3,2.6,5.7,3.1v-5.7
		c-3.7-0.9-7.7-2.3-7.7-7.2c0-3.7,2.9-6.8,7.7-7.2v-3.3h3.4v3.4c2.9,0.3,5.4,1.4,7.3,3.2l-2.8,3.7c-1.3-1.2-2.8-1.9-4.5-2.3v5
		c3.7,1,7.9,2.4,7.9,7.3C47.2,463.4,44.6,466.5,39.4,467z M36.3,451.4v-4.6c-1.8,0.2-2.8,1.1-2.8,2.4
		C33.4,450.3,34.6,450.9,36.3,451.4z M42,460c0-1.3-1.3-1.9-3-2.4v5C41.1,462.3,42,461.2,42,460z"/>
</g>
<g id="icons8-right" transform="translate(466.091 209.68) rotate(-90)" class="st13">
	<path id="Path_130" d="M139.4-446l-2.3,2.3l11.7,11.7h-364.7v3.2h364.7l-11.7,11.7l2.3,2.3l14.4-14.4l1.1-1.2l-1.1-1.2L139.4-446z"
		/>
</g>
</svg>
