<?xml version="1.0" encoding="UTF-8"?>
<svg id="Layer_1" data-name="Layer 1" xmlns="http://www.w3.org/2000/svg" viewBox="0 0 724.63 529.66">
  <defs>
    <style>
      .cls-1 {
        opacity: .6;
      }

      .cls-2 {
        opacity: .6;
      }

      .cls-3 {
        fill: #525252;
      }

      .cls-3, .cls-4, .cls-5, .cls-6, .cls-7 {
        stroke-width: 0px;
      }

      .cls-4 {
        fill: #7f8080;
      }

      .cls-5 {
        fill: #e5e5e5;
      }

      .cls-6 {
        fill: #010101;
      }

      .cls-7 {
        fill: #676767;
      }
    </style>
  </defs>
  <path class="cls-3" d="M362.31,54.07c-8.57,0-15.52-6.95-15.52-15.52,0-8.57,6.95-15.52,15.52-15.52s15.52,6.95,15.52,15.52c0,8.57-6.95,15.52-15.52,15.52ZM362.31,27.08c-6.34,0-11.47,5.14-11.47,11.47s5.14,11.47,11.47,11.47,11.47-5.14,11.47-11.47h0c0-6.33-5.12-11.47-11.45-11.47,0,0-.01,0-.02,0ZM337.28,78.36c-.36,0-.71-.09-1.01-.27-.96-.57-1.29-1.8-.74-2.77,8.41-14.79,27.22-19.97,42.01-11.56,4.82,2.74,8.82,6.74,11.56,11.56.56.97.23,2.21-.74,2.77s-2.21.23-2.77-.74h0c-7.29-12.86-23.62-17.37-36.48-10.08-4.21,2.39-7.69,5.87-10.08,10.08-.34.65-1.02,1.05-1.75,1.01Z"/>
  <g>
    <path class="cls-4" d="M330.04,93.77l-.84,2.54h-1.08l2.75-8.08h1.26l2.76,8.08h-1.12l-.86-2.54h-2.87ZM332.69,92.96l-.79-2.33c-.18-.53-.3-1.01-.42-1.48h-.02c-.12.48-.25.97-.41,1.46l-.79,2.34h2.43Z"/>
    <path class="cls-4" d="M340.91,87.8v7.02c0,.52.01,1.1.05,1.5h-.95l-.05-1.01h-.02c-.32.65-1.03,1.14-1.98,1.14-1.4,0-2.48-1.19-2.48-2.95-.01-1.93,1.19-3.12,2.6-3.12.89,0,1.49.42,1.75.89h.02v-3.47h1.06ZM339.85,92.87c0-.13-.01-.31-.05-.44-.16-.67-.73-1.22-1.52-1.22-1.09,0-1.74.96-1.74,2.24,0,1.17.58,2.15,1.71,2.15.71,0,1.36-.47,1.55-1.26.04-.14.05-.29.05-.46v-1.01Z"/>
    <path class="cls-4" d="M342.67,92.08c0-.6-.01-1.09-.05-1.57h.92l.05.94h.04c.32-.55.86-1.07,1.82-1.07.79,0,1.39.48,1.64,1.16h.02c.18-.32.41-.58.65-.76.35-.26.73-.41,1.28-.41.77,0,1.91.5,1.91,2.52v3.42h-1.03v-3.29c0-1.12-.41-1.79-1.26-1.79-.6,0-1.07.44-1.25.96-.05.14-.08.33-.08.53v3.59h-1.03v-3.48c0-.92-.41-1.59-1.21-1.59-.66,0-1.14.53-1.31,1.06-.06.16-.08.34-.08.52v3.5h-1.03v-4.23Z"/>
    <path class="cls-4" d="M353.85,88.88c.01.36-.25.65-.67.65-.37,0-.64-.29-.64-.65s.28-.66.66-.66.65.29.65.66ZM352.67,96.32v-5.8h1.05v5.8h-1.05Z"/>
    <path class="cls-4" d="M355.48,92.08c0-.6-.01-1.09-.05-1.57h.94l.06.96h.02c.29-.55.96-1.09,1.92-1.09.8,0,2.05.48,2.05,2.47v3.47h-1.05v-3.35c0-.94-.35-1.72-1.34-1.72-.7,0-1.24.49-1.42,1.08-.05.13-.07.31-.07.49v3.49h-1.05v-4.23Z"/>
    <path class="cls-4" d="M363.32,88.88c.01.36-.25.65-.67.65-.37,0-.64-.29-.64-.65s.28-.66.66-.66.65.29.65.66ZM362.14,96.32v-5.8h1.05v5.8h-1.05Z"/>
    <path class="cls-4" d="M364.8,95.24c.31.2.86.42,1.39.42.77,0,1.13-.38,1.13-.86s-.3-.78-1.08-1.07c-1.04-.37-1.54-.95-1.54-1.64,0-.94.76-1.7,2-1.7.59,0,1.1.17,1.43.36l-.26.77c-.23-.14-.65-.34-1.19-.34-.62,0-.97.36-.97.79,0,.48.35.7,1.1.98,1.01.38,1.52.89,1.52,1.75,0,1.02-.79,1.74-2.17,1.74-.64,0-1.22-.16-1.63-.4l.26-.8Z"/>
    <path class="cls-4" d="M370.97,88.84v1.67h1.51v.8h-1.51v3.13c0,.72.2,1.13.79,1.13.28,0,.48-.04.61-.07l.05.79c-.2.08-.53.14-.94.14-.49,0-.89-.16-1.14-.44-.3-.31-.41-.83-.41-1.51v-3.17h-.9v-.8h.9v-1.39l1.03-.28Z"/>
    <path class="cls-4" d="M373.67,92.32c0-.68-.01-1.27-.05-1.81h.92l.04,1.14h.05c.26-.78.9-1.27,1.61-1.27.12,0,.2.01.3.04v1c-.11-.02-.22-.04-.36-.04-.74,0-1.27.56-1.42,1.36-.02.14-.05.31-.05.49v3.09h-1.04v-3.99Z"/>
    <path class="cls-4" d="M380.75,96.32l-.08-.73h-.04c-.32.46-.95.86-1.78.86-1.17,0-1.77-.83-1.77-1.67,0-1.4,1.25-2.17,3.49-2.16v-.12c0-.48-.13-1.34-1.32-1.34-.54,0-1.1.17-1.51.43l-.24-.7c.48-.31,1.17-.52,1.91-.52,1.78,0,2.21,1.21,2.21,2.37v2.17c0,.5.02,1,.1,1.39h-.96ZM380.6,93.35c-1.15-.02-2.46.18-2.46,1.31,0,.68.46,1.01,1,1.01.76,0,1.24-.48,1.4-.97.04-.11.06-.23.06-.34v-1.01Z"/>
    <path class="cls-4" d="M384.54,88.84v1.67h1.51v.8h-1.51v3.13c0,.72.2,1.13.79,1.13.28,0,.48-.04.61-.07l.05.79c-.2.08-.53.14-.94.14-.49,0-.89-.16-1.14-.44-.3-.31-.41-.83-.41-1.51v-3.17h-.9v-.8h.9v-1.39l1.03-.28Z"/>
    <path class="cls-4" d="M392.43,93.37c0,2.15-1.49,3.08-2.89,3.08-1.57,0-2.78-1.15-2.78-2.99,0-1.94,1.27-3.08,2.88-3.08s2.79,1.21,2.79,2.99ZM387.82,93.43c0,1.27.73,2.23,1.76,2.23s1.76-.95,1.76-2.25c0-.98-.49-2.23-1.74-2.23s-1.79,1.15-1.79,2.25Z"/>
    <path class="cls-4" d="M393.76,92.32c0-.68-.01-1.27-.05-1.81h.92l.04,1.14h.05c.26-.78.9-1.27,1.61-1.27.12,0,.2.01.3.04v1c-.11-.02-.22-.04-.36-.04-.74,0-1.27.56-1.42,1.36-.02.14-.05.31-.05.49v3.09h-1.04v-3.99Z"/>
  </g>
  <path class="cls-3" d="M173.45,235.58c-8.57,0-15.52-6.95-15.52-15.52,0-8.57,6.95-15.52,15.52-15.52s15.52,6.95,15.52,15.52c0,8.57-6.95,15.52-15.52,15.52ZM173.45,208.59c-6.34,0-11.47,5.14-11.47,11.47s5.14,11.47,11.47,11.47,11.47-5.14,11.47-11.47h0c0-6.33-5.12-11.47-11.45-11.47,0,0-.01,0-.02,0ZM148.41,259.87c-.36,0-.71-.09-1.01-.27-.96-.57-1.29-1.8-.74-2.77,8.41-14.79,27.22-19.97,42.01-11.56,4.82,2.74,8.82,6.74,11.56,11.56.56.97.23,2.21-.74,2.77s-2.21.23-2.77-.74h0c-7.29-12.86-23.62-17.37-36.48-10.08-4.21,2.39-7.69,5.87-10.08,10.08-.34.65-1.02,1.05-1.75,1.01Z"/>
  <g>
    <path class="cls-4" d="M147.76,269.85c.53-.11,1.28-.17,2-.17,1.12,0,1.83.2,2.34.66.41.36.64.91.64,1.54,0,1.07-.67,1.78-1.52,2.06v.04c.62.22,1,.79,1.19,1.63.26,1.13.46,1.91.62,2.22h-1.08c-.13-.23-.31-.92-.54-1.93-.24-1.12-.67-1.54-1.62-1.57h-.98v3.5h-1.04v-7.98ZM148.8,273.54h1.07c1.12,0,1.82-.61,1.82-1.54,0-1.04-.76-1.5-1.86-1.51-.5,0-.86.05-1.03.1v2.95Z"/>
    <path class="cls-4" d="M154.81,275.12c.02,1.43.94,2.01,1.99,2.01.76,0,1.21-.13,1.61-.3l.18.76c-.37.17-1.01.36-1.93.36-1.79,0-2.85-1.18-2.85-2.93s1.03-3.13,2.72-3.13c1.89,0,2.4,1.67,2.4,2.73,0,.22-.02.38-.04.49h-4.08ZM157.91,274.36c.01-.67-.28-1.71-1.46-1.71-1.07,0-1.54.98-1.62,1.71h3.08Z"/>
    <path class="cls-4" d="M165.24,272.02c-.02.42-.05.89-.05,1.59v3.37c0,1.33-.26,2.15-.83,2.65-.56.53-1.38.7-2.11.7s-1.46-.17-1.93-.48l.26-.8c.38.24.98.46,1.7.46,1.08,0,1.87-.56,1.87-2.03v-.65h-.02c-.32.54-.95.97-1.85.97-1.44,0-2.47-1.22-2.47-2.83,0-1.97,1.28-3.08,2.61-3.08,1.01,0,1.56.53,1.81,1.01h.02l.05-.88h.92ZM164.15,274.31c0-.18-.01-.34-.06-.48-.19-.61-.71-1.12-1.48-1.12-1.01,0-1.73.85-1.73,2.19,0,1.14.58,2.09,1.71,2.09.65,0,1.24-.41,1.46-1.08.06-.18.08-.38.08-.56v-1.04Z"/>
    <path class="cls-4" d="M168.05,270.39c.01.36-.25.65-.67.65-.37,0-.64-.29-.64-.65s.28-.66.66-.66.65.29.65.66ZM166.88,277.83v-5.8h1.05v5.8h-1.05Z"/>
    <path class="cls-4" d="M169.54,276.75c.31.2.86.42,1.39.42.77,0,1.13-.38,1.13-.86,0-.5-.3-.78-1.08-1.07-1.04-.37-1.54-.95-1.54-1.64,0-.93.76-1.7,2-1.7.59,0,1.1.17,1.43.36l-.26.77c-.23-.14-.65-.34-1.19-.34-.62,0-.97.36-.97.79,0,.48.35.7,1.1.98,1.01.38,1.52.89,1.52,1.75,0,1.02-.79,1.74-2.17,1.74-.64,0-1.22-.16-1.63-.4l.26-.8Z"/>
    <path class="cls-4" d="M175.71,270.36v1.67h1.51v.8h-1.51v3.13c0,.72.2,1.13.79,1.13.28,0,.48-.04.61-.07l.05.79c-.2.08-.53.14-.94.14-.49,0-.89-.16-1.14-.44-.3-.31-.41-.83-.41-1.51v-3.17h-.9v-.8h.9v-1.39l1.03-.28Z"/>
    <path class="cls-4" d="M178.92,275.12c.02,1.43.94,2.01,1.99,2.01.76,0,1.21-.13,1.61-.3l.18.76c-.37.17-1.01.36-1.93.36-1.79,0-2.85-1.18-2.85-2.93s1.03-3.13,2.72-3.13c1.89,0,2.4,1.67,2.4,2.73,0,.22-.02.38-.04.49h-4.08ZM182.02,274.36c.01-.67-.28-1.71-1.46-1.71-1.07,0-1.54.98-1.62,1.71h3.08Z"/>
    <path class="cls-4" d="M184.35,273.84c0-.68-.01-1.27-.05-1.81h.92l.04,1.14h.05c.26-.78.9-1.27,1.61-1.27.12,0,.2.01.3.04v1c-.11-.02-.22-.04-.36-.04-.74,0-1.27.56-1.42,1.36-.02.14-.05.31-.05.49v3.09h-1.04v-3.99Z"/>
    <path class="cls-4" d="M188.74,275.12c.02,1.43.94,2.01,1.99,2.01.76,0,1.21-.13,1.61-.3l.18.76c-.37.17-1.01.36-1.93.36-1.79,0-2.85-1.18-2.85-2.93s1.03-3.13,2.72-3.13c1.89,0,2.4,1.67,2.4,2.73,0,.22-.02.38-.04.49h-4.08ZM191.83,274.36c.01-.67-.28-1.71-1.46-1.71-1.07,0-1.54.98-1.62,1.71h3.08Z"/>
    <path class="cls-4" d="M199.18,269.31v7.02c0,.52.01,1.1.05,1.5h-.95l-.05-1.01h-.02c-.32.65-1.03,1.14-1.98,1.14-1.4,0-2.48-1.19-2.48-2.95-.01-1.93,1.19-3.12,2.6-3.12.89,0,1.49.42,1.75.89h.02v-3.47h1.06ZM198.12,274.39c0-.13-.01-.31-.05-.44-.16-.67-.73-1.22-1.52-1.22-1.09,0-1.74.96-1.74,2.24,0,1.17.58,2.15,1.71,2.15.71,0,1.36-.47,1.55-1.26.04-.14.05-.29.05-.46v-1.01Z"/>
    <path class="cls-4" d="M132.06,281.75h4.35v.88h-3.31v2.69h3.06v.86h-3.06v3.66h-1.04v-8.08Z"/>
    <path class="cls-4" d="M138.73,282.39c.01.36-.25.65-.67.65-.37,0-.64-.29-.64-.65s.28-.66.66-.66.65.29.65.66ZM137.56,289.83v-5.8h1.05v5.8h-1.05Z"/>
    <path class="cls-4" d="M140.37,285.59c0-.6-.01-1.09-.05-1.57h.94l.06.96h.02c.29-.55.96-1.09,1.92-1.09.8,0,2.05.48,2.05,2.47v3.47h-1.05v-3.35c0-.94-.35-1.71-1.34-1.71-.7,0-1.24.49-1.42,1.08-.05.13-.07.31-.07.49v3.49h-1.05v-4.23Z"/>
    <path class="cls-4" d="M150.24,289.83l-.08-.73h-.04c-.32.46-.95.86-1.78.86-1.17,0-1.77-.83-1.77-1.67,0-1.4,1.25-2.17,3.49-2.16v-.12c0-.48-.13-1.34-1.32-1.34-.54,0-1.1.17-1.51.43l-.24-.7c.48-.31,1.17-.52,1.91-.52,1.78,0,2.21,1.21,2.21,2.37v2.17c0,.5.02,1,.1,1.39h-.96ZM150.09,286.87c-1.15-.02-2.46.18-2.46,1.31,0,.68.46,1.01,1,1.01.76,0,1.24-.48,1.4-.97.04-.11.06-.23.06-.34v-1.01Z"/>
    <path class="cls-4" d="M152.81,285.59c0-.6-.01-1.09-.05-1.57h.94l.06.96h.02c.29-.55.96-1.09,1.92-1.09.8,0,2.05.48,2.05,2.47v3.47h-1.05v-3.35c0-.94-.35-1.71-1.34-1.71-.7,0-1.24.49-1.42,1.08-.05.13-.07.31-.07.49v3.49h-1.05v-4.23Z"/>
    <path class="cls-4" d="M163.61,289.61c-.28.14-.89.34-1.67.34-1.75,0-2.89-1.19-2.89-2.96s1.22-3.08,3.12-3.08c.62,0,1.17.16,1.46.3l-.24.82c-.25-.14-.65-.28-1.22-.28-1.33,0-2.05.98-2.05,2.19,0,1.34.86,2.17,2.01,2.17.6,0,1-.16,1.29-.29l.18.79Z"/>
    <path class="cls-4" d="M166.02,282.39c.01.36-.25.65-.67.65-.37,0-.64-.29-.64-.65s.28-.66.66-.66.65.29.65.66ZM164.85,289.83v-5.8h1.05v5.8h-1.05Z"/>
    <path class="cls-4" d="M170.87,289.83l-.08-.73h-.04c-.32.46-.95.86-1.78.86-1.17,0-1.77-.83-1.77-1.67,0-1.4,1.25-2.17,3.49-2.16v-.12c0-.48-.13-1.34-1.32-1.34-.54,0-1.1.17-1.51.43l-.24-.7c.48-.31,1.17-.52,1.91-.52,1.78,0,2.21,1.21,2.21,2.37v2.17c0,.5.02,1,.1,1.39h-.96ZM170.71,286.87c-1.15-.02-2.46.18-2.46,1.31,0,.68.46,1.01,1,1.01.76,0,1.24-.48,1.4-.97.04-.11.06-.23.06-.34v-1.01Z"/>
    <path class="cls-4" d="M173.44,281.31h1.05v8.52h-1.05v-8.52Z"/>
    <path class="cls-4" d="M180.16,287.29l-.84,2.54h-1.08l2.75-8.08h1.26l2.76,8.08h-1.12l-.86-2.54h-2.87ZM182.81,286.47l-.79-2.33c-.18-.53-.3-1.01-.42-1.47h-.02c-.12.48-.25.97-.41,1.46l-.79,2.34h2.43Z"/>
    <path class="cls-4" d="M191.03,281.31v7.02c0,.52.01,1.1.05,1.5h-.95l-.05-1.01h-.02c-.32.65-1.03,1.14-1.98,1.14-1.4,0-2.48-1.19-2.48-2.95-.01-1.93,1.19-3.12,2.6-3.12.89,0,1.49.42,1.75.89h.02v-3.47h1.06ZM189.97,286.39c0-.13-.01-.31-.05-.44-.16-.67-.73-1.22-1.52-1.22-1.09,0-1.74.96-1.74,2.24,0,1.17.58,2.15,1.71,2.15.71,0,1.36-.47,1.55-1.26.04-.14.05-.29.05-.46v-1.01Z"/>
    <path class="cls-4" d="M193.19,284.02l1.14,3.26c.19.53.35,1.01.47,1.49h.04c.13-.48.3-.96.49-1.49l1.13-3.26h1.1l-2.28,5.8h-1.01l-2.21-5.8h1.13Z"/>
    <path class="cls-4" d="M199.73,282.39c.01.36-.25.65-.67.65-.37,0-.64-.29-.64-.65s.28-.66.66-.66.65.29.65.66ZM198.55,289.83v-5.8h1.05v5.8h-1.05Z"/>
    <path class="cls-4" d="M201.22,288.75c.31.2.86.42,1.39.42.77,0,1.13-.38,1.13-.86,0-.5-.3-.78-1.08-1.07-1.04-.37-1.54-.95-1.54-1.64,0-.93.76-1.7,2-1.7.59,0,1.1.17,1.43.36l-.26.77c-.23-.14-.65-.34-1.19-.34-.62,0-.97.36-.97.79,0,.48.35.7,1.1.98,1.01.38,1.52.89,1.52,1.75,0,1.02-.79,1.74-2.17,1.74-.64,0-1.22-.16-1.63-.4l.26-.8Z"/>
    <path class="cls-4" d="M211.37,286.88c0,2.15-1.49,3.08-2.89,3.08-1.57,0-2.78-1.15-2.78-2.99,0-1.94,1.27-3.08,2.88-3.08s2.79,1.21,2.79,2.99ZM206.76,286.94c0,1.27.73,2.23,1.76,2.23s1.76-.95,1.76-2.25c0-.98-.49-2.23-1.74-2.23s-1.79,1.15-1.79,2.25Z"/>
    <path class="cls-4" d="M212.7,285.84c0-.68-.01-1.27-.05-1.81h.92l.04,1.14h.05c.26-.78.9-1.27,1.61-1.27.12,0,.2.01.3.04v1c-.11-.02-.22-.04-.36-.04-.74,0-1.27.56-1.42,1.36-.02.14-.05.31-.05.49v3.09h-1.04v-3.99Z"/>
  </g>
  <path class="cls-3" d="M552.58,238.96c-8.57,0-15.52-6.95-15.52-15.52,0-8.57,6.95-15.52,15.52-15.52s15.52,6.95,15.52,15.52c0,8.57-6.95,15.52-15.52,15.52ZM552.58,211.97c-6.34,0-11.47,5.14-11.47,11.47s5.14,11.47,11.47,11.47,11.47-5.14,11.47-11.47h0c0-6.33-5.12-11.47-11.45-11.47,0,0-.01,0-.02,0ZM527.54,263.25c-.36,0-.71-.09-1.01-.27-.96-.57-1.29-1.8-.74-2.77,8.41-14.79,27.22-19.97,42.01-11.56,4.82,2.74,8.82,6.74,11.56,11.56.56.97.23,2.21-.74,2.77s-2.21.23-2.77-.74h0c-7.29-12.86-23.62-17.37-36.48-10.08-4.21,2.39-7.69,5.87-10.08,10.08-.34.65-1.02,1.05-1.75,1.01Z"/>
  <g>
    <path class="cls-4" d="M525.09,269.75v8.08h-1.04v-8.08h1.04Z"/>
    <path class="cls-4" d="M527,273.59c0-.6-.01-1.09-.05-1.57h.94l.06.96h.02c.29-.55.96-1.09,1.92-1.09.8,0,2.05.48,2.05,2.47v3.47h-1.05v-3.35c0-.94-.35-1.71-1.34-1.71-.7,0-1.24.49-1.42,1.08-.05.13-.07.31-.07.49v3.49h-1.05v-4.23Z"/>
    <path class="cls-4" d="M534.88,270.36v1.67h1.51v.8h-1.51v3.13c0,.72.2,1.13.79,1.13.28,0,.48-.04.61-.07l.05.79c-.2.08-.53.14-.94.14-.49,0-.89-.16-1.14-.44-.3-.31-.41-.83-.41-1.51v-3.17h-.9v-.8h.9v-1.39l1.03-.28Z"/>
    <path class="cls-4" d="M537.58,273.84c0-.68-.01-1.27-.05-1.81h.92l.04,1.14h.05c.26-.78.9-1.27,1.61-1.27.12,0,.2.01.3.04v1c-.11-.02-.22-.04-.36-.04-.74,0-1.27.56-1.42,1.36-.02.14-.05.31-.05.49v3.09h-1.04v-3.99Z"/>
    <path class="cls-4" d="M546.64,274.88c0,2.15-1.49,3.08-2.89,3.08-1.57,0-2.78-1.15-2.78-2.99,0-1.94,1.27-3.08,2.88-3.08s2.79,1.21,2.79,2.99ZM542.03,274.94c0,1.27.73,2.23,1.76,2.23s1.76-.95,1.76-2.25c0-.98-.49-2.23-1.74-2.23s-1.79,1.15-1.79,2.25Z"/>
    <path class="cls-4" d="M552.99,269.31v7.02c0,.52.01,1.1.05,1.5h-.95l-.05-1.01h-.02c-.32.65-1.03,1.14-1.98,1.14-1.4,0-2.48-1.19-2.48-2.95-.01-1.93,1.19-3.12,2.6-3.12.89,0,1.49.42,1.75.89h.02v-3.47h1.06ZM551.93,274.39c0-.13-.01-.31-.05-.44-.16-.67-.73-1.22-1.52-1.22-1.09,0-1.74.96-1.74,2.24,0,1.17.58,2.15,1.71,2.15.71,0,1.36-.47,1.55-1.26.04-.14.05-.29.05-.46v-1.01Z"/>
    <path class="cls-4" d="M559.6,276.25c0,.6.01,1.13.05,1.58h-.94l-.06-.95h-.02c-.28.47-.89,1.08-1.92,1.08-.91,0-2-.5-2-2.54v-3.39h1.05v3.21c0,1.1.34,1.85,1.3,1.85.71,0,1.2-.49,1.39-.96.06-.16.1-.35.1-.54v-3.56h1.05v4.22Z"/>
    <path class="cls-4" d="M565.49,277.61c-.28.14-.89.34-1.67.34-1.75,0-2.89-1.19-2.89-2.96s1.22-3.08,3.12-3.08c.62,0,1.17.16,1.46.3l-.24.82c-.25-.14-.65-.28-1.22-.28-1.33,0-2.05.98-2.05,2.19,0,1.34.86,2.17,2.01,2.17.6,0,1-.16,1.29-.29l.18.79Z"/>
    <path class="cls-4" d="M567.9,270.39c.01.36-.25.65-.67.65-.37,0-.64-.29-.64-.65s.28-.66.66-.66.65.29.65.66ZM566.73,277.83v-5.8h1.05v5.8h-1.05Z"/>
    <path class="cls-4" d="M569.54,273.59c0-.6-.01-1.09-.05-1.57h.94l.06.96h.02c.29-.55.96-1.09,1.92-1.09.8,0,2.05.48,2.05,2.47v3.47h-1.05v-3.35c0-.94-.35-1.71-1.34-1.71-.7,0-1.24.49-1.42,1.08-.05.13-.07.31-.07.49v3.49h-1.05v-4.23Z"/>
    <path class="cls-4" d="M581.2,272.02c-.02.42-.05.89-.05,1.59v3.37c0,1.33-.26,2.15-.83,2.65-.56.53-1.38.7-2.11.7s-1.46-.17-1.93-.48l.26-.8c.38.24.98.46,1.7.46,1.08,0,1.87-.56,1.87-2.03v-.65h-.02c-.32.54-.95.97-1.85.97-1.44,0-2.47-1.22-2.47-2.83,0-1.97,1.28-3.08,2.61-3.08,1.01,0,1.56.53,1.81,1.01h.02l.05-.88h.92ZM580.11,274.31c0-.18-.01-.34-.06-.48-.19-.61-.71-1.12-1.48-1.12-1.01,0-1.73.85-1.73,2.19,0,1.14.58,2.09,1.71,2.09.65,0,1.24-.41,1.46-1.08.06-.18.08-.38.08-.56v-1.04Z"/>
    <path class="cls-4" d="M535.99,281.85c.46-.1,1.18-.17,1.91-.17,1.04,0,1.71.18,2.22.59.42.31.67.79.67,1.43,0,.78-.52,1.46-1.37,1.78v.02c.77.19,1.67.83,1.67,2.03,0,.7-.28,1.22-.68,1.62-.56.52-1.48.75-2.79.75-.72,0-1.27-.05-1.62-.1v-7.95ZM537.03,285.16h.95c1.1,0,1.75-.58,1.75-1.35,0-.95-.72-1.32-1.77-1.32-.48,0-.76.04-.92.07v2.6ZM537.03,289.04c.2.04.5.05.88.05,1.08,0,2.08-.4,2.08-1.57,0-1.1-.95-1.56-2.09-1.56h-.86v3.08Z"/>
    <path class="cls-4" d="M542.46,285.84c0-.68-.01-1.27-.05-1.81h.92l.04,1.14h.05c.26-.78.9-1.27,1.61-1.27.12,0,.2.01.3.04v1c-.11-.02-.22-.04-.36-.04-.74,0-1.27.56-1.42,1.36-.02.14-.05.31-.05.49v3.09h-1.04v-3.99Z"/>
    <path class="cls-4" d="M551.52,286.88c0,2.15-1.49,3.08-2.89,3.08-1.57,0-2.78-1.15-2.78-2.99,0-1.94,1.27-3.08,2.88-3.08s2.79,1.21,2.79,2.99ZM546.91,286.94c0,1.27.73,2.23,1.76,2.23s1.76-.95,1.76-2.25c0-.98-.49-2.23-1.74-2.23s-1.79,1.15-1.79,2.25Z"/>
    <path class="cls-4" d="M553.89,286.69h.02c.14-.2.35-.46.52-.66l1.7-2h1.27l-2.24,2.39,2.55,3.42h-1.28l-2-2.78-.54.6v2.18h-1.04v-8.52h1.04v5.37Z"/>
    <path class="cls-4" d="M559.07,287.12c.02,1.43.94,2.01,1.99,2.01.76,0,1.21-.13,1.61-.3l.18.76c-.37.17-1.01.36-1.93.36-1.79,0-2.85-1.18-2.85-2.93s1.03-3.13,2.72-3.13c1.89,0,2.4,1.67,2.4,2.73,0,.22-.02.38-.04.49h-4.08ZM562.16,286.36c.01-.67-.28-1.71-1.46-1.71-1.07,0-1.54.98-1.62,1.71h3.08Z"/>
    <path class="cls-4" d="M564.49,285.84c0-.68-.01-1.27-.05-1.81h.92l.04,1.14h.05c.26-.78.9-1.27,1.61-1.27.12,0,.2.01.3.04v1c-.11-.02-.22-.04-.36-.04-.74,0-1.27.56-1.42,1.36-.02.14-.05.31-.05.49v3.09h-1.04v-3.99Z"/>
  </g>
  <g class="cls-1">
    <rect class="cls-5" x="502.28" y="318.75" width="100.61" height="69.69"/>
  </g>
  <g>
    <path class="cls-6" d="M527.16,341.49l-2.27-3.54h-1.78v3.54h-1.11v-8.92h3.58c1.63,0,2.79,1.04,2.79,2.69s-1.1,2.49-2.31,2.59l2.41,3.64h-1.31ZM525.45,333.56h-2.34v3.41h2.34c1.06,0,1.78-.71,1.78-1.71s-.72-1.7-1.78-1.7Z"/>
    <path class="cls-6" d="M532.5,334.87c1.95,0,3.1,1.52,3.1,3.46v.25h-5.23c.08,1.22.94,2.23,2.33,2.23.74,0,1.48-.29,1.99-.82l.48.66c-.64.64-1.51.99-2.57.99-1.91,0-3.29-1.38-3.29-3.39,0-1.87,1.34-3.38,3.18-3.38ZM530.37,337.85h4.24c-.01-.96-.66-2.15-2.13-2.15-1.38,0-2.06,1.16-2.11,2.15Z"/>
    <path class="cls-6" d="M537.71,342.39c.54.64,1.18.88,2.1.88,1.07,0,2.07-.52,2.07-1.94v-.92c-.47.66-1.26,1.15-2.17,1.15-1.68,0-2.87-1.26-2.87-3.34s1.18-3.35,2.87-3.35c.87,0,1.64.43,2.17,1.14v-.98h1v6.27c0,2.14-1.5,2.81-3.07,2.81-1.1,0-1.84-.21-2.61-.96l.51-.75ZM541.88,336.81c-.35-.56-1.12-1.04-1.92-1.04-1.3,0-2.07,1.03-2.07,2.46s.78,2.46,2.07,2.46c.8,0,1.58-.49,1.92-1.06v-2.82Z"/>
    <path class="cls-6" d="M544.72,333.26c0-.37.31-.67.67-.67s.68.29.68.67-.31.68-.68.68-.67-.31-.67-.68ZM544.89,341.49v-6.46h1v6.46h-1Z"/>
    <path class="cls-6" d="M547.86,339.91c.43.5,1.24.92,2.13.92.99,0,1.52-.44,1.52-1.07,0-.71-.79-.94-1.66-1.15-1.1-.25-2.34-.55-2.34-1.88,0-1,.87-1.86,2.41-1.86,1.1,0,1.87.41,2.39.94l-.47.7c-.39-.47-1.1-.82-1.92-.82-.88,0-1.43.4-1.43.98,0,.63.74.83,1.58,1.03,1.12.25,2.42.58,2.42,2,0,1.08-.87,1.95-2.54,1.95-1.06,0-1.95-.32-2.61-1.02l.52-.72Z"/>
    <path class="cls-6" d="M554.32,340.14v-4.22h-1.07v-.88h1.07v-1.76h1v1.76h1.31v.88h-1.31v4.01c0,.48.21.83.66.83.28,0,.55-.12.68-.27l.29.75c-.25.24-.61.41-1.2.41-.95,0-1.43-.55-1.43-1.51Z"/>
    <path class="cls-6" d="M560.86,334.87c1.95,0,3.1,1.52,3.1,3.46v.25h-5.23c.08,1.22.94,2.23,2.33,2.23.74,0,1.48-.29,1.99-.82l.48.66c-.64.64-1.51.99-2.57.99-1.91,0-3.29-1.38-3.29-3.39,0-1.87,1.34-3.38,3.18-3.38ZM558.73,337.85h4.24c-.01-.96-.66-2.15-2.13-2.15-1.38,0-2.06,1.16-2.11,2.15Z"/>
    <path class="cls-6" d="M565.58,341.49v-6.46h1v1.04c.52-.68,1.27-1.18,2.15-1.18v1.03c-.12-.03-.24-.04-.4-.04-.61,0-1.46.51-1.75,1.03v4.57h-1Z"/>
    <path class="cls-6" d="M572.8,334.87c1.95,0,3.1,1.52,3.1,3.46v.25h-5.23c.08,1.22.94,2.23,2.33,2.23.74,0,1.48-.29,1.99-.82l.48.66c-.64.64-1.51.99-2.57.99-1.91,0-3.29-1.38-3.29-3.39,0-1.87,1.34-3.38,3.18-3.38ZM570.67,337.85h4.24c-.01-.96-.66-2.15-2.13-2.15-1.38,0-2.06,1.16-2.11,2.15Z"/>
    <path class="cls-6" d="M582.2,341.49v-.96c-.48.65-1.27,1.12-2.18,1.12-1.68,0-2.87-1.28-2.87-3.38s1.18-3.4,2.87-3.4c.87,0,1.66.43,2.18,1.14v-3.43h1v8.92h-1ZM582.2,336.81c-.36-.56-1.14-1.04-1.94-1.04-1.3,0-2.07,1.07-2.07,2.5s.78,2.49,2.07,2.49c.8,0,1.58-.45,1.94-1.02v-2.93Z"/>
    <path class="cls-6" d="M527.71,357.53v-8.92h5.84v.99h-4.73v2.87h4.64v.99h-4.64v4.06h-1.11Z"/>
    <path class="cls-6" d="M534.85,349.31c0-.37.31-.67.67-.67s.68.29.68.67-.31.68-.68.68-.67-.31-.67-.68ZM535.03,357.53v-6.46h1v6.46h-1Z"/>
    <path class="cls-6" d="M542.39,357.53v-4.22c0-1.14-.58-1.5-1.44-1.5-.79,0-1.54.48-1.91,1v4.72h-1v-6.46h1v.94c.45-.53,1.34-1.1,2.3-1.1,1.35,0,2.06.68,2.06,2.08v4.53h-1Z"/>
    <path class="cls-6" d="M549.44,357.53v-.74c-.53.59-1.27.9-2.14.9-1.1,0-2.26-.73-2.26-2.14s1.16-2.12,2.26-2.12c.88,0,1.62.28,2.14.88v-1.16c0-.87-.7-1.36-1.63-1.36-.78,0-1.4.28-1.98.9l-.47-.7c.7-.72,1.52-1.07,2.58-1.07,1.36,0,2.5.62,2.5,2.18v4.44h-1ZM549.44,354.95c-.39-.54-1.07-.8-1.78-.8-.94,0-1.59.59-1.59,1.42s.66,1.4,1.59,1.4c.71,0,1.39-.27,1.78-.8v-1.22Z"/>
    <path class="cls-6" d="M556.8,357.53v-4.22c0-1.14-.58-1.5-1.44-1.5-.79,0-1.54.48-1.91,1v4.72h-1v-6.46h1v.94c.45-.53,1.34-1.1,2.3-1.1,1.35,0,2.06.68,2.06,2.08v4.53h-1Z"/>
    <path class="cls-6" d="M562.66,350.92c1.18,0,1.87.48,2.37,1.12l-.67.61c-.43-.59-.98-.84-1.64-.84-1.38,0-2.23,1.06-2.23,2.49s.86,2.5,2.23,2.5c.67,0,1.22-.27,1.64-.84l.67.62c-.5.64-1.19,1.12-2.37,1.12-1.92,0-3.22-1.47-3.22-3.39s1.3-3.38,3.22-3.38Z"/>
    <path class="cls-6" d="M566.26,349.31c0-.37.31-.67.67-.67s.68.29.68.67-.31.68-.68.68-.67-.31-.67-.68ZM566.43,357.53v-6.46h1v6.46h-1Z"/>
    <path class="cls-6" d="M573.48,357.53v-.74c-.53.59-1.27.9-2.14.9-1.1,0-2.26-.73-2.26-2.14s1.16-2.12,2.26-2.12c.88,0,1.62.28,2.14.88v-1.16c0-.87-.7-1.36-1.63-1.36-.78,0-1.4.28-1.98.9l-.47-.7c.7-.72,1.52-1.07,2.58-1.07,1.36,0,2.5.62,2.5,2.18v4.44h-1ZM573.48,354.95c-.39-.54-1.07-.8-1.78-.8-.94,0-1.59.59-1.59,1.42s.66,1.4,1.59,1.4c.71,0,1.39-.27,1.78-.8v-1.22Z"/>
    <path class="cls-6" d="M576.49,357.53v-8.92h1v8.92h-1Z"/>
    <path class="cls-6" d="M537.86,373.58l-.79-1.98h-4.52l-.79,1.98h-1.23l3.58-8.92h1.38l3.6,8.92h-1.23ZM534.82,365.65l-1.94,4.96h3.86l-1.92-4.96Z"/>
    <path class="cls-6" d="M544.9,373.58v-.96c-.48.65-1.27,1.12-2.18,1.12-1.68,0-2.87-1.28-2.87-3.38s1.18-3.39,2.87-3.39c.87,0,1.66.43,2.18,1.14v-3.44h1v8.92h-1ZM544.9,368.9c-.36-.56-1.14-1.04-1.94-1.04-1.3,0-2.07,1.07-2.07,2.5s.78,2.49,2.07,2.49c.8,0,1.58-.45,1.94-1.02v-2.93Z"/>
    <path class="cls-6" d="M549.63,373.58l-2.69-6.46h1.08l2.15,5.29,2.14-5.29h1.1l-2.69,6.46h-1.1Z"/>
    <path class="cls-6" d="M554.29,365.36c0-.37.31-.67.67-.67s.68.29.68.67-.31.68-.68.68-.67-.31-.67-.68ZM554.46,373.58v-6.46h1v6.46h-1Z"/>
    <path class="cls-6" d="M557.43,372c.43.49,1.24.92,2.13.92.99,0,1.52-.44,1.52-1.07,0-.71-.79-.94-1.66-1.15-1.1-.25-2.34-.55-2.34-1.88,0-1,.87-1.86,2.41-1.86,1.1,0,1.87.41,2.39.94l-.47.7c-.39-.47-1.1-.82-1.92-.82-.88,0-1.43.4-1.43.98,0,.63.74.83,1.58,1.03,1.12.25,2.42.57,2.42,2,0,1.08-.87,1.95-2.54,1.95-1.06,0-1.95-.32-2.61-1.02l.52-.72Z"/>
    <path class="cls-6" d="M563.31,370.34c0-1.87,1.23-3.38,3.2-3.38s3.19,1.51,3.19,3.38-1.23,3.39-3.19,3.39-3.2-1.52-3.2-3.39ZM568.64,370.34c0-1.31-.76-2.49-2.14-2.49s-2.15,1.18-2.15,2.49.78,2.5,2.15,2.5,2.14-1.18,2.14-2.5Z"/>
    <path class="cls-6" d="M571.33,373.58v-6.46h1v1.04c.52-.68,1.27-1.18,2.15-1.18v1.03c-.12-.03-.24-.04-.4-.04-.61,0-1.46.51-1.75,1.03v4.57h-1Z"/>
  </g>
  <g class="cls-1">
    <rect class="cls-5" x="201.2" y="142.74" width="70.18" height="40.66"/>
  </g>
  <g>
    <path class="cls-6" d="M220.08,159.44v-8.92h3.58c1.79,0,2.79,1.23,2.79,2.69s-1.03,2.69-2.79,2.69h-2.47v3.54h-1.11ZM223.53,151.52h-2.34v3.4h2.34c1.06,0,1.78-.7,1.78-1.7s-.72-1.7-1.78-1.7Z"/>
    <path class="cls-6" d="M227.34,156.21c0-1.87,1.23-3.38,3.2-3.38s3.19,1.51,3.19,3.38-1.23,3.4-3.19,3.4-3.2-1.52-3.2-3.4ZM232.67,156.21c0-1.31-.76-2.49-2.14-2.49s-2.15,1.18-2.15,2.49.78,2.5,2.15,2.5,2.14-1.18,2.14-2.5Z"/>
    <path class="cls-6" d="M235.36,159.44v-8.92h1v8.92h-1Z"/>
    <path class="cls-6" d="M238.2,151.22c0-.37.31-.67.67-.67s.68.29.68.67-.31.68-.68.68-.67-.31-.67-.68ZM238.37,159.44v-6.46h1v6.46h-1Z"/>
    <path class="cls-6" d="M244.23,152.82c1.18,0,1.87.48,2.37,1.12l-.67.61c-.43-.59-.98-.84-1.64-.84-1.38,0-2.23,1.06-2.23,2.49s.86,2.5,2.23,2.5c.67,0,1.22-.27,1.64-.84l.67.61c-.5.64-1.19,1.12-2.37,1.12-1.92,0-3.22-1.47-3.22-3.4s1.3-3.38,3.22-3.38Z"/>
    <path class="cls-6" d="M247.8,161.06c.15.07.39.11.55.11.44,0,.74-.15.96-.68l.43-.98-2.7-6.52h1.08l2.15,5.29,2.14-5.29h1.1l-3.24,7.77c-.39.94-1.04,1.3-1.9,1.31-.21,0-.55-.04-.74-.09l.16-.91Z"/>
    <path class="cls-6" d="M219.56,175.49l-.79-1.98h-4.52l-.79,1.98h-1.23l3.58-8.92h1.38l3.6,8.92h-1.23ZM216.51,167.56l-1.94,4.96h3.86l-1.92-4.96Z"/>
    <path class="cls-6" d="M224.76,168.87c1.18,0,1.87.48,2.37,1.12l-.67.61c-.43-.59-.98-.84-1.64-.84-1.38,0-2.23,1.06-2.23,2.49s.86,2.5,2.23,2.5c.67,0,1.22-.27,1.64-.84l.67.61c-.5.64-1.19,1.12-2.37,1.12-1.92,0-3.22-1.47-3.22-3.4s1.3-3.38,3.22-3.38Z"/>
    <path class="cls-6" d="M231.38,168.87c1.18,0,1.87.48,2.37,1.12l-.67.61c-.43-.59-.98-.84-1.64-.84-1.38,0-2.23,1.06-2.23,2.49s.86,2.5,2.23,2.5c.67,0,1.22-.27,1.64-.84l.67.61c-.5.64-1.19,1.12-2.37,1.12-1.92,0-3.22-1.47-3.22-3.4s1.3-3.38,3.22-3.38Z"/>
    <path class="cls-6" d="M234.78,172.25c0-1.87,1.23-3.38,3.2-3.38s3.19,1.51,3.19,3.38-1.23,3.4-3.19,3.4-3.2-1.52-3.2-3.4ZM240.12,172.25c0-1.31-.76-2.49-2.14-2.49s-2.15,1.18-2.15,2.49.78,2.5,2.15,2.5,2.14-1.18,2.14-2.5Z"/>
    <path class="cls-6" d="M247.16,175.49v-.91c-.5.56-1.34,1.07-2.3,1.07-1.35,0-2.06-.65-2.06-2.06v-4.56h1v4.25c0,1.14.58,1.47,1.44,1.47.79,0,1.54-.45,1.91-.98v-4.75h1v6.46h-1Z"/>
    <path class="cls-6" d="M254.53,175.49v-4.22c0-1.14-.58-1.5-1.44-1.5-.79,0-1.54.48-1.91,1v4.72h-1v-6.46h1v.94c.45-.53,1.34-1.1,2.3-1.1,1.35,0,2.06.68,2.06,2.09v4.53h-1Z"/>
    <path class="cls-6" d="M257.74,174.14v-4.22h-1.07v-.88h1.07v-1.76h1v1.76h1.31v.88h-1.31v4.01c0,.48.21.83.66.83.28,0,.55-.12.68-.27l.29.75c-.25.24-.61.41-1.2.41-.95,0-1.43-.55-1.43-1.51Z"/>
  </g>
  <g>
    <g class="cls-1">
      <rect class="cls-5" x="284.68" y="142.74" width="70.18" height="40.66"/>
    </g>
    <g>
      <path class="cls-6" d="M303.55,159.44v-8.92h3.58c1.79,0,2.79,1.23,2.79,2.69s-1.03,2.69-2.79,2.69h-2.47v3.54h-1.11ZM307,151.52h-2.34v3.4h2.34c1.06,0,1.78-.7,1.78-1.7s-.72-1.7-1.78-1.7Z"/>
      <path class="cls-6" d="M310.81,156.21c0-1.87,1.23-3.38,3.2-3.38s3.19,1.51,3.19,3.38-1.23,3.4-3.19,3.4-3.2-1.52-3.2-3.4ZM316.15,156.21c0-1.31-.76-2.49-2.14-2.49s-2.15,1.18-2.15,2.49.78,2.5,2.15,2.5,2.14-1.18,2.14-2.5Z"/>
      <path class="cls-6" d="M318.84,159.44v-8.92h1v8.92h-1Z"/>
      <path class="cls-6" d="M321.67,151.22c0-.37.31-.67.67-.67s.68.29.68.67-.31.68-.68.68-.67-.31-.67-.68ZM321.84,159.44v-6.46h1v6.46h-1Z"/>
      <path class="cls-6" d="M327.7,152.82c1.18,0,1.87.48,2.37,1.12l-.67.61c-.43-.59-.98-.84-1.64-.84-1.38,0-2.23,1.06-2.23,2.49s.86,2.5,2.23,2.5c.67,0,1.22-.27,1.64-.84l.67.61c-.5.64-1.19,1.12-2.37,1.12-1.92,0-3.22-1.47-3.22-3.4s1.3-3.38,3.22-3.38Z"/>
      <path class="cls-6" d="M331.27,161.06c.15.07.39.11.55.11.44,0,.74-.15.96-.68l.43-.98-2.7-6.52h1.08l2.15,5.29,2.14-5.29h1.1l-3.24,7.77c-.39.94-1.04,1.3-1.9,1.31-.21,0-.55-.04-.74-.09l.16-.91Z"/>
      <path class="cls-6" d="M303.04,175.49l-.79-1.98h-4.52l-.79,1.98h-1.23l3.58-8.92h1.38l3.6,8.92h-1.23ZM299.99,167.56l-1.94,4.96h3.86l-1.92-4.96Z"/>
      <path class="cls-6" d="M308.24,168.87c1.18,0,1.87.48,2.37,1.12l-.67.61c-.43-.59-.98-.84-1.64-.84-1.38,0-2.23,1.06-2.23,2.49s.86,2.5,2.23,2.5c.67,0,1.22-.27,1.64-.84l.67.61c-.5.64-1.19,1.12-2.37,1.12-1.92,0-3.22-1.47-3.22-3.4s1.3-3.38,3.22-3.38Z"/>
      <path class="cls-6" d="M314.86,168.87c1.18,0,1.87.48,2.37,1.12l-.67.61c-.43-.59-.98-.84-1.64-.84-1.38,0-2.23,1.06-2.23,2.49s.86,2.5,2.23,2.5c.67,0,1.22-.27,1.64-.84l.67.61c-.5.64-1.19,1.12-2.37,1.12-1.92,0-3.22-1.47-3.22-3.4s1.3-3.38,3.22-3.38Z"/>
      <path class="cls-6" d="M318.25,172.25c0-1.87,1.23-3.38,3.2-3.38s3.19,1.51,3.19,3.38-1.23,3.4-3.19,3.4-3.2-1.52-3.2-3.4ZM323.59,172.25c0-1.31-.76-2.49-2.14-2.49s-2.15,1.18-2.15,2.49.78,2.5,2.15,2.5,2.14-1.18,2.14-2.5Z"/>
      <path class="cls-6" d="M330.64,175.49v-.91c-.5.56-1.34,1.07-2.3,1.07-1.35,0-2.06-.65-2.06-2.06v-4.56h1v4.25c0,1.14.58,1.47,1.44,1.47.79,0,1.54-.45,1.91-.98v-4.75h1v6.46h-1Z"/>
      <path class="cls-6" d="M338,175.49v-4.22c0-1.14-.58-1.5-1.44-1.5-.79,0-1.54.48-1.91,1v4.72h-1v-6.46h1v.94c.45-.53,1.34-1.1,2.3-1.1,1.35,0,2.06.68,2.06,2.09v4.53h-1Z"/>
      <path class="cls-6" d="M341.21,174.14v-4.22h-1.07v-.88h1.07v-1.76h1v1.76h1.31v.88h-1.31v4.01c0,.48.21.83.66.83.28,0,.55-.12.68-.27l.29.75c-.25.24-.61.41-1.2.41-.95,0-1.43-.55-1.43-1.51Z"/>
    </g>
  </g>
  <g>
    <g class="cls-1">
      <rect class="cls-5" x="368.15" y="142.74" width="70.18" height="40.66"/>
    </g>
    <g>
      <path class="cls-6" d="M387.02,159.44v-8.92h3.58c1.79,0,2.79,1.23,2.79,2.69s-1.03,2.69-2.79,2.69h-2.47v3.54h-1.11ZM390.47,151.52h-2.34v3.4h2.34c1.06,0,1.78-.7,1.78-1.7s-.72-1.7-1.78-1.7Z"/>
      <path class="cls-6" d="M394.28,156.21c0-1.87,1.23-3.38,3.2-3.38s3.19,1.51,3.19,3.38-1.23,3.4-3.19,3.4-3.2-1.52-3.2-3.4ZM399.62,156.21c0-1.31-.76-2.49-2.14-2.49s-2.15,1.18-2.15,2.49.78,2.5,2.15,2.5,2.14-1.18,2.14-2.5Z"/>
      <path class="cls-6" d="M402.31,159.44v-8.92h1v8.92h-1Z"/>
      <path class="cls-6" d="M405.14,151.22c0-.37.31-.67.67-.67s.68.29.68.67-.31.68-.68.68-.67-.31-.67-.68ZM405.32,159.44v-6.46h1v6.46h-1Z"/>
      <path class="cls-6" d="M411.17,152.82c1.18,0,1.87.48,2.37,1.12l-.67.61c-.43-.59-.98-.84-1.64-.84-1.38,0-2.23,1.06-2.23,2.49s.86,2.5,2.23,2.5c.67,0,1.22-.27,1.64-.84l.67.61c-.5.64-1.19,1.12-2.37,1.12-1.92,0-3.22-1.47-3.22-3.4s1.3-3.38,3.22-3.38Z"/>
      <path class="cls-6" d="M414.74,161.06c.15.07.39.11.55.11.44,0,.74-.15.96-.68l.43-.98-2.7-6.52h1.08l2.15,5.29,2.14-5.29h1.1l-3.24,7.77c-.39.94-1.04,1.3-1.9,1.31-.21,0-.55-.04-.74-.09l.16-.91Z"/>
      <path class="cls-6" d="M386.51,175.49l-.79-1.98h-4.52l-.79,1.98h-1.23l3.58-8.92h1.38l3.6,8.92h-1.23ZM383.46,167.56l-1.94,4.96h3.86l-1.92-4.96Z"/>
      <path class="cls-6" d="M391.71,168.87c1.18,0,1.87.48,2.37,1.12l-.67.61c-.43-.59-.98-.84-1.64-.84-1.38,0-2.23,1.06-2.23,2.49s.86,2.5,2.23,2.5c.67,0,1.22-.27,1.64-.84l.67.61c-.5.64-1.19,1.12-2.37,1.12-1.92,0-3.22-1.47-3.22-3.4s1.3-3.38,3.22-3.38Z"/>
      <path class="cls-6" d="M398.33,168.87c1.18,0,1.87.48,2.37,1.12l-.67.61c-.43-.59-.98-.84-1.64-.84-1.38,0-2.23,1.06-2.23,2.49s.86,2.5,2.23,2.5c.67,0,1.22-.27,1.64-.84l.67.61c-.5.64-1.19,1.12-2.37,1.12-1.92,0-3.22-1.47-3.22-3.4s1.3-3.38,3.22-3.38Z"/>
      <path class="cls-6" d="M401.73,172.25c0-1.87,1.23-3.38,3.2-3.38s3.19,1.51,3.19,3.38-1.23,3.4-3.19,3.4-3.2-1.52-3.2-3.4ZM407.06,172.25c0-1.31-.76-2.49-2.14-2.49s-2.15,1.18-2.15,2.49.78,2.5,2.15,2.5,2.14-1.18,2.14-2.5Z"/>
      <path class="cls-6" d="M414.11,175.49v-.91c-.5.56-1.34,1.07-2.3,1.07-1.35,0-2.06-.65-2.06-2.06v-4.56h1v4.25c0,1.14.58,1.47,1.44,1.47.79,0,1.54-.45,1.91-.98v-4.75h1v6.46h-1Z"/>
      <path class="cls-6" d="M421.47,175.49v-4.22c0-1.14-.58-1.5-1.44-1.5-.79,0-1.54.48-1.91,1v4.72h-1v-6.46h1v.94c.45-.53,1.34-1.1,2.3-1.1,1.35,0,2.06.68,2.06,2.09v4.53h-1Z"/>
      <path class="cls-6" d="M424.68,174.14v-4.22h-1.07v-.88h1.07v-1.76h1v1.76h1.31v.88h-1.31v4.01c0,.48.21.83.66.83.28,0,.55-.12.68-.27l.29.75c-.25.24-.61.41-1.2.41-.95,0-1.43-.55-1.43-1.51Z"/>
    </g>
  </g>
  <g>
    <g class="cls-1">
      <rect class="cls-5" x="451.62" y="142.74" width="70.18" height="40.66"/>
    </g>
    <g>
      <path class="cls-6" d="M470.5,159.44v-8.92h3.58c1.79,0,2.79,1.23,2.79,2.69s-1.03,2.69-2.79,2.69h-2.47v3.54h-1.11ZM473.95,151.52h-2.34v3.4h2.34c1.06,0,1.78-.7,1.78-1.7s-.72-1.7-1.78-1.7Z"/>
      <path class="cls-6" d="M477.76,156.21c0-1.87,1.23-3.38,3.2-3.38s3.19,1.51,3.19,3.38-1.23,3.4-3.19,3.4-3.2-1.52-3.2-3.4ZM483.09,156.21c0-1.31-.76-2.49-2.14-2.49s-2.15,1.18-2.15,2.49.78,2.5,2.15,2.5,2.14-1.18,2.14-2.5Z"/>
      <path class="cls-6" d="M485.78,159.44v-8.92h1v8.92h-1Z"/>
      <path class="cls-6" d="M488.62,151.22c0-.37.31-.67.67-.67s.68.29.68.67-.31.68-.68.68-.67-.31-.67-.68ZM488.79,159.44v-6.46h1v6.46h-1Z"/>
      <path class="cls-6" d="M494.64,152.82c1.18,0,1.87.48,2.37,1.12l-.67.61c-.43-.59-.98-.84-1.64-.84-1.38,0-2.23,1.06-2.23,2.49s.86,2.5,2.23,2.5c.67,0,1.22-.27,1.64-.84l.67.61c-.5.64-1.19,1.12-2.37,1.12-1.92,0-3.22-1.47-3.22-3.4s1.3-3.38,3.22-3.38Z"/>
      <path class="cls-6" d="M498.22,161.06c.15.07.39.11.55.11.44,0,.74-.15.96-.68l.43-.98-2.7-6.52h1.08l2.15,5.29,2.14-5.29h1.1l-3.24,7.77c-.39.94-1.04,1.3-1.9,1.31-.21,0-.55-.04-.74-.09l.16-.91Z"/>
      <path class="cls-6" d="M469.98,175.49l-.79-1.98h-4.52l-.79,1.98h-1.23l3.58-8.92h1.38l3.6,8.92h-1.23ZM466.93,167.56l-1.94,4.96h3.86l-1.92-4.96Z"/>
      <path class="cls-6" d="M475.18,168.87c1.18,0,1.87.48,2.37,1.12l-.67.61c-.43-.59-.98-.84-1.64-.84-1.38,0-2.23,1.06-2.23,2.49s.86,2.5,2.23,2.5c.67,0,1.22-.27,1.64-.84l.67.61c-.5.64-1.19,1.12-2.37,1.12-1.92,0-3.22-1.47-3.22-3.4s1.3-3.38,3.22-3.38Z"/>
      <path class="cls-6" d="M481.8,168.87c1.18,0,1.87.48,2.37,1.12l-.67.61c-.43-.59-.98-.84-1.64-.84-1.38,0-2.23,1.06-2.23,2.49s.86,2.5,2.23,2.5c.67,0,1.22-.27,1.64-.84l.67.61c-.5.64-1.19,1.12-2.37,1.12-1.92,0-3.22-1.47-3.22-3.4s1.3-3.38,3.22-3.38Z"/>
      <path class="cls-6" d="M485.2,172.25c0-1.87,1.23-3.38,3.2-3.38s3.19,1.51,3.19,3.38-1.23,3.4-3.19,3.4-3.2-1.52-3.2-3.4ZM490.53,172.25c0-1.31-.76-2.49-2.14-2.49s-2.15,1.18-2.15,2.49.78,2.5,2.15,2.5,2.14-1.18,2.14-2.5Z"/>
      <path class="cls-6" d="M497.58,175.49v-.91c-.5.56-1.34,1.07-2.3,1.07-1.35,0-2.06-.65-2.06-2.06v-4.56h1v4.25c0,1.14.58,1.47,1.44,1.47.79,0,1.54-.45,1.91-.98v-4.75h1v6.46h-1Z"/>
      <path class="cls-6" d="M504.95,175.49v-4.22c0-1.14-.58-1.5-1.44-1.5-.79,0-1.54.48-1.91,1v4.72h-1v-6.46h1v.94c.45-.53,1.34-1.1,2.3-1.1,1.35,0,2.06.68,2.06,2.09v4.53h-1Z"/>
      <path class="cls-6" d="M508.16,174.14v-4.22h-1.07v-.88h1.07v-1.76h1v1.76h1.31v.88h-1.31v4.01c0,.48.21.83.66.83.28,0,.55-.12.68-.27l.29.75c-.25.24-.61.41-1.2.41-.95,0-1.43-.55-1.43-1.51Z"/>
    </g>
  </g>
  <g>
    <g class="cls-1">
      <rect class="cls-5" x="10.39" y="338.8" width="70.18" height="40.66"/>
    </g>
    <g>
      <path class="cls-6" d="M29.22,350.05c0-2.74,2.02-4.61,4.54-4.61,1.62,0,2.71.76,3.42,1.76l-.94.52c-.51-.75-1.43-1.3-2.49-1.3-1.91,0-3.4,1.5-3.4,3.62s1.48,3.62,3.4,3.62c1.06,0,1.98-.54,2.49-1.3l.95.52c-.75,1.02-1.82,1.76-3.44,1.76-2.53,0-4.54-1.87-4.54-4.61Z"/>
      <path class="cls-6" d="M38.58,354.5v-8.92h1v8.92h-1Z"/>
      <path class="cls-6" d="M41.41,346.28c0-.37.31-.67.67-.67s.68.29.68.67-.31.68-.68.68-.67-.31-.67-.68ZM41.58,354.5v-6.46h1v6.46h-1Z"/>
      <path class="cls-6" d="M47.4,347.89c1.95,0,3.1,1.52,3.1,3.46v.25h-5.23c.08,1.22.94,2.23,2.33,2.23.74,0,1.48-.29,1.99-.82l.48.66c-.64.64-1.51.99-2.57.99-1.91,0-3.29-1.38-3.29-3.39,0-1.87,1.34-3.38,3.18-3.38ZM45.27,350.87h4.24c-.01-.96-.66-2.15-2.13-2.15-1.38,0-2.06,1.16-2.11,2.15Z"/>
      <path class="cls-6" d="M56.48,354.5v-4.22c0-1.14-.58-1.5-1.44-1.5-.79,0-1.54.48-1.91,1v4.72h-1v-6.46h1v.94c.45-.53,1.34-1.1,2.3-1.1,1.35,0,2.06.68,2.06,2.08v4.53h-1Z"/>
      <path class="cls-6" d="M59.69,353.15v-4.22h-1.07v-.88h1.07v-1.76h1v1.76h1.31v.88h-1.31v4.01c0,.48.21.83.66.83.28,0,.55-.12.68-.27l.29.75c-.25.24-.61.41-1.2.41-.95,0-1.43-.55-1.43-1.51Z"/>
      <path class="cls-6" d="M28.75,370.55l-.79-1.98h-4.52l-.79,1.98h-1.23l3.58-8.92h1.38l3.6,8.92h-1.23ZM25.7,362.62l-1.94,4.96h3.86l-1.92-4.96Z"/>
      <path class="cls-6" d="M33.95,363.93c1.18,0,1.87.48,2.37,1.12l-.67.61c-.43-.59-.98-.84-1.64-.84-1.38,0-2.23,1.06-2.23,2.49s.86,2.5,2.23,2.5c.67,0,1.22-.27,1.64-.84l.67.62c-.5.64-1.19,1.12-2.37,1.12-1.92,0-3.22-1.47-3.22-3.39s1.3-3.38,3.22-3.38Z"/>
      <path class="cls-6" d="M40.57,363.93c1.18,0,1.87.48,2.37,1.12l-.67.61c-.43-.59-.98-.84-1.64-.84-1.38,0-2.23,1.06-2.23,2.49s.86,2.5,2.23,2.5c.67,0,1.22-.27,1.64-.84l.67.62c-.5.64-1.19,1.12-2.37,1.12-1.92,0-3.22-1.47-3.22-3.39s1.3-3.38,3.22-3.38Z"/>
      <path class="cls-6" d="M43.96,367.31c0-1.87,1.23-3.38,3.2-3.38s3.19,1.51,3.19,3.38-1.23,3.39-3.19,3.39-3.2-1.52-3.2-3.39ZM49.3,367.31c0-1.31-.76-2.49-2.14-2.49s-2.15,1.18-2.15,2.49.78,2.5,2.15,2.5,2.14-1.18,2.14-2.5Z"/>
      <path class="cls-6" d="M56.35,370.55v-.91c-.5.56-1.34,1.07-2.3,1.07-1.35,0-2.06-.65-2.06-2.06v-4.56h1v4.25c0,1.14.58,1.47,1.44,1.47.79,0,1.54-.45,1.91-.98v-4.75h1v6.46h-1Z"/>
      <path class="cls-6" d="M63.71,370.55v-4.22c0-1.14-.58-1.5-1.44-1.5-.79,0-1.54.48-1.91,1v4.72h-1v-6.46h1v.94c.45-.53,1.34-1.1,2.3-1.1,1.35,0,2.06.68,2.06,2.08v4.53h-1Z"/>
      <path class="cls-6" d="M66.92,369.2v-4.22h-1.07v-.88h1.07v-1.76h1v1.76h1.31v.88h-1.31v4.01c0,.48.21.83.66.83.28,0,.55-.12.68-.27l.29.75c-.25.24-.61.41-1.2.41-.95,0-1.43-.55-1.43-1.51Z"/>
    </g>
  </g>
  <g>
    <g class="cls-1">
      <rect class="cls-5" x="93.45" y="338.8" width="70.18" height="40.66"/>
    </g>
    <g>
      <path class="cls-6" d="M112.28,350.05c0-2.74,2.02-4.61,4.54-4.61,1.62,0,2.71.76,3.42,1.76l-.94.52c-.51-.75-1.43-1.3-2.49-1.3-1.91,0-3.4,1.5-3.4,3.62s1.48,3.62,3.4,3.62c1.06,0,1.98-.54,2.49-1.3l.95.52c-.75,1.02-1.82,1.76-3.44,1.76-2.53,0-4.54-1.87-4.54-4.61Z"/>
      <path class="cls-6" d="M121.64,354.5v-8.92h1v8.92h-1Z"/>
      <path class="cls-6" d="M124.48,346.28c0-.37.31-.67.67-.67s.68.29.68.67-.31.68-.68.68-.67-.31-.67-.68ZM124.65,354.5v-6.46h1v6.46h-1Z"/>
      <path class="cls-6" d="M130.47,347.89c1.95,0,3.1,1.52,3.1,3.46v.25h-5.23c.08,1.22.94,2.23,2.33,2.23.74,0,1.48-.29,1.99-.82l.48.66c-.64.64-1.51.99-2.57.99-1.91,0-3.29-1.38-3.29-3.39,0-1.87,1.34-3.38,3.18-3.38ZM128.34,350.87h4.24c-.01-.96-.66-2.15-2.13-2.15-1.38,0-2.06,1.16-2.11,2.15Z"/>
      <path class="cls-6" d="M139.55,354.5v-4.22c0-1.14-.58-1.5-1.44-1.5-.79,0-1.54.48-1.91,1v4.72h-1v-6.46h1v.94c.45-.53,1.34-1.1,2.3-1.1,1.35,0,2.06.68,2.06,2.08v4.53h-1Z"/>
      <path class="cls-6" d="M142.76,353.15v-4.22h-1.07v-.88h1.07v-1.76h1v1.76h1.31v.88h-1.31v4.01c0,.48.21.83.66.83.28,0,.55-.12.68-.27l.29.75c-.25.24-.61.41-1.2.41-.95,0-1.43-.55-1.43-1.51Z"/>
      <path class="cls-6" d="M111.81,370.55l-.79-1.98h-4.52l-.79,1.98h-1.23l3.58-8.92h1.38l3.6,8.92h-1.23ZM108.76,362.62l-1.94,4.96h3.86l-1.92-4.96Z"/>
      <path class="cls-6" d="M117.01,363.93c1.18,0,1.87.48,2.37,1.12l-.67.61c-.43-.59-.98-.84-1.64-.84-1.38,0-2.23,1.06-2.23,2.49s.86,2.5,2.23,2.5c.67,0,1.22-.27,1.64-.84l.67.62c-.5.64-1.19,1.12-2.37,1.12-1.92,0-3.22-1.47-3.22-3.39s1.3-3.38,3.22-3.38Z"/>
      <path class="cls-6" d="M123.63,363.93c1.18,0,1.87.48,2.37,1.12l-.67.61c-.43-.59-.98-.84-1.64-.84-1.38,0-2.23,1.06-2.23,2.49s.86,2.5,2.23,2.5c.67,0,1.22-.27,1.64-.84l.67.62c-.5.64-1.19,1.12-2.37,1.12-1.92,0-3.22-1.47-3.22-3.39s1.3-3.38,3.22-3.38Z"/>
      <path class="cls-6" d="M127.03,367.31c0-1.87,1.23-3.38,3.2-3.38s3.19,1.51,3.19,3.38-1.23,3.39-3.19,3.39-3.2-1.52-3.2-3.39ZM132.37,367.31c0-1.31-.76-2.49-2.14-2.49s-2.15,1.18-2.15,2.49.78,2.5,2.15,2.5,2.14-1.18,2.14-2.5Z"/>
      <path class="cls-6" d="M139.41,370.55v-.91c-.5.56-1.34,1.07-2.3,1.07-1.35,0-2.06-.65-2.06-2.06v-4.56h1v4.25c0,1.14.58,1.47,1.44,1.47.79,0,1.54-.45,1.91-.98v-4.75h1v6.46h-1Z"/>
      <path class="cls-6" d="M146.78,370.55v-4.22c0-1.14-.58-1.5-1.44-1.5-.79,0-1.54.48-1.91,1v4.72h-1v-6.46h1v.94c.45-.53,1.34-1.1,2.3-1.1,1.35,0,2.06.68,2.06,2.08v4.53h-1Z"/>
      <path class="cls-6" d="M149.99,369.2v-4.22h-1.07v-.88h1.07v-1.76h1v1.76h1.31v.88h-1.31v4.01c0,.48.21.83.66.83.28,0,.55-.12.68-.27l.29.75c-.25.24-.61.41-1.2.41-.95,0-1.43-.55-1.43-1.51Z"/>
    </g>
  </g>
  <g>
    <g class="cls-1">
      <rect class="cls-5" x="176.52" y="338.8" width="70.18" height="40.66"/>
    </g>
    <g>
      <path class="cls-6" d="M195.4,354.5v-8.92h3.58c1.79,0,2.79,1.23,2.79,2.69s-1.03,2.69-2.79,2.69h-2.47v3.54h-1.11ZM198.85,346.58h-2.34v3.39h2.34c1.06,0,1.78-.7,1.78-1.7s-.72-1.7-1.78-1.7Z"/>
      <path class="cls-6" d="M202.66,351.27c0-1.87,1.23-3.38,3.2-3.38s3.19,1.51,3.19,3.38-1.23,3.39-3.19,3.39-3.2-1.52-3.2-3.39ZM207.99,351.27c0-1.31-.76-2.49-2.14-2.49s-2.15,1.18-2.15,2.49.78,2.5,2.15,2.5,2.14-1.18,2.14-2.5Z"/>
      <path class="cls-6" d="M210.68,354.5v-8.92h1v8.92h-1Z"/>
      <path class="cls-6" d="M213.51,346.28c0-.37.31-.67.67-.67s.68.29.68.67-.31.68-.68.68-.67-.31-.67-.68ZM213.69,354.5v-6.46h1v6.46h-1Z"/>
      <path class="cls-6" d="M219.54,347.89c1.18,0,1.87.48,2.37,1.12l-.67.61c-.43-.59-.98-.84-1.64-.84-1.38,0-2.23,1.06-2.23,2.49s.86,2.5,2.23,2.5c.67,0,1.22-.27,1.64-.84l.67.62c-.5.64-1.19,1.12-2.37,1.12-1.92,0-3.22-1.47-3.22-3.39s1.3-3.38,3.22-3.38Z"/>
      <path class="cls-6" d="M223.11,356.12c.15.07.39.11.55.11.44,0,.74-.15.96-.68l.43-.98-2.7-6.52h1.08l2.15,5.29,2.14-5.29h1.1l-3.24,7.77c-.39.94-1.04,1.3-1.9,1.31-.21,0-.55-.04-.74-.09l.16-.91Z"/>
      <path class="cls-6" d="M194.88,370.55l-.79-1.98h-4.52l-.79,1.98h-1.23l3.58-8.92h1.38l3.6,8.92h-1.23ZM191.83,362.62l-1.94,4.96h3.86l-1.92-4.96Z"/>
      <path class="cls-6" d="M200.08,363.93c1.18,0,1.87.48,2.37,1.12l-.67.61c-.43-.59-.98-.84-1.64-.84-1.38,0-2.23,1.06-2.23,2.49s.86,2.5,2.23,2.5c.67,0,1.22-.27,1.64-.84l.67.62c-.5.64-1.19,1.12-2.37,1.12-1.92,0-3.22-1.47-3.22-3.39s1.3-3.38,3.22-3.38Z"/>
      <path class="cls-6" d="M206.7,363.93c1.18,0,1.87.48,2.37,1.12l-.67.61c-.43-.59-.98-.84-1.64-.84-1.38,0-2.23,1.06-2.23,2.49s.86,2.5,2.23,2.5c.67,0,1.22-.27,1.64-.84l.67.62c-.5.64-1.19,1.12-2.37,1.12-1.92,0-3.22-1.47-3.22-3.39s1.3-3.38,3.22-3.38Z"/>
      <path class="cls-6" d="M210.1,367.31c0-1.87,1.23-3.38,3.2-3.38s3.19,1.51,3.19,3.38-1.23,3.39-3.19,3.39-3.2-1.52-3.2-3.39ZM215.43,367.31c0-1.31-.76-2.49-2.14-2.49s-2.15,1.18-2.15,2.49.78,2.5,2.15,2.5,2.14-1.18,2.14-2.5Z"/>
      <path class="cls-6" d="M222.48,370.55v-.91c-.5.56-1.34,1.07-2.3,1.07-1.35,0-2.06-.65-2.06-2.06v-4.56h1v4.25c0,1.14.58,1.47,1.44,1.47.79,0,1.54-.45,1.91-.98v-4.75h1v6.46h-1Z"/>
      <path class="cls-6" d="M229.85,370.55v-4.22c0-1.14-.58-1.5-1.44-1.5-.79,0-1.54.48-1.91,1v4.72h-1v-6.46h1v.94c.45-.53,1.34-1.1,2.3-1.1,1.35,0,2.06.68,2.06,2.08v4.53h-1Z"/>
      <path class="cls-6" d="M233.06,369.2v-4.22h-1.07v-.88h1.07v-1.76h1v1.76h1.31v.88h-1.31v4.01c0,.48.21.83.66.83.28,0,.55-.12.68-.27l.29.75c-.25.24-.61.41-1.2.41-.95,0-1.43-.55-1.43-1.51Z"/>
    </g>
  </g>
  <g>
    <g class="cls-1">
      <rect class="cls-5" x="259.59" y="338.8" width="70.18" height="40.66"/>
    </g>
    <g>
      <path class="cls-6" d="M278.46,354.93v-8.92h3.58c1.79,0,2.79,1.23,2.79,2.69s-1.03,2.69-2.79,2.69h-2.47v3.54h-1.11ZM281.91,347.01h-2.34v3.39h2.34c1.06,0,1.78-.7,1.78-1.7s-.72-1.7-1.78-1.7Z"/>
      <path class="cls-6" d="M285.72,351.7c0-1.87,1.23-3.38,3.2-3.38s3.19,1.51,3.19,3.38-1.23,3.39-3.19,3.39-3.2-1.52-3.2-3.39ZM291.06,351.7c0-1.31-.76-2.49-2.14-2.49s-2.15,1.18-2.15,2.49.78,2.5,2.15,2.5,2.14-1.18,2.14-2.5Z"/>
      <path class="cls-6" d="M293.75,354.93v-8.92h1v8.92h-1Z"/>
      <path class="cls-6" d="M296.58,346.71c0-.37.31-.67.67-.67s.68.29.68.67-.31.68-.68.68-.67-.31-.67-.68ZM296.76,354.93v-6.46h1v6.46h-1Z"/>
      <path class="cls-6" d="M302.61,348.31c1.18,0,1.87.48,2.37,1.12l-.67.61c-.43-.59-.98-.84-1.64-.84-1.38,0-2.23,1.06-2.23,2.49s.86,2.5,2.23,2.5c.67,0,1.22-.27,1.64-.84l.67.62c-.5.64-1.19,1.12-2.37,1.12-1.92,0-3.22-1.47-3.22-3.39s1.3-3.38,3.22-3.38Z"/>
      <path class="cls-6" d="M306.18,356.55c.15.07.39.11.55.11.44,0,.74-.15.96-.68l.43-.98-2.7-6.52h1.08l2.15,5.29,2.14-5.29h1.1l-3.24,7.77c-.39.94-1.04,1.3-1.9,1.31-.21,0-.55-.04-.74-.09l.16-.91Z"/>
      <path class="cls-6" d="M277.95,370.98l-.79-1.98h-4.52l-.79,1.98h-1.23l3.58-8.92h1.38l3.6,8.92h-1.23ZM274.9,363.05l-1.94,4.96h3.86l-1.92-4.96Z"/>
      <path class="cls-6" d="M283.15,364.36c1.18,0,1.87.48,2.37,1.12l-.67.61c-.43-.59-.98-.84-1.64-.84-1.38,0-2.23,1.06-2.23,2.49s.86,2.5,2.23,2.5c.67,0,1.22-.27,1.64-.84l.67.62c-.5.64-1.19,1.12-2.37,1.12-1.92,0-3.22-1.47-3.22-3.39s1.3-3.38,3.22-3.38Z"/>
      <path class="cls-6" d="M289.77,364.36c1.18,0,1.87.48,2.37,1.12l-.67.61c-.43-.59-.98-.84-1.64-.84-1.38,0-2.23,1.06-2.23,2.49s.86,2.5,2.23,2.5c.67,0,1.22-.27,1.64-.84l.67.62c-.5.64-1.19,1.12-2.37,1.12-1.92,0-3.22-1.47-3.22-3.39s1.3-3.38,3.22-3.38Z"/>
      <path class="cls-6" d="M293.17,367.74c0-1.87,1.23-3.38,3.2-3.38s3.19,1.51,3.19,3.38-1.23,3.39-3.19,3.39-3.2-1.52-3.2-3.39ZM298.5,367.74c0-1.31-.76-2.49-2.14-2.49s-2.15,1.18-2.15,2.49.78,2.5,2.15,2.5,2.14-1.18,2.14-2.5Z"/>
      <path class="cls-6" d="M305.55,370.98v-.91c-.5.56-1.34,1.07-2.3,1.07-1.35,0-2.06-.65-2.06-2.06v-4.56h1v4.25c0,1.14.58,1.47,1.44,1.47.79,0,1.54-.45,1.91-.98v-4.75h1v6.46h-1Z"/>
      <path class="cls-6" d="M312.91,370.98v-4.22c0-1.14-.58-1.5-1.44-1.5-.79,0-1.54.48-1.91,1v4.72h-1v-6.46h1v.94c.45-.53,1.34-1.1,2.3-1.1,1.35,0,2.06.68,2.06,2.08v4.53h-1Z"/>
      <path class="cls-6" d="M316.12,369.63v-4.22h-1.07v-.88h1.07v-1.76h1v1.76h1.31v.88h-1.31v4.01c0,.48.21.83.66.83.28,0,.55-.12.68-.27l.29.75c-.25.24-.61.41-1.2.41-.95,0-1.43-.55-1.43-1.51Z"/>
    </g>
  </g>
  <g class="cls-1">
    <rect class="cls-5" x="392.89" y="428.85" width="70.18" height="40.66"/>
  </g>
  <g>
    <path class="cls-6" d="M411.76,444.55v-8.92h3.58c1.79,0,2.79,1.23,2.79,2.69s-1.03,2.69-2.79,2.69h-2.47v3.54h-1.11ZM415.21,436.62h-2.34v3.39h2.34c1.06,0,1.78-.7,1.78-1.7s-.72-1.7-1.78-1.7Z"/>
    <path class="cls-6" d="M419.02,441.31c0-1.87,1.23-3.38,3.2-3.38s3.19,1.51,3.19,3.38-1.23,3.39-3.19,3.39-3.2-1.52-3.2-3.39ZM424.36,441.31c0-1.31-.76-2.49-2.14-2.49s-2.15,1.18-2.15,2.49.78,2.5,2.15,2.5,2.14-1.18,2.14-2.5Z"/>
    <path class="cls-6" d="M427.05,444.55v-8.92h1v8.92h-1Z"/>
    <path class="cls-6" d="M429.88,436.33c0-.37.31-.67.67-.67s.68.29.68.67-.31.68-.68.68-.67-.31-.67-.68ZM430.05,444.55v-6.46h1v6.46h-1Z"/>
    <path class="cls-6" d="M435.91,437.93c1.18,0,1.87.48,2.37,1.12l-.67.61c-.43-.59-.98-.84-1.64-.84-1.38,0-2.23,1.06-2.23,2.49s.86,2.5,2.23,2.5c.67,0,1.22-.27,1.64-.84l.67.62c-.5.64-1.19,1.12-2.37,1.12-1.92,0-3.22-1.47-3.22-3.39s1.3-3.38,3.22-3.38Z"/>
    <path class="cls-6" d="M439.48,446.17c.15.07.39.11.55.11.44,0,.74-.15.96-.68l.43-.98-2.7-6.52h1.08l2.15,5.29,2.14-5.29h1.1l-3.24,7.77c-.39.94-1.04,1.3-1.9,1.31-.21,0-.55-.04-.74-.09l.16-.91Z"/>
    <path class="cls-6" d="M411.25,460.59l-.79-1.98h-4.52l-.79,1.98h-1.23l3.58-8.92h1.38l3.6,8.92h-1.23ZM408.2,452.67l-1.94,4.96h3.86l-1.92-4.96Z"/>
    <path class="cls-6" d="M416.45,453.98c1.18,0,1.87.48,2.37,1.12l-.67.61c-.43-.59-.98-.84-1.64-.84-1.38,0-2.23,1.06-2.23,2.49s.86,2.5,2.23,2.5c.67,0,1.22-.27,1.64-.84l.67.62c-.5.64-1.19,1.12-2.37,1.12-1.92,0-3.22-1.47-3.22-3.39s1.3-3.38,3.22-3.38Z"/>
    <path class="cls-6" d="M423.07,453.98c1.18,0,1.87.48,2.37,1.12l-.67.61c-.43-.59-.98-.84-1.64-.84-1.38,0-2.23,1.06-2.23,2.49s.86,2.5,2.23,2.5c.67,0,1.22-.27,1.64-.84l.67.62c-.5.64-1.19,1.12-2.37,1.12-1.92,0-3.22-1.47-3.22-3.39s1.3-3.38,3.22-3.38Z"/>
    <path class="cls-6" d="M426.47,457.36c0-1.87,1.23-3.38,3.2-3.38s3.19,1.51,3.19,3.38-1.23,3.39-3.19,3.39-3.2-1.52-3.2-3.39ZM431.8,457.36c0-1.31-.76-2.49-2.14-2.49s-2.15,1.18-2.15,2.49.78,2.5,2.15,2.5,2.14-1.18,2.14-2.5Z"/>
    <path class="cls-6" d="M438.85,460.59v-.91c-.5.56-1.34,1.07-2.3,1.07-1.35,0-2.06-.65-2.06-2.06v-4.56h1v4.25c0,1.14.58,1.47,1.44,1.47.79,0,1.54-.45,1.91-.98v-4.75h1v6.46h-1Z"/>
    <path class="cls-6" d="M446.21,460.59v-4.22c0-1.14-.58-1.5-1.44-1.5-.79,0-1.54.48-1.91,1v4.72h-1v-6.46h1v.94c.45-.53,1.34-1.1,2.3-1.1,1.35,0,2.06.68,2.06,2.08v4.53h-1Z"/>
    <path class="cls-6" d="M449.42,459.25v-4.22h-1.07v-.88h1.07v-1.76h1v1.76h1.31v.88h-1.31v4.01c0,.48.21.83.66.83.28,0,.55-.12.68-.27l.29.75c-.25.24-.61.41-1.2.41-.95,0-1.43-.55-1.43-1.51Z"/>
  </g>
  <g class="cls-1">
    <rect class="cls-5" x="475.96" y="428.85" width="70.18" height="40.66"/>
  </g>
  <g>
    <path class="cls-6" d="M494.78,440.1c0-2.74,2.02-4.61,4.54-4.61,1.62,0,2.71.76,3.42,1.76l-.94.52c-.51-.75-1.43-1.3-2.49-1.3-1.91,0-3.4,1.5-3.4,3.62s1.48,3.62,3.4,3.62c1.06,0,1.98-.54,2.49-1.3l.95.52c-.75,1.02-1.82,1.76-3.44,1.76-2.53,0-4.54-1.87-4.54-4.61Z"/>
    <path class="cls-6" d="M504.14,444.55v-8.92h1v8.92h-1Z"/>
    <path class="cls-6" d="M506.98,436.33c0-.37.31-.67.67-.67s.68.29.68.67-.31.68-.68.68-.67-.31-.67-.68ZM507.15,444.55v-6.46h1v6.46h-1Z"/>
    <path class="cls-6" d="M512.97,437.93c1.95,0,3.1,1.52,3.1,3.46v.25h-5.23c.08,1.22.94,2.23,2.33,2.23.74,0,1.48-.29,1.99-.82l.48.66c-.64.64-1.51.99-2.57.99-1.91,0-3.29-1.38-3.29-3.39,0-1.87,1.34-3.38,3.18-3.38ZM510.84,440.91h4.24c-.01-.96-.66-2.15-2.13-2.15-1.38,0-2.06,1.16-2.11,2.15Z"/>
    <path class="cls-6" d="M522.05,444.55v-4.22c0-1.14-.58-1.5-1.44-1.5-.79,0-1.54.48-1.91,1v4.72h-1v-6.46h1v.94c.45-.53,1.34-1.1,2.3-1.1,1.35,0,2.06.68,2.06,2.08v4.53h-1Z"/>
    <path class="cls-6" d="M525.26,443.2v-4.22h-1.07v-.88h1.07v-1.76h1v1.76h1.31v.88h-1.31v4.01c0,.48.21.83.66.83.28,0,.55-.12.68-.27l.29.75c-.25.24-.61.41-1.2.41-.95,0-1.43-.55-1.43-1.51Z"/>
    <path class="cls-6" d="M494.31,460.59l-.79-1.98h-4.52l-.79,1.98h-1.23l3.58-8.92h1.38l3.6,8.92h-1.23ZM491.27,452.67l-1.94,4.96h3.86l-1.92-4.96Z"/>
    <path class="cls-6" d="M499.52,453.98c1.18,0,1.87.48,2.37,1.12l-.67.61c-.43-.59-.98-.84-1.64-.84-1.38,0-2.23,1.06-2.23,2.49s.86,2.5,2.23,2.5c.67,0,1.22-.27,1.64-.84l.67.62c-.5.64-1.19,1.12-2.37,1.12-1.92,0-3.22-1.47-3.22-3.39s1.3-3.38,3.22-3.38Z"/>
    <path class="cls-6" d="M506.14,453.98c1.18,0,1.87.48,2.37,1.12l-.67.61c-.43-.59-.98-.84-1.64-.84-1.38,0-2.23,1.06-2.23,2.49s.86,2.5,2.23,2.5c.67,0,1.22-.27,1.64-.84l.67.62c-.5.64-1.19,1.12-2.37,1.12-1.92,0-3.22-1.47-3.22-3.39s1.3-3.38,3.22-3.38Z"/>
    <path class="cls-6" d="M509.53,457.36c0-1.87,1.23-3.38,3.2-3.38s3.19,1.51,3.19,3.38-1.23,3.39-3.19,3.39-3.2-1.52-3.2-3.39ZM514.87,457.36c0-1.31-.76-2.49-2.14-2.49s-2.15,1.18-2.15,2.49.78,2.5,2.15,2.5,2.14-1.18,2.14-2.5Z"/>
    <path class="cls-6" d="M521.91,460.59v-.91c-.5.56-1.34,1.07-2.3,1.07-1.35,0-2.06-.65-2.06-2.06v-4.56h1v4.25c0,1.14.58,1.47,1.44,1.47.79,0,1.54-.45,1.91-.98v-4.75h1v6.46h-1Z"/>
    <path class="cls-6" d="M529.28,460.59v-4.22c0-1.14-.58-1.5-1.44-1.5-.79,0-1.54.48-1.91,1v4.72h-1v-6.46h1v.94c.45-.53,1.34-1.1,2.3-1.1,1.35,0,2.06.68,2.06,2.08v4.53h-1Z"/>
    <path class="cls-6" d="M532.49,459.25v-4.22h-1.07v-.88h1.07v-1.76h1v1.76h1.31v.88h-1.31v4.01c0,.48.21.83.66.83.28,0,.55-.12.68-.27l.29.75c-.25.24-.61.41-1.2.41-.95,0-1.43-.55-1.43-1.51Z"/>
  </g>
  <g class="cls-1">
    <rect class="cls-5" x="559.02" y="428.85" width="70.18" height="40.66"/>
  </g>
  <g>
    <path class="cls-6" d="M577.85,440.1c0-2.74,2.02-4.61,4.54-4.61,1.62,0,2.71.76,3.42,1.76l-.94.52c-.51-.75-1.43-1.3-2.49-1.3-1.91,0-3.4,1.5-3.4,3.62s1.48,3.62,3.4,3.62c1.06,0,1.98-.54,2.49-1.3l.95.52c-.75,1.02-1.82,1.76-3.44,1.76-2.53,0-4.54-1.87-4.54-4.61Z"/>
    <path class="cls-6" d="M587.21,444.55v-8.92h1v8.92h-1Z"/>
    <path class="cls-6" d="M590.05,436.33c0-.37.31-.67.67-.67s.68.29.68.67-.31.68-.68.68-.67-.31-.67-.68ZM590.22,444.55v-6.46h1v6.46h-1Z"/>
    <path class="cls-6" d="M596.03,437.93c1.95,0,3.1,1.52,3.1,3.46v.25h-5.23c.08,1.22.94,2.23,2.33,2.23.74,0,1.48-.29,1.99-.82l.48.66c-.64.64-1.51.99-2.57.99-1.91,0-3.29-1.38-3.29-3.39,0-1.87,1.34-3.38,3.18-3.38ZM593.91,440.91h4.24c-.01-.96-.66-2.15-2.13-2.15-1.38,0-2.06,1.16-2.11,2.15Z"/>
    <path class="cls-6" d="M605.11,444.55v-4.22c0-1.14-.58-1.5-1.44-1.5-.79,0-1.54.48-1.91,1v4.72h-1v-6.46h1v.94c.45-.53,1.34-1.1,2.3-1.1,1.35,0,2.06.68,2.06,2.08v4.53h-1Z"/>
    <path class="cls-6" d="M608.32,443.2v-4.22h-1.07v-.88h1.07v-1.76h1v1.76h1.31v.88h-1.31v4.01c0,.48.21.83.66.83.28,0,.55-.12.68-.27l.29.75c-.25.24-.61.41-1.2.41-.95,0-1.43-.55-1.43-1.51Z"/>
    <path class="cls-6" d="M577.38,460.59l-.79-1.98h-4.52l-.79,1.98h-1.23l3.58-8.92h1.38l3.6,8.92h-1.23ZM574.33,452.67l-1.94,4.96h3.86l-1.92-4.96Z"/>
    <path class="cls-6" d="M582.58,453.98c1.18,0,1.87.48,2.37,1.12l-.67.61c-.43-.59-.98-.84-1.64-.84-1.38,0-2.23,1.06-2.23,2.49s.86,2.5,2.23,2.5c.67,0,1.22-.27,1.64-.84l.67.62c-.5.64-1.19,1.12-2.37,1.12-1.92,0-3.22-1.47-3.22-3.39s1.3-3.38,3.22-3.38Z"/>
    <path class="cls-6" d="M589.2,453.98c1.18,0,1.87.48,2.37,1.12l-.67.61c-.43-.59-.98-.84-1.64-.84-1.38,0-2.23,1.06-2.23,2.49s.86,2.5,2.23,2.5c.67,0,1.22-.27,1.64-.84l.67.62c-.5.64-1.19,1.12-2.37,1.12-1.92,0-3.22-1.47-3.22-3.39s1.3-3.38,3.22-3.38Z"/>
    <path class="cls-6" d="M592.6,457.36c0-1.87,1.23-3.38,3.2-3.38s3.19,1.51,3.19,3.38-1.23,3.39-3.19,3.39-3.2-1.52-3.2-3.39ZM597.93,457.36c0-1.31-.76-2.49-2.14-2.49s-2.15,1.18-2.15,2.49.78,2.5,2.15,2.5,2.14-1.18,2.14-2.5Z"/>
    <path class="cls-6" d="M604.98,460.59v-.91c-.5.56-1.34,1.07-2.3,1.07-1.35,0-2.06-.65-2.06-2.06v-4.56h1v4.25c0,1.14.58,1.47,1.44,1.47.79,0,1.54-.45,1.91-.98v-4.75h1v6.46h-1Z"/>
    <path class="cls-6" d="M612.35,460.59v-4.22c0-1.14-.58-1.5-1.44-1.5-.79,0-1.54.48-1.91,1v4.72h-1v-6.46h1v.94c.45-.53,1.34-1.1,2.3-1.1,1.35,0,2.06.68,2.06,2.08v4.53h-1Z"/>
    <path class="cls-6" d="M615.56,459.25v-4.22h-1.07v-.88h1.07v-1.76h1v1.76h1.31v.88h-1.31v4.01c0,.48.21.83.66.83.28,0,.55-.12.68-.27l.29.75c-.25.24-.61.41-1.2.41-.95,0-1.43-.55-1.43-1.51Z"/>
  </g>
  <g class="cls-1">
    <rect class="cls-5" x="642.09" y="428.85" width="70.18" height="40.66"/>
  </g>
  <g>
    <path class="cls-6" d="M660.92,440.53c0-2.74,2.02-4.61,4.54-4.61,1.62,0,2.71.76,3.42,1.76l-.94.52c-.51-.75-1.43-1.3-2.49-1.3-1.91,0-3.4,1.5-3.4,3.62s1.48,3.62,3.4,3.62c1.06,0,1.98-.54,2.49-1.3l.95.52c-.75,1.02-1.82,1.76-3.44,1.76-2.53,0-4.54-1.87-4.54-4.61Z"/>
    <path class="cls-6" d="M670.28,444.98v-8.92h1v8.92h-1Z"/>
    <path class="cls-6" d="M673.11,436.76c0-.37.31-.67.67-.67s.68.29.68.67-.31.68-.68.68-.67-.31-.67-.68ZM673.29,444.98v-6.46h1v6.46h-1Z"/>
    <path class="cls-6" d="M679.1,438.36c1.95,0,3.1,1.52,3.1,3.46v.25h-5.23c.08,1.22.94,2.23,2.33,2.23.74,0,1.48-.29,1.99-.82l.48.66c-.64.64-1.51.99-2.57.99-1.91,0-3.29-1.38-3.29-3.39,0-1.87,1.34-3.38,3.18-3.38ZM676.98,441.34h4.24c-.01-.96-.66-2.15-2.13-2.15-1.38,0-2.06,1.16-2.11,2.15Z"/>
    <path class="cls-6" d="M688.18,444.98v-4.22c0-1.14-.58-1.5-1.44-1.5-.79,0-1.54.48-1.91,1v4.72h-1v-6.46h1v.94c.45-.53,1.34-1.1,2.3-1.1,1.35,0,2.06.68,2.06,2.08v4.53h-1Z"/>
    <path class="cls-6" d="M691.39,443.63v-4.22h-1.07v-.88h1.07v-1.76h1v1.76h1.31v.88h-1.31v4.01c0,.48.21.83.66.83.28,0,.55-.12.68-.27l.29.75c-.25.24-.61.41-1.2.41-.95,0-1.43-.55-1.43-1.51Z"/>
    <path class="cls-6" d="M660.45,461.02l-.79-1.98h-4.52l-.79,1.98h-1.23l3.58-8.92h1.38l3.6,8.92h-1.23ZM657.4,453.1l-1.94,4.96h3.86l-1.92-4.96Z"/>
    <path class="cls-6" d="M665.65,454.41c1.18,0,1.87.48,2.37,1.12l-.67.61c-.43-.59-.98-.84-1.64-.84-1.38,0-2.23,1.06-2.23,2.49s.86,2.5,2.23,2.5c.67,0,1.22-.27,1.64-.84l.67.62c-.5.64-1.19,1.12-2.37,1.12-1.92,0-3.22-1.47-3.22-3.39s1.3-3.38,3.22-3.38Z"/>
    <path class="cls-6" d="M672.27,454.41c1.18,0,1.87.48,2.37,1.12l-.67.61c-.43-.59-.98-.84-1.64-.84-1.38,0-2.23,1.06-2.23,2.49s.86,2.5,2.23,2.5c.67,0,1.22-.27,1.64-.84l.67.62c-.5.64-1.19,1.12-2.37,1.12-1.92,0-3.22-1.47-3.22-3.39s1.3-3.38,3.22-3.38Z"/>
    <path class="cls-6" d="M675.67,457.79c0-1.87,1.23-3.38,3.2-3.38s3.19,1.51,3.19,3.38-1.23,3.39-3.19,3.39-3.2-1.52-3.2-3.39ZM681,457.79c0-1.31-.76-2.49-2.14-2.49s-2.15,1.18-2.15,2.49.78,2.5,2.15,2.5,2.14-1.18,2.14-2.5Z"/>
    <path class="cls-6" d="M688.05,461.02v-.91c-.5.56-1.34,1.07-2.3,1.07-1.35,0-2.06-.65-2.06-2.06v-4.56h1v4.25c0,1.14.58,1.47,1.44,1.47.79,0,1.54-.45,1.91-.98v-4.75h1v6.46h-1Z"/>
    <path class="cls-6" d="M695.42,461.02v-4.22c0-1.14-.58-1.5-1.44-1.5-.79,0-1.54.48-1.91,1v4.72h-1v-6.46h1v.94c.45-.53,1.34-1.1,2.3-1.1,1.35,0,2.06.68,2.06,2.08v4.53h-1Z"/>
    <path class="cls-6" d="M698.63,459.67v-4.22h-1.07v-.88h1.07v-1.76h1v1.76h1.31v.88h-1.31v4.01c0,.48.21.83.66.83.28,0,.55-.12.68-.27l.29.75c-.25.24-.61.41-1.2.41-.95,0-1.43-.55-1.43-1.51Z"/>
  </g>
  <g class="cls-2">
    <polygon class="cls-7" points="210.27 319.6 210.27 335.8 211.27 335.8 211.27 319.6 294.18 319.6 294.18 335.8 295.18 335.8 295.18 318.6 169.96 318.6 169.96 299.65 168.96 299.65 168.96 318.6 44.98 318.6 44.98 335.85 45.98 335.85 45.98 319.6 128.04 319.6 128.04 335.85 129.04 335.85 129.04 319.6 210.27 319.6"/>
    <rect class="cls-7" x="552.08" y="299.93" width="1" height="15.81"/>
    <polygon class="cls-7" points="428.09 508.06 362 508.06 362 123.98 402.74 123.98 402.74 139.73 403.74 139.73 403.74 123.98 486.21 123.98 486.21 139.73 487.21 139.73 487.21 122.98 362 122.98 362 104.04 361 104.04 361 122.98 235.79 122.98 235.79 139.73 236.79 139.73 236.79 123.98 319.27 123.98 319.27 139.73 320.27 139.73 320.27 123.98 361 123.98 361 417.97 295.18 417.92 295.18 382.46 294.18 382.46 294.18 417.92 211.27 417.86 211.27 382.41 210.27 382.41 210.27 418.86 361 418.97 361 509.06 429.09 509.06 429.09 472.35 428.09 472.35 428.09 508.06"/>
    <polygon class="cls-7" points="553.08 408.64 553.08 391.4 552.08 391.4 552.08 408.64 427.48 408.64 427.48 425.88 428.48 425.88 428.48 409.64 510.54 409.64 510.54 425.98 511.54 425.98 511.54 409.64 592.77 409.64 592.77 425.77 593.77 425.77 593.77 409.64 676.68 409.64 676.68 428.01 677.68 428.01 677.68 408.64 553.08 408.64"/>
  </g>
</svg>