<?xml version="1.0" encoding="UTF-8"?><svg id="Art" xmlns="http://www.w3.org/2000/svg" viewBox="0 0 100 100"><defs><style>.cls-1{fill:#232b5f;}.cls-2{fill:#34e273;}</style></defs><path class="cls-1" d="m81.62,85.58H18.38c-2.05,0-3.72-1.67-3.72-3.72V18.81c0-2.05,1.67-3.72,3.72-3.72h63.25c2.05,0,3.72,1.67,3.72,3.72v63.04c0,2.05-1.67,3.72-3.72,3.72ZM18.38,16.78c-1.12,0-2.03.91-2.03,2.03v63.04c0,1.12.91,2.03,2.03,2.03h63.25c1.12,0,2.03-.91,2.03-2.03V18.81c0-1.12-.91-2.03-2.03-2.03H18.38Z"/><path class="cls-1" d="m84.5,25.25H15.5c-.47,0-.85-.38-.85-.85s.38-.85.85-.85h69c.47,0,.85.38.85.85s-.38.85-.85.85Z"/><path class="cls-1" d="m68.66,85.58c-.47,0-.85-.38-.85-.85V24.4c0-.47.38-.85.85-.85s.85.38.85.85v60.33c0,.47-.38.85-.85.85Z"/><path class="cls-2" d="m60.13,45.29H23.9c-.47,0-.85-.38-.85-.85v-13.1c0-.47.38-.85.85-.85h36.22c.47,0,.85.38.85.85v13.1c0,.47-.38.85-.85.85Zm-35.38-1.7h34.53v-11.4H24.75v11.4Z"/><path class="cls-2" d="m60.13,64.23H23.9c-.47,0-.85-.38-.85-.85v-13.1c0-.47.38-.85.85-.85h36.22c.47,0,.85.38.85.85v13.1c0,.47-.38.85-.85.85Zm-35.38-1.7h34.53v-11.4H24.75v11.4Z"/><path class="cls-1" d="m60.13,70.89H23.9c-.47,0-.85-.38-.85-.85s.38-.85.85-.85h36.22c.47,0,.85.38.85.85s-.38.85-.85.85Z"/><path class="cls-1" d="m60.13,75.49H23.9c-.47,0-.85-.38-.85-.85s.38-.85.85-.85h36.22c.47,0,.85.38.85.85s-.38.85-.85.85Z"/><path class="cls-1" d="m55.86,80.09h-31.96c-.47,0-.85-.38-.85-.85s.38-.85.85-.85h31.96c.47,0,.85.38.85.85s-.38.85-.85.85Z"/><path class="cls-1" d="m20.11,20.8c-.23,0-.44-.09-.61-.25-.08-.08-.14-.17-.18-.28-.04-.1-.06-.21-.06-.32s.02-.22.06-.33c.04-.1.11-.2.18-.27.08-.08.18-.14.28-.19.31-.13.69-.05.93.19.08.07.14.17.18.27.04.11.07.22.07.33s-.03.22-.07.32c-.04.11-.1.2-.18.28s-.18.14-.28.18c-.1.05-.21.07-.32.07Z"/><path class="cls-1" d="m24.77,20.8c-.12,0-.23-.02-.33-.07-.1-.04-.19-.1-.27-.18s-.15-.17-.19-.28c-.04-.1-.06-.21-.06-.32s.02-.22.06-.33c.04-.1.11-.2.19-.27.23-.24.61-.32.92-.19.11.05.2.11.28.19.08.07.14.17.18.27.04.11.06.22.06.33s-.02.22-.06.32c-.04.11-.1.2-.18.28s-.18.14-.28.18c-.1.05-.21.07-.32.07Z"/><path class="cls-1" d="m29.43,20.8c-.23,0-.44-.09-.61-.25-.08-.08-.14-.17-.18-.28-.04-.1-.06-.21-.06-.32s.02-.22.06-.33c.04-.1.11-.2.18-.27.08-.08.18-.14.28-.19.31-.13.69-.05.93.19.07.08.14.17.18.27.04.11.07.22.07.33s-.03.22-.07.32c-.04.11-.1.2-.18.28-.08.08-.18.14-.28.18-.1.05-.21.07-.32.07Z"/><path class="cls-1" d="m84.5,45.36h-15.84c-.47,0-.85-.38-.85-.85s.38-.85.85-.85h15.84c.47,0,.85.38.85.85s-.38.85-.85.85Z"/><path class="cls-1" d="m84.5,65.47h-15.84c-.47,0-.85-.38-.85-.85s.38-.85.85-.85h15.84c.47,0,.85.38.85.85s-.38.85-.85.85Z"/></svg>