<?xml version="1.0" encoding="UTF-8"?><svg id="Art" xmlns="http://www.w3.org/2000/svg" viewBox="0 0 100 100"><defs><style>.cls-1{fill:#232b5f;}.cls-2{fill:#34e273;}</style></defs><path class="cls-1" d="m49.65,86.01c-19.49,0-35.35-15.86-35.35-35.35S30.16,15.31,49.65,15.31s35.35,15.86,35.35,35.35-15.86,35.35-35.35,35.35Zm0-69c-18.55,0-33.65,15.1-33.65,33.65s15.1,33.65,33.65,33.65,33.65-15.1,33.65-33.65-15.1-33.65-33.65-33.65Z"/><path class="cls-1" d="m49.65,22.57c-.47,0-.85-.38-.85-.85v-2.23c0-.47.38-.85.85-.85s.85.38.85.85v2.23c0,.47-.38.85-.85.85Z"/><path class="cls-1" d="m49.65,82.67c-.47,0-.85-.38-.85-.85v-2.23c0-.47.38-.85.85-.85s.85.38.85.85v2.23c0,.47-.38.85-.85.85Z"/><path class="cls-1" d="m20.72,51.51h-2.23c-.47,0-.85-.38-.85-.85s.38-.85.85-.85h2.23c.47,0,.85.38.85.85s-.38.85-.85.85Z"/><path class="cls-1" d="m80.81,51.51h-2.23c-.47,0-.85-.38-.85-.85s.38-.85.85-.85h2.23c.47,0,.85.38.85.85s-.38.85-.85.85Z"/><path class="cls-2" d="m56.33,60.41c-.26,0-.51-.12-.68-.34l-21.15-27.82c-.28-.37-.21-.91.16-1.19.37-.28.91-.21,1.19.16l21.15,27.82c.28.37.21.91-.16,1.19-.15.12-.33.17-.51.17Z"/><path class="cls-2" d="m42.97,57.07c-.25,0-.49-.11-.66-.31-.3-.36-.25-.9.12-1.2l18.92-15.58c.36-.3.9-.25,1.2.12.3.36.25.9-.12,1.2l-18.92,15.58c-.16.13-.35.19-.54.19Z"/><path class="cls-2" d="m49.43,72.52c-6.63,0-13.18-2.98-17.51-8.64-6.53-8.56-5.94-20.48,1.42-28.34.32-.34.86-.36,1.2-.04.34.32.36.86.04,1.2-6.79,7.26-7.34,18.25-1.31,26.15,6.79,8.89,19.55,10.61,28.45,3.81,4.31-3.29,7.08-8.06,7.8-13.43.72-5.37-.69-10.71-3.98-15.01-6.03-7.9-16.78-10.26-25.57-5.62-.42.22-.93.06-1.15-.36-.22-.42-.06-.93.36-1.15,9.52-5.02,21.18-2.46,27.72,6.1,7.36,9.64,5.51,23.47-4.13,30.83-3.98,3.04-8.67,4.5-13.32,4.5Z"/></svg>