<?xml version="1.0" encoding="UTF-8"?><svg id="Art" xmlns="http://www.w3.org/2000/svg" viewBox="0 0 100 100"><defs><style>.cls-1{fill:#232b5f;}.cls-2{fill:#34e273;}</style></defs><path class="cls-2" d="m49.77,86.25c-19.77,0-35.85-16.08-35.85-35.85S30.01,14.56,49.77,14.56s35.85,16.08,35.85,35.85-16.08,35.85-35.85,35.85Zm0-70c-18.83,0-34.15,15.32-34.15,34.15s15.32,34.15,34.15,34.15,34.15-15.32,34.15-34.15-15.32-34.15-34.15-34.15Z"/><path class="cls-2" d="m74.52,76c-.22,0-.44-.08-.6-.25L24.42,26.26c-.33-.33-.33-.87,0-1.2.33-.33.87-.33,1.2,0l49.5,49.5c.33.33.33.87,0,1.2-.17.17-.38.25-.6.25Z"/><path class="cls-1" d="m59.47,65.8H23.76c-.47,0-.85-.38-.85-.85v-29.1c0-.47.38-.85.85-.85h6.61c.47,0,.85.38.85.85s-.38.85-.85.85h-5.76v27.4h34.86c.47,0,.85.38.85.85s-.38.85-.85.85Z"/><path class="cls-1" d="m75.79,65.8h-6.56c-.47,0-.85-.38-.85-.85s.38-.85.85-.85h5.71v-27.4h-34.68c-.47,0-.85-.38-.85-.85s.38-.85.85-.85h35.53c.47,0,.85.38.85.85v29.1c0,.47-.38.85-.85.85Z"/><path class="cls-1" d="m36.11,65.8c-.47,0-.85-.38-.85-.85v-23.37c0-.47.38-.85.85-.85s.85.38.85.85v23.37c0,.47-.38.85-.85.85Z"/><path class="cls-1" d="m68.29,64.87c-.47,0-.85-.38-.85-.85v-28.16c0-.47.38-.85.85-.85s.85.38.85.85v28.16c0,.47-.38.85-.85.85Z"/><path class="cls-1" d="m53.74,61.84c-6.55,0-11.87-5.33-11.87-11.87,0-.59.04-1.19.13-1.77.07-.46.5-.78.97-.71.46.07.78.5.71.97-.07.5-.11,1-.11,1.52,0,5.61,4.56,10.17,10.17,10.17.51,0,1.02-.04,1.52-.11.47-.06.9.25.97.71.07.46-.25.9-.71.97-.58.09-1.18.13-1.77.13Z"/><path class="cls-1" d="m61.75,58.38c-.21,0-.42-.08-.58-.23-.34-.32-.36-.86-.03-1.2,1.79-1.9,2.78-4.38,2.78-6.99,0-5.61-4.56-10.17-10.17-10.17-2.6,0-5.07.98-6.96,2.75-.34.32-.88.3-1.2-.04-.32-.34-.3-.88.04-1.2,2.21-2.07,5.09-3.21,8.12-3.21,6.55,0,11.87,5.33,11.87,11.87,0,3.05-1.15,5.94-3.24,8.15-.17.18-.39.27-.62.27Z"/></svg>