<svg xmlns="http://www.w3.org/2000/svg" width="38.599" height="38.599" viewBox="0 0 38.599 38.599">
  <g id="Group_701" data-name="Group 701" transform="translate(-1048 -1653.401)">
    <path id="Path_17" data-name="Path 17" d="M3.544,23.706a1.375,1.375,0,0,1,1.375,1.375v8.25h8.25a1.375,1.375,0,0,1,0,2.75H3.544a1.375,1.375,0,0,1-1.375-1.375V25.081a1.375,1.375,0,0,1,1.375-1.375Z" transform="translate(1045.831 1655.919)" fill="#db1222" fill-rule="evenodd"/>
    <path id="Path_18" data-name="Path 18" d="M15.918,27a1.375,1.375,0,0,1,0,1.944l-11.4,11.4A1.376,1.376,0,0,1,2.572,38.4L13.974,27A1.375,1.375,0,0,1,15.918,27ZM40.265,2.652a1.375,1.375,0,0,1,0,1.947L28.865,16a1.376,1.376,0,0,1-1.947-1.944l11.4-11.4a1.375,1.375,0,0,1,1.944,0Z" transform="translate(1045.831 1651.152)" fill="#db1222" fill-rule="evenodd"/>
    <path id="Path_19" data-name="Path 19" d="M23.625,3.625A1.375,1.375,0,0,1,25,2.25h9.625A1.375,1.375,0,0,1,36,3.625v9.625a1.375,1.375,0,1,1-2.75,0V5H25A1.375,1.375,0,0,1,23.625,3.625Zm11,24.749a1.375,1.375,0,0,0-1.375,1.375V38H25a1.375,1.375,0,1,0,0,2.75h9.625A1.375,1.375,0,0,0,36,39.373V29.749A1.375,1.375,0,0,0,34.624,28.374Z" transform="translate(1050.598 1651.153)" fill="#db1222" fill-rule="evenodd"/>
    <path id="Path_20" data-name="Path 20" d="M26.981,26.9a1.375,1.375,0,0,0,0,1.947l11.4,11.4A1.376,1.376,0,1,0,40.33,38.3l-11.4-11.4a1.375,1.375,0,0,0-1.944,0ZM2.732,2.652a1.375,1.375,0,0,0,0,1.947L14.134,16a1.376,1.376,0,1,0,1.947-1.944l-11.4-11.4A1.375,1.375,0,0,0,2.732,2.652Z" transform="translate(1045.867 1651.152)" fill="#db1222" fill-rule="evenodd"/>
    <path id="Path_21" data-name="Path 21" d="M14.624,3.625A1.375,1.375,0,0,0,13.249,2.25H3.625A1.375,1.375,0,0,0,2.25,3.625v9.625a1.375,1.375,0,1,0,2.75,0V5h8.25A1.375,1.375,0,0,0,14.624,3.625Z" transform="translate(1045.849 1651.153)" fill="#db1222" fill-rule="evenodd"/>
  </g>
</svg>
