<?xml version="1.0" encoding="UTF-8"?><svg id="Layer_1" xmlns="http://www.w3.org/2000/svg" xmlns:xlink="http://www.w3.org/1999/xlink" viewBox="0 0 181.13 181.13"><defs><style>.cls-1{fill:#f0f0f0;}.cls-2{fill:#fff;}.cls-3{fill:#d81222;}.cls-4{fill:#282d33;}.cls-5{fill:url(#New_Gradient_Swatch_3);}</style><linearGradient id="New_Gradient_Swatch_3" x1="3540.72" y1="52.73" x2="3554.44" y2="52.73" gradientTransform="translate(3587.89) rotate(-180) scale(1 -1)" gradientUnits="userSpaceOnUse"><stop offset="0" stop-color="#d81222"/><stop offset="1" stop-color="#960b1a"/></linearGradient></defs><g><path class="cls-1" d="M35.15,110.7l33.55-6.91c-2.34-3.86-3.7-8.39-3.7-13.23,0-9.74,5.47-18.22,13.5-22.53l11.79-35.53L79.72,.65C34.88,6.03,0,44.3,0,90.56c0,16.66,4.53,32.29,12.41,45.71l22.73-25.57Z"/><path class="cls-1" d="M100.83,32.5l-10.79,32.51c.18,0,.35-.01,.52-.01,14.1,0,25.56,11.47,25.56,25.56,0,.27-.01,.55-.02,.82l24.88,27.98,32.86,6.77c4.68-10.92,7.28-22.95,7.28-35.57C181.13,40.63,140.5,0,90.56,0c-.17,0-.35,0-.52,0l10.79,32.49Z"/><path class="cls-1" d="M135.72,128.49l-22.76-25.6c-4.36,7.89-12.76,13.24-22.39,13.24-4.94,0-9.56-1.41-13.48-3.85l-36.68,7.55-22.27,25.05c16.54,22,42.85,36.25,72.42,36.25,33.64,0,63.05-18.44,78.67-45.74l-33.52-6.9Z"/></g><g><polygon class="cls-5" points="47.17 60.28 33.45 60.28 33.45 45.17 47.17 60.28"/><circle class="cls-3" cx="45.26" cy="48.88" r="4.1"/><polygon class="cls-3" points="47.17 29.28 33.45 45.17 33.45 60.28 47.17 29.28"/></g><g><path class="cls-4" d="M99.65,149.4h-1.1v-9.06c0-.15,.06-.28,.16-.39,1.75-1.75,2.71-4.08,2.71-6.55,0-5.11-4.16-9.27-9.27-9.27s-9.27,4.16-9.27,9.27c0,.14,0,.28,.01,.42,0,.1-.02,.21-.07,.3l-2.7,4.68h1.33c.3,0,.55,.25,.55,.55v3.88c0,1.16,.94,2.1,2.1,2.1h4.19c.3,0,.55,.25,.55,.55v3.53h-1.1v-2.98h-3.65c-1.76,0-3.2-1.43-3.2-3.2v-3.33h-1.73c-.2,0-.38-.1-.48-.27-.1-.17-.1-.38,0-.55l3.1-5.36c0-.1,0-.2,0-.31,0-5.72,4.65-10.37,10.37-10.37s10.37,4.65,10.37,10.37c0,2.69-1.02,5.22-2.87,7.16v8.84Z"/><g><path class="cls-4" d="M92.03,141.08c-4.23,0-7.67-3.44-7.67-7.68h1.1c0,3.63,2.95,6.58,6.58,6.58s6.58-2.95,6.58-6.58-2.95-6.58-6.58-6.58v-1.1c4.23,0,7.67,3.44,7.67,7.67s-3.44,7.68-7.67,7.68Z"/><g><path class="cls-4" d="M85.45,133.4h-1.1c0-.2,0-.4,.02-.59l1.09,.08c-.01,.17-.02,.34-.02,.51Z"/><path class="cls-4" d="M85.63,131.87l-1.07-.25c.09-.39,.22-.78,.37-1.15l1.01,.42c-.13,.32-.24,.65-.32,.98Zm.79-1.9l-.94-.57c.21-.34,.45-.67,.71-.98l.83,.71c-.22,.26-.43,.54-.61,.84Zm1.34-1.57l-.71-.83c.31-.26,.63-.5,.98-.71l.57,.93c-.29,.18-.57,.38-.84,.61Zm1.76-1.08l-.42-1.01c.37-.15,.76-.28,1.15-.37l.25,1.07c-.33,.08-.67,.19-.98,.32Z"/><path class="cls-4" d="M91.52,126.84l-.08-1.09c.19-.01,.39-.02,.59-.02v1.1c-.17,0-.34,0-.51,.02Z"/></g></g><path class="cls-3" d="M97.1,133.4c0,2.8-2.27,5.08-5.08,5.08s-5.08-2.27-5.08-5.08,2.27-5.08,5.08-5.08,5.08,2.27,5.08,5.08Z"/><polygon class="cls-2" points="90.98 136.15 88.9 134.06 89.67 133.28 90.98 134.6 94.54 131.04 95.32 131.82 90.98 136.15"/></g><g><polyline class="cls-3" points="126.11 44.19 135 39.3 143.88 44.19"/><g><rect class="cls-2" x="122.39" y="44.42" width="25.2" height="1.71"/><path class="cls-4" d="M148.14,46.67h-26.28v-2.79h26.28v2.79Zm-25.2-1.08h24.12v-.62h-24.12v.62Z"/></g><g><g><rect class="cls-2" x="122.39" y="56.48" width="6" height="3.25"/><path class="cls-4" d="M128.94,60.28h-7.09v-4.34h7.09v4.34Zm-6-1.08h4.92v-2.17h-4.92v2.17Z"/></g><g><rect class="cls-2" x="141.59" y="56.48" width="6" height="3.25"/><path class="cls-4" d="M148.14,60.28h-7.09v-4.34h7.09v4.34Zm-6-1.08h4.92v-2.17h-4.92v2.17Z"/></g></g><rect class="cls-4" x="128.48" y="58.46" width="13.02" height="1.08"/><rect class="cls-4" x="128.48" y="56.57" width="13.02" height="1.08"/><path class="cls-4" d="M148.23,44.97h-26.46l-.27-1.01,13.23-7.58h.54l13.23,7.58-.27,1.01Zm-24.43-1.08h22.4l-11.2-6.42-11.2,6.42Z"/><rect class="cls-4" x="134.46" y="33.79" width="1.08" height="2.97"/><polygon class="cls-3" points="136.2 36.4 136.2 35.12 136.2 33.84 140.14 33.84 139.57 35.12 140.14 36.4 136.2 36.4"/><g><g><rect class="cls-4" x="123.61" y="47.44" width="1.08" height="7.73"/><rect class="cls-4" x="125.77" y="47.44" width="1.08" height="7.73"/></g><g><rect class="cls-4" x="130.12" y="47.44" width="1.08" height="7.73"/><rect class="cls-4" x="132.28" y="47.44" width="1.08" height="7.73"/></g><g><rect class="cls-4" x="136.63" y="47.44" width="1.08" height="7.73"/><rect class="cls-4" x="138.79" y="47.44" width="1.08" height="7.73"/></g><g><rect class="cls-4" x="143.14" y="47.44" width="1.08" height="7.73"/><rect class="cls-4" x="145.31" y="47.44" width="1.08" height="7.73"/></g></g></g></svg>