<?xml version="1.0" encoding="UTF-8"?>
<svg id="Layer_1" data-name="Layer 1" xmlns="http://www.w3.org/2000/svg" xmlns:xlink="http://www.w3.org/1999/xlink" viewBox="0 0 789.75 268.09">
  <defs>
    <style>
      .cls-1 {
        fill: #fff;
      }

      .cls-2 {
        fill: #db1222;
      }

      .cls-3 {
        fill: #ccc;
      }

      .cls-4 {
        fill: url(#New_Gradient_Swatch_4);
      }
    </style>
    <linearGradient id="New_Gradient_Swatch_4" data-name="New Gradient Swatch 4" x1="1491.06" y1="41.09" x2="1515.1" y2="41.09" gradientTransform="translate(1515.1) rotate(-180) scale(1 -1)" gradientUnits="userSpaceOnUse">
      <stop offset="0" stop-color="#d61f27"/>
      <stop offset="1" stop-color="#a31e22"/>
    </linearGradient>
  </defs>
  <g>
    <path class="cls-1" d="m26.7,86.1v121.41H0v-121.41h26.7Z"/>
    <path class="cls-1" d="m95.09,86.1c5.78,0,11.05.51,15.81,1.53,4.76,1.02,8.84,2.69,12.24,5.02,3.4,2.33,6.04,5.41,7.91,9.27,1.87,3.86,2.81,8.62,2.81,14.28,0,6.12-1.39,11.22-4.17,15.3-2.78,4.08-6.89,7.43-12.33,10.03,7.48,2.16,13.06,5.93,16.75,11.31,3.68,5.39,5.53,11.88,5.53,19.47,0,6.12-1.19,11.42-3.57,15.9-2.38,4.48-5.59,8.13-9.61,10.97-4.03,2.84-8.62,4.93-13.77,6.29-5.16,1.36-10.46,2.04-15.9,2.04h-58.84v-121.41h57.14Zm-3.4,49.14c4.76,0,8.67-1.13,11.73-3.4,3.06-2.27,4.59-5.95,4.59-11.05,0-2.83-.51-5.16-1.53-6.97-1.02-1.81-2.38-3.23-4.08-4.25-1.7-1.02-3.66-1.73-5.87-2.13-2.21-.4-4.51-.59-6.89-.59h-25v28.4h27.04Zm1.53,51.52c2.61,0,5.1-.25,7.48-.76,2.38-.51,4.48-1.36,6.29-2.55,1.81-1.19,3.26-2.81,4.34-4.85,1.08-2.04,1.62-4.65,1.62-7.82,0-6.23-1.76-10.68-5.27-13.35-3.52-2.66-8.16-4-13.94-4h-29.08v33.33h28.57Z"/>
    <path class="cls-1" d="m173.18,86.1v50.33l47.44-50.33h33.33l-47.44,47.95,52.03,73.46h-33.5l-36.56-54.59-15.3,15.47v39.11h-26.7v-121.41h26.7Z"/>
    <path class="cls-1" d="m330.65,86.1c5.44,0,10.34.88,14.71,2.64,4.36,1.76,8.1,4.17,11.22,7.23,3.12,3.06,5.5,6.61,7.14,10.63,1.64,4.02,2.47,8.36,2.47,13.01,0,7.14-1.5,13.32-4.51,18.54-3,5.22-7.91,9.18-14.71,11.9v.34c3.29.91,6.01,2.3,8.16,4.17,2.15,1.87,3.91,4.08,5.27,6.63,1.36,2.55,2.35,5.36,2.98,8.42.62,3.06,1.05,6.12,1.27,9.18.11,1.93.23,4.2.34,6.8.11,2.61.31,5.27.6,7.99.28,2.72.74,5.3,1.36,7.74.62,2.44,1.56,4.51,2.81,6.21h-26.7c-1.47-3.85-2.38-8.44-2.72-13.77-.34-5.33-.85-10.43-1.53-15.3-.91-6.35-2.84-10.99-5.78-13.94-2.95-2.95-7.77-4.42-14.45-4.42h-26.7v47.44h-26.7v-121.41h65.47Zm-9.52,54.92c6.12,0,10.71-1.36,13.77-4.08,3.06-2.72,4.59-7.14,4.59-13.26s-1.53-10.17-4.59-12.84c-3.06-2.66-7.65-4-13.77-4h-29.25v34.18h29.25Z"/>
    <g>
      <path class="cls-1" d="m461.22,201.78c-8.21,4.67-17.93,6.95-29.15,6.83-9.64-.1-18.06-1.93-25.28-5.46-7.22-3.54-13.23-8.28-18.04-14.23-4.81-5.95-8.39-12.76-10.75-20.44-2.36-7.68-3.49-15.65-3.4-23.93.09-8.27,1.39-16.22,3.91-23.85,2.52-7.63,6.25-14.36,11.19-20.2,4.94-5.84,11.05-10.48,18.35-13.92,7.29-3.43,15.76-5.1,25.39-5,9.63.1,18.06,1.96,25.28,5.55,7.22,3.59,13.23,8.36,18.04,14.31,4.81,5.95,8.39,12.76,10.75,20.44,2.35,7.68,3.49,15.66,3.4,23.93-.1,9.3-1.73,18.12-4.88,26.48-3.15,8.36-7.82,15.56-14.01,21.62l15.85,12.76-8.27,10.11-18.37-15Zm-.83-17.35c4.81-4.71,8.39-10.48,10.73-17.31,2.34-6.83,3.55-13.99,3.63-21.47.07-6.12-.66-12.17-2.18-18.13-1.52-5.97-3.96-11.35-7.31-16.15-3.35-4.8-7.67-8.67-12.97-11.62-5.3-2.95-11.63-4.46-19-4.54-7.37-.08-13.73,1.3-19.09,4.13-5.36,2.83-9.77,6.61-13.22,11.34-3.45,4.72-6.01,10.05-7.66,15.99-1.65,5.93-2.51,11.96-2.58,18.08-.07,6.12.66,12.17,2.18,18.14,1.52,5.97,3.96,11.35,7.31,16.15,3.35,4.8,7.67,8.67,12.97,11.62,5.3,2.95,11.63,4.46,19,4.54,5.78.06,11.4-1.01,16.87-3.22l-13.32-10.86,8.61-9.77,16.01,13.1Z"/>
      <path class="cls-1" d="m555.57,207.22l.15-13.94h-.34c-3.12,5.41-7.07,9.36-11.86,11.86-4.79,2.5-10.41,3.71-16.87,3.64-5.78-.06-10.59-.88-14.43-2.45-3.84-1.57-6.93-3.79-9.28-6.65-2.35-2.86-3.99-6.25-4.91-10.17-.92-3.92-1.36-8.26-1.31-13.02l.63-57.81,14.45.16-.65,59.51c-.06,5.44,1.48,9.77,4.62,12.97,3.14,3.21,7.48,4.84,13.04,4.9,4.42.05,8.25-.59,11.5-1.92,3.25-1.33,5.96-3.22,8.14-5.69,2.18-2.47,3.83-5.37,4.94-8.7,1.11-3.33,1.69-6.98,1.73-10.95l.54-49.65,14.45.16-.96,87.91-13.6-.15Z"/>
      <path class="cls-1" d="m658.82,208.01c-2.51,1.45-5.98,2.15-10.4,2.1-3.74-.04-6.7-1.12-8.89-3.24-2.19-2.12-3.26-5.56-3.2-10.32-4.02,4.72-8.68,8.1-13.97,10.14-5.3,2.04-11,3.03-17.13,2.96-3.97-.04-7.73-.54-11.29-1.48-3.56-.95-6.64-2.39-9.22-4.35-2.59-1.96-4.63-4.5-6.12-7.63-1.5-3.13-2.22-6.91-2.17-11.33.05-4.99.95-9.06,2.68-12.22,1.74-3.15,4-5.71,6.8-7.66,2.8-1.95,5.99-3.42,9.57-4.4,3.58-.98,7.25-1.79,10.99-2.43,3.98-.75,7.75-1.3,11.33-1.66,3.57-.36,6.73-.89,9.46-1.6,2.73-.71,4.89-1.76,6.5-3.16,1.6-1.4,2.42-3.46,2.45-6.18.03-3.17-.53-5.73-1.7-7.67-1.17-1.94-2.68-3.43-4.54-4.47-1.86-1.04-3.95-1.74-6.27-2.11-2.32-.37-4.62-.56-6.88-.58-6.12-.07-11.24,1.04-15.34,3.32-4.11,2.28-6.37,6.65-6.77,13.11l-14.45-.16c.28-5.44,1.47-10.02,3.55-13.74,2.08-3.72,4.83-6.72,8.26-9.01,3.43-2.28,7.33-3.92,11.7-4.89,4.37-.97,9.06-1.43,14.05-1.38,3.96.04,7.9.37,11.81.98,3.9.61,7.43,1.81,10.59,3.59,3.15,1.79,5.68,4.28,7.57,7.46,1.89,3.19,2.81,7.33,2.76,12.41l-.49,45.13c-.04,3.4.13,5.88.51,7.47.38,1.59,1.7,2.39,3.97,2.42,1.24.01,2.72-.2,4.43-.63l-.12,11.22Zm-22.98-45.31c-1.83,1.34-4.22,2.3-7.17,2.88-2.96.59-6.05,1.06-9.28,1.42-3.23.36-6.5.78-9.79,1.25-3.29.47-6.25,1.26-8.87,2.36-2.62,1.1-4.76,2.68-6.43,4.75-1.67,2.07-2.52,4.91-2.56,8.52-.03,2.37.43,4.38,1.38,6.02.94,1.65,2.18,2.99,3.7,4.02,1.52,1.03,3.3,1.78,5.33,2.26,2.04.47,4.19.72,6.46.74,4.76.05,8.85-.55,12.26-1.81,3.42-1.26,6.21-2.87,8.39-4.82,2.18-1.95,3.79-4.08,4.83-6.38,1.04-2.3,1.58-4.47,1.6-6.5l.16-14.72Z"/>
      <path class="cls-1" d="m680.02,120.66l-.15,13.94h.34c6.12-10.58,15.7-15.81,28.74-15.67,5.78.06,10.59.91,14.42,2.54,3.84,1.63,6.93,3.88,9.28,6.73,2.35,2.86,3.98,6.25,4.91,10.17.92,3.92,1.35,8.26,1.3,13.02l-.63,57.81-14.45-.16.65-59.51c.06-5.44-1.48-9.77-4.62-12.97-3.14-3.21-7.49-4.84-13.04-4.9-4.42-.05-8.25.59-11.5,1.92-3.25,1.33-5.96,3.22-8.14,5.69-2.18,2.47-3.83,5.37-4.94,8.7-1.11,3.33-1.69,6.98-1.73,10.95l-.54,49.65-14.45-.16.96-87.91,13.6.15Z"/>
      <path class="cls-1" d="m789.89,121.85l-.14,12.75-17.51-.19-.59,54.58c-.02,1.7.11,3.06.38,4.09.27,1.02.8,1.82,1.59,2.4.79.58,1.89.96,3.3,1.14s3.26.29,5.52.31l6.63.07-.14,12.75-11.05-.12c-3.74-.04-6.94-.33-9.6-.87-2.66-.54-4.81-1.5-6.43-2.88-1.63-1.38-2.83-3.32-3.59-5.82-.77-2.5-1.13-5.79-1.08-9.88l.61-55.94-14.96-.16.14-12.75,14.96.16.29-26.36,14.45.16-.29,26.36,17.51.19Z"/>
    </g>
  </g>
  <g>
    <g>
      <path class="cls-3" d="m47.5,20.01v34.25h-7.53V20.01h7.53Z"/>
      <path class="cls-3" d="m66.98,20.01c1.63,0,3.12.14,4.46.43,1.34.29,2.5.76,3.45,1.42.96.66,1.7,1.53,2.23,2.61.53,1.09.79,2.43.79,4.03,0,1.73-.39,3.17-1.18,4.32-.78,1.15-1.94,2.09-3.48,2.83,2.11.61,3.69,1.67,4.73,3.19,1.04,1.52,1.56,3.35,1.56,5.49,0,1.73-.34,3.22-1.01,4.49-.67,1.26-1.58,2.3-2.71,3.09-1.14.8-2.43,1.39-3.89,1.78-1.46.38-2.95.57-4.48.57h-16.6V20.01h16.12Zm-.96,13.86c1.34,0,2.45-.32,3.31-.96.86-.64,1.3-1.68,1.3-3.12,0-.8-.14-1.46-.43-1.97-.29-.51-.67-.91-1.15-1.2-.48-.29-1.03-.49-1.66-.6-.62-.11-1.27-.17-1.94-.17h-7.05v8.01h7.63Zm.43,14.54c.73,0,1.44-.07,2.11-.22s1.26-.38,1.78-.72c.51-.34.92-.79,1.22-1.37.3-.57.46-1.31.46-2.21,0-1.76-.5-3.01-1.49-3.77-.99-.75-2.3-1.13-3.93-1.13h-8.2v9.4h8.06Z"/>
      <path class="cls-3" d="m89.35,20.01v14.2l13.38-14.2h9.4l-13.38,13.53,14.68,20.72h-9.45l-10.31-15.4-4.32,4.37v11.03h-7.53V20.01h7.53Z"/>
      <path class="cls-3" d="m134.03,20.01c1.54,0,2.92.25,4.15.74,1.23.5,2.29,1.18,3.17,2.04.88.86,1.55,1.86,2.02,3,.46,1.14.69,2.36.69,3.67,0,2.01-.42,3.76-1.27,5.23-.85,1.47-2.23,2.59-4.15,3.36v.1c.93.26,1.69.65,2.3,1.18.61.53,1.1,1.15,1.49,1.87.38.72.66,1.51.84,2.37.18.86.3,1.73.36,2.59.03.55.06,1.18.1,1.92.03.74.09,1.49.17,2.26s.21,1.5.38,2.18c.17.69.44,1.27.79,1.75h-7.53c-.42-1.09-.67-2.38-.77-3.89-.1-1.5-.24-2.94-.43-4.32-.26-1.79-.8-3.1-1.63-3.93-.83-.83-2.19-1.25-4.08-1.25h-7.53v13.38h-7.53V20.01h18.47Zm-2.69,15.49c1.73,0,3.02-.38,3.89-1.15.86-.77,1.3-2.01,1.3-3.74s-.43-2.87-1.3-3.62c-.86-.75-2.16-1.13-3.89-1.13h-8.25v9.64h8.25Z"/>
      <path class="cls-3" d="m168.67,24.86c-1.74-1.22-3.81-1.82-6.21-1.82-2.05,0-3.8.38-5.25,1.15-1.46.77-2.65,1.8-3.6,3.09-.94,1.3-1.64,2.77-2.09,4.44-.45,1.66-.67,3.39-.67,5.18,0,1.95.22,3.8.67,5.54.45,1.74,1.14,3.26,2.09,4.56.94,1.3,2.15,2.33,3.62,3.09,1.47.77,3.23,1.15,5.28,1.15,1.5,0,2.84-.25,4.01-.74,1.17-.49,2.17-1.18,3.02-2.06.85-.88,1.51-1.93,1.99-3.14.48-1.22.77-2.53.86-3.93h4.56c-.45,4.32-1.93,7.68-4.46,10.07-2.53,2.4-5.98,3.6-10.36,3.6-2.65,0-4.97-.46-6.96-1.37-1.98-.91-3.63-2.16-4.94-3.77-1.31-1.6-2.29-3.49-2.95-5.66-.66-2.18-.98-4.51-.98-7s.35-4.84,1.06-7.03c.7-2.19,1.74-4.1,3.09-5.73,1.36-1.63,3.05-2.92,5.08-3.86,2.03-.94,4.36-1.42,6.98-1.42,1.79,0,3.49.24,5.08.72,1.6.48,3.02,1.18,4.27,2.11,1.25.93,2.29,2.09,3.12,3.48.83,1.39,1.38,3,1.63,4.82h-4.56c-.51-2.43-1.64-4.25-3.38-5.47Z"/>
      <path class="cls-3" d="m201.68,54.17c-.7.42-1.68.62-2.93.62-1.06,0-1.9-.3-2.52-.89s-.94-1.56-.94-2.9c-1.12,1.34-2.42,2.31-3.91,2.9-1.49.59-3.09.89-4.82.89-1.12,0-2.18-.13-3.19-.38-1.01-.25-1.88-.65-2.61-1.2-.74-.54-1.32-1.26-1.75-2.14-.43-.88-.65-1.94-.65-3.19,0-1.41.24-2.56.72-3.45.48-.9,1.11-1.62,1.89-2.18.78-.56,1.68-.98,2.69-1.27,1.01-.29,2.04-.53,3.09-.72,1.12-.22,2.18-.39,3.19-.5,1.01-.11,1.89-.27,2.66-.48.77-.21,1.38-.51,1.82-.91.45-.4.67-.98.67-1.75,0-.9-.17-1.62-.5-2.16-.34-.54-.77-.96-1.3-1.25-.53-.29-1.12-.48-1.78-.58-.66-.1-1.3-.14-1.94-.14-1.73,0-3.17.33-4.32.98-1.15.65-1.78,1.89-1.87,3.72h-4.08c.06-1.54.38-2.83.96-3.89.58-1.06,1.34-1.91,2.3-2.57.96-.65,2.05-1.13,3.29-1.41,1.23-.29,2.55-.43,3.96-.43,1.12,0,2.23.08,3.33.24,1.1.16,2.1.49,3,.98.9.49,1.61,1.19,2.16,2.08.54.89.82,2.06.82,3.49v12.73c0,.96.05,1.66.17,2.11.11.45.49.67,1.13.67.35,0,.77-.06,1.25-.19v3.17Zm-6.62-12.71c-.51.38-1.18.66-2.01.84-.83.17-1.7.32-2.62.43-.91.11-1.83.24-2.76.38s-1.76.37-2.49.69c-.74.32-1.34.77-1.8,1.36-.46.59-.69,1.39-.69,2.41,0,.67.13,1.23.41,1.7.27.46.62.83,1.06,1.12.43.29.94.49,1.51.62.57.13,1.18.19,1.82.19,1.34,0,2.49-.18,3.45-.55.96-.37,1.74-.83,2.35-1.38.61-.56,1.06-1.16,1.34-1.81.29-.65.43-1.27.43-1.84v-4.15Z"/>
      <path class="cls-3" d="m207.68,29.46v3.65h.1c1.85-2.81,4.52-4.22,8.01-4.22,1.54,0,2.93.32,4.17.96,1.25.64,2.13,1.73,2.64,3.26.83-1.34,1.93-2.38,3.29-3.12,1.36-.73,2.85-1.1,4.48-1.1,1.25,0,2.38.14,3.38.41,1.01.27,1.87.7,2.59,1.27.72.58,1.28,1.32,1.68,2.23s.6,2.01.6,3.29v18.18h-4.08v-16.26c0-.77-.07-1.49-.19-2.16-.13-.67-.37-1.26-.72-1.75-.35-.49-.84-.89-1.46-1.18-.62-.29-1.43-.43-2.42-.43-2.02,0-3.6.57-4.75,1.73-1.15,1.15-1.73,2.69-1.73,4.61v15.45h-4.08v-16.26c0-.8-.07-1.54-.22-2.21-.14-.67-.39-1.26-.74-1.75-.35-.49-.82-.88-1.42-1.15-.59-.27-1.35-.41-2.28-.41-1.18,0-2.2.24-3.05.72-.85.48-1.54,1.06-2.06,1.73-.53.67-.91,1.37-1.15,2.09-.24.72-.36,1.32-.36,1.8v15.45h-4.08v-24.8h3.84Z"/>
      <path class="cls-3" d="m246.02,29.46v3.36h.1c.67-1.38,1.73-2.38,3.17-3,1.44-.62,3.02-.94,4.75-.94,1.92,0,3.59.35,5.01,1.06,1.42.7,2.61,1.66,3.55,2.85.94,1.2,1.66,2.58,2.14,4.15.48,1.57.72,3.23.72,4.99s-.23,3.42-.69,4.99c-.46,1.57-1.17,2.93-2.11,4.1-.94,1.17-2.13,2.09-3.55,2.76s-3.08,1.01-4.96,1.01c-.61,0-1.29-.06-2.04-.19-.75-.13-1.5-.34-2.23-.62-.74-.29-1.43-.68-2.09-1.18-.66-.5-1.21-1.11-1.66-1.85h-.1v12.76h-4.08V29.46h4.08Zm14.66,8.8c-.3-1.1-.77-2.09-1.39-2.95-.62-.86-1.42-1.55-2.4-2.06-.98-.51-2.12-.77-3.43-.77-1.38,0-2.54.27-3.5.81-.96.54-1.74,1.26-2.35,2.14-.61.88-1.05,1.88-1.32,3-.27,1.12-.41,2.25-.41,3.41,0,1.22.14,2.39.43,3.53.29,1.14.74,2.14,1.37,3,.62.86,1.43,1.56,2.42,2.09.99.53,2.19.79,3.6.79s2.58-.27,3.53-.82c.94-.54,1.7-1.26,2.28-2.16.58-.9.99-1.92,1.25-3.07.25-1.15.38-2.33.38-3.55,0-1.15-.15-2.28-.46-3.38Z"/>
      <path class="cls-3" d="m284.57,54.26v-3.93h-.09c-.86,1.53-1.97,2.66-3.31,3.38-1.34.72-2.93,1.08-4.75,1.08-1.63,0-2.99-.22-4.08-.65-1.09-.43-1.97-1.05-2.64-1.85-.67-.8-1.14-1.75-1.42-2.85-.27-1.1-.41-2.33-.41-3.67v-16.31h4.08v16.79c0,1.54.45,2.75,1.34,3.65.89.9,2.12,1.34,3.69,1.34,1.25,0,2.33-.19,3.24-.58s1.67-.93,2.28-1.63c.61-.7,1.06-1.53,1.37-2.47.3-.94.46-1.98.46-3.09v-14.01h4.08v24.8h-3.84Z"/>
      <path class="cls-3" d="m295.89,48.72c.38.62.89,1.12,1.51,1.49.62.37,1.33.63,2.11.79.78.16,1.59.24,2.42.24.64,0,1.31-.05,2.02-.14.7-.1,1.35-.27,1.94-.53.59-.26,1.08-.63,1.46-1.13s.58-1.13.58-1.9c0-1.06-.4-1.85-1.2-2.4-.8-.54-1.8-.98-3-1.32-1.2-.33-2.5-.64-3.91-.91-1.41-.27-2.71-.65-3.91-1.15-1.2-.5-2.2-1.19-3-2.09-.8-.89-1.2-2.14-1.2-3.74,0-1.25.28-2.32.84-3.21.56-.9,1.28-1.62,2.16-2.18.88-.56,1.87-.98,2.97-1.25,1.1-.27,2.2-.41,3.29-.41,1.41,0,2.7.12,3.89.36,1.18.24,2.23.66,3.14,1.25.91.59,1.64,1.39,2.18,2.4.54,1.01.86,2.26.96,3.77h-4.08c-.06-.8-.27-1.46-.62-1.99s-.8-.95-1.34-1.27-1.14-.55-1.8-.69c-.66-.14-1.32-.22-1.99-.22-.61,0-1.22.05-1.85.14-.62.1-1.19.26-1.7.5s-.93.56-1.25.96c-.32.4-.48.92-.48,1.56,0,.7.25,1.29.74,1.75.49.46,1.13.85,1.89,1.15.77.3,1.63.56,2.59.77.96.21,1.92.42,2.88.65,1.02.22,2.02.49,3,.81.98.32,1.84.74,2.59,1.27.75.53,1.36,1.19,1.82,1.99.46.8.69,1.79.69,2.97,0,1.5-.31,2.75-.94,3.74s-1.44,1.79-2.45,2.4c-1.01.61-2.14,1.03-3.41,1.27-1.26.24-2.52.36-3.77.36-1.38,0-2.69-.14-3.93-.43-1.25-.29-2.35-.76-3.31-1.42-.96-.65-1.73-1.52-2.3-2.59-.58-1.07-.9-2.37-.96-3.91h4.08c.03.9.24,1.65.62,2.28Z"/>
    </g>
    <g>
      <polygon class="cls-4" points="24.04 54.33 0 54.33 0 27.85 24.04 54.33"/>
      <circle class="cls-2" cx="20.69" cy="34.34" r="7.18"/>
      <polygon class="cls-2" points="24.04 0 0 27.85 0 54.33 24.04 0"/>
    </g>
  </g>
</svg>