<?xml version="1.0" encoding="UTF-8"?>
<svg id="Layer_1" data-name="Layer 1" xmlns="http://www.w3.org/2000/svg" xmlns:xlink="http://www.w3.org/1999/xlink" viewBox="0 0 1027.39 268.09">
  <defs>
    <style>
      .cls-1 {
        fill: #fff;
      }

      .cls-2 {
        fill: #db1222;
      }

      .cls-3 {
        fill: #ccc;
      }

      .cls-4 {
        fill: url(#New_Gradient_Swatch_4);
      }
    </style>
    <linearGradient id="New_Gradient_Swatch_4" data-name="New Gradient Swatch 4" x1="1491.06" y1="41.09" x2="1515.1" y2="41.09" gradientTransform="translate(1515.1) rotate(-180) scale(1 -1)" gradientUnits="userSpaceOnUse">
      <stop offset="0" stop-color="#d61f27"/>
      <stop offset="1" stop-color="#a31e22"/>
    </linearGradient>
  </defs>
  <g>
    <g>
      <path class="cls-1" d="m472.85,207.62l-27.99-103.04h-.34l-28.34,103.04h-17l-31.43-122.62h16.66l24.04,102.01h.34l27.48-102.01h17.69l27.13,102.01h.34l24.9-102.01h16.31l-32.8,122.62h-17Z"/>
      <path class="cls-1" d="m580.79,201.96c-6.64,5.04-15,7.56-25.07,7.56-7.1,0-13.26-1.15-18.46-3.44-5.21-2.29-9.59-5.49-13.14-9.61-3.55-4.12-6.21-9.04-7.99-14.77-1.78-5.72-2.78-11.96-3.01-18.72,0-6.75,1.03-12.93,3.09-18.55,2.06-5.61,4.95-10.48,8.67-14.6,3.72-4.12,8.13-7.32,13.23-9.61,5.09-2.29,10.67-3.44,16.74-3.44,7.9,0,14.46,1.63,19.66,4.9,5.21,3.26,9.39,7.41,12.54,12.45,3.15,5.04,5.32,10.53,6.53,16.49,1.2,5.96,1.69,11.62,1.46,17h-66.46c-.12,3.9.34,7.59,1.37,11.08,1.03,3.49,2.69,6.59,4.98,9.27,2.29,2.69,5.21,4.84,8.76,6.44,3.55,1.61,7.73,2.41,12.54,2.41,6.18,0,11.25-1.43,15.2-4.29,3.95-2.86,6.55-7.21,7.81-13.05h14.43c-1.95,9.96-6.24,17.46-12.88,22.5Zm-3.52-57.02c-1.32-3.09-3.09-5.75-5.33-7.99-2.23-2.23-4.87-4.01-7.9-5.33-3.03-1.31-6.38-1.97-10.05-1.97s-7.19.66-10.22,1.97c-3.03,1.32-5.64,3.12-7.82,5.41-2.18,2.29-3.89,4.95-5.15,7.99-1.26,3.03-2,6.27-2.23,9.7h51.01c-.23-3.44-1-6.7-2.32-9.79Z"/>
      <path class="cls-1" d="m618.81,85v45.85h.34c2.41-4.92,6.18-8.5,11.34-10.73,5.15-2.23,10.82-3.35,17-3.35,6.87,0,12.85,1.26,17.95,3.78s9.33,5.92,12.71,10.22c3.38,4.29,5.93,9.25,7.64,14.85,1.72,5.61,2.58,11.57,2.58,17.86s-.83,12.25-2.49,17.86c-1.66,5.61-4.18,10.51-7.56,14.69-3.38,4.18-7.61,7.47-12.71,9.88-5.1,2.41-11.02,3.6-17.77,3.6-2.18,0-4.61-.23-7.3-.69-2.69-.46-5.35-1.2-7.99-2.23-2.64-1.03-5.13-2.43-7.47-4.21-2.35-1.78-4.32-3.97-5.93-6.61h-.34v11.85h-14.6v-122.62h14.6Zm52.47,65.34c-1.09-3.95-2.75-7.47-4.98-10.56-2.23-3.09-5.1-5.55-8.59-7.38-3.49-1.83-7.58-2.75-12.28-2.75-4.92,0-9.1.97-12.54,2.92-3.43,1.95-6.24,4.5-8.42,7.64s-3.75,6.73-4.72,10.73c-.97,4.01-1.46,8.07-1.46,12.19,0,4.35.51,8.56,1.54,12.62,1.03,4.07,2.66,7.64,4.89,10.73,2.23,3.09,5.12,5.58,8.67,7.47,3.55,1.89,7.84,2.83,12.88,2.83s9.25-.97,12.62-2.92c3.38-1.94,6.1-4.52,8.16-7.73,2.06-3.2,3.55-6.87,4.47-10.99.91-4.12,1.37-8.36,1.37-12.71,0-4.12-.54-8.15-1.63-12.11Z"/>
      <path class="cls-1" d="m697.79,102.86v-17.86h14.6v17.86h-14.6Zm14.6,15.97v88.79h-14.6v-88.79h14.6Z"/>
      <path class="cls-1" d="m738.49,118.84v14.08h.34c6.07-10.76,15.68-16.15,28.85-16.15,5.84,0,10.7.8,14.6,2.41,3.89,1.6,7.04,3.84,9.45,6.7s4.09,6.27,5.07,10.22c.97,3.95,1.46,8.33,1.46,13.14v58.39h-14.6v-60.11c0-5.49-1.6-9.84-4.81-13.05-3.21-3.2-7.62-4.8-13.23-4.8-4.46,0-8.33.68-11.59,2.06-3.26,1.37-5.98,3.32-8.16,5.84-2.18,2.52-3.81,5.47-4.89,8.84-1.09,3.38-1.63,7.07-1.63,11.08v50.15h-14.6v-88.79h13.74Z"/>
      <path class="cls-1" d="m880.43,209.51c-3.78,0-6.78-1.06-9.02-3.18-2.23-2.12-3.35-5.58-3.35-10.39-4.01,4.81-8.67,8.27-14,10.39-5.32,2.12-11.08,3.18-17.26,3.18-4.01,0-7.79-.43-11.33-1.29-3.55-.86-6.67-2.29-9.36-4.29-2.69-2-4.81-4.58-6.35-7.73-1.55-3.14-2.32-6.95-2.32-11.42,0-5.04.86-9.16,2.58-12.37,1.72-3.2,3.98-5.81,6.78-7.81,2.8-2,6.01-3.52,9.62-4.55,3.6-1.03,7.3-1.89,11.08-2.58,4.01-.8,7.82-1.4,11.42-1.8,3.61-.4,6.78-.97,9.53-1.72,2.75-.74,4.92-1.83,6.53-3.26,1.6-1.43,2.41-3.52,2.41-6.27,0-3.2-.6-5.78-1.81-7.73-1.2-1.94-2.75-3.43-4.64-4.46-1.89-1.03-4.01-1.72-6.35-2.06-2.35-.34-4.67-.51-6.95-.51-6.18,0-11.34,1.17-15.46,3.52-4.12,2.35-6.35,6.79-6.7,13.31h-14.6c.23-5.5,1.37-10.14,3.43-13.91,2.06-3.78,4.81-6.84,8.24-9.19,3.43-2.35,7.38-4.03,11.85-5.07,4.47-1.03,9.16-1.55,14.08-1.55,4.01,0,7.99.29,11.94.86,3.95.58,7.53,1.75,10.73,3.52,3.21,1.78,5.78,4.27,7.73,7.47,1.95,3.2,2.92,7.38,2.92,12.54v45.68c0,3.44.2,5.96.6,7.56.4,1.61,1.75,2.41,4.04,2.41,1.26,0,2.75-.28,4.47-.86v11.34c-2.52,1.49-6.01,2.23-10.48,2.23Zm-20.44-44.74c-2.98.63-6.1,1.15-9.36,1.54-3.26.4-6.56.86-9.88,1.37-3.32.52-6.3,1.35-8.93,2.49-2.63,1.15-4.78,2.78-6.44,4.9-1.66,2.12-2.49,5.01-2.49,8.67,0,2.41.48,4.44,1.46,6.1.97,1.66,2.23,3.01,3.78,4.03,1.55,1.03,3.38,1.78,5.5,2.24,2.12.46,4.26.68,6.44.68,4.81,0,8.93-.66,12.36-1.98,3.44-1.31,6.24-2.98,8.42-4.98,2.17-2,3.78-4.18,4.81-6.53,1.03-2.35,1.54-4.55,1.54-6.61v-14.94c-1.83,1.37-4.24,2.38-7.21,3.01Z"/>
      <path class="cls-1" d="m913.4,118.84v18.72h.34c3.55-7.22,7.9-12.54,13.05-15.97,5.15-3.44,11.68-5.04,19.58-4.81v15.46c-5.84,0-10.82.8-14.94,2.41-4.12,1.6-7.45,3.95-9.96,7.04-2.52,3.09-4.35,6.84-5.49,11.25-1.15,4.41-1.72,9.47-1.72,15.2v39.5h-14.6v-88.79h13.74Z"/>
      <path class="cls-1" d="m966.55,187.79c1.37,2.24,3.18,4.01,5.41,5.33,2.23,1.32,4.75,2.26,7.56,2.83,2.8.58,5.7.86,8.67.86,2.29,0,4.69-.17,7.21-.52,2.52-.34,4.83-.97,6.95-1.89,2.12-.91,3.87-2.26,5.24-4.03,1.37-1.78,2.06-4.04,2.06-6.79,0-3.78-1.43-6.63-4.29-8.58-2.86-1.95-6.44-3.52-10.74-4.72-4.29-1.21-8.96-2.29-14-3.26-5.04-.97-9.7-2.35-14-4.12-4.29-1.78-7.87-4.27-10.73-7.47-2.86-3.21-4.29-7.67-4.29-13.4,0-4.46,1-8.3,3.01-11.5,2-3.2,4.58-5.81,7.73-7.82,3.15-2,6.7-3.49,10.65-4.46,3.95-.97,7.87-1.46,11.76-1.46,5.04,0,9.67.43,13.91,1.29,4.23.86,7.99,2.35,11.25,4.47,3.26,2.12,5.87,4.98,7.82,8.58,1.94,3.61,3.09,8.11,3.43,13.49h-14.6c-.23-2.86-.97-5.24-2.23-7.13-1.26-1.89-2.86-3.4-4.81-4.55-1.95-1.15-4.1-1.98-6.44-2.49-2.35-.52-4.72-.77-7.13-.77-2.17,0-4.38.17-6.61.51-2.23.35-4.27.94-6.1,1.81-1.83.86-3.32,2-4.47,3.43-1.15,1.43-1.72,3.3-1.72,5.58,0,2.52.88,4.61,2.66,6.27,1.77,1.66,4.04,3.03,6.78,4.12,2.75,1.09,5.84,2,9.27,2.75,3.44.75,6.87,1.52,10.3,2.32,3.66.8,7.24,1.78,10.73,2.92,3.49,1.15,6.58,2.66,9.28,4.55,2.69,1.89,4.86,4.27,6.53,7.13,1.66,2.87,2.49,6.41,2.49,10.65,0,5.39-1.12,9.85-3.35,13.4-2.23,3.55-5.15,6.41-8.76,8.58-3.61,2.18-7.67,3.7-12.19,4.56-4.53.86-9.02,1.29-13.48,1.29-4.92,0-9.62-.52-14.08-1.55-4.47-1.03-8.42-2.71-11.85-5.07-3.43-2.35-6.18-5.43-8.24-9.27-2.06-3.83-3.21-8.5-3.44-14h14.6c.11,3.2.86,5.92,2.23,8.15Z"/>
    </g>
    <g>
      <path class="cls-1" d="m26.7,86.18v121.41H0v-121.41h26.7Z"/>
      <path class="cls-1" d="m95.09,86.18c5.78,0,11.05.51,15.81,1.53s8.84,2.69,12.24,5.02c3.4,2.33,6.04,5.41,7.91,9.27,1.87,3.86,2.81,8.62,2.81,14.28,0,6.12-1.39,11.22-4.17,15.3-2.78,4.08-6.89,7.43-12.33,10.03,7.48,2.16,13.06,5.93,16.75,11.31,3.68,5.39,5.53,11.88,5.53,19.47,0,6.12-1.19,11.42-3.57,15.9-2.38,4.48-5.59,8.13-9.61,10.97-4.03,2.84-8.62,4.93-13.77,6.29-5.16,1.36-10.46,2.04-15.9,2.04h-58.84v-121.41h57.14Zm-3.4,49.14c4.76,0,8.67-1.13,11.73-3.4,3.06-2.27,4.59-5.95,4.59-11.05,0-2.83-.51-5.16-1.53-6.97-1.02-1.81-2.38-3.23-4.08-4.25-1.7-1.02-3.66-1.73-5.87-2.13-2.21-.4-4.51-.59-6.89-.59h-25v28.4h27.04Zm1.53,51.52c2.61,0,5.1-.25,7.48-.76,2.38-.51,4.48-1.36,6.29-2.55,1.81-1.19,3.26-2.81,4.34-4.85,1.08-2.04,1.62-4.65,1.62-7.82,0-6.23-1.76-10.68-5.27-13.35-3.52-2.66-8.16-4-13.94-4h-29.08v33.33h28.57Z"/>
      <path class="cls-1" d="m173.18,86.18v50.33l47.44-50.33h33.33l-47.44,47.95,52.03,73.46h-33.5l-36.56-54.59-15.3,15.47v39.11h-26.7v-121.41h26.7Z"/>
      <path class="cls-1" d="m330.65,86.18c5.44,0,10.34.88,14.71,2.64,4.36,1.76,8.1,4.17,11.22,7.23,3.12,3.06,5.5,6.61,7.14,10.63,1.64,4.02,2.47,8.36,2.47,13.01,0,7.14-1.5,13.32-4.51,18.54-3,5.22-7.91,9.18-14.71,11.9v.34c3.29.91,6.01,2.3,8.16,4.17,2.15,1.87,3.91,4.08,5.27,6.63,1.36,2.55,2.35,5.36,2.98,8.42.62,3.06,1.05,6.12,1.27,9.18.11,1.93.23,4.2.34,6.8.11,2.61.31,5.27.6,7.99.28,2.72.74,5.3,1.36,7.74.62,2.44,1.56,4.51,2.81,6.21h-26.7c-1.47-3.85-2.38-8.44-2.72-13.77-.34-5.33-.85-10.43-1.53-15.3-.91-6.35-2.84-10.99-5.78-13.94-2.95-2.95-7.77-4.42-14.45-4.42h-26.7v47.44h-26.7v-121.41h65.47Zm-9.52,54.92c6.12,0,10.71-1.36,13.77-4.08s4.59-7.14,4.59-13.26-1.53-10.17-4.59-12.84c-3.06-2.66-7.65-4-13.77-4h-29.25v34.18h29.25Z"/>
    </g>
  </g>
  <g>
    <g>
      <path class="cls-3" d="m47.5,20.01v34.25h-7.53V20.01h7.53Z"/>
      <path class="cls-3" d="m66.98,20.01c1.63,0,3.12.14,4.46.43,1.34.29,2.5.76,3.45,1.42.96.66,1.7,1.53,2.23,2.61.53,1.09.79,2.43.79,4.03,0,1.73-.39,3.17-1.18,4.32-.78,1.15-1.94,2.09-3.48,2.83,2.11.61,3.69,1.67,4.73,3.19,1.04,1.52,1.56,3.35,1.56,5.49,0,1.73-.34,3.22-1.01,4.49-.67,1.26-1.58,2.3-2.71,3.09-1.14.8-2.43,1.39-3.89,1.78s-2.95.57-4.48.57h-16.6V20.01h16.12Zm-.96,13.86c1.34,0,2.45-.32,3.31-.96.86-.64,1.3-1.68,1.3-3.12,0-.8-.14-1.46-.43-1.97-.29-.51-.67-.91-1.15-1.2-.48-.29-1.03-.49-1.66-.6-.62-.11-1.27-.17-1.94-.17h-7.05v8.01h7.63Zm.43,14.54c.73,0,1.44-.07,2.11-.22s1.26-.38,1.78-.72c.51-.34.92-.79,1.22-1.37.3-.57.46-1.31.46-2.21,0-1.76-.5-3.01-1.49-3.77-.99-.75-2.3-1.13-3.93-1.13h-8.2v9.4h8.06Z"/>
      <path class="cls-3" d="m89.35,20.01v14.2l13.38-14.2h9.4l-13.38,13.53,14.68,20.72h-9.45l-10.31-15.4-4.32,4.37v11.03h-7.53V20.01h7.53Z"/>
      <path class="cls-3" d="m134.03,20.01c1.54,0,2.92.25,4.15.74,1.23.5,2.29,1.18,3.17,2.04.88.86,1.55,1.86,2.02,3,.46,1.14.69,2.36.69,3.67,0,2.01-.42,3.76-1.27,5.23-.85,1.47-2.23,2.59-4.15,3.36v.1c.93.26,1.69.65,2.3,1.18.61.53,1.1,1.15,1.49,1.87.38.72.66,1.51.84,2.37.18.86.3,1.73.36,2.59.03.55.06,1.18.1,1.92.03.74.09,1.49.17,2.26s.21,1.5.38,2.18c.17.69.44,1.27.79,1.75h-7.53c-.42-1.09-.67-2.38-.77-3.89-.1-1.5-.24-2.94-.43-4.32-.26-1.79-.8-3.1-1.63-3.93-.83-.83-2.19-1.25-4.08-1.25h-7.53v13.38h-7.53V20.01h18.47Zm-2.69,15.49c1.73,0,3.02-.38,3.89-1.15.86-.77,1.3-2.01,1.3-3.74s-.43-2.87-1.3-3.62c-.86-.75-2.16-1.13-3.89-1.13h-8.25v9.64h8.25Z"/>
      <path class="cls-3" d="m168.67,24.86c-1.74-1.22-3.81-1.82-6.21-1.82-2.05,0-3.8.38-5.25,1.15s-2.65,1.8-3.6,3.09c-.94,1.3-1.64,2.77-2.09,4.44s-.67,3.39-.67,5.18c0,1.95.22,3.8.67,5.54.45,1.74,1.14,3.26,2.09,4.56.94,1.3,2.15,2.33,3.62,3.09,1.47.77,3.23,1.15,5.28,1.15,1.5,0,2.84-.25,4.01-.74,1.17-.49,2.17-1.18,3.02-2.06.85-.88,1.51-1.93,1.99-3.14.48-1.22.77-2.53.86-3.93h4.56c-.45,4.32-1.93,7.68-4.46,10.07-2.53,2.4-5.98,3.6-10.36,3.6-2.65,0-4.97-.46-6.96-1.37-1.98-.91-3.63-2.16-4.94-3.77-1.31-1.6-2.29-3.49-2.95-5.66-.66-2.18-.98-4.51-.98-7s.35-4.84,1.06-7.03c.7-2.19,1.74-4.1,3.09-5.73,1.36-1.63,3.05-2.92,5.08-3.86,2.03-.94,4.36-1.42,6.98-1.42,1.79,0,3.49.24,5.08.72,1.6.48,3.02,1.18,4.27,2.11,1.25.93,2.29,2.09,3.12,3.48.83,1.39,1.38,3,1.63,4.82h-4.56c-.51-2.43-1.64-4.25-3.38-5.47Z"/>
      <path class="cls-3" d="m201.68,54.17c-.7.42-1.68.62-2.93.62-1.06,0-1.9-.3-2.52-.89s-.94-1.56-.94-2.9c-1.12,1.34-2.42,2.31-3.91,2.9-1.49.59-3.09.89-4.82.89-1.12,0-2.18-.13-3.19-.38-1.01-.25-1.88-.65-2.61-1.2-.74-.54-1.32-1.26-1.75-2.14-.43-.88-.65-1.94-.65-3.19,0-1.41.24-2.56.72-3.45.48-.9,1.11-1.62,1.89-2.18.78-.56,1.68-.98,2.69-1.27,1.01-.29,2.04-.53,3.09-.72,1.12-.22,2.18-.39,3.19-.5,1.01-.11,1.89-.27,2.66-.48.77-.21,1.38-.51,1.82-.91.45-.4.67-.98.67-1.75,0-.9-.17-1.62-.5-2.16-.34-.54-.77-.96-1.3-1.25-.53-.29-1.12-.48-1.78-.58-.66-.1-1.3-.14-1.94-.14-1.73,0-3.17.33-4.32.98-1.15.65-1.78,1.89-1.87,3.72h-4.08c.06-1.54.38-2.83.96-3.89.58-1.06,1.34-1.91,2.3-2.57.96-.65,2.05-1.13,3.29-1.41,1.23-.29,2.55-.43,3.96-.43,1.12,0,2.23.08,3.33.24,1.1.16,2.1.49,3,.98.9.49,1.61,1.19,2.16,2.08.54.89.82,2.06.82,3.49v12.73c0,.96.05,1.66.17,2.11.11.45.49.67,1.13.67.35,0,.77-.06,1.25-.19v3.17Zm-6.62-12.71c-.51.38-1.18.66-2.01.84-.83.17-1.7.32-2.62.43-.91.11-1.83.24-2.76.38s-1.76.37-2.49.69c-.74.32-1.34.77-1.8,1.36-.46.59-.69,1.39-.69,2.41,0,.67.13,1.23.41,1.7.27.46.62.83,1.06,1.12.43.29.94.49,1.51.62.57.13,1.18.19,1.82.19,1.34,0,2.49-.18,3.45-.55.96-.37,1.74-.83,2.35-1.38.61-.56,1.06-1.16,1.34-1.81.29-.65.43-1.27.43-1.84v-4.15Z"/>
      <path class="cls-3" d="m207.68,29.46v3.65h.1c1.85-2.81,4.52-4.22,8.01-4.22,1.54,0,2.93.32,4.17.96,1.25.64,2.13,1.73,2.64,3.26.83-1.34,1.93-2.38,3.29-3.12,1.36-.73,2.85-1.1,4.48-1.1,1.25,0,2.38.14,3.38.41,1.01.27,1.87.7,2.59,1.27.72.58,1.28,1.32,1.68,2.23s.6,2.01.6,3.29v18.18h-4.08v-16.26c0-.77-.07-1.49-.19-2.16s-.37-1.26-.72-1.75c-.35-.49-.84-.89-1.46-1.18-.62-.29-1.43-.43-2.42-.43-2.02,0-3.6.57-4.75,1.73-1.15,1.15-1.73,2.69-1.73,4.61v15.45h-4.08v-16.26c0-.8-.07-1.54-.22-2.21-.14-.67-.39-1.26-.74-1.75-.35-.49-.82-.88-1.42-1.15-.59-.27-1.35-.41-2.28-.41-1.18,0-2.2.24-3.05.72-.85.48-1.54,1.06-2.06,1.73-.53.67-.91,1.37-1.15,2.09-.24.72-.36,1.32-.36,1.8v15.45h-4.08v-24.8h3.84Z"/>
      <path class="cls-3" d="m246.02,29.46v3.36h.1c.67-1.38,1.73-2.38,3.17-3,1.44-.62,3.02-.94,4.75-.94,1.92,0,3.59.35,5.01,1.06,1.42.7,2.61,1.66,3.55,2.85.94,1.2,1.66,2.58,2.14,4.15.48,1.57.72,3.23.72,4.99s-.23,3.42-.69,4.99c-.46,1.57-1.17,2.93-2.11,4.1-.94,1.17-2.13,2.09-3.55,2.76-1.42.67-3.08,1.01-4.96,1.01-.61,0-1.29-.06-2.04-.19-.75-.13-1.5-.34-2.23-.62-.74-.29-1.43-.68-2.09-1.18-.66-.5-1.21-1.11-1.66-1.85h-.1v12.76h-4.08V29.46h4.08Zm14.66,8.8c-.3-1.1-.77-2.09-1.39-2.95-.62-.86-1.42-1.55-2.4-2.06-.98-.51-2.12-.77-3.43-.77-1.38,0-2.54.27-3.5.81-.96.54-1.74,1.26-2.35,2.14-.61.88-1.05,1.88-1.32,3-.27,1.12-.41,2.25-.41,3.41,0,1.22.14,2.39.43,3.53.29,1.14.74,2.14,1.37,3,.62.86,1.43,1.56,2.42,2.09.99.53,2.19.79,3.6.79s2.58-.27,3.53-.82c.94-.54,1.7-1.26,2.28-2.16.58-.9.99-1.92,1.25-3.07.25-1.15.38-2.33.38-3.55,0-1.15-.15-2.28-.46-3.38Z"/>
      <path class="cls-3" d="m284.57,54.26v-3.93h-.09c-.86,1.53-1.97,2.66-3.31,3.38-1.34.72-2.93,1.08-4.75,1.08-1.63,0-2.99-.22-4.08-.65-1.09-.43-1.97-1.05-2.64-1.85s-1.14-1.75-1.42-2.85c-.27-1.1-.41-2.33-.41-3.67v-16.31h4.08v16.79c0,1.54.45,2.75,1.34,3.65.89.9,2.12,1.34,3.69,1.34,1.25,0,2.33-.19,3.24-.58.91-.38,1.67-.93,2.28-1.63.61-.7,1.06-1.53,1.37-2.47.3-.94.46-1.98.46-3.09v-14.01h4.08v24.8h-3.84Z"/>
      <path class="cls-3" d="m295.89,48.72c.38.62.89,1.12,1.51,1.49.62.37,1.33.63,2.11.79.78.16,1.59.24,2.42.24.64,0,1.31-.05,2.02-.14.7-.1,1.35-.27,1.94-.53.59-.26,1.08-.63,1.46-1.13s.58-1.13.58-1.9c0-1.06-.4-1.85-1.2-2.4-.8-.54-1.8-.98-3-1.32-1.2-.33-2.5-.64-3.91-.91-1.41-.27-2.71-.65-3.91-1.15-1.2-.5-2.2-1.19-3-2.09-.8-.89-1.2-2.14-1.2-3.74,0-1.25.28-2.32.84-3.21.56-.9,1.28-1.62,2.16-2.18.88-.56,1.87-.98,2.97-1.25,1.1-.27,2.2-.41,3.29-.41,1.41,0,2.7.12,3.89.36,1.18.24,2.23.66,3.14,1.25.91.59,1.64,1.39,2.18,2.4.54,1.01.86,2.26.96,3.77h-4.08c-.06-.8-.27-1.46-.62-1.99-.35-.53-.8-.95-1.34-1.27-.54-.32-1.14-.55-1.8-.69-.66-.14-1.32-.22-1.99-.22-.61,0-1.22.05-1.85.14-.62.1-1.19.26-1.7.5s-.93.56-1.25.96c-.32.4-.48.92-.48,1.56,0,.7.25,1.29.74,1.75.49.46,1.13.85,1.89,1.15.77.3,1.63.56,2.59.77.96.21,1.92.42,2.88.65,1.02.22,2.02.49,3,.81.98.32,1.84.74,2.59,1.27.75.53,1.36,1.19,1.82,1.99.46.8.69,1.79.69,2.97,0,1.5-.31,2.75-.94,3.74-.62.99-1.44,1.79-2.45,2.4-1.01.61-2.14,1.03-3.41,1.27-1.26.24-2.52.36-3.77.36-1.38,0-2.69-.14-3.93-.43-1.25-.29-2.35-.76-3.31-1.42-.96-.65-1.73-1.52-2.3-2.59-.58-1.07-.9-2.37-.96-3.91h4.08c.03.9.24,1.65.62,2.28Z"/>
    </g>
    <g>
      <polygon class="cls-4" points="24.04 54.33 0 54.33 0 27.85 24.04 54.33"/>
      <circle class="cls-2" cx="20.69" cy="34.34" r="7.18"/>
      <polygon class="cls-2" points="24.04 0 0 27.85 0 54.33 24.04 0"/>
    </g>
  </g>
</svg>