<?xml version="1.0" encoding="UTF-8"?>
<svg id="Layer_1" data-name="Layer 1" xmlns="http://www.w3.org/2000/svg" xmlns:xlink="http://www.w3.org/1999/xlink" viewBox="0 0 1030.93 268.09">
  <defs>
    <style>
      .cls-1 {
        fill: #fff;
      }

      .cls-2 {
        fill: #db1222;
      }

      .cls-3 {
        fill: #ccc;
      }

      .cls-4 {
        fill: url(#New_Gradient_Swatch_4);
      }
    </style>
    <linearGradient id="New_Gradient_Swatch_4" data-name="New Gradient Swatch 4" x1="1493.6" y1="41.09" x2="1517.64" y2="41.09" gradientTransform="translate(1517.64) rotate(-180) scale(1 -1)" gradientUnits="userSpaceOnUse">
      <stop offset="0" stop-color="#d61f27"/>
      <stop offset="1" stop-color="#a31e22"/>
    </linearGradient>
  </defs>
  <g>
    <g>
      <path class="cls-1" d="m0,109.14v-22.39h99.2v22.39h-36.28v98.7h-26.64v-98.7H0Z"/>
      <path class="cls-1" d="m98.71,120.17v16.29h.35c1.13-2.72,2.65-5.23,4.58-7.55,1.92-2.32,4.13-4.29,6.61-5.93,2.48-1.64,5.15-2.91,7.98-3.82,2.82-.9,5.76-1.36,8.82-1.36,1.57,0,3.33.28,5.24.85v22.39c-1.13-.23-2.48-.43-4.06-.59-1.59-.18-3.12-.26-4.58-.26-4.42,0-8.14.73-11.19,2.21-3.05,1.46-5.52,3.48-7.38,6.02-1.86,2.54-3.19,5.51-3.99,8.9-.79,3.4-1.19,7.07-1.19,11.03v39.51h-24.07v-87.68h22.88Z"/>
      <path class="cls-1" d="m141.62,133.06c2.48-3.73,5.66-6.72,9.5-8.98,3.85-2.26,8.17-3.88,12.97-4.84,4.8-.96,9.63-1.44,14.51-1.44,4.4,0,8.87.31,13.4.93,4.51.63,8.64,1.84,12.38,3.65,3.73,1.81,6.78,4.32,9.15,7.55,2.37,3.22,3.56,7.48,3.56,12.79v45.63c0,3.96.23,7.74.68,11.36.46,3.62,1.24,6.33,2.37,8.14h-24.41c-.46-1.35-.83-2.75-1.1-4.15-.29-1.41-.48-2.86-.59-4.32-3.85,3.95-8.36,6.72-13.57,8.31-5.2,1.57-10.52,2.37-15.94,2.37-4.18,0-8.09-.51-11.7-1.53-3.62-1.02-6.78-2.59-9.5-4.75-2.72-2.14-4.83-4.86-6.36-8.14-1.52-3.27-2.29-7.18-2.29-11.7,0-4.97.88-9.07,2.64-12.28,1.75-3.23,4-5.8,6.78-7.73,2.77-1.92,5.93-3.35,9.5-4.32,3.56-.95,7.15-1.73,10.78-2.29,3.62-.57,7.18-1.02,10.68-1.35,3.51-.35,6.61-.86,9.33-1.53,2.71-.68,4.86-1.66,6.45-2.97,1.57-1.3,2.3-3.19,2.19-5.67,0-2.61-.41-4.66-1.27-6.2-.84-1.53-1.97-2.72-3.4-3.56-1.41-.84-3.05-1.41-4.91-1.7-1.86-.28-3.88-.43-6.02-.43-4.75,0-8.49,1.02-11.19,3.06-2.72,2.03-4.31,5.42-4.75,10.17h-24.08c.33-5.66,1.75-10.35,4.24-14.08Zm47.57,34.01c-1.53.51-3.17.92-4.93,1.27-1.75.33-3.59.62-5.51.84-1.92.23-3.84.51-5.77.86-1.81.33-3.59.79-5.34,1.35s-3.27,1.32-4.58,2.29c-1.3.97-2.35,2.18-3.13,3.64-.79,1.48-1.19,3.34-1.19,5.6,0,2.14.4,3.96,1.19,5.42.79,1.46,1.86,2.62,3.23,3.48,1.35.84,2.94,1.44,4.75,1.78,1.81.33,3.67.51,5.59.51,4.75,0,8.42-.8,11.03-2.37,2.59-1.59,4.51-3.48,5.77-5.69,1.24-2.21,2-4.43,2.29-6.69.28-2.26.41-4.07.41-5.44v-8.98c-1.01.91-2.29,1.61-3.81,2.13Z"/>
      <path class="cls-1" d="m291.2,196.65c-2.83,4.75-6.53,8.17-11.11,10.25-4.57,2.1-9.74,3.15-15.51,3.15-6.56,0-12.32-1.27-17.29-3.82-4.98-2.54-9.08-5.99-12.3-10.34-3.23-4.36-5.66-9.36-7.3-15.02-1.63-5.64-2.46-11.52-2.46-17.64s.83-11.55,2.46-17.04c1.64-5.48,4.07-10.31,7.3-14.49,3.22-4.18,7.26-7.55,12.12-10.09,4.86-2.55,10.52-3.82,16.96-3.82,5.2,0,10.14,1.1,14.84,3.3,4.69,2.21,8.41,5.47,11.11,9.76h.35v-44.09h24.08v121.09h-22.9v-11.19h-.35Zm-1.01-43.34c-.69-3.33-1.85-6.27-3.48-8.82-1.64-2.54-3.77-4.6-6.36-6.18-2.61-1.59-5.88-2.37-9.84-2.37s-7.29.79-10.01,2.37c-2.71,1.59-4.89,3.67-6.53,6.28-1.64,2.59-2.83,5.56-3.56,8.9-.73,3.33-1.1,6.8-1.1,10.42,0,3.4.4,6.79,1.19,10.19.79,3.38,2.07,6.42,3.82,9.07,1.75,2.66,3.95,4.8,6.61,6.45,2.65,1.64,5.85,2.46,9.58,2.46,3.96,0,7.26-.79,9.92-2.37,2.65-1.57,4.78-3.7,6.36-6.36,1.57-2.65,2.71-5.67,3.4-9.07.68-3.4,1.01-6.9,1.01-10.52s-.33-7.09-1.01-10.43Z"/>
      <path class="cls-1" d="m352.15,186.81c3.62,3.51,8.82,5.26,15.61,5.26,4.86,0,9.04-1.21,12.55-3.64,3.51-2.43,5.66-5,6.45-7.72h21.2c-3.4,10.52-8.6,18.04-15.6,22.55-7.01,4.53-15.5,6.79-25.45,6.79-6.89,0-13.11-1.1-18.65-3.31-5.55-2.21-10.24-5.34-14.08-9.41-3.85-4.07-6.82-8.93-8.9-14.59-2.1-5.64-3.15-11.87-3.15-18.65s1.08-12.67,3.23-18.31c2.14-5.66,5.2-10.54,9.15-14.67,3.96-4.13,8.68-7.38,14.16-9.76,5.49-2.37,11.57-3.56,18.23-3.56,7.47,0,13.97,1.44,19.52,4.32,5.53,2.88,10.09,6.76,13.65,11.62,3.56,4.86,6.13,10.41,7.72,16.62,1.57,6.22,2.14,12.72,1.7,19.5h-63.27c.35,7.81,2.32,13.46,5.93,16.96Zm27.23-46.12c-2.88-3.16-7.27-4.75-13.15-4.75-3.84,0-7.04.65-9.58,1.95-2.54,1.3-4.58,2.91-6.1,4.83-1.53,1.93-2.61,3.96-3.23,6.11-.62,2.14-.99,4.07-1.1,5.77h39.18c-1.13-6.11-3.15-10.75-6.02-13.91Z"/>
      <path class="cls-1" d="m439.24,120.17v16.29h.35c1.13-2.72,2.65-5.23,4.58-7.55,1.92-2.32,4.13-4.29,6.61-5.93,2.48-1.64,5.15-2.91,7.98-3.82,2.82-.9,5.76-1.36,8.82-1.36,1.57,0,3.33.28,5.24.85v22.39c-1.13-.23-2.48-.43-4.06-.59-1.59-.18-3.12-.26-4.58-.26-4.42,0-8.14.73-11.19,2.21-3.05,1.46-5.52,3.48-7.38,6.02-1.86,2.54-3.19,5.51-3.99,8.9-.79,3.4-1.19,7.07-1.19,11.03v39.51h-24.07v-87.68h22.88Z"/>
      <path class="cls-1" d="m499.2,186.05c1.08,1.86,2.46,3.4,4.15,4.58,1.7,1.19,3.64,2.06,5.85,2.62,2.21.57,4.5.86,6.87.86,1.7,0,3.48-.21,5.34-.59,1.86-.4,3.56-1.02,5.08-1.88,1.53-.84,2.8-1.97,3.82-3.38,1.02-1.42,1.52-3.2,1.52-5.34,0-3.62-2.4-6.33-7.2-8.14s-11.5-3.62-20.09-5.42c-3.51-.8-6.93-1.73-10.25-2.8-3.34-1.08-6.31-2.48-8.92-4.24-2.59-1.75-4.69-3.96-6.27-6.62-1.59-2.65-2.37-5.91-2.37-9.74,0-5.66,1.1-10.28,3.3-13.91,2.21-3.62,5.12-6.47,8.74-8.56,3.62-2.1,7.69-3.57,12.21-4.42s9.16-1.27,13.91-1.27,9.34.46,13.82,1.36,8.45,2.44,11.95,4.58c3.51,2.15,6.42,5.01,8.74,8.57,2.32,3.56,3.7,8.05,4.15,13.48h-22.9c-.33-4.64-2.08-7.78-5.26-9.41-3.16-1.64-6.89-2.47-11.19-2.47-1.35,0-2.82.1-4.4.26-1.59.17-3.02.54-4.32,1.1-1.31.57-2.42,1.38-3.31,2.46-.91,1.08-1.35,2.51-1.35,4.32,0,2.15.79,3.91,2.37,5.26,1.57,1.35,3.64,2.46,6.18,3.31,2.55.84,5.45,1.61,8.74,2.29,3.28.68,6.61,1.41,10.01,2.19,3.51.8,6.93,1.77,10.25,2.88,3.34,1.13,6.31,2.64,8.92,4.5,2.59,1.86,4.68,4.18,6.27,6.96,1.59,2.77,2.37,6.18,2.37,10.25,0,5.77-1.16,10.6-3.48,14.51-2.32,3.89-5.34,7.04-9.07,9.41-3.73,2.37-8,4.04-12.81,5-4.8.97-9.69,1.45-14.67,1.45s-10.06-.51-14.92-1.53-9.19-2.71-12.97-5.08c-3.8-2.39-6.9-5.52-9.33-9.41-2.43-3.91-3.75-8.79-3.99-14.67h22.9c0,2.59.54,4.83,1.61,6.69Z"/>
      <path class="cls-1" d="m578.25,119.47v17.29c.08,2.5-.28,4.83-1.08,7.01-.79,2.19-1.89,4.11-3.33,5.77-1.44,1.66-3.15,3.04-5.15,4.13-2,1.09-4.17,1.79-6.5,2.1v-7.47c2.87-.98,4.82-2.43,5.88-4.36,1.05-1.92,1.59-4.26,1.59-7.07h-7.47v-17.4h16.05Z"/>
    </g>
    <g>
      <path class="cls-1" d="m609.57,86.76v121.09h-16.11v-121.09h16.11Z"/>
      <path class="cls-1" d="m637.12,120.17v13.91h.35c5.99-10.63,15.49-15.95,28.49-15.95,5.77,0,10.57.79,14.42,2.38,3.84,1.57,6.96,3.78,9.33,6.61,2.37,2.83,4.04,6.18,5,10.09.97,3.91,1.45,8.23,1.45,12.97v57.66h-14.42v-59.36c0-5.42-1.59-9.72-4.75-12.89-3.16-3.16-7.52-4.75-13.06-4.75-4.42,0-8.23.68-11.44,2.04-3.23,1.35-5.92,3.27-8.06,5.76-2.15,2.5-3.77,5.41-4.83,8.74-1.08,3.34-1.61,6.98-1.61,10.94v49.52h-14.42v-87.68h13.57Z"/>
      <path class="cls-1" d="m723.86,188.26c1.35,2.19,3.13,3.96,5.34,5.26,2.21,1.3,4.69,2.24,7.47,2.79,2.77.58,5.62.86,8.56.86,2.26,0,4.64-.17,7.14-.51,2.48-.35,4.78-.97,6.86-1.86,2.1-.91,3.82-2.24,5.18-3.99,1.35-1.75,2.03-3.99,2.03-6.69,0-3.74-1.41-6.56-4.24-8.49-2.83-1.92-6.36-3.48-10.6-4.66-4.24-1.19-8.85-2.25-13.82-3.22-4.98-.97-9.59-2.32-13.83-4.07-4.24-1.75-7.77-4.21-10.6-7.38-2.83-3.16-4.24-7.56-4.24-13.22,0-4.42.99-8.2,2.97-11.36,1.97-3.17,4.53-5.74,7.63-7.72,3.11-1.99,6.61-3.45,10.52-4.42,3.91-.96,7.77-1.44,11.62-1.44,4.97,0,9.55.43,13.73,1.28,4.18.84,7.88,2.32,11.11,4.4,3.22,2.1,5.8,4.93,7.72,8.49,1.92,3.56,3.05,7.99,3.4,13.3h-14.42c-.22-2.82-.95-5.16-2.19-7.04-1.26-1.86-2.83-3.35-4.76-4.49-1.92-1.13-4.04-1.96-6.35-2.46-2.32-.51-4.66-.77-7.04-.77-2.15,0-4.33.18-6.53.51-2.21.35-4.22.94-6.03,1.78-1.81.86-3.27,1.99-4.4,3.4s-1.7,3.24-1.7,5.51c0,2.5.87,4.55,2.62,6.2s3.99,2.99,6.71,4.07c2.71,1.08,5.77,1.97,9.15,2.71,3.4.75,6.79,1.5,10.19,2.29,3.62.8,7.15,1.75,10.6,2.88,3.44,1.13,6.5,2.64,9.15,4.5,2.66,1.86,4.8,4.21,6.45,7.04,1.64,2.83,2.46,6.33,2.46,10.52,0,5.31-1.1,9.72-3.3,13.22-2.21,3.51-5.09,6.33-8.65,8.47-3.56,2.15-7.58,3.66-12.03,4.5-4.47.84-8.92,1.27-13.32,1.27-4.86,0-9.5-.51-13.91-1.52-4.4-1.02-8.31-2.69-11.69-5.01-3.4-2.32-6.11-5.37-8.14-9.15-2.04-3.8-3.17-8.41-3.4-13.83h14.41c.11,3.16.86,5.85,2.21,8.06Z"/>
      <path class="cls-1" d="m790.52,104.4v-17.64h14.41v17.64h-14.41Zm14.41,15.77v87.68h-14.41v-87.68h14.41Z"/>
      <path class="cls-1" d="m885.75,232.61c-6.56,7.12-16.85,10.68-30.86,10.68-4.07,0-8.23-.46-12.46-1.35-4.25-.91-8.09-2.37-11.54-4.42-3.45-2.03-6.31-4.69-8.57-7.96-2.26-3.28-3.51-7.3-3.73-12.05h14.42c.11,2.61.92,4.82,2.46,6.62,1.52,1.81,3.4,3.27,5.59,4.4,2.21,1.13,4.61,1.95,7.22,2.46,2.59.51,5.08.77,7.45.77,4.75,0,8.76-.83,12.05-2.47,3.27-1.63,5.99-3.89,8.13-6.78,2.15-2.88,3.71-6.36,4.66-10.43.97-4.07,1.45-8.53,1.45-13.4v-5.76h-.35c-2.48,5.42-6.24,9.41-11.28,11.95-5.02,2.54-10.38,3.81-16.02,3.81-6.56,0-12.27-1.19-17.13-3.56-4.87-2.37-8.93-5.56-12.21-9.58-3.28-4.02-5.74-8.71-7.37-14.08-1.64-5.37-2.47-11.04-2.47-17.04,0-5.19.69-10.54,2.04-16.02,1.35-5.48,3.62-10.46,6.78-14.92,3.17-4.47,7.36-8.14,12.56-11.03,5.19-2.88,11.58-4.33,19.16-4.33,5.53,0,10.63,1.22,15.26,3.65,4.64,2.43,8.25,6.07,10.86,10.93h.17v-12.55h13.57v80.21c0,14.37-3.28,25.1-9.84,32.23Zm-18.4-39.43c3.33-1.97,6.02-4.58,8.06-7.8,2.03-3.23,3.53-6.87,4.49-10.94.97-4.07,1.45-8.14,1.45-12.2s-.46-7.63-1.37-11.37c-.9-3.73-2.35-7.09-4.32-10.09-1.97-2.99-4.55-5.4-7.72-7.2-3.17-1.81-7.01-2.72-11.54-2.72s-8.58.88-11.87,2.64-5.96,4.1-8.05,7.04c-2.1,2.94-3.63,6.33-4.58,10.17-.97,3.85-1.45,7.85-1.45,12.03,0,3.96.4,7.92,1.19,11.88.8,3.95,2.15,7.54,4.07,10.77,1.92,3.22,4.47,5.82,7.63,7.8,3.16,1.99,7.12,2.97,11.87,2.97s8.79-.98,12.13-2.97Z"/>
      <path class="cls-1" d="m921.54,86.76v46.3h.33c1.13-2.72,2.72-5.01,4.76-6.87,2.03-1.86,4.32-3.38,6.86-4.57,2.55-1.19,5.2-2.07,7.98-2.64,2.76-.57,5.45-.85,8.05-.85,5.77,0,10.57.79,14.42,2.38,3.84,1.57,6.96,3.78,9.33,6.61,2.37,2.83,4.04,6.18,5,10.09.97,3.91,1.45,8.23,1.45,12.97v57.66h-14.42v-59.36c0-5.42-1.59-9.72-4.75-12.89-3.16-3.16-7.52-4.75-13.06-4.75-4.42,0-8.23.68-11.44,2.04-3.23,1.35-5.92,3.27-8.06,5.76-2.15,2.5-3.77,5.41-4.83,8.74-1.08,3.34-1.61,6.98-1.61,10.94v49.52h-14.42v-121.09h14.42Z"/>
      <path class="cls-1" d="m1030.93,120.17v12.72h-17.47v54.43c0,1.7.15,3.05.43,4.07s.81,1.81,1.61,2.37c.79.57,1.89.94,3.3,1.1,1.42.17,3.26.25,5.52.25h6.61v12.72h-11.03c-3.73,0-6.93-.25-9.58-.76-2.65-.51-4.8-1.45-6.45-2.8-1.64-1.35-2.86-3.28-3.64-5.77-.79-2.48-1.19-5.77-1.19-9.84v-55.79h-14.92v-12.72h14.92v-26.28h14.41v26.28h17.47Z"/>
    </g>
  </g>
  <path class="cls-3" d="m47.5,20.01v34.25h-7.53V20.01h7.53Z"/>
  <path class="cls-3" d="m66.98,20.01c1.63,0,3.12.14,4.46.43,1.34.29,2.5.76,3.45,1.42.96.66,1.7,1.53,2.23,2.61.53,1.09.79,2.43.79,4.03,0,1.73-.39,3.17-1.18,4.32-.78,1.15-1.94,2.09-3.48,2.83,2.11.61,3.69,1.67,4.73,3.19,1.04,1.52,1.56,3.35,1.56,5.49,0,1.73-.34,3.22-1.01,4.49-.67,1.26-1.58,2.3-2.71,3.09-1.14.8-2.43,1.39-3.89,1.78-1.46.38-2.95.57-4.48.57h-16.6V20.01h16.12Zm-.96,13.86c1.34,0,2.45-.32,3.31-.96.86-.64,1.3-1.68,1.3-3.12,0-.8-.14-1.46-.43-1.97-.29-.51-.67-.91-1.15-1.2s-1.03-.49-1.66-.6c-.62-.11-1.27-.17-1.94-.17h-7.05v8.01h7.63Zm.43,14.54c.73,0,1.44-.07,2.11-.22s1.26-.38,1.78-.72c.51-.34.92-.79,1.22-1.37.3-.57.46-1.31.46-2.21,0-1.76-.5-3.01-1.49-3.77s-2.3-1.13-3.93-1.13h-8.2v9.4h8.06Z"/>
  <path class="cls-3" d="m89.35,20.01v14.2l13.38-14.2h9.4l-13.38,13.53,14.68,20.72h-9.45l-10.31-15.4-4.32,4.37v11.03h-7.53V20.01h7.53Z"/>
  <path class="cls-3" d="m134.03,20.01c1.54,0,2.92.25,4.15.74,1.23.5,2.29,1.18,3.17,2.04.88.86,1.55,1.86,2.02,3,.46,1.14.69,2.36.69,3.67,0,2.01-.42,3.76-1.27,5.23-.85,1.47-2.23,2.59-4.15,3.36v.1c.93.26,1.69.65,2.3,1.18.61.53,1.1,1.15,1.49,1.87.38.72.66,1.51.84,2.37.18.86.3,1.73.36,2.59.03.55.06,1.18.1,1.92.03.74.09,1.49.17,2.26s.21,1.5.38,2.18c.17.69.44,1.27.79,1.75h-7.53c-.42-1.09-.67-2.38-.77-3.89-.1-1.5-.24-2.94-.43-4.32-.26-1.79-.8-3.1-1.63-3.93-.83-.83-2.19-1.25-4.08-1.25h-7.53v13.38h-7.53V20.01h18.47Zm-2.69,15.49c1.73,0,3.02-.38,3.89-1.15.86-.77,1.3-2.01,1.3-3.74s-.43-2.87-1.3-3.62c-.86-.75-2.16-1.13-3.89-1.13h-8.25v9.64h8.25Z"/>
  <path class="cls-3" d="m168.67,24.86c-1.74-1.22-3.81-1.82-6.21-1.82-2.05,0-3.8.38-5.25,1.15s-2.65,1.8-3.6,3.09c-.94,1.3-1.64,2.77-2.09,4.44s-.67,3.39-.67,5.18c0,1.95.22,3.8.67,5.54s1.14,3.26,2.09,4.56c.94,1.3,2.15,2.33,3.62,3.09s3.23,1.15,5.28,1.15c1.5,0,2.84-.25,4.01-.74,1.17-.49,2.17-1.18,3.02-2.06.85-.88,1.51-1.93,1.99-3.14.48-1.22.77-2.53.86-3.93h4.56c-.45,4.32-1.93,7.68-4.46,10.07-2.53,2.4-5.98,3.6-10.36,3.6-2.65,0-4.97-.46-6.96-1.37-1.98-.91-3.63-2.16-4.94-3.77-1.31-1.6-2.29-3.49-2.95-5.66-.66-2.18-.98-4.51-.98-7s.35-4.84,1.06-7.03c.7-2.19,1.74-4.1,3.09-5.73,1.36-1.63,3.05-2.92,5.08-3.86,2.03-.94,4.36-1.42,6.98-1.42,1.79,0,3.49.24,5.08.72,1.6.48,3.02,1.18,4.27,2.11,1.25.93,2.29,2.09,3.12,3.48.83,1.39,1.38,3,1.63,4.82h-4.56c-.51-2.43-1.64-4.25-3.38-5.47Z"/>
  <path class="cls-3" d="m201.68,54.17c-.7.42-1.68.62-2.93.62-1.06,0-1.9-.3-2.52-.89s-.94-1.56-.94-2.9c-1.12,1.34-2.42,2.31-3.91,2.9-1.49.59-3.09.89-4.82.89-1.12,0-2.18-.13-3.19-.38-1.01-.25-1.88-.65-2.61-1.2-.74-.54-1.32-1.26-1.75-2.14-.43-.88-.65-1.94-.65-3.19,0-1.41.24-2.56.72-3.45.48-.9,1.11-1.62,1.89-2.18.78-.56,1.68-.98,2.69-1.27,1.01-.29,2.04-.53,3.09-.72,1.12-.22,2.18-.39,3.19-.5,1.01-.11,1.89-.27,2.66-.48.77-.21,1.38-.51,1.82-.91.45-.4.67-.98.67-1.75,0-.9-.17-1.62-.5-2.16-.34-.54-.77-.96-1.3-1.25-.53-.29-1.12-.48-1.78-.58-.66-.1-1.3-.14-1.94-.14-1.73,0-3.17.33-4.32.98-1.15.65-1.78,1.89-1.87,3.72h-4.08c.06-1.54.38-2.83.96-3.89.58-1.06,1.34-1.91,2.3-2.57.96-.65,2.05-1.13,3.29-1.41,1.23-.29,2.55-.43,3.96-.43,1.12,0,2.23.08,3.33.24,1.1.16,2.1.49,3,.98.9.49,1.61,1.19,2.16,2.08.54.89.82,2.06.82,3.49v12.73c0,.96.05,1.66.17,2.11.11.45.49.67,1.13.67.35,0,.77-.06,1.25-.19v3.17Zm-6.62-12.71c-.51.38-1.18.66-2.01.84-.83.17-1.7.32-2.62.43s-1.83.24-2.76.38-1.76.37-2.49.69c-.74.32-1.34.77-1.8,1.36-.46.59-.69,1.39-.69,2.41,0,.67.13,1.23.41,1.7.27.46.62.83,1.06,1.12.43.29.94.49,1.51.62.57.13,1.18.19,1.82.19,1.34,0,2.49-.18,3.45-.55.96-.37,1.74-.83,2.35-1.38.61-.56,1.06-1.16,1.34-1.81.29-.65.43-1.27.43-1.84v-4.15Z"/>
  <path class="cls-3" d="m207.68,29.46v3.65h.1c1.85-2.81,4.52-4.22,8.01-4.22,1.54,0,2.93.32,4.17.96,1.25.64,2.13,1.73,2.64,3.26.83-1.34,1.93-2.38,3.29-3.12,1.36-.73,2.85-1.1,4.48-1.1,1.25,0,2.38.14,3.38.41,1.01.27,1.87.7,2.59,1.27.72.58,1.28,1.32,1.68,2.23s.6,2.01.6,3.29v18.18h-4.08v-16.26c0-.77-.07-1.49-.19-2.16s-.37-1.26-.72-1.75c-.35-.49-.84-.89-1.46-1.18-.62-.29-1.43-.43-2.42-.43-2.02,0-3.6.57-4.75,1.73-1.15,1.15-1.73,2.69-1.73,4.61v15.45h-4.08v-16.26c0-.8-.07-1.54-.22-2.21-.14-.67-.39-1.26-.74-1.75-.35-.49-.82-.88-1.42-1.15-.59-.27-1.35-.41-2.28-.41-1.18,0-2.2.24-3.05.72-.85.48-1.54,1.06-2.06,1.73-.53.67-.91,1.37-1.15,2.09-.24.72-.36,1.32-.36,1.8v15.45h-4.08v-24.8h3.84Z"/>
  <path class="cls-3" d="m246.02,29.46v3.36h.1c.67-1.38,1.73-2.38,3.17-3,1.44-.62,3.02-.94,4.75-.94,1.92,0,3.59.35,5.01,1.06,1.42.7,2.61,1.66,3.55,2.85.94,1.2,1.66,2.58,2.14,4.15.48,1.57.72,3.23.72,4.99s-.23,3.42-.69,4.99c-.46,1.57-1.17,2.93-2.11,4.1-.94,1.17-2.13,2.09-3.55,2.76s-3.08,1.01-4.96,1.01c-.61,0-1.29-.06-2.04-.19-.75-.13-1.5-.34-2.23-.62-.74-.29-1.43-.68-2.09-1.18-.66-.5-1.21-1.11-1.66-1.85h-.1v12.76h-4.08V29.46h4.08Zm14.66,8.8c-.3-1.1-.77-2.09-1.39-2.95-.62-.86-1.42-1.55-2.4-2.06-.98-.51-2.12-.77-3.43-.77-1.38,0-2.54.27-3.5.81-.96.54-1.74,1.26-2.35,2.14-.61.88-1.05,1.88-1.32,3-.27,1.12-.41,2.25-.41,3.41,0,1.22.14,2.39.43,3.53.29,1.14.74,2.14,1.37,3,.62.86,1.43,1.56,2.42,2.09.99.53,2.19.79,3.6.79s2.58-.27,3.53-.82c.94-.54,1.7-1.26,2.28-2.16.58-.9.99-1.92,1.25-3.07.25-1.15.38-2.33.38-3.55,0-1.15-.15-2.28-.46-3.38Z"/>
  <path class="cls-3" d="m284.57,54.26v-3.93h-.09c-.86,1.53-1.97,2.66-3.31,3.38-1.34.72-2.93,1.08-4.75,1.08-1.63,0-2.99-.22-4.08-.65-1.09-.43-1.97-1.05-2.64-1.85-.67-.8-1.14-1.75-1.42-2.85-.27-1.1-.41-2.33-.41-3.67v-16.31h4.08v16.79c0,1.54.45,2.75,1.34,3.65.89.9,2.12,1.34,3.69,1.34,1.25,0,2.33-.19,3.24-.58.91-.38,1.67-.93,2.28-1.63.61-.7,1.06-1.53,1.37-2.47.3-.94.46-1.98.46-3.09v-14.01h4.08v24.8h-3.84Z"/>
  <path class="cls-3" d="m295.89,48.72c.38.62.89,1.12,1.51,1.49.62.37,1.33.63,2.11.79.78.16,1.59.24,2.42.24.64,0,1.31-.05,2.02-.14.7-.1,1.35-.27,1.94-.53.59-.26,1.08-.63,1.46-1.13s.58-1.13.58-1.9c0-1.06-.4-1.85-1.2-2.4-.8-.54-1.8-.98-3-1.32-1.2-.33-2.5-.64-3.91-.91-1.41-.27-2.71-.65-3.91-1.15-1.2-.5-2.2-1.19-3-2.09-.8-.89-1.2-2.14-1.2-3.74,0-1.25.28-2.32.84-3.21.56-.9,1.28-1.62,2.16-2.18.88-.56,1.87-.98,2.97-1.25,1.1-.27,2.2-.41,3.29-.41,1.41,0,2.7.12,3.89.36,1.18.24,2.23.66,3.14,1.25s1.64,1.39,2.18,2.4c.54,1.01.86,2.26.96,3.77h-4.08c-.06-.8-.27-1.46-.62-1.99-.35-.53-.8-.95-1.34-1.27s-1.14-.55-1.8-.69c-.66-.14-1.32-.22-1.99-.22-.61,0-1.22.05-1.85.14-.62.1-1.19.26-1.7.5s-.93.56-1.25.96c-.32.4-.48.92-.48,1.56,0,.7.25,1.29.74,1.75.49.46,1.13.85,1.89,1.15.77.3,1.63.56,2.59.77.96.21,1.92.42,2.88.65,1.02.22,2.02.49,3,.81.98.32,1.84.74,2.59,1.27.75.53,1.36,1.19,1.82,1.99.46.8.69,1.79.69,2.97,0,1.5-.31,2.75-.94,3.74s-1.44,1.79-2.45,2.4c-1.01.61-2.14,1.03-3.41,1.27-1.26.24-2.52.36-3.77.36-1.38,0-2.69-.14-3.93-.43-1.25-.29-2.35-.76-3.31-1.42-.96-.65-1.73-1.52-2.3-2.59-.58-1.07-.9-2.37-.96-3.91h4.08c.03.9.24,1.65.62,2.28Z"/>
  <g>
    <polygon class="cls-4" points="24.04 54.33 0 54.33 0 27.85 24.04 54.33"/>
    <circle class="cls-2" cx="20.69" cy="34.34" r="7.18"/>
    <polygon class="cls-2" points="24.04 0 0 27.85 0 54.33 24.04 0"/>
  </g>
</svg>