<?xml version="1.0" encoding="UTF-8"?>
<svg id="Layer_1" data-name="Layer 1" xmlns="http://www.w3.org/2000/svg" xmlns:xlink="http://www.w3.org/1999/xlink" viewBox="0 0 1320.65 268.09">
  <defs>
    <style>
      .cls-1 {
        fill: #fff;
      }

      .cls-2 {
        fill: #db1222;
      }

      .cls-3 {
        fill: #ccc;
      }

      .cls-4 {
        fill: url(#New_Gradient_Swatch_4);
      }
    </style>
    <linearGradient id="New_Gradient_Swatch_4" data-name="New Gradient Swatch 4" x1="1493.6" y1="41.09" x2="1517.65" y2="41.09" gradientTransform="translate(1517.65) rotate(-180) scale(1 -1)" gradientUnits="userSpaceOnUse">
      <stop offset="0" stop-color="#d61f27"/>
      <stop offset="1" stop-color="#a31e22"/>
    </linearGradient>
  </defs>
  <g>
    <g>
      <path class="cls-3" d="m47.5,20.01v34.25h-7.53V20.01h7.53Z"/>
      <path class="cls-3" d="m66.98,20.01c1.63,0,3.12.14,4.46.43,1.34.29,2.5.76,3.45,1.42.96.66,1.7,1.53,2.23,2.61.53,1.09.79,2.43.79,4.03,0,1.73-.39,3.17-1.18,4.32-.78,1.15-1.94,2.09-3.48,2.83,2.11.61,3.69,1.67,4.73,3.19,1.04,1.52,1.56,3.35,1.56,5.49,0,1.73-.34,3.22-1.01,4.49-.67,1.26-1.58,2.3-2.71,3.09-1.14.8-2.43,1.39-3.89,1.78s-2.95.57-4.48.57h-16.6V20.01h16.12Zm-.96,13.86c1.34,0,2.45-.32,3.31-.96.86-.64,1.3-1.68,1.3-3.12,0-.8-.14-1.46-.43-1.97-.29-.51-.67-.91-1.15-1.2s-1.03-.49-1.66-.6c-.62-.11-1.27-.17-1.94-.17h-7.05v8.01h7.63Zm.43,14.54c.73,0,1.44-.07,2.11-.22s1.26-.38,1.78-.72c.51-.34.92-.79,1.22-1.37.3-.57.46-1.31.46-2.21,0-1.76-.5-3.01-1.49-3.77-.99-.75-2.3-1.13-3.93-1.13h-8.2v9.4h8.06Z"/>
      <path class="cls-3" d="m89.35,20.01v14.2l13.38-14.2h9.4l-13.38,13.53,14.68,20.72h-9.45l-10.31-15.4-4.32,4.37v11.03h-7.53V20.01h7.53Z"/>
      <path class="cls-3" d="m134.03,20.01c1.54,0,2.92.25,4.15.74,1.23.5,2.29,1.18,3.17,2.04.88.86,1.55,1.86,2.02,3,.46,1.14.69,2.36.69,3.67,0,2.01-.42,3.76-1.27,5.23-.85,1.47-2.23,2.59-4.15,3.36v.1c.93.26,1.69.65,2.3,1.18s1.1,1.15,1.49,1.87c.38.72.66,1.51.84,2.37.18.86.3,1.73.36,2.59.03.55.06,1.18.1,1.92.03.74.09,1.49.17,2.26s.21,1.5.38,2.18c.17.69.44,1.27.79,1.75h-7.53c-.42-1.09-.67-2.38-.77-3.89-.1-1.5-.24-2.94-.43-4.32-.26-1.79-.8-3.1-1.63-3.93-.83-.83-2.19-1.25-4.08-1.25h-7.53v13.38h-7.53V20.01h18.47Zm-2.69,15.49c1.73,0,3.02-.38,3.89-1.15.86-.77,1.3-2.01,1.3-3.74s-.43-2.87-1.3-3.62c-.86-.75-2.16-1.13-3.89-1.13h-8.25v9.64h8.25Z"/>
      <path class="cls-3" d="m168.67,24.86c-1.74-1.22-3.81-1.82-6.21-1.82-2.05,0-3.8.38-5.25,1.15s-2.65,1.8-3.6,3.09c-.94,1.3-1.64,2.77-2.09,4.44-.45,1.66-.67,3.39-.67,5.18,0,1.95.22,3.8.67,5.54.45,1.74,1.14,3.26,2.09,4.56.94,1.3,2.15,2.33,3.62,3.09s3.23,1.15,5.28,1.15c1.5,0,2.84-.25,4.01-.74,1.17-.49,2.17-1.18,3.02-2.06.85-.88,1.51-1.93,1.99-3.14.48-1.22.77-2.53.86-3.93h4.56c-.45,4.32-1.93,7.68-4.46,10.07-2.53,2.4-5.98,3.6-10.36,3.6-2.65,0-4.97-.46-6.96-1.37-1.98-.91-3.63-2.16-4.94-3.77-1.31-1.6-2.29-3.49-2.95-5.66-.66-2.18-.98-4.51-.98-7s.35-4.84,1.06-7.03c.7-2.19,1.74-4.1,3.09-5.73,1.36-1.63,3.05-2.92,5.08-3.86,2.03-.94,4.36-1.42,6.98-1.42,1.79,0,3.49.24,5.08.72,1.6.48,3.02,1.18,4.27,2.11,1.25.93,2.29,2.09,3.12,3.48s1.38,3,1.63,4.82h-4.56c-.51-2.43-1.64-4.25-3.38-5.47Z"/>
      <path class="cls-3" d="m201.68,54.17c-.7.42-1.68.62-2.93.62-1.06,0-1.9-.3-2.52-.89s-.94-1.56-.94-2.9c-1.12,1.34-2.42,2.31-3.91,2.9-1.49.59-3.09.89-4.82.89-1.12,0-2.18-.13-3.19-.38-1.01-.25-1.88-.65-2.61-1.2-.74-.54-1.32-1.26-1.75-2.14-.43-.88-.65-1.94-.65-3.19,0-1.41.24-2.56.72-3.45.48-.9,1.11-1.62,1.89-2.18.78-.56,1.68-.98,2.69-1.27,1.01-.29,2.04-.53,3.09-.72,1.12-.22,2.18-.39,3.19-.5,1.01-.11,1.89-.27,2.66-.48.77-.21,1.38-.51,1.82-.91.45-.4.67-.98.67-1.75,0-.9-.17-1.62-.5-2.16-.34-.54-.77-.96-1.3-1.25-.53-.29-1.12-.48-1.78-.58-.66-.1-1.3-.14-1.94-.14-1.73,0-3.17.33-4.32.98-1.15.65-1.78,1.89-1.87,3.72h-4.08c.06-1.54.38-2.83.96-3.89.58-1.06,1.34-1.91,2.3-2.57.96-.65,2.05-1.13,3.29-1.41,1.23-.29,2.55-.43,3.96-.43,1.12,0,2.23.08,3.33.24,1.1.16,2.1.49,3,.98.9.49,1.61,1.19,2.16,2.08.54.89.82,2.06.82,3.49v12.73c0,.96.05,1.66.17,2.11.11.45.49.67,1.13.67.35,0,.77-.06,1.25-.19v3.17Zm-6.62-12.71c-.51.38-1.18.66-2.01.84-.83.17-1.7.32-2.62.43s-1.83.24-2.76.38-1.76.37-2.49.69c-.74.32-1.34.77-1.8,1.36-.46.59-.69,1.39-.69,2.41,0,.67.13,1.23.41,1.7.27.46.62.83,1.06,1.12.43.29.94.49,1.51.62.57.13,1.18.19,1.82.19,1.34,0,2.49-.18,3.45-.55.96-.37,1.74-.83,2.35-1.38.61-.56,1.06-1.16,1.34-1.81.29-.65.43-1.27.43-1.84v-4.15Z"/>
      <path class="cls-3" d="m207.68,29.46v3.65h.1c1.85-2.81,4.52-4.22,8.01-4.22,1.54,0,2.93.32,4.17.96,1.25.64,2.13,1.73,2.64,3.26.83-1.34,1.93-2.38,3.29-3.12,1.36-.73,2.85-1.1,4.48-1.1,1.25,0,2.38.14,3.38.41,1.01.27,1.87.7,2.59,1.27.72.58,1.28,1.32,1.68,2.23s.6,2.01.6,3.29v18.18h-4.08v-16.26c0-.77-.07-1.49-.19-2.16-.13-.67-.37-1.26-.72-1.75-.35-.49-.84-.89-1.46-1.18-.62-.29-1.43-.43-2.42-.43-2.02,0-3.6.57-4.75,1.73-1.15,1.15-1.73,2.69-1.73,4.61v15.45h-4.08v-16.26c0-.8-.07-1.54-.22-2.21-.14-.67-.39-1.26-.74-1.75-.35-.49-.82-.88-1.42-1.15-.59-.27-1.35-.41-2.28-.41-1.18,0-2.2.24-3.05.72-.85.48-1.54,1.06-2.06,1.73-.53.67-.91,1.37-1.15,2.09-.24.72-.36,1.32-.36,1.8v15.45h-4.08v-24.8h3.84Z"/>
      <path class="cls-3" d="m246.02,29.46v3.36h.1c.67-1.38,1.73-2.38,3.17-3,1.44-.62,3.02-.94,4.75-.94,1.92,0,3.59.35,5.01,1.06,1.42.7,2.61,1.66,3.55,2.85.94,1.2,1.66,2.58,2.14,4.15.48,1.57.72,3.23.72,4.99s-.23,3.42-.69,4.99c-.46,1.57-1.17,2.93-2.11,4.1-.94,1.17-2.13,2.09-3.55,2.76-1.42.67-3.08,1.01-4.96,1.01-.61,0-1.29-.06-2.04-.19-.75-.13-1.5-.34-2.23-.62-.74-.29-1.43-.68-2.09-1.18-.66-.5-1.21-1.11-1.66-1.85h-.1v12.76h-4.08V29.46h4.08Zm14.66,8.8c-.3-1.1-.77-2.09-1.39-2.95-.62-.86-1.42-1.55-2.4-2.06-.98-.51-2.12-.77-3.43-.77-1.38,0-2.54.27-3.5.81-.96.54-1.74,1.26-2.35,2.14-.61.88-1.05,1.88-1.32,3-.27,1.12-.41,2.25-.41,3.41,0,1.22.14,2.39.43,3.53.29,1.14.74,2.14,1.37,3,.62.86,1.43,1.56,2.42,2.09.99.53,2.19.79,3.6.79s2.58-.27,3.53-.82c.94-.54,1.7-1.26,2.28-2.16.58-.9.99-1.92,1.25-3.07.25-1.15.38-2.33.38-3.55,0-1.15-.15-2.28-.46-3.38Z"/>
      <path class="cls-3" d="m284.57,54.26v-3.93h-.09c-.86,1.53-1.97,2.66-3.31,3.38-1.34.72-2.93,1.08-4.75,1.08-1.63,0-2.99-.22-4.08-.65-1.09-.43-1.97-1.05-2.64-1.85s-1.14-1.75-1.42-2.85c-.27-1.1-.41-2.33-.41-3.67v-16.31h4.08v16.79c0,1.54.45,2.75,1.34,3.65.89.9,2.12,1.34,3.69,1.34,1.25,0,2.33-.19,3.24-.58.91-.38,1.67-.93,2.28-1.63.61-.7,1.06-1.53,1.37-2.47.3-.94.46-1.98.46-3.09v-14.01h4.08v24.8h-3.84Z"/>
      <path class="cls-3" d="m295.89,48.72c.38.62.89,1.12,1.51,1.49.62.37,1.33.63,2.11.79.78.16,1.59.24,2.42.24.64,0,1.31-.05,2.02-.14.7-.1,1.35-.27,1.94-.53.59-.26,1.08-.63,1.46-1.13s.58-1.13.58-1.9c0-1.06-.4-1.85-1.2-2.4-.8-.54-1.8-.98-3-1.32-1.2-.33-2.5-.64-3.91-.91-1.41-.27-2.71-.65-3.91-1.15-1.2-.5-2.2-1.19-3-2.09-.8-.89-1.2-2.14-1.2-3.74,0-1.25.28-2.32.84-3.21.56-.9,1.28-1.62,2.16-2.18.88-.56,1.87-.98,2.97-1.25,1.1-.27,2.2-.41,3.29-.41,1.41,0,2.7.12,3.89.36,1.18.24,2.23.66,3.14,1.25s1.64,1.39,2.18,2.4.86,2.26.96,3.77h-4.08c-.06-.8-.27-1.46-.62-1.99s-.8-.95-1.34-1.27-1.14-.55-1.8-.69c-.66-.14-1.32-.22-1.99-.22-.61,0-1.22.05-1.85.14-.62.1-1.19.26-1.7.5s-.93.56-1.25.96c-.32.4-.48.92-.48,1.56,0,.7.25,1.29.74,1.75.49.46,1.13.85,1.89,1.15s1.63.56,2.59.77c.96.21,1.92.42,2.88.65,1.02.22,2.02.49,3,.81.98.32,1.84.74,2.59,1.27.75.53,1.36,1.19,1.82,1.99.46.8.69,1.79.69,2.97,0,1.5-.31,2.75-.94,3.74-.62.99-1.44,1.79-2.45,2.4-1.01.61-2.14,1.03-3.41,1.27-1.26.24-2.52.36-3.77.36-1.38,0-2.69-.14-3.93-.43-1.25-.29-2.35-.76-3.31-1.42-.96-.65-1.73-1.52-2.3-2.59-.58-1.07-.9-2.37-.96-3.91h4.08c.03.9.24,1.65.62,2.28Z"/>
    </g>
    <g>
      <polygon class="cls-4" points="24.04 54.33 0 54.33 0 27.85 24.04 54.33"/>
      <circle class="cls-2" cx="20.69" cy="34.34" r="7.18"/>
      <polygon class="cls-2" points="24.04 0 0 27.85 0 54.33 24.04 0"/>
    </g>
  </g>
  <g>
    <path class="cls-1" d="m27.48,177.84c1.44,2.83,3.35,5.12,5.75,6.88,2.39,1.76,5.18,3.06,8.41,3.9,3.22.85,6.55,1.28,10,1.28,2.33,0,4.82-.19,7.49-.59,2.66-.4,5.17-1.16,7.5-2.29,2.33-1.13,4.27-2.69,5.83-4.67,1.55-1.98,2.33-4.5,2.33-7.56,0-3.28-1.03-5.95-3.08-7.98-2.05-2.04-4.74-3.74-8.08-5.1-3.33-1.36-7.1-2.55-11.32-3.57-4.22-1.02-8.49-2.15-12.82-3.4-4.45-1.13-8.77-2.52-12.99-4.17-4.22-1.64-7.99-3.76-11.32-6.36-3.33-2.61-6.02-5.86-8.08-9.77-2.06-3.9-3.08-8.63-3.08-14.19,0-6.22,1.3-11.63,3.91-16.22,2.61-4.59,6.02-8.41,10.24-11.47s8.99-5.32,14.32-6.8c5.33-1.47,10.66-2.21,15.99-2.21,6.21,0,12.18.71,17.9,2.13,5.72,1.42,10.8,3.71,15.24,6.88,4.44,3.17,7.96,7.22,10.58,12.15,2.61,4.92,3.91,10.9,3.91,17.92h-25.31c-.22-3.63-.97-6.63-2.25-9.01-1.28-2.38-2.97-4.25-5.08-5.6-2.11-1.36-4.53-2.32-7.24-2.89-2.72-.56-5.69-.84-8.91-.84-2.11,0-4.22.23-6.33.68-2.11.46-4.02,1.25-5.75,2.38-1.72,1.13-3.14,2.55-4.24,4.25-1.11,1.69-1.67,3.85-1.67,6.46,0,2.38.44,4.3,1.33,5.77.88,1.48,2.63,2.83,5.25,4.08,2.61,1.25,6.21,2.49,10.82,3.74,4.6,1.25,10.63,2.83,18.07,4.76,2.22.45,5.3,1.27,9.24,2.46s7.86,3.09,11.74,5.69c3.89,2.61,7.25,6.09,10.08,10.45,2.83,4.36,4.24,9.94,4.24,16.74,0,5.55-1.05,10.7-3.16,15.45-2.11,4.76-5.24,8.86-9.41,12.32-4.16,3.46-9.32,6.15-15.48,8.07-6.16,1.92-13.3,2.89-21.4,2.89-6.55,0-12.9-.82-19.06-2.46-6.16-1.64-11.6-4.22-16.32-7.73-4.72-3.51-8.47-7.99-11.24-13.43C1.23,181.41-.11,174.96,0,167.48h25.31c0,4.08.72,7.54,2.17,10.37Z"/>
    <path class="cls-1" d="m156.78,119.92v16.14h-17.32v43.49c0,4.07.66,6.79,2,8.15,1.33,1.36,4,2.04,7.99,2.04,1.33,0,2.61-.06,3.83-.17,1.23-.11,2.39-.28,3.5-.51v18.69c-2,.34-4.22.57-6.66.68-2.44.12-4.82.17-7.16.17-3.66,0-7.13-.26-10.41-.77-3.28-.51-6.16-1.5-8.66-2.97-2.5-1.48-4.47-3.57-5.91-6.29-1.45-2.72-2.17-6.29-2.17-10.7v-51.81h-14.32v-16.14h14.32v-26.34h23.65v26.34h17.32Z"/>
    <path class="cls-1" d="m224.24,207.74v-12.23h-.51c-2.99,5.1-6.88,8.78-11.65,11.04-4.78,2.27-9.66,3.4-14.66,3.4-6.33,0-11.52-.85-15.57-2.55-4.05-1.69-7.24-4.1-9.57-7.22-2.33-3.12-3.97-6.91-4.91-11.38-.94-4.48-1.41-9.43-1.41-14.87v-54.02h23.65v49.6c0,7.25,1.11,12.65,3.33,16.22,2.22,3.57,6.16,5.35,11.82,5.35,6.44,0,11.1-1.96,13.99-5.86,2.89-3.91,4.33-10.33,4.33-19.28v-46.04h23.64v87.83h-22.47Z"/>
    <path class="cls-1" d="m319.36,196.53c-2.78,4.75-6.41,8.18-10.91,10.28s-9.58,3.14-15.24,3.14c-6.44,0-12.11-1.28-16.99-3.83-4.89-2.54-8.91-6-12.07-10.36-3.16-4.36-5.55-9.37-7.16-15.04-1.61-5.66-2.41-11.55-2.41-17.66s.8-11.58,2.41-17.08c1.61-5.49,4-10.33,7.16-14.52,3.16-4.19,7.14-7.56,11.91-10.11,4.77-2.55,10.32-3.83,16.65-3.83,5.1,0,9.96,1.11,14.57,3.32,4.6,2.2,8.24,5.46,10.91,9.77h.33v-44.17h23.65v121.29h-22.48v-11.21h-.33Zm-1-43.41c-.67-3.34-1.81-6.29-3.42-8.83-1.61-2.55-3.69-4.61-6.25-6.2-2.55-1.58-5.77-2.38-9.66-2.38s-7.16.79-9.83,2.38c-2.66,1.59-4.81,3.68-6.41,6.29-1.61,2.61-2.78,5.58-3.5,8.92-.73,3.34-1.09,6.83-1.09,10.45,0,3.4.39,6.8,1.17,10.19.78,3.4,2.03,6.43,3.74,9.09,1.72,2.66,3.88,4.82,6.5,6.46,2.61,1.64,5.75,2.47,9.41,2.47,3.88,0,7.13-.79,9.74-2.38,2.61-1.58,4.69-3.7,6.25-6.36,1.55-2.66,2.66-5.69,3.33-9.09.66-3.4,1-6.91,1-10.53s-.33-7.11-1-10.45Z"/>
    <path class="cls-1" d="m378.85,186.68c3.56,3.51,8.66,5.27,15.32,5.27,4.77,0,8.89-1.22,12.33-3.65,3.44-2.44,5.55-5.01,6.33-7.73h20.81c-3.33,10.53-8.44,18.06-15.32,22.59-6.88,4.53-15.21,6.8-24.98,6.8-6.77,0-12.88-1.11-18.31-3.31-5.44-2.21-10.05-5.35-13.82-9.43-3.78-4.08-6.69-8.94-8.74-14.61-2.06-5.66-3.08-11.89-3.08-18.68s1.05-12.68,3.16-18.35c2.11-5.66,5.1-10.57,8.99-14.69,3.88-4.14,8.52-7.4,13.91-9.77,5.38-2.38,11.35-3.57,17.9-3.57,7.33,0,13.71,1.45,19.15,4.34,5.44,2.89,9.91,6.77,13.41,11.63,3.5,4.87,6.02,10.42,7.58,16.65,1.55,6.23,2.1,12.74,1.66,19.53h-62.11c.33,7.81,2.27,13.48,5.83,16.99Zm26.73-46.21c-2.84-3.17-7.14-4.75-12.91-4.75-3.78,0-6.91.65-9.41,1.95-2.49,1.31-4.5,2.92-5.99,4.84-1.5,1.93-2.56,3.96-3.16,6.11-.61,2.15-.97,4.08-1.09,5.78h38.47c-1.11-6.12-3.08-10.76-5.91-13.93Z"/>
    <path class="cls-1" d="m463.72,119.92v12.23h.5c3-5.1,6.88-8.8,11.66-11.13,4.77-2.32,9.66-3.49,14.66-3.49,6.33,0,11.51.88,15.57,2.63,4.05,1.76,7.24,4.19,9.57,7.31,2.34,3.12,3.97,6.91,4.91,11.38.95,4.48,1.41,9.42,1.41,14.86v54.02h-23.64v-49.6c0-7.25-1.11-12.66-3.33-16.22-2.22-3.57-6.16-5.35-11.83-5.35-6.44,0-11.1,1.95-13.99,5.86-2.89,3.9-4.33,10.33-4.33,19.28v46.04h-23.65v-87.83h22.48Z"/>
    <path class="cls-1" d="m577.96,119.92v16.14h-17.32v43.49c0,4.07.66,6.79,2,8.15,1.33,1.36,4,2.04,7.99,2.04,1.33,0,2.61-.06,3.83-.17,1.23-.11,2.39-.28,3.5-.51v18.69c-2,.34-4.22.57-6.66.68-2.44.12-4.82.17-7.16.17-3.66,0-7.13-.26-10.41-.77-3.28-.51-6.16-1.5-8.66-2.97-2.5-1.48-4.47-3.57-5.91-6.29-1.45-2.72-2.17-6.29-2.17-10.7v-51.81h-14.32v-16.14h14.32v-26.34h23.65v26.34h17.32Z"/>
    <path class="cls-1" d="m570.59,100.03v-13.59h95.08v13.59h-39.63v107.71h-15.82v-107.71h-39.63Z"/>
    <path class="cls-1" d="m654.64,119.92v18.51h.33c3.44-7.14,7.66-12.4,12.65-15.8,5-3.4,11.32-4.99,18.98-4.76v15.29c-5.66,0-10.49.79-14.49,2.38-4,1.58-7.22,3.9-9.66,6.96-2.44,3.06-4.22,6.77-5.33,11.13-1.11,4.36-1.67,9.37-1.67,15.04v39.07h-14.15v-87.83h13.32Z"/>
    <path class="cls-1" d="m767.09,207.4c-2.44,1.48-5.83,2.21-10.15,2.21-3.67,0-6.58-1.05-8.75-3.14-2.17-2.09-3.25-5.52-3.25-10.28-3.89,4.75-8.41,8.18-13.57,10.28-5.17,2.09-10.74,3.14-16.73,3.14-3.89,0-7.58-.45-11.08-1.36-3.5-.9-6.52-2.32-9.07-4.25-2.56-1.93-4.58-4.45-6.08-7.56-1.5-3.11-2.25-6.88-2.25-11.29,0-4.99.83-9.06,2.5-12.23,1.67-3.17,3.86-5.75,6.57-7.73,2.72-1.98,5.83-3.48,9.33-4.5,3.5-1.02,7.08-1.87,10.74-2.54,3.88-.79,7.58-1.39,11.08-1.78,3.49-.39,6.57-.96,9.24-1.7,2.66-.73,4.77-1.81,6.33-3.23,1.55-1.41,2.33-3.48,2.33-6.2,0-3.17-.58-5.72-1.74-7.65-1.17-1.93-2.66-3.4-4.5-4.41-1.83-1.02-3.89-1.7-6.16-2.04-2.28-.34-4.53-.51-6.74-.51-5.99,0-10.99,1.16-14.99,3.49-4,2.32-6.16,6.71-6.5,13.16h-14.15c.22-5.44,1.33-10.02,3.33-13.76,2-3.74,4.66-6.76,7.99-9.09,3.33-2.32,7.13-3.99,11.4-5.01,4.28-1.02,8.85-1.53,13.74-1.53,3.88,0,7.74.28,11.58.85,3.83.57,7.29,1.72,10.41,3.47,3.11,1.75,5.6,4.21,7.49,7.38s2.84,7.29,2.84,12.38v45.09c0,3.4.19,5.88.58,7.46.39,1.58,1.69,2.37,3.92,2.37,1.22,0,2.66-.23,4.33-.68v11.21Zm-22.98-45.02c-1.77,1.35-4.1,2.34-6.99,2.96-2.89.62-5.92,1.13-9.08,1.52s-6.35.84-9.57,1.35c-3.22.51-6.11,1.32-8.66,2.45-2.56,1.13-4.64,2.73-6.25,4.82s-2.41,4.93-2.41,8.54c0,2.37.47,4.37,1.41,6,.94,1.63,2.17,2.96,3.66,3.97,1.5,1.02,3.25,1.75,5.25,2.2,2,.45,4.1.67,6.33.67,4.66,0,8.66-.64,11.99-1.94,3.33-1.29,6.05-2.93,8.16-4.9,2.11-1.97,3.67-4.12,4.67-6.42,1-2.31,1.5-4.48,1.5-6.51v-14.71Z"/>
    <path class="cls-1" d="m834.42,207.74v-11.89h-.33c-2.33,4.87-5.99,8.38-10.99,10.53-5,2.15-10.49,3.23-16.49,3.23-6.66,0-12.46-1.25-17.4-3.74-4.94-2.49-9.05-5.83-12.33-10.02-3.27-4.19-5.74-9.06-7.41-14.61-1.67-5.55-2.5-11.43-2.5-17.66s.81-12.12,2.42-17.67c1.6-5.55,4.05-10.38,7.33-14.52,3.27-4.14,7.38-7.42,12.32-9.86,4.94-2.44,10.68-3.65,17.24-3.65,2.22,0,4.6.23,7.16.68,2.55.45,5.1,1.22,7.66,2.29,2.55,1.08,4.96,2.49,7.24,4.25,2.27,1.76,4.19,3.94,5.74,6.54h.33v-45.19h14.16v121.29h-14.16Zm-50.87-31.17c1.05,3.91,2.66,7.39,4.83,10.45,2.17,3.06,4.94,5.5,8.32,7.31,3.38,1.81,7.36,2.72,11.91,2.72s8.82-.96,12.16-2.89c3.33-1.92,6.05-4.44,8.16-7.56,2.11-3.11,3.64-6.65,4.58-10.62.94-3.96,1.41-7.99,1.41-12.06,0-4.3-.5-8.47-1.5-12.49-1-4.02-2.58-7.56-4.75-10.62-2.16-3.05-4.97-5.52-8.41-7.39-3.44-1.87-7.61-2.8-12.49-2.8s-8.83.97-12.16,2.89c-3.33,1.93-5.99,4.48-7.99,7.65-2,3.17-3.44,6.8-4.33,10.87-.89,4.07-1.33,8.27-1.33,12.57,0,4.08.52,8.07,1.58,11.98Z"/>
    <path class="cls-1" d="m863.34,104.11v-17.66h14.15v17.66h-14.15Zm14.15,15.8v87.83h-14.15v-87.83h14.15Z"/>
    <path class="cls-1" d="m905.62,119.92v13.93h.33c5.89-10.64,15.21-15.97,27.97-15.97,5.66,0,10.38.79,14.16,2.38,3.77,1.59,6.83,3.8,9.16,6.63,2.33,2.83,3.97,6.2,4.91,10.11.94,3.9,1.41,8.24,1.41,12.99v57.76h-14.15v-59.46c0-5.43-1.56-9.73-4.67-12.91-3.11-3.17-7.38-4.75-12.82-4.75-4.33,0-8.08.68-11.24,2.04-3.16,1.36-5.8,3.29-7.91,5.78-2.11,2.49-3.69,5.41-4.74,8.75-1.06,3.34-1.59,7-1.59,10.96v49.6h-14.15v-87.83h13.32Z"/>
    <path class="cls-1" d="m1041.62,232.54c-6.43,7.14-16.54,10.7-30.31,10.7-4,0-8.08-.45-12.24-1.36-4.17-.91-7.94-2.38-11.32-4.41-3.39-2.04-6.19-4.7-8.41-7.99-2.22-3.29-3.44-7.31-3.66-12.06h14.15c.11,2.6.92,4.81,2.42,6.63,1.5,1.81,3.33,3.28,5.49,4.41,2.17,1.13,4.52,1.95,7.07,2.47,2.56.51,5,.76,7.33.76,4.66,0,8.6-.82,11.82-2.46,3.22-1.64,5.89-3.91,7.99-6.8,2.11-2.89,3.63-6.37,4.58-10.45.94-4.08,1.41-8.55,1.41-13.42v-5.78h-.33c-2.44,5.44-6.13,9.43-11.07,11.98-4.94,2.54-10.19,3.82-15.74,3.82-6.44,0-12.05-1.19-16.82-3.57-4.77-2.38-8.77-5.58-11.99-9.6-3.22-4.02-5.64-8.72-7.24-14.1-1.61-5.37-2.42-11.07-2.42-17.07,0-5.21.67-10.56,2-16.05,1.33-5.49,3.55-10.47,6.66-14.95,3.11-4.48,7.21-8.16,12.32-11.04,5.1-2.89,11.38-4.34,18.82-4.34,5.44,0,10.43,1.22,14.99,3.65,4.55,2.44,8.1,6.09,10.66,10.96h.16v-12.57h13.32v80.35c0,14.38-3.22,25.14-9.66,32.28Zm-18.07-39.5c3.27-1.98,5.91-4.59,7.91-7.81,2-3.23,3.47-6.88,4.41-10.96.94-4.08,1.41-8.16,1.41-12.23,0-3.85-.45-7.64-1.33-11.38-.89-3.74-2.3-7.11-4.25-10.11-1.94-3-4.47-5.41-7.58-7.22-3.11-1.81-6.88-2.72-11.32-2.72s-8.44.88-11.66,2.63c-3.22,1.75-5.85,4.1-7.91,7.05-2.06,2.94-3.56,6.35-4.5,10.19-.95,3.85-1.41,7.87-1.41,12.07,0,3.96.39,7.92,1.16,11.89.78,3.97,2.11,7.56,4,10.79,1.89,3.23,4.38,5.84,7.5,7.81,3.11,1.98,6.99,2.97,11.66,2.97s8.63-.99,11.9-2.97Z"/>
    <path class="cls-1" d="m1078.56,86.45v107.7h62.95v13.59h-78.77v-121.29h15.82Z"/>
    <path class="cls-1" d="m1227.11,207.4c-2.44,1.48-5.83,2.21-10.15,2.21-3.67,0-6.58-1.05-8.75-3.14-2.17-2.09-3.25-5.52-3.25-10.28-3.89,4.75-8.41,8.18-13.57,10.28-5.17,2.09-10.74,3.14-16.73,3.14-3.89,0-7.58-.45-11.08-1.36-3.5-.9-6.52-2.32-9.07-4.25-2.56-1.93-4.58-4.45-6.08-7.56-1.5-3.11-2.25-6.88-2.25-11.29,0-4.99.83-9.06,2.5-12.23,1.67-3.17,3.86-5.75,6.57-7.73,2.72-1.98,5.83-3.48,9.33-4.5,3.5-1.02,7.08-1.87,10.74-2.54,3.88-.79,7.58-1.39,11.08-1.78,3.49-.39,6.57-.96,9.24-1.7,2.66-.73,4.77-1.81,6.33-3.23,1.55-1.41,2.33-3.48,2.33-6.2,0-3.17-.58-5.72-1.74-7.65-1.17-1.93-2.66-3.4-4.5-4.41-1.83-1.02-3.89-1.7-6.16-2.04-2.28-.34-4.53-.51-6.74-.51-5.99,0-10.99,1.16-14.99,3.49-4,2.32-6.16,6.71-6.5,13.16h-14.15c.22-5.44,1.33-10.02,3.33-13.76,2-3.74,4.66-6.76,7.99-9.09,3.33-2.32,7.13-3.99,11.4-5.01,4.28-1.02,8.85-1.53,13.74-1.53,3.88,0,7.74.28,11.58.85,3.83.57,7.29,1.72,10.41,3.47,3.11,1.75,5.6,4.21,7.49,7.38,1.89,3.16,2.84,7.29,2.84,12.38v45.09c0,3.4.19,5.88.58,7.46.39,1.58,1.69,2.37,3.92,2.37,1.22,0,2.66-.23,4.33-.68v11.21Zm-22.98-45.02c-1.77,1.35-4.1,2.34-6.99,2.96-2.89.62-5.92,1.13-9.08,1.52s-6.35.84-9.57,1.35c-3.22.51-6.11,1.32-8.66,2.45-2.56,1.13-4.64,2.73-6.25,4.82-1.61,2.09-2.41,4.93-2.41,8.54,0,2.37.47,4.37,1.41,6,.94,1.63,2.17,2.96,3.66,3.97,1.5,1.02,3.25,1.75,5.25,2.2,2,.45,4.1.67,6.33.67,4.66,0,8.66-.64,11.99-1.94,3.33-1.29,6.05-2.93,8.16-4.9,2.11-1.97,3.67-4.12,4.67-6.42,1-2.31,1.5-4.48,1.5-6.51v-14.71Z"/>
    <path class="cls-1" d="m1249.9,86.45v45.36h.33c2.33-4.87,5.99-8.41,10.99-10.62,5-2.2,10.5-3.31,16.49-3.31,6.66,0,12.46,1.25,17.4,3.74,4.94,2.49,9.04,5.86,12.32,10.11,3.27,4.25,5.75,9.15,7.41,14.69,1.66,5.55,2.49,11.44,2.49,17.67s-.81,12.12-2.41,17.66c-1.61,5.55-4.05,10.39-7.33,14.53-3.28,4.14-7.39,7.39-12.33,9.77-4.94,2.38-10.68,3.57-17.23,3.57-2.11,0-4.47-.23-7.08-.68-2.61-.46-5.19-1.19-7.74-2.21-2.56-1.02-4.97-2.41-7.24-4.16-2.28-1.76-4.19-3.94-5.75-6.55h-.33v11.72h-14.15v-121.29h14.15Zm50.87,64.64c-1.05-3.91-2.66-7.4-4.82-10.45-2.17-3.06-4.94-5.5-8.33-7.31-3.38-1.81-7.36-2.72-11.9-2.72-4.77,0-8.83.97-12.16,2.89-3.33,1.93-6.06,4.45-8.17,7.56-2.11,3.11-3.64,6.65-4.58,10.62-.94,3.96-1.41,7.98-1.41,12.06,0,4.3.5,8.47,1.5,12.48,1,4.03,2.58,7.56,4.75,10.62,2.17,3.06,4.97,5.53,8.41,7.4,3.44,1.87,7.6,2.8,12.48,2.8s8.97-.96,12.24-2.89c3.27-1.92,5.91-4.47,7.91-7.64,2-3.17,3.44-6.8,4.33-10.87.88-4.08,1.33-8.27,1.33-12.57,0-4.08-.53-8.07-1.59-11.98Z"/>
  </g>
</svg>