<?xml version="1.0" encoding="UTF-8"?>
<svg id="Layer_1" data-name="Layer 1" xmlns="http://www.w3.org/2000/svg" xmlns:xlink="http://www.w3.org/1999/xlink" viewBox="0 0 1021.66 268.09">
  <defs>
    <style>
      .cls-1 {
        fill: #fff;
      }

      .cls-2 {
        fill: #db1222;
      }

      .cls-3 {
        fill: #ccc;
      }

      .cls-4 {
        fill: url(#New_Gradient_Swatch_4);
      }
    </style>
    <linearGradient id="New_Gradient_Swatch_4" data-name="New Gradient Swatch 4" x1="1491.06" y1="41.09" x2="1515.1" y2="41.09" gradientTransform="translate(1515.1) rotate(-180) scale(1 -1)" gradientUnits="userSpaceOnUse">
      <stop offset="0" stop-color="#d61f27"/>
      <stop offset="1" stop-color="#a31e22"/>
    </linearGradient>
  </defs>
  <g>
    <g>
      <path class="cls-1" d="m26.7,86.27v121.41H0v-121.41h26.7Z"/>
      <path class="cls-1" d="m95.09,86.27c5.78,0,11.05.51,15.81,1.53,4.76,1.02,8.84,2.69,12.24,5.02,3.4,2.33,6.04,5.41,7.91,9.27,1.87,3.86,2.81,8.62,2.81,14.28,0,6.12-1.39,11.22-4.17,15.3-2.78,4.08-6.89,7.43-12.33,10.03,7.48,2.16,13.06,5.93,16.75,11.31,3.68,5.39,5.53,11.88,5.53,19.47,0,6.12-1.19,11.42-3.57,15.9-2.38,4.48-5.59,8.13-9.61,10.97-4.03,2.84-8.62,4.93-13.77,6.29-5.16,1.36-10.46,2.04-15.9,2.04h-58.84v-121.41h57.14Zm-3.4,49.14c4.76,0,8.67-1.13,11.73-3.4,3.06-2.27,4.59-5.95,4.59-11.05,0-2.83-.51-5.16-1.53-6.97-1.02-1.81-2.38-3.23-4.08-4.25-1.7-1.02-3.66-1.73-5.87-2.13-2.21-.4-4.51-.59-6.89-.59h-25v28.4h27.04Zm1.53,51.52c2.61,0,5.1-.25,7.48-.76,2.38-.51,4.48-1.36,6.29-2.55,1.81-1.19,3.26-2.81,4.34-4.85,1.08-2.04,1.62-4.65,1.62-7.82,0-6.23-1.76-10.68-5.27-13.35-3.52-2.66-8.16-4-13.94-4h-29.08v33.33h28.57Z"/>
      <path class="cls-1" d="m173.18,86.27v50.33l47.44-50.33h33.33l-47.44,47.95,52.03,73.46h-33.5l-36.56-54.59-15.3,15.47v39.11h-26.7v-121.41h26.7Z"/>
      <path class="cls-1" d="m330.65,86.27c5.44,0,10.34.88,14.71,2.64,4.36,1.76,8.1,4.17,11.22,7.23,3.12,3.06,5.5,6.61,7.14,10.63,1.64,4.02,2.47,8.36,2.47,13.01,0,7.14-1.5,13.32-4.51,18.54-3,5.22-7.91,9.18-14.71,11.9v.34c3.29.91,6.01,2.3,8.16,4.17,2.15,1.87,3.91,4.08,5.27,6.63,1.36,2.55,2.35,5.36,2.98,8.42.62,3.06,1.05,6.12,1.27,9.18.11,1.93.23,4.2.34,6.8.11,2.61.31,5.27.6,7.99.28,2.72.74,5.3,1.36,7.74.62,2.44,1.56,4.51,2.81,6.21h-26.7c-1.47-3.85-2.38-8.44-2.72-13.77-.34-5.33-.85-10.43-1.53-15.3-.91-6.35-2.84-10.99-5.78-13.94-2.95-2.95-7.77-4.42-14.45-4.42h-26.7v47.44h-26.7v-121.41h65.47Zm-9.52,54.92c6.12,0,10.71-1.36,13.77-4.08,3.06-2.72,4.59-7.14,4.59-13.26s-1.53-10.17-4.59-12.84c-3.06-2.66-7.65-4-13.77-4h-29.25v34.18h29.25Z"/>
    </g>
    <g>
      <path class="cls-1" d="m430.52,85.9c12.26,0,21.54,3.15,27.84,9.45,6.3,6.3,9.45,15.13,9.45,26.47s-3.15,20.2-9.45,26.55c-6.3,6.36-15.58,9.48-27.84,9.37h-37.11v49.7h-16.17v-121.54h53.28Zm-5.45,58.22c9.19.11,15.92-1.75,20.17-5.61,4.26-3.86,6.38-9.42,6.38-16.68s-2.13-12.79-6.38-16.6c-4.25-3.8-10.98-5.7-20.17-5.7h-31.66v44.59h31.66Z"/>
      <path class="cls-1" d="m469.13,145.4c1.82-5.62,4.54-10.5,8.17-14.64,3.63-4.14,8.12-7.41,13.45-9.79,5.34-2.38,11.46-3.57,18.39-3.57s13.19,1.19,18.46,3.57c5.28,2.38,9.73,5.65,13.37,9.79,3.63,4.14,6.35,9.02,8.17,14.64,1.81,5.61,2.72,11.66,2.72,18.13s-.91,12.48-2.72,18.04c-1.82,5.56-4.54,10.41-8.17,14.56-3.63,4.14-8.09,7.38-13.37,9.7-5.28,2.32-11.43,3.49-18.46,3.49s-13.05-1.17-18.39-3.49c-5.33-2.32-9.82-5.56-13.45-9.7-3.63-4.14-6.35-8.99-8.17-14.56-1.81-5.56-2.72-11.57-2.72-18.04s.91-12.51,2.72-18.13Zm14.73,32.34c1.42,4.14,3.37,7.6,5.87,10.38,2.5,2.79,5.42,4.91,8.77,6.38,3.34,1.48,6.89,2.22,10.64,2.22s7.29-.74,10.64-2.22c3.34-1.47,6.27-3.6,8.77-6.38,2.49-2.78,4.45-6.24,5.87-10.38,1.42-4.14,2.13-8.88,2.13-14.21s-.71-10.07-2.13-14.21c-1.42-4.14-3.38-7.63-5.87-10.47-2.5-2.83-5.42-4.99-8.77-6.47-3.35-1.47-6.89-2.22-10.64-2.22s-7.3.74-10.64,2.22c-3.35,1.48-6.27,3.63-8.77,6.47-2.5,2.84-4.45,6.33-5.87,10.47-1.42,4.14-2.13,8.88-2.13,14.21s.71,10.07,2.13,14.21Z"/>
      <path class="cls-1" d="m626.06,207.44v-11.92h-.34c-2.38,4.88-6.12,8.4-11.23,10.55-5.11,2.16-10.72,3.24-16.85,3.24-6.81,0-12.74-1.25-17.79-3.75-5.05-2.49-9.25-5.84-12.6-10.04-3.34-4.2-5.87-9.08-7.57-14.64-1.7-5.56-2.55-11.46-2.55-17.7s.82-12.14,2.46-17.7c1.65-5.56,4.14-10.41,7.49-14.56,3.34-4.14,7.55-7.43,12.6-9.87,5.05-2.44,10.92-3.66,17.62-3.66,2.27,0,4.71.23,7.32.68,2.61.46,5.22,1.22,7.83,2.3,2.61,1.08,5.08,2.5,7.41,4.26,2.32,1.76,4.28,3.95,5.87,6.55h.34v-45.28h14.47v121.54h-14.47Zm-52.01-31.23c1.08,3.91,2.73,7.4,4.94,10.47,2.21,3.06,5.05,5.51,8.51,7.32,3.46,1.82,7.52,2.73,12.17,2.73,4.88,0,9.02-.97,12.43-2.89,3.4-1.93,6.18-4.45,8.34-7.58,2.16-3.12,3.72-6.66,4.69-10.64.96-3.97,1.44-8,1.44-12.09,0-4.31-.51-8.49-1.53-12.51-1.02-4.03-2.64-7.57-4.85-10.64-2.21-3.07-5.08-5.53-8.59-7.41-3.52-1.87-7.77-2.81-12.77-2.81s-9.02.97-12.42,2.89c-3.4,1.93-6.13,4.48-8.17,7.66-2.05,3.18-3.52,6.81-4.43,10.9-.91,4.08-1.36,8.28-1.36,12.6,0,4.09.54,8.08,1.61,12Z"/>
      <path class="cls-1" d="m706.15,134.76c-3.63-3.06-8.51-4.6-14.64-4.6-5.22,0-9.59.97-13.11,2.89-3.52,1.93-6.32,4.48-8.43,7.66-2.1,3.18-3.6,6.84-4.51,10.98s-1.36,8.43-1.36,12.85c0,4.08.48,8.06,1.44,11.92.96,3.85,2.47,7.29,4.51,10.3s4.71,5.42,8,7.23c3.29,1.82,7.2,2.73,11.74,2.73,7.15,0,12.74-1.87,16.77-5.62,4.03-3.75,6.5-9.02,7.41-15.83h14.81c-1.59,10.9-5.65,19.3-12.17,25.19-6.53,5.91-15.4,8.85-26.64,8.85-6.69,0-12.62-1.08-17.79-3.24s-9.48-5.22-12.94-9.19c-3.46-3.97-6.07-8.71-7.83-14.21-1.76-5.51-2.64-11.55-2.64-18.13s.85-12.74,2.55-18.47c1.7-5.73,4.28-10.72,7.75-14.98,3.46-4.26,7.8-7.6,13.02-10.04,5.22-2.44,11.29-3.66,18.21-3.66,4.99,0,9.67.6,14.05,1.79,4.37,1.19,8.23,3.03,11.57,5.53,3.34,2.5,6.1,5.65,8.26,9.45,2.15,3.81,3.51,8.32,4.08,13.53h-14.98c-1.13-5.56-3.52-9.88-7.15-12.94Z"/>
      <path class="cls-1" d="m816.41,207.1c-2.5,1.48-5.96,2.22-10.39,2.22-3.75,0-6.72-1.05-8.94-3.15-2.22-2.1-3.32-5.53-3.32-10.3-3.97,4.77-8.6,8.2-13.88,10.3-5.28,2.1-10.98,3.15-17.11,3.15-3.97,0-7.74-.46-11.32-1.36-3.57-.91-6.67-2.32-9.28-4.26-2.61-1.93-4.68-4.45-6.21-7.57-1.53-3.12-2.3-6.89-2.3-11.32,0-4.99.85-9.08,2.55-12.26,1.7-3.17,3.94-5.75,6.73-7.74,2.77-1.99,5.96-3.49,9.53-4.51,3.58-1.02,7.24-1.87,10.98-2.55,3.97-.79,7.74-1.39,11.32-1.79,3.57-.4,6.72-.96,9.45-1.7,2.73-.74,4.88-1.81,6.47-3.24,1.59-1.42,2.38-3.49,2.38-6.21,0-3.18-.59-5.73-1.79-7.66-1.19-1.93-2.73-3.4-4.6-4.42-1.87-1.02-3.97-1.7-6.3-2.05-2.32-.34-4.63-.51-6.89-.51-6.13,0-11.24,1.17-15.32,3.49-4.09,2.33-6.3,6.73-6.64,13.19h-14.47c.22-5.45,1.36-10.04,3.4-13.79,2.04-3.74,4.77-6.78,8.17-9.1,3.4-2.32,7.29-4,11.66-5.02,4.37-1.02,9.04-1.53,14.04-1.53,3.97,0,7.92.28,11.83.85,3.92.56,7.47,1.73,10.64,3.48,3.18,1.75,5.73,4.22,7.66,7.39,1.93,3.17,2.89,7.3,2.89,12.39v45.19c0,3.4.2,5.89.6,7.47.4,1.59,1.73,2.38,4,2.38,1.24,0,2.72-.22,4.42-.68v11.23Zm-23.49-45.11c-1.82,1.35-4.2,2.34-7.15,2.96-2.95.62-6.04,1.13-9.28,1.52-3.23.4-6.5.85-9.79,1.36-3.29.51-6.24,1.33-8.85,2.46-2.61,1.12-4.74,2.74-6.38,4.83-1.65,2.09-2.46,4.94-2.46,8.55,0,2.37.48,4.38,1.44,6.02.96,1.64,2.22,2.96,3.75,3.98s3.32,1.75,5.36,2.2c2.04.45,4.2.67,6.47.67,4.77,0,8.85-.65,12.25-1.94,3.41-1.3,6.18-2.94,8.34-4.91,2.16-1.98,3.75-4.12,4.77-6.44,1.02-2.31,1.53-4.49,1.53-6.52v-14.73Z"/>
      <path class="cls-1" d="m834.96,187.78c1.36,2.21,3.15,3.97,5.36,5.28,2.22,1.3,4.71,2.24,7.49,2.81,2.78.57,5.64.85,8.59.85,2.27,0,4.65-.17,7.15-.51,2.5-.34,4.79-.97,6.89-1.87,2.1-.91,3.83-2.24,5.19-4s2.04-4,2.04-6.73c0-3.74-1.42-6.58-4.25-8.51-2.84-1.93-6.38-3.49-10.64-4.68-4.26-1.19-8.88-2.27-13.87-3.24-4.99-.97-9.62-2.32-13.88-4.09-4.26-1.76-7.8-4.22-10.64-7.41-2.84-3.18-4.26-7.6-4.26-13.27,0-4.42.99-8.23,2.98-11.41,1.98-3.18,4.53-5.76,7.66-7.75,3.12-1.98,6.64-3.46,10.55-4.42,3.92-.96,7.8-1.44,11.66-1.44,4.99,0,9.59.42,13.79,1.28,4.2.85,7.92,2.33,11.15,4.42,3.23,2.1,5.81,4.94,7.74,8.51,1.93,3.57,3.06,8.03,3.4,13.36h-14.47c-.23-2.83-.97-5.19-2.21-7.06-1.25-1.87-2.84-3.38-4.77-4.51-1.93-1.13-4.06-1.96-6.38-2.47-2.33-.51-4.68-.77-7.06-.77-2.16,0-4.34.17-6.55.51-2.22.34-4.23.94-6.05,1.79-1.81.85-3.29,1.99-4.42,3.4-1.13,1.42-1.7,3.26-1.7,5.53,0,2.5.87,4.57,2.64,6.21,1.76,1.65,4,3.01,6.72,4.09,2.73,1.07,5.79,1.99,9.19,2.72,3.4.74,6.81,1.51,10.22,2.3,3.63.79,7.17,1.76,10.64,2.89,3.46,1.13,6.53,2.64,9.19,4.51,2.67,1.87,4.82,4.23,6.47,7.07,1.64,2.83,2.46,6.35,2.46,10.55,0,5.33-1.1,9.76-3.32,13.27-2.22,3.52-5.11,6.36-8.68,8.51-3.58,2.16-7.61,3.66-12.09,4.51-4.48.85-8.94,1.28-13.37,1.28-4.88,0-9.53-.51-13.96-1.53-4.42-1.02-8.34-2.7-11.74-5.02-3.4-2.32-6.13-5.39-8.17-9.19s-3.18-8.43-3.4-13.88h14.47c.11,3.18.85,5.87,2.22,8.09Z"/>
      <path class="cls-1" d="m940.08,119.43v12.77h-17.54v54.64c0,1.7.14,3.07.43,4.09.28,1.02.82,1.81,1.62,2.38.79.56,1.89.93,3.32,1.1,1.42.17,3.26.26,5.53.26h6.64v12.77h-11.06c-3.75,0-6.95-.26-9.62-.77-2.67-.51-4.82-1.45-6.47-2.81-1.65-1.36-2.87-3.29-3.66-5.79-.8-2.5-1.19-5.79-1.19-9.88v-56h-14.98v-12.77h14.98v-26.39h14.47v26.39h17.54Z"/>
      <path class="cls-1" d="m958.94,187.78c1.36,2.21,3.15,3.97,5.36,5.28,2.22,1.3,4.71,2.24,7.49,2.81,2.78.57,5.64.85,8.59.85,2.27,0,4.65-.17,7.15-.51,2.5-.34,4.79-.97,6.89-1.87,2.1-.91,3.83-2.24,5.19-4s2.04-4,2.04-6.73c0-3.74-1.42-6.58-4.25-8.51-2.84-1.93-6.38-3.49-10.64-4.68-4.26-1.19-8.88-2.27-13.87-3.24-4.99-.97-9.62-2.32-13.88-4.09-4.26-1.76-7.8-4.22-10.64-7.41-2.84-3.18-4.26-7.6-4.26-13.27,0-4.42.99-8.23,2.98-11.41,1.98-3.18,4.53-5.76,7.66-7.75,3.12-1.98,6.64-3.46,10.55-4.42,3.92-.96,7.8-1.44,11.66-1.44,4.99,0,9.59.42,13.79,1.28,4.2.85,7.92,2.33,11.15,4.42,3.23,2.1,5.81,4.94,7.74,8.51,1.93,3.57,3.06,8.03,3.4,13.36h-14.47c-.23-2.83-.97-5.19-2.21-7.06-1.25-1.87-2.84-3.38-4.77-4.51-1.93-1.13-4.06-1.96-6.38-2.47-2.33-.51-4.68-.77-7.06-.77-2.16,0-4.34.17-6.55.51-2.22.34-4.23.94-6.05,1.79-1.81.85-3.29,1.99-4.42,3.4s-1.7,3.26-1.7,5.53c0,2.5.87,4.57,2.64,6.21,1.76,1.65,4,3.01,6.72,4.09,2.73,1.07,5.79,1.99,9.19,2.72,3.4.74,6.81,1.51,10.22,2.3,3.63.79,7.17,1.76,10.64,2.89,3.46,1.13,6.53,2.64,9.19,4.51,2.67,1.87,4.82,4.23,6.47,7.07,1.64,2.83,2.46,6.35,2.46,10.55,0,5.33-1.1,9.76-3.32,13.27-2.22,3.52-5.11,6.36-8.68,8.51-3.58,2.16-7.61,3.66-12.09,4.51-4.48.85-8.94,1.28-13.37,1.28-4.88,0-9.53-.51-13.96-1.53-4.42-1.02-8.34-2.7-11.74-5.02s-6.13-5.39-8.17-9.19-3.18-8.43-3.4-13.88h14.47c.11,3.18.85,5.87,2.22,8.09Z"/>
    </g>
  </g>
  <g>
    <g>
      <path class="cls-3" d="m47.5,20.01v34.25h-7.53V20.01h7.53Z"/>
      <path class="cls-3" d="m66.98,20.01c1.63,0,3.12.14,4.46.43,1.34.29,2.5.76,3.45,1.42.96.66,1.7,1.53,2.23,2.61.53,1.09.79,2.43.79,4.03,0,1.73-.39,3.17-1.18,4.32-.78,1.15-1.94,2.09-3.48,2.83,2.11.61,3.69,1.67,4.73,3.19,1.04,1.52,1.56,3.35,1.56,5.49,0,1.73-.34,3.22-1.01,4.49-.67,1.26-1.58,2.3-2.71,3.09-1.14.8-2.43,1.39-3.89,1.78s-2.95.57-4.48.57h-16.6V20.01h16.12Zm-.96,13.86c1.34,0,2.45-.32,3.31-.96.86-.64,1.3-1.68,1.3-3.12,0-.8-.14-1.46-.43-1.97-.29-.51-.67-.91-1.15-1.2s-1.03-.49-1.66-.6c-.62-.11-1.27-.17-1.94-.17h-7.05v8.01h7.63Zm.43,14.54c.73,0,1.44-.07,2.11-.22s1.26-.38,1.78-.72c.51-.34.92-.79,1.22-1.37.3-.57.46-1.31.46-2.21,0-1.76-.5-3.01-1.49-3.77-.99-.75-2.3-1.13-3.93-1.13h-8.2v9.4h8.06Z"/>
      <path class="cls-3" d="m89.35,20.01v14.2l13.38-14.2h9.4l-13.38,13.53,14.68,20.72h-9.45l-10.31-15.4-4.32,4.37v11.03h-7.53V20.01h7.53Z"/>
      <path class="cls-3" d="m134.03,20.01c1.54,0,2.92.25,4.15.74,1.23.5,2.29,1.18,3.17,2.04.88.86,1.55,1.86,2.02,3,.46,1.14.69,2.36.69,3.67,0,2.01-.42,3.76-1.27,5.23-.85,1.47-2.23,2.59-4.15,3.36v.1c.93.26,1.69.65,2.3,1.18s1.1,1.15,1.49,1.87c.38.72.66,1.51.84,2.37.18.86.3,1.73.36,2.59.03.55.06,1.18.1,1.92.03.74.09,1.49.17,2.26.08.77.21,1.5.38,2.18.17.69.44,1.27.79,1.75h-7.53c-.42-1.09-.67-2.38-.77-3.89-.1-1.5-.24-2.94-.43-4.32-.26-1.79-.8-3.1-1.63-3.93-.83-.83-2.19-1.25-4.08-1.25h-7.53v13.38h-7.53V20.01h18.47Zm-2.69,15.49c1.73,0,3.02-.38,3.89-1.15.86-.77,1.3-2.01,1.3-3.74s-.43-2.87-1.3-3.62c-.86-.75-2.16-1.13-3.89-1.13h-8.25v9.64h8.25Z"/>
      <path class="cls-3" d="m168.67,24.86c-1.74-1.22-3.81-1.82-6.21-1.82-2.05,0-3.8.38-5.25,1.15-1.46.77-2.65,1.8-3.6,3.09-.94,1.3-1.64,2.77-2.09,4.44s-.67,3.39-.67,5.18c0,1.95.22,3.8.67,5.54.45,1.74,1.14,3.26,2.09,4.56.94,1.3,2.15,2.33,3.62,3.09,1.47.77,3.23,1.15,5.28,1.15,1.5,0,2.84-.25,4.01-.74,1.17-.49,2.17-1.18,3.02-2.06.85-.88,1.51-1.93,1.99-3.14.48-1.22.77-2.53.86-3.93h4.56c-.45,4.32-1.93,7.68-4.46,10.07-2.53,2.4-5.98,3.6-10.36,3.6-2.65,0-4.97-.46-6.96-1.37-1.98-.91-3.63-2.16-4.94-3.77-1.31-1.6-2.29-3.49-2.95-5.66-.66-2.18-.98-4.51-.98-7s.35-4.84,1.06-7.03c.7-2.19,1.74-4.1,3.09-5.73,1.36-1.63,3.05-2.92,5.08-3.86,2.03-.94,4.36-1.42,6.98-1.42,1.79,0,3.49.24,5.08.72,1.6.48,3.02,1.18,4.27,2.11,1.25.93,2.29,2.09,3.12,3.48s1.38,3,1.63,4.82h-4.56c-.51-2.43-1.64-4.25-3.38-5.47Z"/>
      <path class="cls-3" d="m201.68,54.17c-.7.42-1.68.62-2.93.62-1.06,0-1.9-.3-2.52-.89-.62-.59-.94-1.56-.94-2.9-1.12,1.34-2.42,2.31-3.91,2.9-1.49.59-3.09.89-4.82.89-1.12,0-2.18-.13-3.19-.38-1.01-.25-1.88-.65-2.61-1.2-.74-.54-1.32-1.26-1.75-2.14-.43-.88-.65-1.94-.65-3.19,0-1.41.24-2.56.72-3.45.48-.9,1.11-1.62,1.89-2.18.78-.56,1.68-.98,2.69-1.27,1.01-.29,2.04-.53,3.09-.72,1.12-.22,2.18-.39,3.19-.5,1.01-.11,1.89-.27,2.66-.48.77-.21,1.38-.51,1.82-.91.45-.4.67-.98.67-1.75,0-.9-.17-1.62-.5-2.16-.34-.54-.77-.96-1.3-1.25-.53-.29-1.12-.48-1.78-.58-.66-.1-1.3-.14-1.94-.14-1.73,0-3.17.33-4.32.98-1.15.65-1.78,1.89-1.87,3.72h-4.08c.06-1.54.38-2.83.96-3.89.58-1.06,1.34-1.91,2.3-2.57.96-.65,2.05-1.13,3.29-1.41,1.23-.29,2.55-.43,3.96-.43,1.12,0,2.23.08,3.33.24,1.1.16,2.1.49,3,.98.9.49,1.61,1.19,2.16,2.08s.82,2.06.82,3.49v12.73c0,.96.05,1.66.17,2.11.11.45.49.67,1.13.67.35,0,.77-.06,1.25-.19v3.17Zm-6.62-12.71c-.51.38-1.18.66-2.01.84-.83.17-1.7.32-2.62.43s-1.83.24-2.76.38-1.76.37-2.49.69c-.74.32-1.34.77-1.8,1.36-.46.59-.69,1.39-.69,2.41,0,.67.13,1.23.41,1.7.27.46.62.83,1.06,1.12.43.29.94.49,1.51.62.57.13,1.18.19,1.82.19,1.34,0,2.49-.18,3.45-.55.96-.37,1.74-.83,2.35-1.38.61-.56,1.06-1.16,1.34-1.81.29-.65.43-1.27.43-1.84v-4.15Z"/>
      <path class="cls-3" d="m207.68,29.46v3.65h.1c1.85-2.81,4.52-4.22,8.01-4.22,1.54,0,2.93.32,4.17.96,1.25.64,2.13,1.73,2.64,3.26.83-1.34,1.93-2.38,3.29-3.12,1.36-.73,2.85-1.1,4.48-1.1,1.25,0,2.38.14,3.38.41,1.01.27,1.87.7,2.59,1.27.72.58,1.28,1.32,1.68,2.23.4.91.6,2.01.6,3.29v18.18h-4.08v-16.26c0-.77-.07-1.49-.19-2.16s-.37-1.26-.72-1.75c-.35-.49-.84-.89-1.46-1.18-.62-.29-1.43-.43-2.42-.43-2.02,0-3.6.57-4.75,1.73-1.15,1.15-1.73,2.69-1.73,4.61v15.45h-4.08v-16.26c0-.8-.07-1.54-.22-2.21-.14-.67-.39-1.26-.74-1.75-.35-.49-.82-.88-1.42-1.15-.59-.27-1.35-.41-2.28-.41-1.18,0-2.2.24-3.05.72-.85.48-1.54,1.06-2.06,1.73-.53.67-.91,1.37-1.15,2.09-.24.72-.36,1.32-.36,1.8v15.45h-4.08v-24.8h3.84Z"/>
      <path class="cls-3" d="m246.02,29.46v3.36h.1c.67-1.38,1.73-2.38,3.17-3,1.44-.62,3.02-.94,4.75-.94,1.92,0,3.59.35,5.01,1.06,1.42.7,2.61,1.66,3.55,2.85.94,1.2,1.66,2.58,2.14,4.15.48,1.57.72,3.23.72,4.99s-.23,3.42-.69,4.99c-.46,1.57-1.17,2.93-2.11,4.1-.94,1.17-2.13,2.09-3.55,2.76-1.42.67-3.08,1.01-4.96,1.01-.61,0-1.29-.06-2.04-.19-.75-.13-1.5-.34-2.23-.62-.74-.29-1.43-.68-2.09-1.18-.66-.5-1.21-1.11-1.66-1.85h-.1v12.76h-4.08V29.46h4.08Zm14.66,8.8c-.3-1.1-.77-2.09-1.39-2.95-.62-.86-1.42-1.55-2.4-2.06-.98-.51-2.12-.77-3.43-.77-1.38,0-2.54.27-3.5.81-.96.54-1.74,1.26-2.35,2.14-.61.88-1.05,1.88-1.32,3-.27,1.12-.41,2.25-.41,3.41,0,1.22.14,2.39.43,3.53.29,1.14.74,2.14,1.37,3,.62.86,1.43,1.56,2.42,2.09.99.53,2.19.79,3.6.79s2.58-.27,3.53-.82c.94-.54,1.7-1.26,2.28-2.16.58-.9.99-1.92,1.25-3.07.25-1.15.38-2.33.38-3.55,0-1.15-.15-2.28-.46-3.38Z"/>
      <path class="cls-3" d="m284.57,54.26v-3.93h-.09c-.86,1.53-1.97,2.66-3.31,3.38-1.34.72-2.93,1.08-4.75,1.08-1.63,0-2.99-.22-4.08-.65-1.09-.43-1.97-1.05-2.64-1.85s-1.14-1.75-1.42-2.85c-.27-1.1-.41-2.33-.41-3.67v-16.31h4.08v16.79c0,1.54.45,2.75,1.34,3.65.89.9,2.12,1.34,3.69,1.34,1.25,0,2.33-.19,3.24-.58s1.67-.93,2.28-1.63c.61-.7,1.06-1.53,1.37-2.47.3-.94.46-1.98.46-3.09v-14.01h4.08v24.8h-3.84Z"/>
      <path class="cls-3" d="m295.89,48.72c.38.62.89,1.12,1.51,1.49.62.37,1.33.63,2.11.79.78.16,1.59.24,2.42.24.64,0,1.31-.05,2.02-.14.7-.1,1.35-.27,1.94-.53.59-.26,1.08-.63,1.46-1.13s.58-1.13.58-1.9c0-1.06-.4-1.85-1.2-2.4-.8-.54-1.8-.98-3-1.32-1.2-.33-2.5-.64-3.91-.91-1.41-.27-2.71-.65-3.91-1.15-1.2-.5-2.2-1.19-3-2.09-.8-.89-1.2-2.14-1.2-3.74,0-1.25.28-2.32.84-3.21.56-.9,1.28-1.62,2.16-2.18.88-.56,1.87-.98,2.97-1.25,1.1-.27,2.2-.41,3.29-.41,1.41,0,2.7.12,3.89.36,1.18.24,2.23.66,3.14,1.25.91.59,1.64,1.39,2.18,2.4s.86,2.26.96,3.77h-4.08c-.06-.8-.27-1.46-.62-1.99s-.8-.95-1.34-1.27-1.14-.55-1.8-.69c-.66-.14-1.32-.22-1.99-.22-.61,0-1.22.05-1.85.14-.62.1-1.19.26-1.7.5-.51.24-.93.56-1.25.96-.32.4-.48.92-.48,1.56,0,.7.25,1.29.74,1.75.49.46,1.13.85,1.89,1.15.77.3,1.63.56,2.59.77.96.21,1.92.42,2.88.65,1.02.22,2.02.49,3,.81.98.32,1.84.74,2.59,1.27.75.53,1.36,1.19,1.82,1.99.46.8.69,1.79.69,2.97,0,1.5-.31,2.75-.94,3.74s-1.44,1.79-2.45,2.4c-1.01.61-2.14,1.03-3.41,1.27-1.26.24-2.52.36-3.77.36-1.38,0-2.69-.14-3.93-.43-1.25-.29-2.35-.76-3.31-1.42-.96-.65-1.73-1.52-2.3-2.59-.58-1.07-.9-2.37-.96-3.91h4.08c.03.9.24,1.65.62,2.28Z"/>
    </g>
    <g>
      <polygon class="cls-4" points="24.04 54.33 0 54.33 0 27.85 24.04 54.33"/>
      <circle class="cls-2" cx="20.69" cy="34.34" r="7.18"/>
      <polygon class="cls-2" points="24.04 0 0 27.85 0 54.33 24.04 0"/>
    </g>
  </g>
</svg>