<svg xmlns="http://www.w3.org/2000/svg" viewBox="0 0 957 1448.38"><defs><style>.cls-1,.cls-2{fill:#1f326b;}.cls-1{opacity:0.15;}.cls-2{opacity:0.1;}</style></defs><g id="gears"><path class="cls-1" d="M43,107.11c13.58-6.87,15.94-8,18.44-8,4.06,0,8.49,2.89,14.37,9.39l2.73,3c6.67,5.71,9.73,9.52,10.48,13,.58,2.91-.35,5.15-7.9,21.43-2.44,5.28-5.23,11.28-7.93,17.4-8.43,18.84-12.6,31-13.11,34.28,1.62,3.33,10.94,10.22,14.84,11,3.16-1.45,14-8.77,29.59-21.48,5.89-4.73,11.65-9.58,16.54-13.71,11.76-9.92,13.83-11.55,16.3-12.14a9.41,9.41,0,0,1,2.08-.22c1.39,0,5.49,0,14.72,6.54l2.52,1.71c11.07,5.69,12.58,8.84,13.29,10.33,1.21,2.68.84,5.05-2.72,22.45-1.18,5.75-2.53,12.33-3.77,19-3.87,20.26-5.14,33-4.87,36.36,2.14,2.61,11.52,6.95,17.09,7.19,2.87-2.32,11.64-11.9,23.74-27.66,4.64-6,9.12-12,12.93-17.17,9.14-12.37,10.77-14.44,13-15.57a10.93,10.93,0,0,1,4.89-1c3.35,0,7.75,1.12,13.64,3.53l2.38.86c10.44,2.59,13.47,4.91,15.07,6.9,1.8,2.32,2,4.73,2.55,22.54.18,5.85.39,12.53.72,19.26.94,20.6,2.66,33.31,3.7,36.52,2,1.42,8.62,3.35,14.88,3.35a15.85,15.85,0,0,0,3.37-.28c2.2-2.82,8.56-14.22,16.73-32.48,3.1-6.83,6-13.71,8.53-19.57,6.09-14.27,7.2-16.68,9.13-18.33,2.18-1.81,5.27-2.66,9.72-2.66a58.53,58.53,0,0,1,8.84.89l2.17.18c11.1.08,14.57,1.58,16.69,3.24,2.31,1.86,3,4.18,7.72,21.54,1.5,5.6,3.22,12,5.08,18.4,5.63,19.8,10.19,31.76,11.93,34.67a19.7,19.7,0,0,0,6.56.84c5.54,0,10.12-1.14,11.89-2,1.51-3.25,5.09-15.79,8.9-35.45,1.47-7.38,2.76-14.76,3.86-21.05,2.67-15.27,3.22-17.87,4.7-19.86s4.61-4.57,14-5.73l5.94-.61a58.53,58.53,0,0,1,11.49-1.64,12.4,12.4,0,0,1,5.34,1c2.67,1.26,3.9,3.32,12.32,18.95,2.78,5.16,6,11.07,9.29,17,10,17.94,17.18,28.54,19.56,31a7.85,7.85,0,0,0,1.15.06c5.84,0,14.18-3.44,16.57-5.44.72-3.49,1.32-16.54.48-36.57-.29-7.6-.74-15.16-1.13-21.58-.93-15.27-1-17.89,0-20.23s3.51-5.6,12.68-8.95l5.32-1.86c6.7-3.31,11-4.72,14.19-4.72a9.12,9.12,0,0,1,2,.2c2.88.62,4.57,2.36,16.45,15.69,3.89,4.34,8.31,9.3,12.86,14.22,13.89,15.14,23.35,23.76,26.21,25.58,4.45-.3,13.77-6.33,16-9.35-.11-3.54-2.55-16.37-8-35.69-2-7.28-4.19-14.48-6-20.61-4.45-14.74-5.14-17.29-4.72-19.78S603,149,611,143.61l4.95-3.21c8.37-7,12.08-8,14.8-8.1,2.92,0,4.94,1.29,19.47,11.45,4.77,3.33,10.22,7.14,15.8,10.89,17,11.55,28.24,17.77,31.42,18.84,3.52-1,11.76-8.9,13.34-12.77-.91-3.42-6.21-15.34-15.94-32.89-3.64-6.64-7.41-13.16-10.61-18.7-7.69-13.3-8.93-15.61-9.12-18.19-.13-2.78.73-6.91,8.26-14.64l3-3.16c6.52-8.66,9.89-10.55,12.42-11.25l.93-.2h.75c2.5,0,6,1.3,20,6.85,5.41,2.15,11.58,4.6,17.86,7,18.11,6.92,31.15,10.79,34.87,11.11,3.18-1.77,9.47-11.4,10.1-15.49-1.67-3.12-9.58-13.52-23.09-28.35-5.1-5.68-10.32-11.21-14.73-15.89-10.46-11.08-12.19-13-12.91-15.43-.87-3-.26-6.56,2.09-11.44H545.62a267.76,267.76,0,0,1-165,56.68A267.79,267.79,0,0,1,215.64,0H0V21H.05l1.09,0,.69.17c2.46.6,6.23,2.49,11.39,11.63L15.59,37c6.45,8.86,7.29,12.61,7.24,15.19-.1,3-1.52,4.93-12.65,19.1C7,75.32,3.52,79.8,0,84.42v42.87c5.87-2.35,13.87-5.85,23.59-10.56C30.47,113.45,37.24,110,43,107.11Z"/><path class="cls-2" d="M35.61,1026c4.12-.28,12.75-5.85,14.8-8.65-.1-3.27-2.36-15.13-7.41-33-1.87-6.74-3.89-13.39-5.6-19.05-4.12-13.64-4.76-16-4.37-18.29s1.94-5.73,9.36-10.67l4.59-3c7.76-6.42,11.2-7.4,13.72-7.49,2.7,0,4.58,1.2,18,10.59,4.43,3.08,9.47,6.6,14.65,10.07,15.79,10.67,26.17,16.42,29.11,17.42,3.26-1,10.9-8.23,12.37-11.81C134,949,129.11,938,120.09,921.72c-3.37-6.13-6.86-12.16-9.83-17.28-7.12-12.3-8.28-14.44-8.45-16.83-.13-2.56.67-6.38,7.65-13.53l2.82-2.91c6-8,9.16-9.77,11.51-10.41l.86-.19h.69c2.33,0,5.59,1.2,18.57,6.34,5,2,10.73,4.25,16.55,6.43,16.78,6.4,28.87,10,32.31,10.28,2.95-1.64,8.78-10.55,9.37-14.33-1.55-2.88-8.88-12.5-21.4-26.21-4.73-5.25-9.56-10.36-13.66-14.69-9.69-10.24-11.29-12-12-14.26-1-3.29,0-7.33,3.35-13.27l3.1-5.28c3.28-7.38,5.84-11.07,8.7-12.62a7.72,7.72,0,0,1,3.69-.78c2.76,0,8.1.75,17.31,2.08,5.34.78,11.43,1.67,17.62,2.45,12.74,1.68,24.16,2.67,30.55,2.67a28.66,28.66,0,0,0,3.29-.14c2.49-2.33,6.07-12.32,5.76-16.12-2.17-2.45-11.53-10.11-26.86-20.56-5.75-3.93-11.55-7.73-16.5-11-12-7.81-14-9.21-15.15-11.24-1.27-2.21-2.28-6,.7-15.45l1.29-4.17c1.48-7.88,3.09-12,5.52-14.22,2-1.81,4.3-2.11,21-3.61,5.32-.48,11.35-1,17.44-1.68,19-2,30.62-4.28,33.49-5.4,1.89-2.83,3.08-13.36,1.89-17-2.66-1.86-13.51-7.11-30.89-13.76-6.39-2.46-12.81-4.78-18.3-6.76-13.67-4.92-16-5.83-17.66-7.57s-3.58-5.18-2.87-15l.31-4.42c-.55-11.34,1.25-14,2.16-15.34,1.59-2.16,3.67-3,19.31-8.15,5.13-1.7,11-3.65,16.84-5.72,18.05-6.29,28.86-11.16,31.38-12.91,1.2-3.16-.07-13.71-2.05-17-3-1.21-14.82-3.87-33.24-6.35-7-1-14-1.78-19.89-2.47-14-1.61-16.36-2-18.38-3.26-2.79-1.88-4.61-5.56-5.89-12.18l-1.05-6.14c-2.75-9.59-2.34-13-1.44-15.29,1-2.53,2.89-3.79,17-12.51,4.58-2.83,9.79-6.05,15-9.4,16.07-10.26,25.46-17.51,27.54-19.82.42-3.38-3.24-13.31-5.93-16.06a43.53,43.53,0,0,0-5.44-.23c-6.79,0-17.38.65-28.36,1.77-7,.67-14,1.51-19.94,2.22-7.5.89-12.92,1.55-15.6,1.55a8.2,8.2,0,0,1-3-.45c-3.33-1.21-6.15-4.75-9.05-11.48l-1.95-4.64c-4.94-8.74-5.35-12.18-5-14.68.42-2.68,1.93-4.32,13.57-16,3.81-3.82,8.15-8.19,12.46-12.68,13.26-13.7,20.71-22.94,22.2-25.67-.37-3.37-6.23-12.2-9.48-14.23-3.75.31-16.45,3.75-32.53,9.3-6.57,2.25-13.08,4.64-18.61,6.67-12.35,4.53-15.19,5.51-17.34,5.51h-.44l-.35,0c-2.53-.32-6.14-1.76-12-9.82l-2.47-3.38c-6.81-7.37-8-10.71-8.22-13.09-.22-2.73.88-4.7,9.61-18.9,2.8-4.56,6-9.75,9.11-15.05,9.76-16.38,14.9-27.08,15.72-30.08-1.12-3.19-8.84-10.41-12.53-11.65-3.1,1-13.82,6.57-29.49,16.52C88.2,303.86,82.37,307.7,77.42,311c-11.85,7.82-13.91,9.09-16.27,9.38l-.91,0c-1.38,0-5.38,0-13.61-7.41l-2.41-2.08c-8.44-5.68-10.37-8.68-11.13-10.94-.84-2.6-.23-4.76,5-20.54,1.69-5.1,3.61-10.91,5.44-16.8,5.73-18.22,8.27-29.8,8.38-32.87-1.82-2.89-10.77-8-14.9-8.48-2.82,1.75-12,9.61-24.89,22.84C7.84,248.46,3.68,252.86,0,256.77V458.3a248.81,248.81,0,0,1,62.36,165A248.73,248.73,0,0,1,0,788.16V989.84c3.45,3.86,7.32,8.17,11.32,12.48C24.19,1016.31,33,1024.28,35.61,1026Z"/><path class="cls-2" d="M673.8,754.45C673.8,578,794.12,429.15,957,385.6V72.86c-3.36-6.71-5.84-11-7.19-12.79a18.52,18.52,0,0,0-4.4-.42c-8.58,0-18.21,3-21.4,5.11-1.59,4.79-4.57,23-6.7,51.18-.84,10.6-1.44,21.15-2,30.15-1.24,21.8-1.56,25.52-3.35,28.69s-5.68,7-18.48,10.25c0,0-23,6.29-27.27,6.29a15.12,15.12,0,0,1-4.7-.68c-4.07-1.34-6.1-4-20.7-24.82-4.72-6.72-10.1-14.4-15.68-22-17-23.42-28.81-37-32.58-40.12l-.25,0c-6.92,0-20.27,6.66-23.83,10.48-.43,5,.89,23.37,5.38,51.34,1.64,10.53,3.5,21,5.1,29.85,3.84,21.46,4.39,25.15,3.39,28.67s-3.88,8.15-15.58,14.22c0,0-24,13-28.81,13l-1.13-.05c-4.15-.4-6.82-2.57-25.85-19.43-6.14-5.44-13.13-11.63-20.28-17.75-23.34-20-37.12-29.69-41.11-31.58-5.11.83-18.07,10.57-20.88,15.74.71,4.9,6.23,22.5,17.07,48.8,4,9.78,8.18,19.43,11.76,27.68,8.77,20.18,10.16,23.67,10,27.27-.32,5-3.76,10.32-11.17,16.81,0,0-21.86,19.33-27,20.14l-.59.06h-.5c-3.76,0-7.4-1.81-28.35-13.06-7.23-3.88-15.47-8.3-23.86-12.62-26.12-13.58-43-20.48-47.21-21.35-4.77,2-15.19,14.48-16.75,20.15,1.82,4.63,11.24,20.51,27.79,43.53,6.24,8.77,12.63,17.34,18.07,24.61,12.94,17.35,15.06,20.37,15.7,23.89.63,3.79.16,9.54-8.53,21.05,0,0-16.67,22.24-20,23.59l-2.13.67h-1.6c-3.63,0-10.12-1.65-27.73-6.36-8-2.14-17.16-4.59-26.46-6.9-22.91-5.73-42.89-9.64-51-9.8-4.19,3.13-11.34,17.52-11.56,23.4,2.86,4.1,15.69,17.37,37.1,35.93,8.11,7.11,16.33,14,23.3,19.83,16.53,13.83,19.29,16.28,20.75,19.6s2.38,8.93-3.21,21.88l-3.21,7.21c-4.5,14.67-8.06,18.79-11,20.88-2.61,1.81-5.69,2.13-13.06,2.13-4.88,0-11.55-.18-19.18-.39-8.21-.23-17.56-.49-27-.57-3,0-5.9,0-8.83,0-25.52,0-39.21,1.3-43,2.28-3.36,3.9-7,19.68-5.85,25.54,3.72,3.3,19.25,13.2,44.4,26.34,9.48,5,19,9.73,27.13,13.77,19.42,9.65,22.69,11.41,24.88,14.28s4.61,8.65,1.59,24.05l-1.09,5.82c-1,15.3-3.48,20.11-5.9,22.91-2.8,3.09-6.1,3.92-30.68,9-8.1,1.7-17.36,3.63-26.68,5.76-28.43,6.36-45.7,11.88-49.88,14.09-2.37,4.61-2.32,20.8.12,26.11,4.4,2.39,21.84,8.5,49.32,15.47,10.49,2.75,21,5.23,29.89,7.33,20.79,4.91,24.32,5.85,27.21,8.18,1.83,1.59,6.54,5.68,7,24L469,826c2.53,15.12,1.2,20.41-.55,23.71-2,3.59-5.05,5.16-27.89,15.83-7.47,3.49-16,7.46-24.53,11.65-26.26,12.71-41.81,22.05-45.35,25.17-1.25,5,2.56,20.77,6.19,25.42,4.82,1.32,23.18,3.25,51.52,3.7,7.87.17,15.72.2,22.93.2l13.55,0c16.33,0,19.69.24,22.54,1.65,4.76,2.4,8.37,8.06,11.49,18.29l2.31,8.07c5.94,14.21,6,19.49,5,23.25-1.13,4-3.71,6.2-23.46,21.88-6.46,5.13-13.82,11-21.15,17-22.56,18.42-35.52,31.13-38.26,35,0,5.18,7.27,19.57,11.91,23.3h.4c7.52,0,28.31-3.43,50.58-8.35,10.46-2.26,20.81-4.74,29.6-6.85,15.32-3.68,22.24-5.32,25.77-5.32l1.55,0,1,.25c3.48.84,8.81,3.51,16.12,16.43l3.35,6c9.14,12.52,10.34,17.81,10.27,21.45-.15,4.18-2.16,7-17.93,27-5.06,6.44-10.81,13.75-16.49,21.23-18.66,24.46-27.49,38.78-29.15,42.87,1.14,5,11.59,17.39,16.95,19.94,4.89-1,22.13-7.55,47.68-19.89,9.75-4.63,19.35-9.48,27.48-13.59,19.23-9.71,22.57-11.27,26.12-11.27,5.74,0,12,4.07,20.34,13.27l3.86,4.18c9.45,8.06,13.78,13.44,14.85,18.41.81,4.1-.5,7.26-11.18,30.26-3.47,7.46-7.41,15.94-11.24,24.59-11.93,26.61-17.84,43.76-18.56,48.43,2.29,4.69,15.49,14.43,21,15.54,4.47-2,19.8-12.38,41.91-30.34,8.34-6.69,16.49-13.54,23.42-19.36,16.65-14,19.58-16.33,23.08-17.15a12.8,12.8,0,0,1,2.94-.32c2,0,7.78,0,20.84,9.24l3.58,2.41c15.67,8,17.8,12.5,18.81,14.6,1.72,3.78,1.19,7.13-3.85,31.71-1.67,8.13-3.58,17.42-5.33,26.86-5.49,28.63-7.29,46.66-6.9,51.36,3,3.69,16.31,9.82,24.19,10.16,4.07-3.27,16.5-16.81,33.63-39.07,6.57-8.44,12.91-17,18.3-24.26,12.95-17.47,15.26-20.39,18.43-22a15.43,15.43,0,0,1,6.92-1.47c4.75,0,11,1.59,19.31,5l3.38,1.21c14.78,3.67,19.07,6.94,21.34,9.76,2.55,3.28,2.81,6.68,3.6,31.83.26,8.27.56,17.7,1,27.22,1.32,29.1,3.76,47,5.23,51.58,2.78,2,12.2,4.74,21.07,4.74a22.65,22.65,0,0,0,4.77-.4c1.68-2.15,5.09-7.85,9.68-16.68V1123.24C794.12,1079.69,673.8,930.85,673.8,754.45Z"/></g></svg>