<svg xmlns="http://www.w3.org/2000/svg" viewBox="0 0 98.77 40.94"><defs><style>.cls-1{fill:#f1592a;}.cls-2{fill:#f79029;}</style></defs><g id="text"><polygon class="cls-1" points="18.53 20.47 0 20.47 0 19.09 18.53 15.48 18.53 20.47"/><polygon class="cls-1" points="38.59 20.47 20.06 20.47 20.06 15.19 38.59 11.61 38.59 20.47"/><polygon class="cls-1" points="58.65 20.47 40.12 20.47 40.12 11.32 58.65 7.74 58.65 20.47"/><polygon class="cls-1" points="78.71 20.47 60.18 20.47 60.18 7.45 78.71 3.87 78.71 20.47"/><polygon class="cls-1" points="98.77 20.47 80.24 20.47 80.24 3.58 98.77 0 98.77 20.47"/><rect class="cls-2" y="20.47" width="18.53" height="20.47"/><rect class="cls-2" x="20.06" y="20.47" width="18.53" height="20.47"/><rect class="cls-2" x="40.12" y="20.47" width="18.53" height="20.47"/><rect class="cls-2" x="60.18" y="20.47" width="18.53" height="20.47"/><rect class="cls-2" x="80.24" y="20.47" width="18.53" height="20.47"/></g></svg>