<svg xmlns="http://www.w3.org/2000/svg" viewBox="0 0 250 160"><defs><style>.cls-1{isolation:isolate;}.cls-2{opacity:0.4;mix-blend-mode:multiply;}.cls-3{fill:#065a89;}</style></defs><g class="cls-1"><g id="gauge_real-time_monitoring" data-name="gauge real-time monitoring"><g class="cls-2"><path class="cls-3" d="M141.44,42.68H52.82c-2.67,0-3.13,1.54-1,3.44l55.51,50a5.83,5.83,0,0,0,7.64,0L147.48,66.8a34.05,34.05,0,0,1-6-24.12Z"/><path class="cls-3" d="M83.08,83.27,46.31,50.17c-2.11-1.9-3.82-.93-3.82,2.16v82.09c0,3.09,1.5,3.78,3.35,1.56L83.55,90.74A5.45,5.45,0,0,0,83.08,83.27Z"/><path class="cls-3" d="M133.22,94.79a5,5,0,0,0-7.17-.59l-11.1,10a5.83,5.83,0,0,1-7.64,0l-11.1-10a5,5,0,0,0-7.18.59L51.34,140c-1.86,2.22-1.19,4,1.48,4H169.44c2.67,0,3.34-1.81,1.48-4Z"/><path class="cls-3" d="M151.86,71.86,139.18,83.27a5.45,5.45,0,0,0-.47,7.47L176.42,136c1.85,2.22,3.35,1.53,3.35-1.56V81a35.67,35.67,0,0,1-4.29.27A34.18,34.18,0,0,1,151.86,71.86Z"/></g></g></g></svg>