<svg xmlns="http://www.w3.org/2000/svg" xmlns:xlink="http://www.w3.org/1999/xlink" viewBox="0 0 85.3 82.57"><defs><style>.cls-1{fill:none;}.cls-2{clip-path:url(#clip-path);}.cls-3{fill:#1f326b;stroke:#1f326b;stroke-miterlimit:10;stroke-width:6px;opacity:0.1;}.cls-4{fill:#f1592a;}</style><clipPath id="clip-path"><rect class="cls-1" x="-978.5" width="957" height="1920"/></clipPath></defs><g id="gears"><g class="cls-2"><path class="cls-3" d="M114.82,1457.48c-5.12,0-8.08-.72-9.29-1.19-2.46-4.11-8.92-21-16.9-49-2.62-9.06-5.06-18.09-7.19-26-6.63-24.52-7.66-27.8-10.93-30.42-3-2.35-7.91-4.46-23.63-4.57l-3.07-.26a83.8,83.8,0,0,0-12.53-1.25c-6.3,0-10.67,1.19-13.76,3.76-2.73,2.32-4.31,5.72-12.93,25.88-3.53,8.28-7.68,18-12.08,27.65C-19.06,1427.89-28.06,1444-31.18,1448a22.65,22.65,0,0,1-4.77.4c-8.87,0-18.29-2.73-21.07-4.74-1.47-4.53-3.91-22.48-5.23-51.58-.48-9.52-.78-19-1-27.22-.79-25.15-1.05-28.55-3.6-31.83-2.27-2.82-6.56-6.09-21.34-9.76l-3.38-1.21c-8.33-3.39-14.56-5-19.31-5a15.43,15.43,0,0,0-6.92,1.47c-3.17,1.6-5.48,4.52-18.43,22-5.39,7.27-11.73,15.82-18.3,24.26-17.13,22.26-29.56,35.8-33.63,39.07-7.88-.34-21.17-6.47-24.19-10.16-.39-4.7,1.41-22.73,6.9-51.36,1.75-9.44,3.66-18.73,5.33-26.86,5-24.58,5.57-27.93,3.85-31.71-1-2.1-3.14-6.56-18.81-14.6l-3.58-2.41c-13.06-9.24-18.87-9.24-20.84-9.24a12.8,12.8,0,0,0-2.94.32c-3.5.82-6.43,3.13-23.08,17.15-6.93,5.82-15.08,12.67-23.42,19.36-22.11,18-37.44,28.29-41.91,30.34-5.52-1.11-18.72-10.85-21-15.54.72-4.67,6.63-21.82,18.56-48.43,3.83-8.65,7.77-17.13,11.24-24.59,10.68-23,12-26.16,11.18-30.26-1.07-5-5.4-10.35-14.85-18.41l-3.86-4.18c-8.32-9.2-14.6-13.24-20.34-13.27-3.55,0-6.89,1.56-26.12,11.27-8.13,4.11-17.73,9-27.48,13.59-25.55,12.34-42.79,18.89-47.68,19.89-5.36-2.55-15.81-14.9-16.95-19.94,1.66-4.09,10.49-18.41,29.15-42.87,5.68-7.48,11.43-14.79,16.49-21.23,15.77-20,17.78-22.8,17.93-27,.07-3.64-1.13-8.93-10.27-21.45l-3.35-6c-7.31-12.92-12.64-15.59-16.12-16.43l-1-.25-1.55,0c-3.53,0-10.45,1.64-25.77,5.32-8.79,2.11-19.14,4.59-29.6,6.85-22.27,4.92-43.06,8.35-50.58,8.35h-.4c-4.64-3.73-12-18.12-11.91-23.3,2.74-3.86,15.7-16.57,38.26-35,7.33-6,14.69-11.88,21.15-17,19.75-15.68,22.33-17.9,23.46-21.88,1-3.76.94-9-5-23.25l-2.31-8.07c-3.12-10.23-6.73-15.89-11.49-18.29-2.85-1.41-6.21-1.65-22.54-1.65l-13.55,0c-7.21,0-15.06,0-22.93-.2-28.34-.45-46.7-2.38-51.52-3.7-3.63-4.65-7.44-20.43-6.19-25.42,3.54-3.12,19.09-12.46,45.35-25.17,8.54-4.19,17.06-8.16,24.53-11.65,22.84-10.67,25.88-12.24,27.89-15.83,1.75-3.3,3.08-8.59.55-23.71l-.23-4.88c-.47-18.35-5.18-22.44-7-24-2.89-2.33-6.42-3.27-27.21-8.18-8.89-2.1-19.4-4.58-29.89-7.33-27.48-7-44.92-13.08-49.32-15.47-2.44-5.31-2.49-21.5-.12-26.11,4.18-2.21,21.45-7.73,49.88-14.09,9.32-2.13,18.58-4.06,26.68-5.76,24.58-5.13,27.88-6,30.68-9,2.42-2.8,4.88-7.61,5.9-22.91l1.09-5.82c3-15.4.59-21.07-1.59-24.05s-5.46-4.63-24.88-14.28c-8.1-4-17.65-8.79-27.13-13.77-25.15-13.14-40.68-23-44.4-26.34-1.17-5.86,2.49-21.64,5.85-25.54,3.76-1,17.45-2.28,43-2.28,2.93,0,5.88,0,8.83,0,9.43.08,18.78.34,27,.57,7.63.21,14.3.39,19.18.39,7.37,0,10.45-.32,13.06-2.13,3-2.09,6.53-6.21,11-20.88l3.21-7.21c5.59-13,4.57-18.64,3.21-21.88s-4.22-5.77-20.75-19.6c-7-5.84-15.19-12.72-23.3-19.83-21.41-18.56-34.24-31.83-37.1-35.93.22-5.88,7.37-20.27,11.56-23.4,8.08.16,28.06,4.07,51,9.8,9.3,2.31,18.45,4.76,26.46,6.9,17.61,4.71,24.1,6.36,27.73,6.36h1.6l2.13-.67c3.34-1.35,20-23.59,20-23.59,8.69-11.51,9.16-17.26,8.53-21.05-.64-3.52-2.76-6.54-15.7-23.89-5.44-7.27-11.83-15.84-18.07-24.61-16.55-23-26-38.9-27.79-43.53,1.56-5.67,12-18.19,16.75-20.15,4.23.87,21.09,7.77,47.21,21.35,8.39,4.32,16.63,8.74,23.86,12.62,20.95,11.25,24.59,13.06,28.35,13.06h.5l.59-.06c5.19-.81,27.05-20.14,27.05-20.14,7.41-6.49,10.85-11.77,11.17-16.81.19-3.6-1.2-7.09-10-27.27-3.58-8.25-7.77-17.9-11.76-27.68-10.84-26.3-16.36-43.9-17.07-48.8,2.81-5.17,15.77-14.91,20.88-15.74,4,1.89,17.77,11.54,41.11,31.58,7.15,6.12,14.14,12.31,20.28,17.75,19,16.86,21.7,19,25.85,19.43l1.13.05c4.8,0,28.81-13,28.81-13,11.7-6.07,14.51-10.73,15.58-14.22s.45-7.21-3.39-28.67c-1.6-8.88-3.46-19.32-5.1-29.85-4.49-28-5.81-46.35-5.38-51.34,3.56-3.82,16.91-10.48,23.83-10.48l.25,0c3.77,3.08,15.59,16.7,32.58,40.12,5.58,7.63,11,15.31,15.68,22,14.6,20.77,16.63,23.48,20.7,24.82a15.12,15.12,0,0,0,4.7.68C-108,191.32-85,185-85,185c12.8-3.21,16.62-7.09,18.48-10.25s2.11-6.89,3.35-28.69c.52-9,1.12-19.55,2-30.15,2.13-28.21,5.11-46.39,6.7-51.18,3.19-2.08,12.82-5.11,21.4-5.11a18.52,18.52,0,0,1,4.4.42c3,3.85,11.32,19.9,22.42,46.69C-2.6,115.5.86,124.22,3.9,131.87c9.36,23.52,10.75,26.64,14.29,28.87,2.95,1.79,6.79,2.56,12.56,2.56,4,0,20.43-.58,20.43-.58,10.14-.14,16.32-1.93,19.95-5.76,2.43-2.63,3.61-6.19,9.86-27.17,2.57-8.63,5.59-18.76,8.84-28.85,8.51-26.94,15.58-44,18.24-48.3a35,35,0,0,1,10.41-1.26c8.09,0,13.78,1.56,15.73,2.62,2,4.35,6.48,21.89,11.18,50.58,1.57,9.37,3,18.66,4.18,26.8,3.74,25,4.39,28.34,7.31,31.3,2.59,2.57,7.28,5.36,22.62,7.25l2.68.59c7.37,2.07,13,3,17.42,3a17.14,17.14,0,0,0,9.55-2.38c3-2,5-5.18,15.65-23.83,4.52-7.91,9.86-17.23,15.45-26.47,14.53-24.29,25.35-39.24,28.92-42.8A10.72,10.72,0,0,1,270.6,78c8.37,0,20.63,4.59,23.7,7.43.94,4.67,1.26,22.79-.83,51.79-.64,9.64-1.46,19.13-2.17,27.43-2.15,24.89-2.29,28.28-.11,31.83,2.65,4.25,8.52,7.82,20.07,12.18l3.69,1.86c9,4.88,15.4,7.07,20.38,7.07a14.31,14.31,0,0,0,4.71-.75c3.41-1.29,6-3.88,20.7-19.51,6.25-6.64,13.62-14.49,21.21-22.19,19.74-20.22,33.71-32.24,38-34.92,6.32.7,20,8.55,22.77,13-.17,4.7-4.05,22.38-12.81,50.23-2.79,9-5.73,17.88-8.31,25.67-8,24.12-8.91,27.42-7.63,31.38,1.17,3.47,4.11,8.05,17,16.72l3.69,3.19c12.57,11.25,18.68,11.31,20.79,11.31l1.39-.07c3.6-.45,6.76-2.39,24.86-14.34,7.57-5,16.47-10.86,25.55-16.56,23.94-15.2,40.32-23.67,45.07-25.23,5.62,1.89,17.42,12.92,19.14,17.8-1.25,4.57-9.11,20.92-24,46-4.78,8.1-9.64,16-13.93,23-13.33,21.71-15,24.71-14.68,28.88.35,3.65,2.16,8.74,12.57,20l3.77,5.17c8.9,12.32,14.4,14.51,18.27,15l.53.07h.68c3.28,0,7.63-1.49,26.49-8.41,8.46-3.11,18.4-6.76,28.45-10.2,24.57-8.49,44-13.74,49.71-14.21,5,3.09,13.91,16.59,14.48,21.75-2.28,4.17-13.67,18.28-33.93,39.22-6.58,6.86-13.21,13.53-19,19.38-17.79,17.86-20.09,20.38-20.73,24.48-.53,3.82.1,9.07,7.66,22.43l3,7.08c4.43,10.28,8.75,15.69,13.84,17.55a12.67,12.67,0,0,0,4.54.67c4.11,0,12.38-1,23.84-2.36,9-1.08,19.72-2.36,30.47-3.39,16.78-1.71,33-2.71,43.34-2.71a66,66,0,0,1,8.3.36c4.12,4.21,9.7,19.38,9.07,24.55-3.18,3.52-17.53,14.59-42.08,30.28-8,5.11-15.91,10-22.9,14.36-21.57,13.33-24.41,15.26-26,19.11-1.38,3.5-2,8.71,2.2,23.37l1.6,9.38c2,10.12,4.73,15.74,9,18.62,3.09,2,6.73,2.51,28.09,5,9,1.05,19.71,2.28,30.39,3.76,28.14,3.79,46.16,7.85,50.79,9.72,3,5,5,21.11,3.13,25.94-3.85,2.67-20.36,10.11-47.94,19.73-9,3.16-17.91,6.13-25.74,8.73-23.9,7.94-27.08,9.15-29.51,12.46-1.38,2-4.14,6.11-3.29,23.44l-.47,6.74c-1.1,15.06,1.91,20.31,4.37,23s6.11,4.06,27,11.58c8.39,3,18.19,6.56,28,10.32,26.55,10.16,43.12,18.19,47.19,21,1.82,5.6,0,21.68-2.88,26-4.39,1.7-22.16,5.19-51.18,8.25-9.3,1-18.52,1.83-26.64,2.56-25.48,2.3-28.91,2.75-32.06,5.53-3.69,3.33-6.16,9.69-8.43,21.72l-2,6.37c-4.56,14.52-3,20.23-1.08,23.61,1.83,3.1,4.89,5.24,23.16,17.18,7.55,4.93,16.42,10.73,25.2,16.75,23.44,16,37.74,27.66,41.06,31.41.47,5.81-5,21.08-8.82,24.63a41,41,0,0,1-5,.22h0c-9.77,0-27.22-1.52-46.68-4.09-9.45-1.19-18.76-2.54-26.92-3.73-14.07-2-22.23-3.19-26.45-3.19a11.7,11.7,0,0,0-5.65,1.2c-4.36,2.36-8.28,8-13.29,19.28l-4.73,8.07c-5.1,9.07-6.58,15.24-5.11,20.28,1,3.37,3.46,6.13,18.27,21.78,6.26,6.62,13.64,14.43,20.87,22.45,19.12,21,30.33,35.64,32.69,40.05-.89,5.78-9.8,19.39-14.3,21.89-5.27-.45-23.73-5.93-49.38-15.7-8.9-3.33-17.63-6.79-25.29-9.83-19.83-7.85-24.82-9.68-28.37-9.68h-1.06l-1.31.29c-3.59,1-8.35,3.66-17.6,15.9l-4.3,4.45c-10.66,10.92-11.88,16.76-11.69,20.68.26,3.64,2,6.92,12.91,25.7,4.54,7.83,9.87,17,15,26.41,13.77,24.8,21.28,41.64,22.57,46.46-2.23,5.48-13.91,16.6-18.89,18.06-4.5-1.52-20.36-10.31-44.49-26.62-7.91-5.3-15.62-10.68-22.38-15.39-20.58-14.35-23.44-16.18-27.57-16.18-3.85.14-9.11,1.64-21,11.45l-7,4.53c-11.34,7.55-13.64,12.62-14.32,16.3-.59,3.53.39,7.12,6.69,27.95,2.62,8.65,5.71,18.82,8.56,29.11,7.72,27.29,11.17,45.41,11.32,50.42-3.13,4.27-16.32,12.79-22.62,13.21-4.06-2.57-17.45-14.75-37.12-36.13-6.45-7-12.71-14-18.21-20.1-16.83-18.83-19.21-21.28-23.3-22.16a13.35,13.35,0,0,0-2.77-.29c-4.54,0-10.61,2-20.09,6.67l-7.54,2.63c-13,4.74-16.44,9.19-17.95,12.65-1.4,3.3-1.29,7,0,28.58.55,9.06,1.19,19.75,1.6,30.49,1.19,28.29.35,46.72-.67,51.65-3.39,2.83-15.2,7.69-23.48,7.69a12.11,12.11,0,0,1-1.61-.08c-3.37-3.46-13.56-18.42-27.71-43.77-4.71-8.34-9.22-16.68-13.16-24-11.92-22.07-13.66-25-17.44-26.76a17.63,17.63,0,0,0-7.56-1.41c-5.37,0-12.34,1.43-16.27,2.32l-8.41.87c-13.27,1.64-17.56,5.12-19.8,8.09-2.1,2.81-2.87,6.48-6.66,28-1.56,8.89-3.38,19.32-5.46,29.74-5.39,27.77-10.47,45.49-12.6,50.08C129.15,1455.87,122.66,1457.48,114.82,1457.48ZM77,372.71C-133.46,372.71-304.7,544-304.7,754.45S-133.46,1136.13,77,1136.13s381.7-171.23,381.7-381.68S287.49,372.71,77,372.71Z"/></g></g><g id="Securities_vs_Commodities_margin" data-name="Securities vs Commodities margin"><path class="cls-4" d="M30.13,11.68c-2.92,5.82,2.39,22.89-9.25,29.06V43a3.2,3.2,0,1,1-6.39,0V40.74C2.84,34.57,8.15,17.5,5.24,11.68A25.41,25.41,0,0,1,10.74,15V27.63c0,2.81,0,11.36,6.94,11.36s6.94-8.55,6.94-11.36V15A25.59,25.59,0,0,1,30.13,11.68Zm-6.63.43V27.63c0,4.89-.82,10.24-5.82,10.24s-5.82-5.35-5.82-10.24V12.11C11.86,5.42,14.47,0,17.68,0S23.5,5.42,23.5,12.11Zm-7.14,7.15a.38.38,0,0,0,.37.37h1.91a.37.37,0,0,0,.36-.37V18.6a.36.36,0,0,0-.36-.36H16.73a.37.37,0,0,0-.37.36Zm4.24-9a.37.37,0,0,0-.36.37l0,.66a.38.38,0,0,0,.38.36h1.22a.34.34,0,0,0,.35-.36l0-.66a.4.4,0,0,0-.39-.37Zm-.17-2.66A.32.32,0,0,0,20.1,8l0,.66a.41.41,0,0,0,.39.37h1.12A.3.3,0,0,0,22,8.62L21.85,8a.47.47,0,0,0-.44-.36Zm-4.07,17a.37.37,0,0,0,.37.36h1.91a.36.36,0,0,0,.36-.36v-.66a.37.37,0,0,0-.36-.37H16.73a.38.38,0,0,0-.37.37Zm0,2.66a.37.37,0,0,0,.37.36h1.91a.36.36,0,0,0,.36-.36v-.66a.37.37,0,0,0-.36-.37H16.73a.38.38,0,0,0-.37.37Zm2.5,4.66a.32.32,0,0,0-.33-.36H16.84a.32.32,0,0,0-.33.36l0,.66a.43.43,0,0,0,.41.37H18.4a.42.42,0,0,0,.4-.37Zm-2.5-10a.38.38,0,0,0,.37.37h1.91a.37.37,0,0,0,.36-.37v-.66a.36.36,0,0,0-.36-.36H16.73a.37.37,0,0,0-.37.36Zm2.64-6a.36.36,0,0,0-.36-.36H16.73a.37.37,0,0,0-.37.36v.66a.37.37,0,0,0,.37.36h1.91A.36.36,0,0,0,19,16.6Zm1.64,5a.36.36,0,0,0-.36.36v.66a.37.37,0,0,0,.36.37h1.23a.37.37,0,0,0,.36-.37v-.66a.36.36,0,0,0-.36-.36Zm0,5.32a.37.37,0,0,0-.36.37v.66a.36.36,0,0,0,.36.36h1.23a.36.36,0,0,0,.36-.36v-.66a.37.37,0,0,0-.36-.37Zm0,2.67a.37.37,0,0,0-.37.36l0,.66a.36.36,0,0,0,.36.36h1.16a.4.4,0,0,0,.39-.36l0-.66a.34.34,0,0,0-.35-.36Zm-.55,3.68a.33.33,0,0,0,.33.37h.91a.49.49,0,0,0,.45-.36l.13-.67a.29.29,0,0,0-.3-.36H20.53a.39.39,0,0,0-.39.36ZM19.89,6a.44.44,0,0,0,.41.37h.8A.26.26,0,0,0,21.36,6l-.24-.7a.56.56,0,0,0-.49-.34h-.52a.3.3,0,0,0-.31.36Zm.75,7a.37.37,0,0,0-.36.37v.66a.36.36,0,0,0,.36.36h1.23a.36.36,0,0,0,.36-.36v-.66a.37.37,0,0,0-.36-.37Zm0,2.67a.36.36,0,0,0-.36.36v.66a.36.36,0,0,0,.36.36h1.23a.36.36,0,0,0,.36-.36v-.66a.36.36,0,0,0-.36-.36Zm0,2.66a.36.36,0,0,0-.36.36v.66a.37.37,0,0,0,.36.37h1.23a.37.37,0,0,0,.36-.37V18.6a.36.36,0,0,0-.36-.36Zm0,5.32a.37.37,0,0,0-.36.37v.66a.36.36,0,0,0,.36.36h1.23a.36.36,0,0,0,.36-.36v-.66a.37.37,0,0,0-.36-.37Zm-3,12.4c.78,0,.78-1.49.78-1.53a.22.22,0,0,0-.25-.22H17.16c-.16,0-.26.1-.25.23S16.9,36,17.68,36ZM14.73,19.63a.37.37,0,0,0,.36-.37V18.6a.36.36,0,0,0-.36-.36H13.5a.36.36,0,0,0-.36.36v.66a.37.37,0,0,0,.36.37Zm0,10.64a.34.34,0,0,0,.35-.36v-.66a.38.38,0,0,0-.37-.36H13.52a.34.34,0,0,0-.34.36l0,.66a.39.39,0,0,0,.39.36Zm0-2.66a.36.36,0,0,0,.36-.36v-.66a.37.37,0,0,0-.36-.37H13.5a.37.37,0,0,0-.36.37v.66a.36.36,0,0,0,.36.36Zm0-2.66a.36.36,0,0,0,.36-.36v-.66a.37.37,0,0,0-.36-.37H13.5a.37.37,0,0,0-.36.37v.66a.36.36,0,0,0,.36.36Zm0-8a.36.36,0,0,0,.36-.36v-.66a.36.36,0,0,0-.36-.36H13.5a.36.36,0,0,0-.36.36v.66a.36.36,0,0,0,.36.36Zm0,5.33a.37.37,0,0,0,.36-.37v-.66a.36.36,0,0,0-.36-.36H13.5a.36.36,0,0,0-.36.36v.66a.37.37,0,0,0,.36.37ZM15,32.94a.34.34,0,0,0,.33-.37l-.06-.66a.4.4,0,0,0-.39-.36H13.76a.3.3,0,0,0-.3.36l.14.67a.49.49,0,0,0,.45.36Zm.64,1.62a.51.51,0,0,0-.46-.35h-.65c-.14,0-.21.06-.21.15a2,2,0,0,0,.55,1.06,1.69,1.69,0,0,0,.94.4c.22,0,.09-.37.09-.37Zm3.88.89s-.13.42.09.37a1.69,1.69,0,0,0,.94-.4,2.14,2.14,0,0,0,.56-1.06c0-.09-.08-.15-.22-.15H20.2a.49.49,0,0,0-.45.35ZM15.56,5.29a.3.3,0,0,0-.31-.36h-.52a.53.53,0,0,0-.48.34L14,6a.26.26,0,0,0,.26.35h.79A.43.43,0,0,0,15.47,6ZM15.27,8a.33.33,0,0,0-.34-.36H14a.46.46,0,0,0-.43.36l-.11.67a.29.29,0,0,0,.3.36h1.12a.4.4,0,0,0,.39-.37Zm-.54,6.35a.36.36,0,0,0,.36-.36v-.66a.37.37,0,0,0-.36-.37H13.5a.37.37,0,0,0-.36.37v.66a.36.36,0,0,0,.36.36Zm2.53-11a.25.25,0,0,0,.26.35h.32a.26.26,0,0,0,.27-.35l-.29-.88c-.07-.18-.2-.18-.28,0ZM16.75,6a.31.31,0,0,0,.31.36h1.25A.31.31,0,0,0,18.62,6l-.1-.67a.44.44,0,0,0-.42-.36h-.83a.46.46,0,0,0-.43.36Zm-.39,8a.37.37,0,0,0,.37.36h1.91a.36.36,0,0,0,.36-.36v-.66a.37.37,0,0,0-.36-.37H16.73a.38.38,0,0,0-.37.37Zm2.19-5a.34.34,0,0,0,.34-.37L18.84,8a.41.41,0,0,0-.4-.36H16.92a.39.39,0,0,0-.39.36l-.05.66a.34.34,0,0,0,.34.37ZM19,29.25a.36.36,0,0,0-.36-.36H16.74a.36.36,0,0,0-.36.36l0,.66a.37.37,0,0,0,.37.36h1.82a.38.38,0,0,0,.38-.36ZM14.73,11.64a.37.37,0,0,0,.37-.36l0-.66a.35.35,0,0,0-.35-.37H13.58a.4.4,0,0,0-.39.37l0,.66a.34.34,0,0,0,.35.36Zm1.64-.36a.36.36,0,0,0,.36.36h1.9a.35.35,0,0,0,.36-.36v-.66a.38.38,0,0,0-.37-.37H16.76a.38.38,0,0,0-.37.37Zm-.88-7.63A.49.49,0,0,0,16,3.3l.25-.79s0-.17,0-.2a.42.42,0,0,0-.39.11,5.53,5.53,0,0,0-.62.93c-.1.17,0,.3.17.3Zm4.56,0c.2,0,.28-.13.17-.3a5.53,5.53,0,0,0-.62-.93.42.42,0,0,0-.39-.11c-.07,0,0,.18,0,.2l.25.79a.5.5,0,0,0,.46.35Z"/><path class="cls-4" d="M51.61,4.84V4.22a.87.87,0,0,1,.86-.86h4.24a.87.87,0,0,1,.86.86v.62ZM75.48,20.37v8A1.62,1.62,0,0,1,76.93,30a1.61,1.61,0,0,1-1.45,1.6v8a1.62,1.62,0,0,1-.17,3.23H48a1.62,1.62,0,0,1-.3-3.21v-8a1.62,1.62,0,0,1,0-3.18v-8a1.62,1.62,0,0,1,0-3.18v-8A1.62,1.62,0,0,1,48,5.92H75.31a1.62,1.62,0,0,1,.17,3.23v8a1.61,1.61,0,0,1,1.45,1.6A1.62,1.62,0,0,1,75.48,20.37Zm-8,6.09c0-4.47-4.64-7.27-5.88-11.54-1.25,4.27-5.88,7.07-5.88,11.54a5.88,5.88,0,1,0,11.76,0Z"/><path class="cls-4" d="M51.94,79.39a1.51,1.51,0,0,1-1.54,2H39.62a1.52,1.52,0,0,1-1.54-2l1-3.87a2.84,2.84,0,0,1,2.6-2h6.64a2.84,2.84,0,0,1,2.6,2Z"/><path class="cls-4" d="M68.59,79.39a1.52,1.52,0,0,1-1.54,2H56.27a1.52,1.52,0,0,1-1.55-2l1-3.87a2.84,2.84,0,0,1,2.6-2H65a2.84,2.84,0,0,1,2.6,2Z"/><path class="cls-4" d="M85.24,79.39a1.52,1.52,0,0,1-1.55,2H72.91a1.52,1.52,0,0,1-1.54-2l1-3.87a2.84,2.84,0,0,1,2.6-2h6.63a2.84,2.84,0,0,1,2.6,2Z"/><path class="cls-4" d="M60.27,69.35a1.53,1.53,0,0,1-1.55,2H47.94a1.52,1.52,0,0,1-1.54-2l1-3.87a2.84,2.84,0,0,1,2.6-2h6.63a2.84,2.84,0,0,1,2.6,2Z"/><path class="cls-4" d="M76.91,69.35a1.52,1.52,0,0,1-1.54,2H64.59a1.53,1.53,0,0,1-1.55-2l1-3.87a2.84,2.84,0,0,1,2.6-2H73.3a2.84,2.84,0,0,1,2.6,2Z"/><path class="cls-4" d="M68.59,59.32a1.52,1.52,0,0,1-1.54,2H56.27a1.52,1.52,0,0,1-1.55-2l1-3.87a2.84,2.84,0,0,1,2.6-2H65a2.84,2.84,0,0,1,2.6,2Z"/><path class="cls-4" d="M11,65.82a1.06,1.06,0,1,0,1.05,1.05A1.06,1.06,0,0,0,11,65.82Zm13.35,0a1.06,1.06,0,1,0,1.05,1.05A1.06,1.06,0,0,0,24.36,65.82Zm-7.94,8.59V72a.65.65,0,0,0-1.3,0v2.37a.65.65,0,0,0,1.3,0Zm3.82,0V72A.65.65,0,0,0,19,72v2.37a.65.65,0,0,0,1.29,0Zm13-12.9a9.41,9.41,0,0,1-4.2,2.7,12.1,12.1,0,0,1,1.43,5.56c0,6.24-5.74,12.8-12.81,12.8S4.88,76,4.88,69.77a12.1,12.1,0,0,1,1.43-5.56,9.44,9.44,0,0,1-4.2-2.7C-.85,58,.17,52.27.17,52.27s5.8,0,8.76,3.51a8.76,8.76,0,0,1,1.71,3.49,12.24,12.24,0,0,1,7-2.3,12.24,12.24,0,0,1,7.05,2.3,8.76,8.76,0,0,1,1.71-3.49c2.95-3.52,8.76-3.51,8.76-3.51S36.21,58,33.26,61.51ZM22.18,73.19c0-2.06-2-3.73-4.5-3.73s-4.49,1.67-4.49,3.73,2,3.73,4.49,3.73S22.18,75.25,22.18,73.19Z"/></g></svg>