<svg xmlns="http://www.w3.org/2000/svg" viewBox="0 0 250 160"><defs><style>.cls-1{isolation:isolate;}.cls-2,.cls-3{fill:#065a89;mix-blend-mode:multiply;}.cls-2{opacity:0.25;}.cls-3{opacity:0.4;}</style></defs><g class="cls-1"><g id="gauge_real-time_monitoring" data-name="gauge real-time monitoring"><rect class="cls-2" x="11.35" y="37.56" width="191.57" height="19.09"/><rect class="cls-3" x="215.74" y="37.56" width="10.08" height="19.09"/><rect class="cls-3" x="228.57" y="37.56" width="10.08" height="19.09"/><rect class="cls-2" x="11.35" y="15.63" width="191.57" height="19.09"/><rect class="cls-3" x="202.92" y="37.56" width="10.08" height="19.09"/><rect class="cls-3" x="215.74" y="15.63" width="10.08" height="19.09"/><rect class="cls-3" x="228.57" y="15.63" width="10.08" height="19.09"/><rect class="cls-2" x="11.35" y="81.42" width="191.57" height="19.09"/><rect class="cls-3" x="202.92" y="81.42" width="10.08" height="19.09"/><rect class="cls-3" x="228.57" y="81.42" width="10.08" height="19.09"/><rect class="cls-2" x="11.35" y="59.49" width="191.57" height="19.09"/><rect class="cls-3" x="202.92" y="59.49" width="10.08" height="19.09"/><rect class="cls-3" x="215.74" y="59.49" width="10.08" height="19.09"/><rect class="cls-3" x="228.57" y="59.49" width="10.08" height="19.09"/><rect class="cls-2" x="11.35" y="125.28" width="191.57" height="19.09"/><rect class="cls-3" x="202.92" y="125.28" width="10.08" height="19.09"/><rect class="cls-3" x="215.74" y="125.28" width="10.08" height="19.09"/><rect class="cls-3" x="228.57" y="125.28" width="10.08" height="19.09"/><rect class="cls-2" x="11.35" y="103.35" width="191.57" height="19.09"/><rect class="cls-3" x="202.92" y="103.35" width="10.08" height="19.09"/><rect class="cls-3" x="215.74" y="103.35" width="10.08" height="19.09"/></g></g></svg>