<svg xmlns="http://www.w3.org/2000/svg" viewBox="0 0 250 160"><defs><style>.cls-1{fill:#f9ed32;opacity:0.8;}</style></defs><g id="gauge_real-time_monitoring" data-name="gauge real-time monitoring"><path class="cls-1" d="M177.48,15.94a30,30,0,1,0,30,30A30,30,0,0,0,177.48,15.94Zm3.25,48.56a4.34,4.34,0,0,1-3.2,1.26,4.55,4.55,0,0,1-3.24-1.24A4,4,0,0,1,173,61.45a4.61,4.61,0,0,1,1.28-3.39,4.49,4.49,0,0,1,3.37-1.31,4.12,4.12,0,0,1,3.1,1.31A4.48,4.48,0,0,1,182,61.3,4.34,4.34,0,0,1,180.73,64.5Zm-.24-14.17a1.71,1.71,0,0,1-1.64,1.6h-2.74a1.72,1.72,0,0,1-1.64-1.6l-1.91-22.54a1.41,1.41,0,0,1,1.37-1.6H181a1.4,1.4,0,0,1,1.36,1.6Q181.79,34,180.49,50.33Z"/></g></svg>