<svg xmlns="http://www.w3.org/2000/svg" xmlns:xlink="http://www.w3.org/1999/xlink" viewBox="0 0 66.37 62.44"><defs><style>.cls-1{fill:none;}.cls-2{clip-path:url(#clip-path);}.cls-3{fill:#1f326b;stroke:#1f326b;stroke-miterlimit:10;stroke-width:6px;opacity:0.1;}.cls-4{fill:#f1592a;}</style><clipPath id="clip-path"><rect class="cls-1" x="-1083.8" width="957" height="1920"/></clipPath></defs><g id="gears"><g class="cls-2"><path class="cls-3" d="M9.52,1457.48c-5.12,0-8.08-.72-9.29-1.19-2.46-4.11-8.93-21-16.9-49-2.62-9.06-5.06-18.09-7.2-26-6.62-24.52-7.65-27.8-10.92-30.42-3-2.35-7.91-4.46-23.63-4.57l-3.08-.26A83.59,83.59,0,0,0-74,1344.81c-6.3,0-10.67,1.19-13.76,3.76-2.73,2.32-4.31,5.72-12.93,25.88-3.54,8.28-7.69,18-12.08,27.65-11.57,25.79-20.57,41.89-23.7,45.88a22.45,22.45,0,0,1-4.76.4c-8.87,0-18.29-2.73-21.07-4.74-1.47-4.53-3.91-22.48-5.24-51.58-.47-9.52-.77-19-1-27.22-.79-25.15-1-28.55-3.61-31.83-2.26-2.82-6.56-6.09-21.33-9.76l-3.38-1.21c-8.34-3.39-14.56-5-19.31-5a15.44,15.44,0,0,0-6.93,1.47c-3.16,1.6-5.47,4.52-18.42,22-5.39,7.27-11.73,15.82-18.3,24.26-17.14,22.26-29.57,35.8-33.63,39.07-7.88-.34-21.17-6.47-24.19-10.16-.39-4.7,1.41-22.73,6.9-51.36,1.75-9.44,3.65-18.73,5.32-26.86,5.05-24.58,5.58-27.93,3.86-31.71-1-2.1-3.15-6.56-18.81-14.6l-3.58-2.41c-13.06-9.24-18.87-9.24-20.85-9.24a12.78,12.78,0,0,0-2.93.32c-3.51.82-6.43,3.13-23.08,17.15-6.93,5.82-15.09,12.67-23.42,19.36-22.11,18-37.44,28.29-41.91,30.34-5.52-1.11-18.72-10.85-21-15.54.72-4.67,6.62-21.82,18.56-48.43,3.82-8.65,7.77-17.13,11.23-24.59,10.69-23,12-26.16,11.19-30.26-1.07-5-5.4-10.35-14.85-18.41l-3.86-4.18c-8.32-9.2-14.6-13.24-20.35-13.27-3.54,0-6.88,1.56-26.11,11.27-8.14,4.11-17.73,9-27.48,13.59-25.55,12.34-42.79,18.89-47.68,19.89-5.36-2.55-15.81-14.9-17-19.94,1.65-4.09,10.49-18.41,29.15-42.87,5.68-7.48,11.43-14.79,16.49-21.23,15.76-20,17.78-22.8,17.92-27,.08-3.64-1.12-8.93-10.26-21.45l-3.35-6c-7.31-12.92-12.64-15.59-16.12-16.43l-1-.25-1.54,0c-3.53,0-10.45,1.64-25.77,5.32-8.79,2.11-19.14,4.59-29.6,6.85-22.27,4.92-43.06,8.35-50.59,8.35h-.4c-4.63-3.73-12-18.12-11.9-23.3,2.74-3.86,15.7-16.57,38.26-35,7.33-6,14.69-11.88,21.14-17,19.76-15.68,22.34-17.9,23.47-21.88,1-3.76.94-9-5-23.25l-2.31-8.07c-3.12-10.23-6.74-15.89-11.5-18.29-2.84-1.41-6.21-1.65-22.54-1.65l-13.54,0c-7.21,0-15.06,0-22.94-.2-28.33-.45-46.69-2.38-51.52-3.7-3.62-4.65-7.44-20.43-6.18-25.42,3.54-3.12,19.08-12.46,45.34-25.17,8.54-4.19,17.06-8.16,24.54-11.65,22.84-10.67,25.87-12.24,27.89-15.83,1.75-3.3,3.08-8.59.55-23.71l-.24-4.88c-.46-18.35-5.18-22.44-7-24-2.89-2.33-6.43-3.27-27.22-8.18-8.88-2.1-19.39-4.58-29.89-7.33-27.47-7-44.91-13.08-49.31-15.47-2.44-5.31-2.49-21.5-.12-26.11,4.18-2.21,21.45-7.73,49.87-14.09,9.33-2.13,18.58-4.06,26.69-5.76,24.58-5.13,27.88-6,30.68-9,2.41-2.8,4.88-7.61,5.9-22.91l1.09-5.82c3-15.4.59-21.07-1.59-24.05s-5.46-4.63-24.88-14.28c-8.11-4-17.65-8.79-27.13-13.77-25.15-13.14-40.68-23-44.41-26.34-1.16-5.86,2.5-21.64,5.86-25.54,3.75-1,17.45-2.28,43-2.28,2.93,0,5.88,0,8.82,0,9.44.08,18.79.34,27,.57,7.63.21,14.3.39,19.18.39,7.37,0,10.45-.32,13.06-2.13,3-2.09,6.53-6.21,11-20.88l3.21-7.21c5.59-13,4.57-18.64,3.21-21.88s-4.22-5.77-20.76-19.6c-7-5.84-15.18-12.72-23.29-19.83-21.42-18.56-34.24-31.83-37.11-35.93.23-5.88,7.38-20.27,11.57-23.4,8.08.16,28.06,4.07,51,9.8,9.3,2.31,18.45,4.76,26.47,6.9,17.61,4.71,24.1,6.36,27.73,6.36h1.6l2.13-.67c3.34-1.35,20-23.59,20-23.59,8.69-11.51,9.16-17.26,8.52-21.05-.63-3.52-2.76-6.54-15.7-23.89-5.43-7.27-11.83-15.84-18.06-24.61-16.55-23-26-38.9-27.79-43.53,1.56-5.67,12-18.19,16.75-20.15,4.22.87,21.08,7.77,47.21,21.35,8.39,4.32,16.62,8.74,23.86,12.62,20.94,11.25,24.59,13.06,28.35,13.06h.5l.59-.06c5.19-.81,27.05-20.14,27.05-20.14,7.4-6.49,10.85-11.77,11.17-16.81.18-3.6-1.21-7.09-10-27.27-3.58-8.25-7.78-17.9-11.77-27.68-10.83-26.3-16.36-43.9-17.07-48.8,2.81-5.17,15.78-14.91,20.89-15.74,4,1.89,17.77,11.54,41.11,31.58,7.15,6.12,14.14,12.31,20.28,17.75,19,16.86,21.69,19,25.85,19.43l1.13.05c4.8,0,28.81-13,28.81-13,11.7-6.07,14.5-10.73,15.58-14.22s.45-7.21-3.39-28.67c-1.6-8.88-3.47-19.32-5.11-29.85-4.49-28-5.81-46.35-5.37-51.34,3.56-3.82,16.91-10.48,23.82-10.48l.26,0c3.77,3.08,15.59,16.7,32.58,40.12,5.58,7.63,11,15.31,15.68,22,14.6,20.77,16.62,23.48,20.7,24.82a15.12,15.12,0,0,0,4.7.68c4.22,0,27.27-6.29,27.27-6.29,12.8-3.21,16.62-7.09,18.47-10.25s2.12-6.89,3.36-28.69c.52-9,1.12-19.55,2-30.15,2.13-28.21,5.11-46.39,6.69-51.18,3.2-2.08,12.82-5.11,21.41-5.11a18.52,18.52,0,0,1,4.4.42c3,3.85,11.32,19.9,22.42,46.69,3.67,8.74,7.13,17.46,10.17,25.11,9.35,23.52,10.75,26.64,14.29,28.87,3,1.79,6.78,2.56,12.56,2.56,4,0,20.42-.58,20.42-.58,10.15-.14,16.33-1.93,20-5.76,2.44-2.63,3.62-6.19,9.87-27.17,2.56-8.63,5.59-18.76,8.84-28.85C-7,74,.11,57,2.77,52.64a35,35,0,0,1,10.41-1.26c8.09,0,13.77,1.56,15.73,2.62,2,4.35,6.48,21.89,11.18,50.58,1.57,9.37,3,18.66,4.18,26.8,3.73,25,4.39,28.34,7.31,31.3,2.59,2.57,7.28,5.36,22.62,7.25l2.68.59c7.36,2.07,13,3,17.41,3a17.15,17.15,0,0,0,9.56-2.38c3-2,5-5.18,15.64-23.83,4.53-7.91,9.87-17.23,15.46-26.47,14.53-24.29,25.35-39.24,28.92-42.8a10.46,10.46,0,0,1,1.42-.07c8.37,0,20.64,4.59,23.71,7.43.93,4.67,1.26,22.79-.83,51.79-.65,9.64-1.47,19.13-2.17,27.43-2.15,24.89-2.29,28.28-.11,31.83,2.65,4.25,8.52,7.82,20.07,12.18l3.69,1.86c9,4.88,15.4,7.07,20.37,7.07a14.33,14.33,0,0,0,4.72-.75c3.41-1.29,6-3.88,20.7-19.51,6.25-6.64,13.62-14.49,21.21-22.19,19.74-20.22,33.71-32.24,38-34.92,6.31.7,20,8.55,22.77,13-.17,4.7-4.05,22.38-12.81,50.23-2.8,9-5.73,17.88-8.31,25.67-8,24.12-8.92,27.42-7.64,31.38,1.18,3.47,4.11,8.05,17,16.72l3.7,3.19c12.57,11.25,18.67,11.31,20.79,11.31l1.38-.07c3.61-.45,6.76-2.39,24.87-14.34,7.56-5,16.46-10.86,25.55-16.56,23.94-15.2,40.32-23.67,45.06-25.23,5.63,1.89,17.43,12.92,19.15,17.8-1.25,4.57-9.11,20.92-24,46-4.77,8.1-9.64,16-13.92,23-13.33,21.71-15,24.71-14.69,28.88.36,3.65,2.16,8.74,12.57,20l3.78,5.17c8.89,12.32,14.4,14.51,18.27,15l.53.07h.68c3.28,0,7.62-1.49,26.49-8.41,8.46-3.11,18.39-6.76,28.45-10.2,24.56-8.49,44-13.74,49.7-14.21,5,3.09,13.92,16.59,14.49,21.75-2.28,4.17-13.67,18.28-33.93,39.22-6.58,6.86-13.22,13.53-19,19.38-17.79,17.86-20.09,20.38-20.73,24.48-.53,3.82.1,9.07,7.66,22.43l3,7.08c4.42,10.28,8.75,15.69,13.83,17.55a12.77,12.77,0,0,0,4.55.67c4.1,0,12.38-1,23.84-2.36,9-1.08,19.72-2.36,30.47-3.39,16.78-1.71,33-2.71,43.34-2.71a66.28,66.28,0,0,1,8.3.36c4.12,4.21,9.7,19.38,9.06,24.55-3.17,3.52-17.52,14.59-42.08,30.28-7.94,5.11-15.9,10-22.89,14.36-21.57,13.33-24.41,15.26-26,19.11-1.38,3.5-2,8.71,2.21,23.37l1.6,9.38c1.95,10.12,4.73,15.74,9,18.62,3.08,2,6.73,2.51,28.09,5,9,1.05,19.7,2.28,30.38,3.76,28.15,3.79,46.16,7.85,50.79,9.72,3,5,5,21.11,3.14,25.94-3.85,2.67-20.36,10.11-48,19.73-9,3.16-17.9,6.13-25.73,8.73-23.9,7.94-27.09,9.15-29.51,12.46-1.38,2-4.14,6.11-3.3,23.44l-.47,6.74c-1.09,15.06,1.92,20.31,4.38,23s6.11,4.06,27,11.58c8.4,3,18.2,6.56,28,10.32,26.55,10.16,43.12,18.19,47.19,21,1.82,5.6,0,21.68-2.88,26-4.39,1.7-22.16,5.19-51.18,8.25-9.3,1-18.52,1.83-26.65,2.56-25.48,2.3-28.9,2.75-32.05,5.53-3.7,3.33-6.16,9.69-8.43,21.72l-2,6.37c-4.56,14.52-3,20.23-1.07,23.61,1.82,3.1,4.89,5.24,23.16,17.18,7.55,4.93,16.42,10.73,25.2,16.75,23.44,16,37.74,27.66,41.06,31.41.47,5.81-5,21.08-8.82,24.63a41,41,0,0,1-5,.22h0c-9.77,0-27.22-1.52-46.68-4.09-9.45-1.19-18.77-2.54-26.93-3.73-14.06-2-22.23-3.19-26.45-3.19a11.68,11.68,0,0,0-5.64,1.2c-4.37,2.36-8.28,8-13.29,19.28l-4.74,8.07c-5.09,9.07-6.57,15.24-5.11,20.28,1,3.37,3.47,6.13,18.28,21.78,6.25,6.62,13.64,14.43,20.86,22.45,19.13,21,30.34,35.64,32.7,40.05-.89,5.78-9.8,19.39-14.31,21.89-5.26-.45-23.73-5.93-49.37-15.7-8.9-3.33-17.63-6.79-25.29-9.83-19.83-7.85-24.82-9.68-28.37-9.68h-1.06l-1.31.29c-3.59,1-8.36,3.66-17.6,15.9l-4.3,4.45c-10.66,10.92-11.89,16.76-11.7,20.68.27,3.64,2,6.92,12.92,25.7,4.53,7.83,9.87,17,15,26.41,13.78,24.8,21.29,41.64,22.58,46.46-2.24,5.48-13.92,16.6-18.89,18.06-4.5-1.52-20.36-10.31-44.49-26.62-7.91-5.3-15.62-10.68-22.38-15.39-20.58-14.35-23.44-16.18-27.57-16.18-3.85.14-9.11,1.64-21,11.45l-7,4.53c-11.35,7.55-13.65,12.62-14.32,16.3-.59,3.53.38,7.12,6.69,27.95,2.62,8.65,5.7,18.82,8.56,29.11,7.72,27.29,11.17,45.41,11.32,50.42-3.13,4.27-16.32,12.79-22.62,13.21-4.06-2.57-17.45-14.75-37.12-36.13-6.45-7-12.71-14-18.21-20.1-16.83-18.83-19.22-21.28-23.3-22.16a13.5,13.5,0,0,0-2.77-.29c-4.54,0-10.61,2-20.1,6.67l-7.53,2.63c-13,4.74-16.44,9.19-18,12.65-1.41,3.3-1.29,7,0,28.58.56,9.06,1.2,19.75,1.61,30.49,1.19,28.29.35,46.72-.67,51.65-3.39,2.83-15.21,7.69-23.48,7.69a12.39,12.39,0,0,1-1.62-.08c-3.37-3.46-13.55-18.42-27.7-43.77-4.71-8.34-9.22-16.68-13.16-24-11.92-22.07-13.66-25-17.44-26.76a17.68,17.68,0,0,0-7.57-1.41c-5.36,0-12.33,1.43-16.26,2.32l-8.41.87c-13.27,1.64-17.56,5.12-19.8,8.09-2.1,2.81-2.87,6.48-6.66,28-1.56,8.89-3.38,19.32-5.46,29.74-5.4,27.77-10.47,45.49-12.61,50.08C23.85,1455.87,17.35,1457.48,9.52,1457.48ZM-28.29,372.71C-238.76,372.71-410,544-410,754.45s171.24,381.68,381.71,381.68S353.42,964.9,353.42,754.45,182.19,372.71-28.29,372.71Z"/></g></g><g id="Securities_vs_Commodities_margin" data-name="Securities vs Commodities margin"><path class="cls-4" d="M28.48,48l-.07-1.31L30,47a1.23,1.23,0,0,0,1.36-1.7l-.67-1.52,1.63-.3a1.2,1.2,0,0,0,1-.84,1.24,1.24,0,0,0-.3-1.24l-1.18-1.17,1.42-.86a1.24,1.24,0,0,0-.15-2.18l-1.52-.67,1-1.31a1.24,1.24,0,0,0-.93-2L30,33.12l.46-1.6A1.23,1.23,0,0,0,28.9,30l-1.58.52-.14-1.65a1.22,1.22,0,0,0-.75-1,1.21,1.21,0,0,0-1.26.19l-1.28,1.06-.73-1.49A1.23,1.23,0,0,0,21,27.58L20.18,29,19,27.9a1.23,1.23,0,0,0-2.05.74l-.23,1.64-1.54-.61a1.23,1.23,0,0,0-1.65,1.43l.38,1.62H12.21a1.23,1.23,0,0,0-1.09.65,1.27,1.27,0,0,0,.07,1.28L12.13,36l-1.55.59a1.26,1.26,0,0,0-.78,1,1.24,1.24,0,0,0,.53,1.16l1.37.93L10.47,40.8A1.24,1.24,0,0,0,10.1,42a1.23,1.23,0,0,0,.91.89l1.62.38-.75,1.48a1.23,1.23,0,0,0,1.27,1.77l1.64-.23L14.63,48a1.24,1.24,0,0,0,.55,1.15,1.23,1.23,0,0,0,1.28,0l.13-.07V62.44l5-6.62,4.88,6.62V49.32l.13.09a1.38,1.38,0,0,0,.68.18,1.19,1.19,0,0,0,1.25-1.23A1.34,1.34,0,0,0,28.48,48ZM65.54,16.44,47.77.62A2.45,2.45,0,0,0,46.14,0H2.46A2.46,2.46,0,0,0,0,2.46v50.3a2.46,2.46,0,0,0,2.46,2.46h9.35a2.46,2.46,0,0,0,0-4.92H4.92V4.92H45.2l.94.83v8.93a3.33,3.33,0,0,0,3.68,3.68l10.42-.06,1.21,1.08V50.3H30.72a2.46,2.46,0,1,0,0,4.92H63.91a2.46,2.46,0,0,0,2.46-2.46V18.28A2.46,2.46,0,0,0,65.54,16.44Z"/><rect class="cls-4" x="10.78" y="11.09" width="30.06" height="1.55"/><rect class="cls-4" x="10.78" y="15.84" width="30.06" height="1.55"/><rect class="cls-4" x="10.78" y="20.6" width="30.06" height="1.55"/></g></svg>