<svg xmlns="http://www.w3.org/2000/svg" xmlns:xlink="http://www.w3.org/1999/xlink" viewBox="0 0 260.56 37.8"><defs><style>.cls-1{fill:#fff;}.cls-2{fill:url(#New_Gradient_Swatch_4);}.cls-3{fill:#d81222;}</style><linearGradient id="New_Gradient_Swatch_4" x1="5273.98" y1="28.16" x2="5290.46" y2="28.16" gradientTransform="matrix(-1, 0, 0, 1, 5290.46, 0)" gradientUnits="userSpaceOnUse"><stop offset="0" stop-color="#d81222"/><stop offset="1" stop-color="#a50b1a"/></linearGradient></defs><g id="IB_Logo" data-name="IB Logo"><path class="cls-1" d="M31.9,37.24H27.7V17h4.2Z"/><path class="cls-1" d="M47.6,23.13a5,5,0,0,1,1.46,4V37.24h-4v-9.1a4.18,4.18,0,0,0-.32-1.82,2.21,2.21,0,0,0-2.18-1.15,2.7,2.7,0,0,0-2.71,1.69,5.89,5.89,0,0,0-.38,2.28v8.1H35.56V22.3h3.79v2.19a6.61,6.61,0,0,1,1.42-1.67,5,5,0,0,1,3-.9A5.73,5.73,0,0,1,47.6,23.13Z"/><path class="cls-1" d="M50.93,25.2V22.41H53V18.24h3.87v4.17h2.43V25.2H56.89v7.9a1.82,1.82,0,0,0,.23,1.15,2.6,2.6,0,0,0,1.43.23h.38l.39,0v2.92l-1.85.07c-1.85.07-3.11-.25-3.79-1A2.86,2.86,0,0,1,53,34.41V25.2Z"/><path class="cls-1" d="M71.37,22.58A6.06,6.06,0,0,1,74,24.79a7.37,7.37,0,0,1,1.19,3.09,19.74,19.74,0,0,1,.13,3H64.38A3.58,3.58,0,0,0,66,34a3.89,3.89,0,0,0,2.15.56,3.33,3.33,0,0,0,2.17-.68,3.2,3.2,0,0,0,.81-1h4a4.86,4.86,0,0,1-1.45,2.7A7.23,7.23,0,0,1,68,37.74a8.12,8.12,0,0,1-5.27-1.84q-2.29-1.83-2.29-6a8.11,8.11,0,0,1,2.06-6,7.23,7.23,0,0,1,5.35-2.07A8.44,8.44,0,0,1,71.37,22.58ZM65.52,26a4.06,4.06,0,0,0-1,2.31h6.74a3.23,3.23,0,0,0-1-2.36,3.4,3.4,0,0,0-2.32-.81A3.09,3.09,0,0,0,65.52,26Z"/><path class="cls-1" d="M85.88,21.93l.33,0v4l-.66-.05-.46,0a3.25,3.25,0,0,0-3.17,1.54,5.88,5.88,0,0,0-.46,2.66v7.16H77.52v-15h3.74v2.6a8.12,8.12,0,0,1,1.58-2,4.25,4.25,0,0,1,2.85-.92Z"/><path class="cls-1" d="M94.38,28.14a6.3,6.3,0,0,0,1.56-.35,1.17,1.17,0,0,0,.84-1.11,1.31,1.31,0,0,0-.64-1.27,4.15,4.15,0,0,0-1.9-.35,2.48,2.48,0,0,0-2,.69,2.77,2.77,0,0,0-.56,1.37H87.92A5.69,5.69,0,0,1,89,23.9q1.56-2,5.35-2a9.54,9.54,0,0,1,4.38,1,3.74,3.74,0,0,1,1.92,3.68v6.86c0,.48,0,1.06,0,1.73a2.11,2.11,0,0,0,.23,1.05,1.47,1.47,0,0,0,.57.45v.58H97.25a4.77,4.77,0,0,1-.25-.86c0-.26-.08-.56-.11-.9A8.23,8.23,0,0,1,95,37a5.66,5.66,0,0,1-2.88.73,5,5,0,0,1-3.37-1.16,4.11,4.11,0,0,1-1.33-3.28,4.26,4.26,0,0,1,2.14-4,9.5,9.5,0,0,1,3.46-1ZM96.77,30a4.15,4.15,0,0,1-.76.38,7.73,7.73,0,0,1-1.05.27l-.89.16a6.07,6.07,0,0,0-1.8.54A1.79,1.79,0,0,0,91.35,33a1.72,1.72,0,0,0,.56,1.44,2.16,2.16,0,0,0,1.38.45,4.12,4.12,0,0,0,2.36-.74,3.14,3.14,0,0,0,1.12-2.7Z"/><path class="cls-1" d="M113,27.64a3.45,3.45,0,0,0-.56-1.51,2.38,2.38,0,0,0-2-.9,2.69,2.69,0,0,0-2.71,2,8,8,0,0,0-.39,2.76,7.45,7.45,0,0,0,.39,2.65,2.62,2.62,0,0,0,2.64,1.86,2.3,2.3,0,0,0,2-.74,3.59,3.59,0,0,0,.7-1.92h4a6.52,6.52,0,0,1-1.29,3.38,6.29,6.29,0,0,1-5.46,2.56q-3.61,0-5.31-2.14a8.63,8.63,0,0,1-1.71-5.55,8.79,8.79,0,0,1,1.88-6,6.56,6.56,0,0,1,5.2-2.14,7.85,7.85,0,0,1,4.61,1.26q1.78,1.26,2.12,4.46Z"/><path class="cls-1" d="M118.25,25.2V22.41h2.08V18.24h3.87v4.17h2.43V25.2H124.2v7.9c0,.62.08,1,.24,1.15a2.54,2.54,0,0,0,1.42.23h.38l.39,0v2.92l-1.85.07c-1.85.07-3.11-.25-3.79-1a2.86,2.86,0,0,1-.66-2.07V25.2Z"/><path class="cls-1" d="M133.18,20.49h-4V16.88h4Zm-4,1.79h4v15h-4Z"/><path class="cls-1" d="M145.91,22.28h4.2l-5.4,15h-4.13l-5.36-15h4.39l3.11,11Z"/><path class="cls-1" d="M161.52,22.58a6.06,6.06,0,0,1,2.59,2.21,7.37,7.37,0,0,1,1.19,3.09,19.74,19.74,0,0,1,.13,3h-10.9A3.58,3.58,0,0,0,156.1,34a3.89,3.89,0,0,0,2.15.56,3.33,3.33,0,0,0,2.17-.68,3.2,3.2,0,0,0,.81-1h4a4.86,4.86,0,0,1-1.45,2.7,7.23,7.23,0,0,1-5.62,2.18,8.14,8.14,0,0,1-5.27-1.84q-2.3-1.83-2.29-6a8.11,8.11,0,0,1,2.06-6A7.23,7.23,0,0,1,158,21.88,8.44,8.44,0,0,1,161.52,22.58ZM155.67,26a4.06,4.06,0,0,0-1,2.31h6.74a3.26,3.26,0,0,0-1-2.36A3.44,3.44,0,0,0,158,25.1,3.1,3.1,0,0,0,155.67,26Z"/><path class="cls-1" d="M168,17.07h8.72q3.57,0,5.07,2.12a4.84,4.84,0,0,1,.88,2.88,4.56,4.56,0,0,1-1.08,3.13A5.22,5.22,0,0,1,180,26.38a6.78,6.78,0,0,1,2.32,1.33,4.82,4.82,0,0,1,1.36,3.64,5.57,5.57,0,0,1-1.23,3.52q-1.83,2.37-5.84,2.37H168Zm7.7,8.53a6.25,6.25,0,0,0,2.72-.48A2.76,2.76,0,0,0,180,22.4a2.61,2.61,0,0,0-1.62-2.66,7.25,7.25,0,0,0-2.72-.39h-4.92V25.6Zm.92,9.3a4.22,4.22,0,0,0,3.62-1.45,3.69,3.69,0,0,0,.68-2.23,3,3,0,0,0-2-3,7.66,7.66,0,0,0-2.79-.42h-5.47V34.9Z"/><path class="cls-1" d="M186.55,22.54h2.34v2.54a5.72,5.72,0,0,1,1.42-1.81,3.65,3.65,0,0,1,2.59-1.06h.24l.56.06v2.6l-.41-.05-.4,0A3.53,3.53,0,0,0,190,26a4.17,4.17,0,0,0-1,2.76v8.46h-2.47Z"/><path class="cls-1" d="M206.33,24a7.42,7.42,0,0,1,1.95,5.57,9.57,9.57,0,0,1-1.72,5.87,6.2,6.2,0,0,1-5.33,2.32,6,6,0,0,1-4.78-2,8.16,8.16,0,0,1-1.77-5.51,8.79,8.79,0,0,1,1.86-5.89,6.25,6.25,0,0,1,5-2.2A6.59,6.59,0,0,1,206.33,24Zm-1.53,9.77a9.34,9.34,0,0,0,.9-4.13,7.51,7.51,0,0,0-.65-3.35,3.67,3.67,0,0,0-3.56-2A3.5,3.5,0,0,0,198.23,26a8.15,8.15,0,0,0-1,4.17,7.1,7.1,0,0,0,1,3.91,3.58,3.58,0,0,0,3.23,1.56A3.38,3.38,0,0,0,204.8,33.77Z"/><path class="cls-1" d="M211.08,17.07h2.37V28.78l6.34-6.24h3.15L217.29,28l6,9.24H220.1l-4.62-7.49-2,2v5.52h-2.37Z"/><path class="cls-1" d="M233.52,22.94a5.57,5.57,0,0,1,2.22,1.9,6.55,6.55,0,0,1,1,2.6,16.53,16.53,0,0,1,.22,3.23H226.25a6.25,6.25,0,0,0,1.05,3.6,3.47,3.47,0,0,0,3,1.36,3.93,3.93,0,0,0,3.07-1.28,4.36,4.36,0,0,0,.91-1.73h2.43a5.27,5.27,0,0,1-.64,1.81,7.12,7.12,0,0,1-1.21,1.63,5.78,5.78,0,0,1-2.77,1.48,8.68,8.68,0,0,1-2,.22,6.13,6.13,0,0,1-4.62-2,7.78,7.78,0,0,1-1.9-5.59,8.49,8.49,0,0,1,1.91-5.75,6.26,6.26,0,0,1,5-2.21A6.65,6.65,0,0,1,233.52,22.94Zm.88,5.77a6.46,6.46,0,0,0-.69-2.56,3.55,3.55,0,0,0-3.36-1.79,3.7,3.7,0,0,0-2.83,1.23,4.65,4.65,0,0,0-1.22,3.12Z"/><path class="cls-1" d="M239.86,22.54h2.35v2.54a5.52,5.52,0,0,1,1.41-1.81,3.66,3.66,0,0,1,2.59-1.06h.24l.56.06v2.6l-.41-.05-.4,0A3.54,3.54,0,0,0,243.33,26a4.17,4.17,0,0,0-1,2.76v8.46h-2.47Z"/><path class="cls-1" d="M250.66,32.62a3.47,3.47,0,0,0,.63,1.9,4,4,0,0,0,3.3,1.19,4.94,4.94,0,0,0,2.47-.6,2,2,0,0,0,1.06-1.84,1.57,1.57,0,0,0-.85-1.44,10,10,0,0,0-2.15-.7l-2-.5a9.77,9.77,0,0,1-2.82-1,3.11,3.11,0,0,1-1.62-2.77,4.21,4.21,0,0,1,1.53-3.38,6.11,6.11,0,0,1,4.09-1.29c2.25,0,3.86.65,4.86,2a4.18,4.18,0,0,1,.9,2.66h-2.33a2.78,2.78,0,0,0-.61-1.51,3.89,3.89,0,0,0-3-1,3.73,3.73,0,0,0-2.17.53,1.67,1.67,0,0,0-.73,1.41,1.72,1.72,0,0,0,1,1.53,6.19,6.19,0,0,0,1.65.61l1.67.39A13,13,0,0,1,259.12,30a3.31,3.31,0,0,1,1.44,3,4.52,4.52,0,0,1-1.5,3.39,6.5,6.5,0,0,1-4.6,1.43q-3.32,0-4.7-1.49a5.62,5.62,0,0,1-1.48-3.69Z"/><polygon class="cls-2" points="16.48 37.23 0 37.23 0 19.09 16.48 37.23"/><circle class="cls-3" cx="14.18" cy="23.54" r="4.92"/><polygon class="cls-3" points="16.48 0 0 19.09 0 37.23 16.48 0"/></g></svg>