<svg xmlns="http://www.w3.org/2000/svg" viewBox="0 0 98.77 65"><defs><style>.cls-1{fill:#f1592a;}.cls-2{fill:#f79029;}</style></defs><g id="text"><polygon class="cls-1" points="58.64 44.52 40.11 44.52 40.11 11.06 58.64 7.48 58.64 44.52"/><polygon class="cls-1" points="18.54 44.52 0.01 44.52 0.01 21.92 18.54 18.35 18.54 44.52"/><polygon class="cls-1" points="98.76 44.52 80.23 44.52 80.23 3.58 98.76 0 98.76 44.52"/><polygon class="cls-1" points="78.7 44.52 60.17 44.52 60.17 22.84 78.7 19.26 78.7 44.52"/><polygon class="cls-1" points="38.58 44.52 20.05 44.52 20.05 5.67 38.58 2.1 38.58 44.52"/><rect class="cls-2" y="44.52" width="18.53" height="20.47"/><rect class="cls-2" x="20.06" y="44.52" width="18.53" height="20.47"/><rect class="cls-2" x="40.12" y="44.52" width="18.53" height="20.47"/><rect class="cls-2" x="60.18" y="44.52" width="18.53" height="20.47"/><rect class="cls-2" x="80.24" y="44.52" width="18.53" height="20.47"/></g></svg>