<?xml version="1.0" encoding="UTF-8"?>
<svg id="Layer_1" data-name="Layer 1" xmlns="http://www.w3.org/2000/svg" xmlns:xlink="http://www.w3.org/1999/xlink" version="1.1" viewBox="0 0 2000 625">
  <defs>
    <style>
      .cls-1 {
        clip-path: url(#clippath);
      }

      .cls-2, .cls-3, .cls-4, .cls-5, .cls-6, .cls-7, .cls-8 {
        stroke-width: 0px;
      }

      .cls-2, .cls-9 {
        fill: none;
      }

      .cls-3 {
        fill: #d61f26;
      }

      .cls-4 {
        fill: url(#linear-gradient);
      }

      .cls-5 {
        fill: #666;
      }

      .cls-10 {
        clip-path: url(#clippath-1);
      }

      .cls-11 {
        clip-path: url(#clippath-3);
      }

      .cls-12 {
        clip-path: url(#clippath-2);
      }

      .cls-6 {
        fill: #a7a9ac;
      }

      .cls-9 {
        stroke: #a7a9ac;
        stroke-width: 2.1px;
      }

      .cls-7 {
        fill: #d71f27;
      }

      .cls-13 {
        fill: #000;
        font-family: ProximaNova-Regular, 'Proxima Nova';
        font-size: 32.9px;
      }

      .cls-13, .cls-14 {
        isolation: isolate;
      }

      .cls-8 {
        fill: #fff;
      }
    </style>
    <clipPath id="clippath">
      <rect class="cls-2" x="924.4" y="312.5" width="157.2" height="175"/>
    </clipPath>
    <clipPath id="clippath-1">
      <polygon class="cls-2" points="979.1 424.5 1028.7 424.5 979.1 369.9 979.1 424.5"/>
    </clipPath>
    <linearGradient id="linear-gradient" x1="-16.8" y1="156" x2="-12.7" y2="156" gradientTransform="translate(826 -1482.7) rotate(-180) scale(12.1 -12.1)" gradientUnits="userSpaceOnUse">
      <stop offset="0" stop-color="#d71f27"/>
      <stop offset="1" stop-color="#a41e22"/>
    </linearGradient>
    <clipPath id="clippath-2">
      <rect class="cls-2" x="924.4" y="312.5" width="157.2" height="175"/>
    </clipPath>
    <clipPath id="clippath-3">
      <rect class="cls-2" x="924.4" y="312.5" width="157.2" height="175"/>
    </clipPath>
  </defs>
  <line class="cls-9" x1="1000" y1="483.1" x2="1000" y2="530.5"/>
  <polyline class="cls-9" points="215.7 107.4 215.7 417.6 882.4 417.6"/>
  <line class="cls-9" x1="468.2" y1="288.6" x2="1551.3" y2="288.6"/>
  <polygon class="cls-6" points="448.7 288.6 474.7 298.1 474.7 279.1 448.7 288.6"/>
  <polyline class="cls-9" points="1114.6 417.6 1784.3 417.6 1784.3 102.3"/>
  <rect class="cls-3" y="17.9" width="429.3" height="100.7"/>
  <g class="cls-14">
    <g class="cls-14">
      <path class="cls-8" d="M75.1,79.4v-21.9h8.8c4.4,0,6.9,3,6.9,6.6s-2.5,6.6-6.9,6.6h-6.1v8.7h-2.7ZM83.6,59.9h-5.8v8.4h5.8c2.6,0,4.4-1.7,4.4-4.2s-1.8-4.2-4.4-4.2Z"/>
      <path class="cls-8" d="M105,79.4v-2.2c-1.2,1.4-3.3,2.6-5.7,2.6s-5.1-1.6-5.1-5.1v-11.2h2.5v10.5c0,2.8,1.4,3.6,3.6,3.6s3.8-1.1,4.7-2.4v-11.7h2.5v15.9h-2.5Z"/>
      <path class="cls-8" d="M112.4,79.4v-21.9h2.5v8.5c1.3-1.7,3.2-2.8,5.4-2.8,4.1,0,7.1,3.3,7.1,8.4s-2.9,8.3-7.1,8.3-4.2-1.2-5.4-2.8v2.4h-2.5ZM114.9,75.1c.9,1.4,2.8,2.5,4.7,2.5,3.2,0,5.1-2.6,5.1-6.1s-1.9-6.2-5.1-6.2-3.9,1.2-4.7,2.6v7.2Z"/>
      <path class="cls-8" d="M131.3,79.4v-21.9h2.5v21.9h-2.5Z"/>
      <path class="cls-8" d="M138.3,59.2c0-.9.8-1.6,1.6-1.6s1.7.7,1.7,1.6-.8,1.7-1.7,1.7-1.6-.8-1.6-1.7ZM138.7,79.4v-15.9h2.5v15.9h-2.5Z"/>
      <path class="cls-8" d="M153.1,63.1c2.9,0,4.6,1.2,5.8,2.8l-1.6,1.5c-1.1-1.4-2.4-2.1-4-2.1-3.4,0-5.5,2.6-5.5,6.1s2.1,6.2,5.5,6.2,3-.7,4-2.1l1.6,1.5c-1.2,1.6-2.9,2.8-5.8,2.8-4.7,0-7.9-3.6-7.9-8.4s3.2-8.3,7.9-8.3Z"/>
    </g>
    <g class="cls-14">
      <path class="cls-8" d="M171.3,74.2c1.4,1.6,3.8,3.1,6.9,3.1s5.2-2.1,5.2-3.8c0-2.6-2.7-3.4-5.6-4.1-3.5-.9-7.4-1.9-7.4-6.2s3.2-6.1,7.5-6.1,6,1.1,7.8,3.1l-1.6,2c-1.6-1.8-3.9-2.6-6.3-2.6s-4.5,1.4-4.5,3.5,2.5,2.9,5.3,3.6c3.6,1,7.7,2.1,7.7,6.7s-2.2,6.4-8.1,6.4-6.6-1.4-8.4-3.5l1.6-2.1Z"/>
    </g>
    <g class="cls-14">
      <path class="cls-8" d="M190.2,76.1v-10.4h-2.6v-2.2h2.6v-4.3h2.5v4.3h3.2v2.2h-3.2v9.9c0,1.2.5,2,1.6,2s1.3-.3,1.7-.7l.7,1.8c-.6.6-1.5,1-3,1-2.3,0-3.5-1.3-3.5-3.7Z"/>
      <path class="cls-8" d="M198.4,71.4c0-4.6,3-8.3,7.9-8.3s7.9,3.7,7.9,8.3-3,8.4-7.9,8.4-7.9-3.8-7.9-8.4ZM211.6,71.4c0-3.2-1.9-6.1-5.3-6.1s-5.3,2.9-5.3,6.1,1.9,6.2,5.3,6.2,5.3-2.9,5.3-6.2Z"/>
      <path class="cls-8" d="M225.2,63.1c2.9,0,4.6,1.2,5.8,2.8l-1.6,1.5c-1.1-1.4-2.4-2.1-4-2.1-3.4,0-5.5,2.6-5.5,6.1s2.1,6.2,5.5,6.2,3-.7,4-2.1l1.6,1.5c-1.2,1.6-2.9,2.8-5.8,2.8-4.7,0-7.9-3.6-7.9-8.4s3.2-8.3,7.9-8.3Z"/>
      <path class="cls-8" d="M245.3,79.4l-5.7-7.1-2.6,2.6v4.5h-2.5v-21.9h2.5v14.5l8.4-8.5h3.1l-7,7.2,7.1,8.7h-3.2Z"/>
      <path class="cls-8" d="M262.1,79.4v-10.5c0-2.8-1.4-3.6-3.6-3.6s-3.8,1.2-4.7,2.5v11.6h-2.5v-21.9h2.5v8.4c1.1-1.3,3.3-2.7,5.7-2.7s5.1,1.6,5.1,5.1v11.2h-2.5Z"/>
      <path class="cls-8" d="M268.6,71.4c0-4.6,3-8.3,7.9-8.3s7.9,3.7,7.9,8.3-3,8.4-7.9,8.4-7.9-3.8-7.9-8.4ZM281.7,71.4c0-3.2-1.9-6.1-5.3-6.1s-5.3,2.9-5.3,6.1,1.9,6.2,5.3,6.2,5.3-2.9,5.3-6.2Z"/>
      <path class="cls-8" d="M288.3,79.4v-21.9h2.5v21.9h-2.5Z"/>
      <path class="cls-8" d="M307.3,79.4v-2.4c-1.2,1.6-3.1,2.8-5.4,2.8-4.1,0-7.1-3.2-7.1-8.3s2.9-8.4,7.1-8.4,4.1,1.1,5.4,2.8v-8.5h2.5v21.9h-2.5ZM307.3,67.9c-.9-1.4-2.8-2.6-4.8-2.6-3.2,0-5.1,2.6-5.1,6.2s1.9,6.1,5.1,6.1,3.9-1.1,4.8-2.5v-7.2Z"/>
      <path class="cls-8" d="M321.6,63.1c4.8,0,7.6,3.8,7.6,8.5v.6h-12.9c.2,3,2.3,5.5,5.7,5.5s3.7-.7,4.9-2l1.2,1.6c-1.6,1.6-3.7,2.4-6.3,2.4-4.7,0-8.1-3.4-8.1-8.4s3.3-8.3,7.8-8.3ZM316.3,70.5h10.4c0-2.4-1.6-5.3-5.2-5.3s-5.1,2.9-5.2,5.3Z"/>
      <path class="cls-8" d="M333.2,79.4v-15.9h2.5v2.6c1.3-1.7,3.1-2.9,5.3-2.9v2.5c-.3,0-.6,0-1,0-1.5,0-3.6,1.2-4.3,2.5v11.3h-2.5Z"/>
      <path class="cls-8" d="M343.9,75.5c1.1,1.2,3.1,2.3,5.2,2.3s3.8-1.1,3.8-2.6-1.9-2.3-4.1-2.8c-2.7-.6-5.8-1.3-5.8-4.6s2.1-4.6,5.9-4.6,4.6,1,5.9,2.3l-1.2,1.7c-1-1.2-2.7-2-4.7-2s-3.5,1-3.5,2.4,1.8,2,3.9,2.5c2.8.6,6,1.4,6,4.9s-2.1,4.8-6.3,4.8-4.8-.8-6.4-2.5l1.3-1.8Z"/>
    </g>
  </g>
  <rect class="cls-3" y="235.5" width="429.3" height="100.7"/>
  <g class="cls-14">
    <g class="cls-14">
      <path class="cls-8" d="M82.2,279v-21.9h2.7v21.9h-2.7Z"/>
      <path class="cls-8" d="M100.7,279v-10.4c0-2.8-1.4-3.7-3.6-3.7s-3.8,1.2-4.7,2.5v11.6h-2.5v-15.9h2.5v2.3c1.1-1.3,3.3-2.7,5.7-2.7s5.1,1.7,5.1,5.1v11.2h-2.5Z"/>
      <path class="cls-8" d="M108.6,275.7v-10.4h-2.6v-2.2h2.6v-4.3h2.5v4.3h3.2v2.2h-3.2v9.9c0,1.2.5,2,1.6,2s1.3-.3,1.7-.7l.7,1.8c-.6.6-1.5,1-3,1-2.3,0-3.5-1.3-3.5-3.7Z"/>
      <path class="cls-8" d="M124.7,262.7c4.8,0,7.6,3.8,7.6,8.5v.6h-12.9c.2,3,2.3,5.5,5.7,5.5s3.7-.7,4.9-2l1.2,1.6c-1.6,1.6-3.7,2.4-6.3,2.4-4.7,0-8.1-3.4-8.1-8.4s3.3-8.3,7.8-8.3ZM119.4,270.1h10.4c0-2.4-1.6-5.3-5.2-5.3s-5.1,2.9-5.2,5.3Z"/>
      <path class="cls-8" d="M136.3,279v-15.9h2.5v2.6c1.3-1.7,3.1-2.9,5.3-2.9v2.5c-.3,0-.6,0-1,0-1.5,0-3.6,1.2-4.3,2.5v11.3h-2.5Z"/>
      <path class="cls-8" d="M157.1,279v-1.8c-1.3,1.4-3.1,2.2-5.3,2.2s-5.6-1.8-5.6-5.3,2.9-5.2,5.6-5.2,4,.7,5.3,2.2v-2.9c0-2.1-1.7-3.4-4-3.4s-3.5.7-4.9,2.2l-1.2-1.7c1.7-1.8,3.8-2.6,6.3-2.6s6.2,1.5,6.2,5.4v10.9h-2.5ZM157.1,272.7c-1-1.3-2.6-2-4.4-2s-3.9,1.4-3.9,3.5,1.6,3.5,3.9,3.5,3.4-.7,4.4-2v-3Z"/>
      <path class="cls-8" d="M171.5,262.7c2.9,0,4.6,1.2,5.8,2.8l-1.6,1.5c-1.1-1.4-2.4-2.1-4-2.1-3.4,0-5.5,2.6-5.5,6.1s2.1,6.2,5.5,6.2,3-.7,4-2.1l1.6,1.5c-1.2,1.6-2.9,2.8-5.8,2.8-4.7,0-7.9-3.6-7.9-8.4s3.2-8.3,7.9-8.3Z"/>
      <path class="cls-8" d="M181.3,275.7v-10.4h-2.6v-2.2h2.6v-4.3h2.5v4.3h3.2v2.2h-3.2v9.9c0,1.2.5,2,1.6,2s1.3-.3,1.7-.7l.7,1.8c-.6.6-1.5,1-3,1-2.3,0-3.5-1.3-3.5-3.7Z"/>
      <path class="cls-8" d="M190,258.8c0-.9.8-1.6,1.6-1.6s1.7.7,1.7,1.6-.8,1.7-1.7,1.7-1.6-.8-1.6-1.7ZM190.4,279v-15.9h2.5v15.9h-2.5Z"/>
      <path class="cls-8" d="M202.1,279l-6.6-15.9h2.7l5.3,13,5.3-13h2.7l-6.6,15.9h-2.7Z"/>
      <path class="cls-8" d="M220.9,262.7c4.8,0,7.6,3.8,7.6,8.5v.6h-12.9c.2,3,2.3,5.5,5.7,5.5s3.7-.7,4.9-2l1.2,1.6c-1.6,1.6-3.7,2.4-6.3,2.4-4.7,0-8.1-3.4-8.1-8.4s3.3-8.3,7.8-8.3ZM215.6,270.1h10.4c0-2.4-1.6-5.3-5.2-5.3s-5.1,2.9-5.2,5.3Z"/>
      <path class="cls-8" d="M241.1,279v-21.9h9.8c3.8,0,6.2,2.3,6.2,5.6s-1.8,4.6-3.8,5c2.3.4,4.3,2.8,4.3,5.4s-2.3,5.9-6.3,5.9h-10ZM243.8,266.6h6.6c2.5,0,3.8-1.5,3.8-3.5s-1.3-3.6-3.8-3.6h-6.6v7.1ZM243.8,276.6h6.7c2.6,0,4.1-1.4,4.1-3.8s-1.4-3.8-4.1-3.8h-6.7v7.6Z"/>
      <path class="cls-8" d="M261.7,279v-15.9h2.5v2.6c1.3-1.7,3.1-2.9,5.3-2.9v2.5c-.3,0-.6,0-1,0-1.5,0-3.6,1.2-4.3,2.5v11.3h-2.5Z"/>
      <path class="cls-8" d="M271.6,271.1c0-4.6,3-8.3,7.9-8.3s7.9,3.7,7.9,8.3-3,8.4-7.9,8.4-7.9-3.8-7.9-8.4ZM284.7,271.1c0-3.2-1.9-6.1-5.3-6.1s-5.3,2.9-5.3,6.1,1.9,6.2,5.3,6.2,5.3-2.9,5.3-6.2Z"/>
    </g>
    <g class="cls-14">
      <path class="cls-8" d="M302.1,279l-5.7-7.1-2.6,2.6v4.5h-2.5v-21.9h2.5v14.5l8.4-8.5h3.1l-7,7.2,7.1,8.7h-3.2Z"/>
    </g>
    <g class="cls-14">
      <path class="cls-8" d="M314.4,262.7c4.8,0,7.6,3.8,7.6,8.5v.6h-12.9c.2,3,2.3,5.5,5.7,5.5s3.7-.7,4.9-2l1.2,1.6c-1.6,1.6-3.7,2.4-6.3,2.4-4.7,0-8.1-3.4-8.1-8.4s3.3-8.3,7.8-8.3ZM309.2,270.1h10.4c0-2.4-1.6-5.3-5.2-5.3s-5.1,2.9-5.2,5.3Z"/>
      <path class="cls-8" d="M326,279v-15.9h2.5v2.6c1.3-1.7,3.1-2.9,5.3-2.9v2.5c-.3,0-.6,0-1,0-1.5,0-3.6,1.2-4.3,2.5v11.3h-2.5Z"/>
      <path class="cls-8" d="M336.8,275.1c1.1,1.2,3.1,2.3,5.2,2.3s3.8-1.1,3.8-2.6-1.9-2.3-4.1-2.8c-2.7-.6-5.8-1.3-5.8-4.6s2.1-4.6,5.9-4.6,4.6,1,5.9,2.3l-1.2,1.7c-1-1.2-2.7-2-4.7-2s-3.5,1-3.5,2.4,1.8,2,3.9,2.5c2.8.6,6,1.4,6,4.9s-2.1,4.8-6.3,4.8-4.8-.8-6.4-2.5l1.3-1.8Z"/>
    </g>
  </g>
  <g class="cls-14">
    <g class="cls-14">
      <path class="cls-8" d="M149.7,293.7c3.9,0,6.6,1.7,8.5,4.1l-2.2,1.3c-1.4-1.8-3.7-3-6.3-3-4.8,0-8.5,3.7-8.5,8.9s3.7,8.9,8.5,8.9,4.8-1.3,5.9-2.4v-4.5h-7.5v-2.4h10.3v7.9c-2,2.3-5,3.8-8.6,3.8-6.3,0-11.3-4.6-11.3-11.4s5-11.3,11.3-11.3Z"/>
      <path class="cls-8" d="M162.7,316v-15.9h2.5v2.6c1.3-1.7,3.1-2.9,5.3-2.9v2.5c-.3,0-.6,0-1,0-1.5,0-3.6,1.2-4.3,2.5v11.3h-2.5Z"/>
      <path class="cls-8" d="M172.6,308.1c0-4.6,3-8.3,7.9-8.3s7.9,3.7,7.9,8.3-3,8.4-7.9,8.4-7.9-3.8-7.9-8.4ZM185.8,308.1c0-3.2-1.9-6.1-5.3-6.1s-5.3,2.9-5.3,6.1,1.9,6.2,5.3,6.2,5.3-2.9,5.3-6.2Z"/>
      <path class="cls-8" d="M203.1,316v-2.2c-1.2,1.4-3.3,2.6-5.7,2.6s-5.1-1.6-5.1-5.1v-11.2h2.5v10.5c0,2.8,1.4,3.6,3.6,3.6s3.8-1.1,4.7-2.4v-11.7h2.5v15.9h-2.5Z"/>
    </g>
    <g class="cls-14">
      <path class="cls-8" d="M213,322.1h-2.5v-21.9h2.5v2.4c1.2-1.6,3.1-2.8,5.4-2.8,4.2,0,7.1,3.2,7.1,8.3s-2.9,8.4-7.1,8.4-4.1-1-5.4-2.8v8.5ZM217.7,302c-1.9,0-3.9,1.2-4.7,2.5v7.2c.9,1.4,2.8,2.6,4.7,2.6,3.2,0,5.1-2.6,5.1-6.2s-1.9-6.1-5.1-6.1Z"/>
    </g>
    <g class="cls-14">
      <path class="cls-8" d="M228.5,319.2c1.1-.7,2-2,2.1-3.1,0,0-.3,0-.5,0-.9,0-1.6-.7-1.6-1.7s.8-1.8,1.7-1.8,2.1.9,2.1,2.5-1.2,3.9-2.7,5l-1.2-1Z"/>
      <path class="cls-8" d="M245.3,316v-21.9h2.7v21.9h-2.7Z"/>
      <path class="cls-8" d="M263.8,316v-10.4c0-2.8-1.4-3.7-3.6-3.7s-3.8,1.2-4.7,2.5v11.6h-2.5v-15.9h2.5v2.3c1.1-1.3,3.3-2.7,5.7-2.7s5.1,1.7,5.1,5.1v11.2h-2.5Z"/>
      <path class="cls-8" d="M278.2,299.8c2.9,0,4.6,1.2,5.8,2.8l-1.6,1.5c-1.1-1.4-2.4-2.1-4-2.1-3.4,0-5.5,2.6-5.5,6.1s2.1,6.2,5.5,6.2,3-.7,4-2.1l1.6,1.5c-1.2,1.6-2.9,2.8-5.8,2.8-4.7,0-7.9-3.6-7.9-8.4s3.2-8.3,7.9-8.3Z"/>
      <path class="cls-8" d="M288.8,312.7c1,0,1.8.8,1.8,1.8s-.8,1.8-1.8,1.8-1.8-.8-1.8-1.8.8-1.8,1.8-1.8Z"/>
    </g>
  </g>
  <text class="cls-13" transform="translate(599.1 162.6)"><tspan x="0" y="0"> </tspan></text>
  <g class="cls-1">
    <g class="cls-14">
      <g class="cls-14">
        <path class="cls-5" d="M927.9,472.9v-30h3.7v30h-3.7Z"/>
        <path class="cls-5" d="M938.6,472.9v-30h13.3c5.2,0,8.4,3.1,8.4,7.6s-2.5,6.3-5.3,6.9c3.2.5,5.8,3.8,5.8,7.4s-3.2,8.1-8.7,8.1h-13.7ZM942.4,456h9c3.4,0,5.2-2.1,5.2-4.8s-1.8-4.9-5.2-4.9h-9v9.7ZM942.4,469.6h9.2c3.5,0,5.6-2,5.6-5.2s-1.9-5.2-5.6-5.2h-9.2v10.3Z"/>
        <path class="cls-5" d="M981.1,442.5c5.3,0,9,2.3,11.6,5.6l-3,1.8c-1.9-2.4-5.1-4.1-8.7-4.1-6.6,0-11.5,5-11.5,12.2s5,12.2,11.5,12.2,6.6-1.8,8-3.2v-6.1h-10.3v-3.3h14v10.8c-2.8,3.1-6.9,5.2-11.8,5.2-8.5,0-15.4-6.2-15.4-15.5s6.9-15.5,15.4-15.5Z"/>
        <path class="cls-5" d="M1010.5,472.9v-30h3.7v26.6h13.9v3.3h-17.6Z"/>
      </g>
      <g class="cls-14">
        <path class="cls-5" d="M1033.4,472.9v-30h3.7v26.6h13.9v3.3h-17.6Z"/>
      </g>
      <g class="cls-14">
        <path class="cls-5" d="M1053.6,458c0-9.2,6.8-15.5,15.3-15.5s9.1,2.6,11.5,5.9l-3.1,1.8c-1.7-2.5-4.8-4.4-8.4-4.4-6.4,0-11.4,5-11.4,12.2s5,12.2,11.4,12.2,6.6-1.8,8.4-4.4l3.2,1.8c-2.5,3.4-6.1,5.9-11.5,5.9-8.5,0-15.3-6.3-15.3-15.5Z"/>
      </g>
    </g>
  </g>
  <g class="cls-10">
    <rect class="cls-4" x="979.1" y="369.9" width="49.6" height="54.6"/>
  </g>
  <g>
    <g class="cls-12">
      <path class="cls-7" d="M1007,383.3c0,8.2,6.6,14.8,14.8,14.8s14.8-6.6,14.8-14.8-6.6-14.8-14.8-14.8-14.8,6.6-14.8,14.8"/>
    </g>
    <g class="cls-11">
      <polygon class="cls-7" points="1028.7 312.5 979.1 369.9 979.1 424.5 1028.7 312.5"/>
    </g>
  </g>
  <rect class="cls-3" x="693.5" y="506.4" width="612.9" height="100.7"/>
  <g class="cls-14">
    <g class="cls-14">
      <path class="cls-8" d="M768.4,545.7c6.5,0,10.9,4.9,10.9,11.3s-4.4,11.3-10.9,11.3-10.9-4.9-10.9-11.3,4.4-11.3,10.9-11.3ZM768.4,548.1c-4.9,0-8.1,3.8-8.1,8.9s3.1,8.9,8.1,8.9,8.1-3.8,8.1-8.9-3.2-8.9-8.1-8.9Z"/>
      <path class="cls-8" d="M785.9,574h-2.5v-21.9h2.5v2.4c1.2-1.6,3.1-2.8,5.4-2.8,4.2,0,7.1,3.2,7.1,8.3s-2.9,8.4-7.1,8.4-4.1-1-5.4-2.8v8.5ZM790.6,553.9c-1.9,0-3.9,1.2-4.7,2.5v7.2c.9,1.4,2.8,2.6,4.7,2.6,3.2,0,5.1-2.6,5.1-6.2s-1.9-6.1-5.1-6.1Z"/>
      <path class="cls-8" d="M809.2,551.7c4.8,0,7.6,3.8,7.6,8.5v.6h-12.9c.2,3,2.3,5.5,5.7,5.5s3.7-.7,4.9-2l1.2,1.6c-1.6,1.6-3.7,2.4-6.3,2.4-4.7,0-8.1-3.4-8.1-8.4s3.3-8.3,7.8-8.3ZM804,559h10.4c0-2.4-1.6-5.3-5.2-5.3s-5.1,2.9-5.2,5.3Z"/>
      <path class="cls-8" d="M820.8,568v-15.9h2.5v2.6c1.3-1.7,3.1-2.9,5.3-2.9v2.5c-.3,0-.6,0-1,0-1.5,0-3.6,1.2-4.3,2.5v11.3h-2.5Z"/>
      <path class="cls-8" d="M841.6,568v-1.8c-1.3,1.4-3.1,2.2-5.3,2.2s-5.6-1.8-5.6-5.3,2.9-5.2,5.6-5.2,4,.7,5.3,2.2v-2.9c0-2.1-1.7-3.4-4-3.4s-3.5.7-4.9,2.2l-1.2-1.7c1.7-1.8,3.8-2.6,6.3-2.6s6.2,1.5,6.2,5.4v10.9h-2.5ZM841.6,561.6c-1-1.3-2.6-2-4.4-2s-3.9,1.4-3.9,3.5,1.6,3.5,3.9,3.5,3.4-.7,4.4-2v-3Z"/>
      <path class="cls-8" d="M849.5,564.6v-10.4h-2.6v-2.2h2.6v-4.3h2.5v4.3h3.2v2.2h-3.2v9.9c0,1.2.5,2,1.6,2s1.3-.3,1.7-.7l.7,1.8c-.6.6-1.5,1-3,1-2.3,0-3.5-1.3-3.5-3.7Z"/>
      <path class="cls-8" d="M858.3,547.7c0-.9.8-1.6,1.6-1.6s1.7.7,1.7,1.6-.8,1.7-1.7,1.7-1.6-.8-1.6-1.7ZM858.7,568v-15.9h2.5v15.9h-2.5Z"/>
      <path class="cls-8" d="M876.8,568v-10.4c0-2.8-1.4-3.7-3.6-3.7s-3.8,1.2-4.7,2.5v11.6h-2.5v-15.9h2.5v2.3c1.1-1.3,3.3-2.7,5.7-2.7s5.1,1.7,5.1,5.1v11.2h-2.5Z"/>
      <path class="cls-8" d="M885.5,570.2c1.3,1.6,2.9,2.2,5.2,2.2s5.1-1.3,5.1-4.8v-2.3c-1.2,1.6-3.1,2.8-5.3,2.8-4.1,0-7.1-3.1-7.1-8.2s2.9-8.3,7.1-8.3,4,1.1,5.3,2.8v-2.4h2.5v15.4c0,5.3-3.7,6.9-7.6,6.9s-4.5-.5-6.4-2.4l1.2-1.8ZM895.7,556.4c-.9-1.4-2.8-2.6-4.7-2.6-3.2,0-5.1,2.5-5.1,6.1s1.9,6.1,5.1,6.1,3.9-1.2,4.7-2.6v-6.9Z"/>
      <path class="cls-8" d="M912,562.8c1.4,1.6,3.8,3.1,6.9,3.1s5.2-2.1,5.2-3.8c0-2.6-2.7-3.4-5.6-4.1-3.5-.9-7.4-1.9-7.4-6.2s3.2-6.1,7.5-6.1,6,1.1,7.8,3.1l-1.6,2c-1.6-1.8-3.9-2.6-6.3-2.6s-4.5,1.4-4.5,3.5,2.5,2.9,5.3,3.6c3.6,1,7.7,2.1,7.7,6.7s-2.2,6.4-8.1,6.4-6.6-1.4-8.4-3.5l1.6-2.1Z"/>
      <path class="cls-8" d="M941.6,568v-2.2c-1.2,1.4-3.3,2.6-5.7,2.6s-5.1-1.6-5.1-5.1v-11.2h2.5v10.5c0,2.8,1.4,3.6,3.6,3.6s3.8-1.1,4.7-2.4v-11.7h2.5v15.9h-2.5Z"/>
      <path class="cls-8" d="M949,568v-21.9h2.5v8.5c1.3-1.7,3.2-2.8,5.4-2.8,4.1,0,7.1,3.3,7.1,8.4s-2.9,8.3-7.1,8.3-4.2-1.2-5.4-2.8v2.4h-2.5ZM951.5,563.7c.9,1.4,2.8,2.5,4.7,2.5,3.2,0,5.1-2.6,5.1-6.1s-1.9-6.2-5.1-6.2-3.9,1.2-4.7,2.6v7.2Z"/>
      <path class="cls-8" d="M967.8,564.1c1.1,1.2,3.1,2.3,5.2,2.3s3.8-1.1,3.8-2.6-1.9-2.3-4.1-2.8c-2.7-.6-5.8-1.3-5.8-4.6s2.1-4.6,5.9-4.6,4.6,1,5.9,2.3l-1.2,1.7c-1-1.2-2.7-2-4.7-2s-3.5,1-3.5,2.4,1.8,2,3.9,2.5c2.8.6,6,1.4,6,4.9s-2.1,4.8-6.3,4.8-4.8-.8-6.4-2.5l1.3-1.8Z"/>
      <path class="cls-8" d="M982.8,547.7c0-.9.8-1.6,1.6-1.6s1.7.7,1.7,1.6-.8,1.7-1.7,1.7-1.6-.8-1.6-1.7ZM983.2,568v-15.9h2.5v15.9h-2.5Z"/>
      <path class="cls-8" d="M1002.2,568v-2.4c-1.2,1.6-3.1,2.8-5.4,2.8-4.1,0-7.1-3.2-7.1-8.3s2.9-8.4,7.1-8.4,4.1,1.1,5.4,2.8v-8.5h2.5v21.9h-2.5ZM1002.2,556.4c-.9-1.4-2.8-2.6-4.8-2.6-3.2,0-5.1,2.6-5.1,6.2s1.9,6.1,5.1,6.1,3.9-1.1,4.8-2.5v-7.2Z"/>
      <path class="cls-8" d="M1009.1,547.7c0-.9.8-1.6,1.6-1.6s1.7.7,1.7,1.6-.8,1.7-1.7,1.7-1.6-.8-1.6-1.7ZM1009.6,568v-15.9h2.5v15.9h-2.5Z"/>
      <path class="cls-8" d="M1026.9,568v-1.8c-1.3,1.4-3.1,2.2-5.3,2.2s-5.6-1.8-5.6-5.3,2.9-5.2,5.6-5.2,4,.7,5.3,2.2v-2.9c0-2.1-1.7-3.4-4-3.4s-3.5.7-4.9,2.2l-1.2-1.7c1.7-1.8,3.8-2.6,6.3-2.6s6.2,1.5,6.2,5.4v10.9h-2.5ZM1026.9,561.6c-1-1.3-2.6-2-4.4-2s-3.9,1.4-3.9,3.5,1.6,3.5,3.9,3.5,3.4-.7,4.4-2v-3Z"/>
      <path class="cls-8" d="M1034.3,568v-15.9h2.5v2.6c1.3-1.7,3.1-2.9,5.3-2.9v2.5c-.3,0-.6,0-1,0-1.5,0-3.6,1.2-4.3,2.5v11.3h-2.5Z"/>
      <path class="cls-8" d="M1044.7,547.7c0-.9.8-1.6,1.6-1.6s1.7.7,1.7,1.6-.8,1.7-1.7,1.7-1.6-.8-1.6-1.7ZM1045.2,568v-15.9h2.5v15.9h-2.5Z"/>
      <path class="cls-8" d="M1059.5,551.7c4.8,0,7.6,3.8,7.6,8.5v.6h-12.9c.2,3,2.3,5.5,5.7,5.5s3.7-.7,4.9-2l1.2,1.6c-1.6,1.6-3.7,2.4-6.3,2.4-4.7,0-8.1-3.4-8.1-8.4s3.3-8.3,7.8-8.3ZM1054.2,559h10.4c0-2.4-1.6-5.3-5.2-5.3s-5.1,2.9-5.2,5.3Z"/>
      <path class="cls-8" d="M1071,564.1c1.1,1.2,3.1,2.3,5.2,2.3s3.8-1.1,3.8-2.6-1.9-2.3-4.1-2.8c-2.7-.6-5.8-1.3-5.8-4.6s2.1-4.6,5.9-4.6,4.6,1,5.9,2.3l-1.2,1.7c-1-1.2-2.7-2-4.7-2s-3.5,1-3.5,2.4,1.8,2,3.9,2.5c2.8.6,6,1.4,6,4.9s-2.1,4.8-6.3,4.8-4.8-.8-6.4-2.5l1.3-1.8Z"/>
      <path class="cls-8" d="M1093.9,560c0-4.6,3-8.3,7.9-8.3s7.9,3.7,7.9,8.3-3,8.4-7.9,8.4-7.9-3.8-7.9-8.4ZM1107.1,560c0-3.2-1.9-6.1-5.3-6.1s-5.3,2.9-5.3,6.1,1.9,6.2,5.3,6.2,5.3-2.9,5.3-6.2Z"/>
      <path class="cls-8" d="M1116.8,554.2v13.7h-2.5v-13.7h-2.6v-2.2h2.6v-1.2c0-3.3,1.8-5.2,4.6-5.2s1.8.2,2.4.6l-.6,1.8c-.4-.2-.9-.4-1.4-.4-1.6,0-2.5,1.1-2.5,3.1v1.2h3.2v2.2h-3.2Z"/>
      <path class="cls-8" d="M1131.6,568v-21.9h2.7v21.9h-2.7Z"/>
      <path class="cls-8" d="M1139.4,568v-21.9h9.8c3.8,0,6.2,2.3,6.2,5.6s-1.8,4.6-3.8,5c2.3.4,4.3,2.8,4.3,5.4s-2.3,5.9-6.3,5.9h-10ZM1142.2,555.5h6.6c2.5,0,3.8-1.5,3.8-3.5s-1.3-3.6-3.8-3.6h-6.6v7.1ZM1142.2,565.5h6.7c2.6,0,4.1-1.4,4.1-3.8s-1.4-3.8-4.1-3.8h-6.7v7.6Z"/>
      <path class="cls-8" d="M1170.5,545.7c3.9,0,6.6,1.7,8.5,4.1l-2.2,1.3c-1.4-1.8-3.7-3-6.3-3-4.8,0-8.5,3.7-8.5,8.9s3.7,8.9,8.5,8.9,4.8-1.3,5.9-2.4v-4.5h-7.5v-2.4h10.3v7.9c-2,2.3-5,3.8-8.6,3.8-6.3,0-11.3-4.6-11.3-11.4s5-11.3,11.3-11.3Z"/>
      <path class="cls-8" d="M1192.1,568v-21.9h2.7v19.5h10.2v2.4h-12.9Z"/>
    </g>
    <g class="cls-14">
      <path class="cls-8" d="M1208.9,568v-21.9h2.7v19.5h10.2v2.4h-12.9Z"/>
    </g>
    <g class="cls-14">
      <path class="cls-8" d="M1223.7,557c0-6.7,5-11.3,11.2-11.3s6.7,1.9,8.4,4.3l-2.3,1.3c-1.2-1.8-3.5-3.2-6.1-3.2-4.7,0-8.4,3.7-8.4,8.9s3.7,8.9,8.4,8.9,4.9-1.3,6.1-3.2l2.3,1.3c-1.8,2.5-4.5,4.3-8.5,4.3-6.2,0-11.2-4.6-11.2-11.3Z"/>
    </g>
  </g>
  <rect class="cls-3" x="1570.7" y="17.9" width="429.3" height="100.7"/>
  <g class="cls-14">
    <path class="cls-8" d="M1690.4,59v-18.3l-7.5,18.3h-1.1l-7.4-18.3v18.3h-2.7v-21.9h3.9l6.8,16.7,6.8-16.7h3.9v21.9h-2.7Z"/>
    <path class="cls-8" d="M1705.1,42.7c4.8,0,7.6,3.8,7.6,8.5v.6h-12.9c.2,3,2.3,5.5,5.7,5.5s3.7-.7,4.9-2l1.2,1.6c-1.6,1.6-3.7,2.4-6.3,2.4-4.7,0-8.1-3.4-8.1-8.4s3.3-8.3,7.8-8.3ZM1699.9,50h10.4c0-2.4-1.6-5.3-5.2-5.3s-5.1,2.9-5.2,5.3Z"/>
    <path class="cls-8" d="M1735.9,59v-10.8c0-2-.9-3.3-2.9-3.3s-3.4,1.2-4.2,2.4v11.6h-2.5v-10.8c0-2-.9-3.3-2.9-3.3s-3.3,1.2-4.2,2.5v11.6h-2.5v-15.9h2.5v2.3c.7-1,2.8-2.7,5.1-2.7s3.8,1.3,4.3,3c.9-1.4,3-3,5.3-3s4.4,1.6,4.4,4.8v11.5h-2.5Z"/>
    <path class="cls-8" d="M1743.3,59v-21.9h2.5v8.5c1.3-1.7,3.2-2.8,5.4-2.8,4.1,0,7.1,3.3,7.1,8.4s-2.9,8.3-7.1,8.3-4.2-1.2-5.4-2.8v2.4h-2.5ZM1745.8,54.7c.9,1.4,2.8,2.5,4.7,2.5,3.2,0,5.1-2.6,5.1-6.1s-1.9-6.2-5.1-6.2-3.9,1.2-4.7,2.6v7.2Z"/>
    <path class="cls-8" d="M1769.1,42.7c4.8,0,7.6,3.8,7.6,8.5v.6h-12.9c.2,3,2.3,5.5,5.7,5.5s3.7-.7,4.9-2l1.2,1.6c-1.6,1.6-3.7,2.4-6.3,2.4-4.7,0-8.1-3.4-8.1-8.4s3.3-8.3,7.8-8.3ZM1763.9,50h10.4c0-2.4-1.6-5.3-5.2-5.3s-5.1,2.9-5.2,5.3Z"/>
    <path class="cls-8" d="M1780.7,59v-15.9h2.5v2.6c1.3-1.7,3.1-2.9,5.3-2.9v2.5c-.3,0-.6,0-1,0-1.5,0-3.6,1.2-4.3,2.5v11.3h-2.5Z"/>
    <path class="cls-8" d="M1791.5,55.1c1.1,1.2,3.1,2.3,5.2,2.3s3.8-1.1,3.8-2.6-1.9-2.3-4.1-2.8c-2.7-.6-5.8-1.3-5.8-4.6s2.1-4.6,5.9-4.6,4.6,1,5.9,2.3l-1.2,1.7c-1-1.2-2.7-2-4.7-2s-3.5,1-3.5,2.4,1.8,2,3.9,2.5c2.8.6,6,1.4,6,4.9s-2.1,4.8-6.3,4.8-4.8-.8-6.4-2.5l1.3-1.8Z"/>
    <path class="cls-8" d="M1814.5,51c0-4.6,3-8.3,7.9-8.3s7.9,3.7,7.9,8.3-3,8.4-7.9,8.4-7.9-3.8-7.9-8.4ZM1827.6,51c0-3.2-1.9-6.1-5.3-6.1s-5.3,2.9-5.3,6.1,1.9,6.2,5.3,6.2,5.3-2.9,5.3-6.2Z"/>
    <path class="cls-8" d="M1837.4,45.2v13.7h-2.5v-13.7h-2.6v-2.2h2.6v-1.2c0-3.3,1.8-5.2,4.6-5.2s1.8.2,2.4.6l-.6,1.8c-.4-.2-.9-.4-1.4-.4-1.6,0-2.5,1.1-2.5,3.1v1.2h3.2v2.2h-3.2Z"/>
    <path class="cls-8" d="M1852.1,59v-21.9h2.7v21.9h-2.7Z"/>
    <path class="cls-8" d="M1860,59v-21.9h9.8c3.8,0,6.2,2.3,6.2,5.6s-1.8,4.6-3.8,5c2.3.4,4.3,2.8,4.3,5.4s-2.3,5.9-6.3,5.9h-10ZM1862.7,46.5h6.6c2.5,0,3.8-1.5,3.8-3.5s-1.3-3.6-3.8-3.6h-6.6v7.1ZM1862.7,56.5h6.7c2.6,0,4.1-1.4,4.1-3.8s-1.4-3.8-4.1-3.8h-6.7v7.6Z"/>
    <path class="cls-8" d="M1891,36.7c3.9,0,6.6,1.7,8.5,4.1l-2.2,1.3c-1.4-1.8-3.7-3-6.3-3-4.8,0-8.5,3.7-8.5,8.9s3.7,8.9,8.5,8.9,4.8-1.3,5.9-2.4v-4.5h-7.5v-2.4h10.3v7.9c-2,2.3-5,3.8-8.6,3.8-6.3,0-11.3-4.6-11.3-11.4s5-11.3,11.3-11.3Z"/>
  </g>
  <g class="cls-14">
    <g class="cls-14">
      <path class="cls-8" d="M1707.7,96v-10.1h-12.8v10.1h-2.7v-21.9h2.7v9.4h12.8v-9.4h2.7v21.9h-2.7Z"/>
      <path class="cls-8" d="M1714.6,88c0-4.6,3-8.3,7.9-8.3s7.9,3.7,7.9,8.3-3,8.4-7.9,8.4-7.9-3.8-7.9-8.4ZM1727.7,88c0-3.2-1.9-6.1-5.3-6.1s-5.3,2.9-5.3,6.1,1.9,6.2,5.3,6.2,5.3-2.9,5.3-6.2Z"/>
      <path class="cls-8" d="M1734.3,96v-21.9h2.5v21.9h-2.5Z"/>
      <path class="cls-8" d="M1753.2,96v-2.4c-1.2,1.6-3.1,2.8-5.4,2.8-4.1,0-7.1-3.2-7.1-8.3s2.9-8.4,7.1-8.4,4.1,1.1,5.4,2.8v-8.5h2.5v21.9h-2.5ZM1753.2,84.5c-.9-1.4-2.8-2.6-4.8-2.6-3.2,0-5.1,2.6-5.1,6.2s1.9,6.1,5.1,6.1,3.9-1.1,4.8-2.5v-7.2Z"/>
      <path class="cls-8" d="M1760.2,75.7c0-.9.8-1.6,1.6-1.6s1.7.7,1.7,1.6-.8,1.7-1.7,1.7-1.6-.8-1.6-1.7ZM1760.6,96v-15.9h2.5v15.9h-2.5Z"/>
      <path class="cls-8" d="M1778.8,96v-10.4c0-2.8-1.4-3.7-3.6-3.7s-3.8,1.2-4.7,2.5v11.6h-2.5v-15.9h2.5v2.3c1.1-1.3,3.3-2.7,5.7-2.7s5.1,1.7,5.1,5.1v11.2h-2.5Z"/>
      <path class="cls-8" d="M1787.4,98.2c1.3,1.6,2.9,2.2,5.2,2.2s5.1-1.3,5.1-4.8v-2.3c-1.2,1.6-3.1,2.8-5.3,2.8-4.1,0-7.1-3.1-7.1-8.2s2.9-8.3,7.1-8.3,4,1.1,5.3,2.8v-2.4h2.5v15.4c0,5.3-3.7,6.9-7.6,6.9s-4.5-.5-6.4-2.4l1.2-1.8ZM1797.6,84.5c-.9-1.4-2.8-2.6-4.7-2.6-3.2,0-5.1,2.5-5.1,6.1s1.9,6.1,5.1,6.1,3.9-1.2,4.7-2.6v-6.9Z"/>
      <path class="cls-8" d="M1804.9,92.1c1.1,1.2,3.1,2.3,5.2,2.3s3.8-1.1,3.8-2.6-1.9-2.3-4.1-2.8c-2.7-.6-5.8-1.3-5.8-4.6s2.1-4.6,5.9-4.6,4.6,1,5.9,2.3l-1.2,1.7c-1-1.2-2.7-2-4.7-2s-3.5,1-3.5,2.4,1.8,2,3.9,2.5c2.8.6,6,1.4,6,4.9s-2.1,4.8-6.3,4.8-4.8-.8-6.4-2.5l1.3-1.8Z"/>
      <path class="cls-8" d="M1828.9,96v-21.9h2.7v19.5h10.2v2.4h-12.9Z"/>
    </g>
    <g class="cls-14">
      <path class="cls-8" d="M1845.7,96v-21.9h2.7v19.5h10.2v2.4h-12.9Z"/>
    </g>
    <g class="cls-14">
      <path class="cls-8" d="M1860.5,85c0-6.7,5-11.3,11.2-11.3s6.7,1.9,8.4,4.3l-2.3,1.3c-1.2-1.8-3.5-3.2-6.1-3.2-4.7,0-8.4,3.7-8.4,8.9s3.7,8.9,8.4,8.9,4.9-1.3,6.1-3.2l2.3,1.3c-1.8,2.5-4.5,4.3-8.5,4.3-6.2,0-11.2-4.6-11.2-11.3Z"/>
    </g>
  </g>
  <rect class="cls-3" x="1570.7" y="235.5" width="429.3" height="100.7"/>
  <g class="cls-14">
    <g class="cls-14">
      <path class="cls-8" d="M1661.9,295.9v-21.9h2.7v21.9h-2.7Z"/>
      <path class="cls-8" d="M1669.8,295.9v-21.9h9.8c3.8,0,6.2,2.3,6.2,5.6s-1.8,4.6-3.8,5c2.3.4,4.3,2.8,4.3,5.4s-2.3,5.9-6.3,5.9h-10ZM1672.5,283.4h6.6c2.5,0,3.8-1.5,3.8-3.5s-1.3-3.6-3.8-3.6h-6.6v7.1ZM1672.5,293.5h6.7c2.6,0,4.1-1.4,4.1-3.8s-1.4-3.8-4.1-3.8h-6.7v7.6Z"/>
      <path class="cls-8" d="M1700.9,273.6c3.9,0,6.6,1.7,8.5,4.1l-2.2,1.3c-1.4-1.8-3.7-3-6.3-3-4.8,0-8.5,3.7-8.5,8.9s3.7,8.9,8.5,8.9,4.8-1.3,5.9-2.4v-4.5h-7.5v-2.4h10.3v7.9c-2,2.3-5,3.8-8.6,3.8-6.3,0-11.3-4.6-11.3-11.4s5-11.3,11.3-11.3Z"/>
      <path class="cls-8" d="M1738,295.9v-10.1h-12.8v10.1h-2.7v-21.9h2.7v9.4h12.8v-9.4h2.7v21.9h-2.7Z"/>
      <path class="cls-8" d="M1744.8,287.9c0-4.6,3-8.3,7.9-8.3s7.9,3.7,7.9,8.3-3,8.4-7.9,8.4-7.9-3.8-7.9-8.4ZM1757.9,287.9c0-3.2-1.9-6.1-5.3-6.1s-5.3,2.9-5.3,6.1,1.9,6.2,5.3,6.2,5.3-2.9,5.3-6.2Z"/>
      <path class="cls-8" d="M1764.6,295.9v-21.9h2.5v21.9h-2.5Z"/>
      <path class="cls-8" d="M1783.5,295.9v-2.4c-1.2,1.6-3.1,2.8-5.4,2.8-4.1,0-7.1-3.2-7.1-8.3s2.9-8.4,7.1-8.4,4.1,1.1,5.4,2.8v-8.5h2.5v21.9h-2.5ZM1783.5,284.4c-.9-1.4-2.8-2.6-4.8-2.6-3.2,0-5.1,2.6-5.1,6.2s1.9,6.1,5.1,6.1,3.9-1.1,4.8-2.5v-7.2Z"/>
      <path class="cls-8" d="M1790.5,275.7c0-.9.8-1.6,1.6-1.6s1.7.7,1.7,1.6-.8,1.7-1.7,1.7-1.6-.8-1.6-1.7ZM1790.9,295.9v-15.9h2.5v15.9h-2.5Z"/>
      <path class="cls-8" d="M1809,295.9v-10.4c0-2.8-1.4-3.7-3.6-3.7s-3.8,1.2-4.7,2.5v11.6h-2.5v-15.9h2.5v2.3c1.1-1.3,3.3-2.7,5.7-2.7s5.1,1.7,5.1,5.1v11.2h-2.5Z"/>
      <path class="cls-8" d="M1817.6,298.1c1.3,1.6,2.9,2.2,5.2,2.2s5.1-1.3,5.1-4.8v-2.3c-1.2,1.6-3.1,2.8-5.3,2.8-4.1,0-7.1-3.1-7.1-8.2s2.9-8.3,7.1-8.3,4,1.1,5.3,2.8v-2.4h2.5v15.4c0,5.3-3.7,6.9-7.6,6.9s-4.5-.5-6.4-2.4l1.2-1.8ZM1827.9,284.4c-.9-1.4-2.8-2.6-4.7-2.6-3.2,0-5.1,2.5-5.1,6.1s1.9,6.1,5.1,6.1,3.9-1.2,4.7-2.6v-6.9Z"/>
      <path class="cls-8" d="M1835.2,292c1.1,1.2,3.1,2.3,5.2,2.3s3.8-1.1,3.8-2.6-1.9-2.3-4.1-2.8c-2.7-.6-5.8-1.3-5.8-4.6s2.1-4.6,5.9-4.6,4.6,1,5.9,2.3l-1.2,1.7c-1-1.2-2.7-2-4.7-2s-3.5,1-3.5,2.4,1.8,2,3.9,2.5c2.8.6,6,1.4,6,4.9s-2.1,4.8-6.3,4.8-4.8-.8-6.4-2.5l1.3-1.8Z"/>
      <path class="cls-8" d="M1859.2,295.9v-21.9h2.7v19.5h10.2v2.4h-12.9Z"/>
    </g>
    <g class="cls-14">
      <path class="cls-8" d="M1875.9,295.9v-21.9h2.7v19.5h10.2v2.4h-12.9Z"/>
    </g>
    <g class="cls-14">
      <path class="cls-8" d="M1890.7,284.9c0-6.7,5-11.3,11.2-11.3s6.7,1.9,8.4,4.3l-2.3,1.3c-1.2-1.8-3.5-3.2-6.1-3.2-4.7,0-8.4,3.7-8.4,8.9s3.7,8.9,8.4,8.9,4.9-1.3,6.1-3.2l2.3,1.3c-1.8,2.5-4.5,4.3-8.5,4.3-6.2,0-11.2-4.6-11.2-11.3Z"/>
    </g>
  </g>
  <g>
    <path class="cls-5" d="M255.8,162.7v-18.3l-3.5,3.7-1.6-1.7,5.5-5.7h2.4v21.9h-2.7Z"/>
    <path class="cls-5" d="M271.1,140.5c6,0,8.4,6,8.4,11.3s-2.4,11.3-8.4,11.3-8.4-6-8.4-11.3,2.4-11.3,8.4-11.3ZM271.1,142.9c-4.2,0-5.6,4.5-5.6,8.9s1.4,8.9,5.6,8.9,5.6-4.5,5.6-8.9-1.4-8.9-5.6-8.9Z"/>
    <path class="cls-5" d="M291.3,140.5c6,0,8.4,6,8.4,11.3s-2.4,11.3-8.4,11.3-8.4-6-8.4-11.3,2.4-11.3,8.4-11.3ZM291.3,142.9c-4.2,0-5.6,4.5-5.6,8.9s1.4,8.9,5.6,8.9,5.6-4.5,5.6-8.9-1.4-8.9-5.6-8.9Z"/>
    <path class="cls-5" d="M307.6,140.5c3.2,0,5.3,2.4,5.3,5.5s-2.2,5.4-5.3,5.4-5.3-2.3-5.3-5.4,2.1-5.5,5.3-5.5ZM307.6,142.1c-1.9,0-3.3,1.6-3.3,3.8s1.3,3.7,3.3,3.7,3.4-1.6,3.4-3.7-1.4-3.8-3.4-3.8ZM305.5,162.7l14-21.9h1.8l-14,21.9h-1.8ZM319.1,152.3c3.1,0,5.3,2.4,5.3,5.5s-2.2,5.4-5.3,5.4-5.3-2.3-5.3-5.4,2.1-5.5,5.3-5.5ZM319.1,154c-2,0-3.3,1.6-3.3,3.8s1.3,3.7,3.3,3.7,3.4-1.6,3.4-3.7-1.4-3.8-3.4-3.8Z"/>
    <path class="cls-5" d="M343.2,146.4c4.8,0,7.6,3.7,7.6,8.5v.6h-12.9c.2,3,2.3,5.5,5.7,5.5s3.6-.7,4.9-2l1.2,1.6c-1.6,1.6-3.7,2.4-6.3,2.4-4.7,0-8.1-3.4-8.1-8.4s3.3-8.3,7.8-8.3ZM338,153.8h10.4c0-2.4-1.6-5.3-5.2-5.3s-5.1,2.9-5.2,5.3Z"/>
    <path class="cls-5" d="M361.8,146.4c2.9,0,4.6,1.2,5.8,2.8l-1.6,1.5c-1.1-1.4-2.4-2.1-4-2.1-3.4,0-5.5,2.6-5.5,6.1s2.1,6.1,5.5,6.1,3-.7,4-2.1l1.6,1.5c-1.2,1.6-2.9,2.8-5.8,2.8-4.7,0-7.9-3.6-7.9-8.4s3.2-8.3,7.9-8.3Z"/>
    <path class="cls-5" d="M370.2,154.8c0-4.6,3-8.3,7.9-8.3s7.9,3.7,7.9,8.3-3,8.4-7.9,8.4-7.9-3.7-7.9-8.4ZM383.3,154.8c0-3.2-1.9-6.1-5.3-6.1s-5.3,2.9-5.3,6.1,1.9,6.1,5.3,6.1,5.3-2.9,5.3-6.1Z"/>
    <path class="cls-5" d="M400.6,162.7v-10.4c0-2.8-1.4-3.7-3.6-3.7s-3.8,1.2-4.7,2.5v11.6h-2.5v-15.9h2.5v2.3c1.1-1.3,3.3-2.7,5.7-2.7s5.1,1.7,5.1,5.1v11.1h-2.5Z"/>
    <path class="cls-5" d="M407.1,154.8c0-4.6,3-8.3,7.9-8.3s7.9,3.7,7.9,8.3-3,8.4-7.9,8.4-7.9-3.7-7.9-8.4ZM420.2,154.8c0-3.2-1.9-6.1-5.3-6.1s-5.3,2.9-5.3,6.1,1.9,6.1,5.3,6.1,5.3-2.9,5.3-6.1Z"/>
    <path class="cls-5" d="M446,162.7v-10.8c0-2-.9-3.3-2.9-3.3s-3.4,1.2-4.2,2.4v11.6h-2.5v-10.8c0-2-.9-3.3-2.9-3.3s-3.3,1.2-4.2,2.5v11.6h-2.5v-15.9h2.5v2.3c.7-1,2.8-2.7,5.1-2.7s3.8,1.3,4.3,3c.9-1.4,3-3,5.3-3s4.4,1.6,4.4,4.8v11.5h-2.5Z"/>
    <path class="cls-5" d="M453,142.5c0-.9.8-1.6,1.6-1.6s1.7.7,1.7,1.6-.8,1.7-1.7,1.7-1.6-.8-1.6-1.7ZM453.4,162.7v-15.9h2.5v15.9h-2.5Z"/>
    <path class="cls-5" d="M467.8,146.4c2.9,0,4.6,1.2,5.8,2.8l-1.6,1.5c-1.1-1.4-2.4-2.1-4-2.1-3.4,0-5.5,2.6-5.5,6.1s2.1,6.1,5.5,6.1,3-.7,4-2.1l1.6,1.5c-1.2,1.6-2.9,2.8-5.8,2.8-4.7,0-7.9-3.6-7.9-8.4s3.2-8.3,7.9-8.3Z"/>
    <path class="cls-5" d="M485.1,142.5c0-.9.8-1.6,1.6-1.6s1.7.7,1.7,1.6-.8,1.7-1.7,1.7-1.6-.8-1.6-1.7ZM485.6,162.7v-15.9h2.5v15.9h-2.5Z"/>
    <path class="cls-5" d="M503.7,162.7v-10.4c0-2.8-1.4-3.7-3.6-3.7s-3.8,1.2-4.7,2.5v11.6h-2.5v-15.9h2.5v2.3c1.1-1.3,3.3-2.7,5.7-2.7s5.1,1.7,5.1,5.1v11.1h-2.5Z"/>
    <path class="cls-5" d="M511.6,159.4v-10.4h-2.6v-2.2h2.6v-4.3h2.5v4.3h3.2v2.2h-3.2v9.9c0,1.2.5,2,1.6,2s1.3-.3,1.7-.7l.7,1.8c-.6.6-1.5,1-3,1-2.3,0-3.5-1.3-3.5-3.7Z"/>
    <path class="cls-5" d="M527.7,146.4c4.8,0,7.6,3.7,7.6,8.5v.6h-12.9c.2,3,2.3,5.5,5.7,5.5s3.6-.7,4.9-2l1.2,1.6c-1.6,1.6-3.7,2.4-6.3,2.4-4.7,0-8.1-3.4-8.1-8.4s3.3-8.3,7.8-8.3ZM522.4,153.8h10.4c0-2.4-1.6-5.3-5.2-5.3s-5.1,2.9-5.2,5.3Z"/>
    <path class="cls-5" d="M539.3,162.7v-15.9h2.5v2.6c1.3-1.7,3.1-2.9,5.3-2.9v2.5c-.3,0-.6,0-1,0-1.5,0-3.6,1.2-4.3,2.5v11.2h-2.5Z"/>
    <path class="cls-5" d="M557,146.4c4.8,0,7.6,3.7,7.6,8.5v.6h-12.9c.2,3,2.3,5.5,5.7,5.5s3.6-.7,4.9-2l1.2,1.6c-1.6,1.6-3.7,2.4-6.3,2.4-4.7,0-8.1-3.4-8.1-8.4s3.3-8.3,7.8-8.3ZM551.8,153.8h10.4c0-2.4-1.6-5.3-5.2-5.3s-5.1,2.9-5.2,5.3Z"/>
    <path class="cls-5" d="M568.5,158.8c1.1,1.2,3.1,2.3,5.2,2.3s3.7-1.1,3.7-2.6-1.9-2.3-4.1-2.8c-2.7-.6-5.8-1.3-5.8-4.6s2.1-4.6,5.9-4.6,4.6,1,5.9,2.3l-1.2,1.7c-1-1.2-2.7-2-4.7-2s-3.5,1-3.5,2.4,1.8,2,3.9,2.5c2.8.6,6,1.4,6,4.9s-2.1,4.8-6.2,4.8-4.8-.8-6.4-2.5l1.3-1.8Z"/>
    <path class="cls-5" d="M584.4,159.4v-10.4h-2.6v-2.2h2.6v-4.3h2.5v4.3h3.2v2.2h-3.2v9.9c0,1.2.5,2,1.6,2s1.3-.3,1.7-.7l.7,1.8c-.6.6-1.5,1-3,1-2.3,0-3.5-1.3-3.5-3.7Z"/>
  </g>
  <g>
    <path class="cls-5" d="M251.7,203.8v-2.2c7.9-6.2,12.2-9.9,12.2-13.6s-2.3-4-4.6-4-4.7,1.1-6,2.8l-1.7-1.7c1.7-2.2,4.5-3.5,7.6-3.5s7.4,2.1,7.4,6.4-4.5,8.5-10.7,13.4h10.8v2.4h-15.1Z"/>
    <path class="cls-5" d="M273.1,198.9c1.4,1.8,3.4,2.9,6.1,2.9s5.1-2,5.1-4.7-2.1-4.7-5-4.7-3.6.6-5.1,2.1l-2-.7v-11.8h13.4v2.4h-10.7v7.6c1.1-1.1,2.9-2,5.1-2,3.6,0,7,2.5,7,7s-3.4,7.2-7.8,7.2-6.1-1.3-7.7-3.5l1.7-1.8Z"/>
    <path class="cls-5" d="M292.5,200.5c1,0,1.8.8,1.8,1.8s-.8,1.8-1.8,1.8-1.8-.8-1.8-1.8.8-1.8,1.8-1.8Z"/>
    <path class="cls-5" d="M307.7,203.8v-5.6h-10.4v-2.3l9.4-14.1h3.7v14h3.1v2.4h-3.1v5.6h-2.7ZM307.7,184.4l-7.7,11.4h7.7v-11.4Z"/>
    <path class="cls-5" d="M320.9,181.6c3.2,0,5.3,2.4,5.3,5.5s-2.2,5.4-5.3,5.4-5.3-2.3-5.3-5.4,2.1-5.5,5.3-5.5ZM320.9,183.2c-1.9,0-3.3,1.6-3.3,3.8s1.3,3.7,3.3,3.7,3.4-1.6,3.4-3.7-1.4-3.8-3.4-3.8ZM318.8,203.8l14-21.9h1.8l-14,21.9h-1.8ZM332.3,193.4c3.1,0,5.3,2.4,5.3,5.5s-2.2,5.4-5.3,5.4-5.3-2.3-5.3-5.4,2.1-5.5,5.3-5.5ZM332.3,195.1c-2,0-3.3,1.6-3.3,3.8s1.3,3.7,3.3,3.7,3.4-1.6,3.4-3.7-1.4-3.8-3.4-3.8Z"/>
    <path class="cls-5" d="M353.8,203.8l-6.6-15.9h2.7l5.3,13,5.3-13h2.7l-6.6,15.9h-2.7Z"/>
    <path class="cls-5" d="M364.8,195.9c0-4.6,3-8.3,7.9-8.3s7.9,3.7,7.9,8.3-3,8.4-7.9,8.4-7.9-3.7-7.9-8.4ZM377.9,195.9c0-3.2-1.9-6.1-5.3-6.1s-5.3,2.9-5.3,6.1,1.9,6.1,5.3,6.1,5.3-2.9,5.3-6.1Z"/>
    <path class="cls-5" d="M385,200.5v-10.4h-2.6v-2.2h2.6v-4.3h2.5v4.3h3.2v2.2h-3.2v9.9c0,1.2.5,2,1.6,2s1.3-.3,1.7-.7l.7,1.8c-.6.6-1.5,1-3,1-2.3,0-3.5-1.3-3.5-3.7Z"/>
    <path class="cls-5" d="M393.7,183.6c0-.9.8-1.6,1.6-1.6s1.7.7,1.7,1.6-.8,1.7-1.7,1.7-1.6-.8-1.6-1.7ZM394.2,203.8v-15.9h2.5v15.9h-2.5Z"/>
    <path class="cls-5" d="M412.3,203.8v-10.4c0-2.8-1.4-3.7-3.6-3.7s-3.8,1.2-4.7,2.5v11.6h-2.5v-15.9h2.5v2.3c1.1-1.3,3.3-2.7,5.7-2.7s5.1,1.7,5.1,5.1v11.1h-2.5Z"/>
    <path class="cls-5" d="M420.9,206.1c1.3,1.6,2.9,2.2,5.2,2.2s5.1-1.3,5.1-4.8v-2.3c-1.2,1.6-3.1,2.8-5.3,2.8-4.1,0-7.1-3.1-7.1-8.2s2.9-8.3,7.1-8.3,4,1.1,5.3,2.8v-2.4h2.5v15.4c0,5.3-3.7,6.9-7.6,6.9s-4.5-.5-6.4-2.4l1.2-1.8ZM431.1,192.3c-.9-1.4-2.8-2.6-4.7-2.6-3.2,0-5.1,2.5-5.1,6.1s1.9,6.1,5.1,6.1,3.9-1.2,4.7-2.6v-6.9Z"/>
    <path class="cls-5" d="M446.6,183.6c0-.9.8-1.6,1.6-1.6s1.7.7,1.7,1.6-.8,1.7-1.7,1.7-1.6-.8-1.6-1.7ZM447,203.8v-15.9h2.5v15.9h-2.5Z"/>
    <path class="cls-5" d="M465.1,203.8v-10.4c0-2.8-1.4-3.7-3.6-3.7s-3.8,1.2-4.7,2.5v11.6h-2.5v-15.9h2.5v2.3c1.1-1.3,3.3-2.7,5.7-2.7s5.1,1.7,5.1,5.1v11.1h-2.5Z"/>
    <path class="cls-5" d="M473,200.5v-10.4h-2.6v-2.2h2.6v-4.3h2.5v4.3h3.2v2.2h-3.2v9.9c0,1.2.5,2,1.6,2s1.3-.3,1.7-.7l.7,1.8c-.6.6-1.5,1-3,1-2.3,0-3.5-1.3-3.5-3.7Z"/>
    <path class="cls-5" d="M489.1,187.5c4.8,0,7.6,3.7,7.6,8.5v.6h-12.9c.2,3,2.3,5.5,5.7,5.5s3.6-.7,4.9-2l1.2,1.6c-1.6,1.6-3.7,2.4-6.3,2.4-4.7,0-8.1-3.4-8.1-8.4s3.3-8.3,7.8-8.3ZM483.9,194.9h10.4c0-2.4-1.6-5.3-5.2-5.3s-5.1,2.9-5.2,5.3Z"/>
    <path class="cls-5" d="M500.7,203.8v-15.9h2.5v2.6c1.3-1.7,3.1-2.9,5.3-2.9v2.5c-.3,0-.6,0-1,0-1.5,0-3.6,1.2-4.3,2.5v11.2h-2.5Z"/>
    <path class="cls-5" d="M518.5,187.5c4.8,0,7.6,3.7,7.6,8.5v.6h-12.9c.2,3,2.3,5.5,5.7,5.5s3.6-.7,4.9-2l1.2,1.6c-1.6,1.6-3.7,2.4-6.3,2.4-4.7,0-8.1-3.4-8.1-8.4s3.3-8.3,7.8-8.3ZM513.3,194.9h10.4c0-2.4-1.6-5.3-5.2-5.3s-5.1,2.9-5.2,5.3Z"/>
    <path class="cls-5" d="M530,199.9c1.1,1.2,3.1,2.3,5.2,2.3s3.7-1.1,3.7-2.6-1.9-2.3-4.1-2.8c-2.7-.6-5.8-1.3-5.8-4.6s2.1-4.6,5.9-4.6,4.6,1,5.9,2.3l-1.2,1.7c-1-1.2-2.7-2-4.7-2s-3.5,1-3.5,2.4,1.8,2,3.9,2.5c2.8.6,6,1.4,6,4.9s-2.1,4.8-6.2,4.8-4.8-.8-6.4-2.5l1.3-1.8Z"/>
    <path class="cls-5" d="M545.9,200.5v-10.4h-2.6v-2.2h2.6v-4.3h2.5v4.3h3.2v2.2h-3.2v9.9c0,1.2.5,2,1.6,2s1.3-.3,1.7-.7l.7,1.8c-.6.6-1.5,1-3,1-2.3,0-3.5-1.3-3.5-3.7Z"/>
  </g>
  <g>
    <path class="cls-5" d="M350,398.3v-2.2c7.9-6.2,12.2-9.9,12.2-13.6s-2.3-4-4.6-4-4.7,1.1-6,2.8l-1.7-1.7c1.7-2.2,4.5-3.5,7.6-3.5s7.4,2.1,7.4,6.4-4.5,8.5-10.7,13.4h10.8v2.4h-15.1Z"/>
    <path class="cls-5" d="M371.4,393.4c1.4,1.8,3.4,2.9,6.1,2.9s5.1-2,5.1-4.7-2.1-4.7-5-4.7-3.6.6-5.1,2.1l-2-.7v-11.8h13.4v2.4h-10.7v7.6c1.1-1.1,2.9-2,5.1-2,3.6,0,7,2.5,7,7s-3.4,7.2-7.8,7.2-6.1-1.3-7.7-3.5l1.7-1.8Z"/>
    <path class="cls-5" d="M390.7,395c1,0,1.8.8,1.8,1.8s-.8,1.8-1.8,1.8-1.8-.8-1.8-1.8.8-1.8,1.8-1.8Z"/>
    <path class="cls-5" d="M406,398.3v-5.6h-10.4v-2.3l9.4-14.1h3.7v14h3.1v2.4h-3.1v5.6h-2.7ZM406,378.9l-7.7,11.4h7.7v-11.4Z"/>
    <path class="cls-5" d="M419.1,376.1c3.2,0,5.3,2.4,5.3,5.5s-2.2,5.4-5.3,5.4-5.3-2.3-5.3-5.4,2.1-5.5,5.3-5.5ZM419.1,377.7c-1.9,0-3.3,1.6-3.3,3.8s1.3,3.7,3.3,3.7,3.4-1.6,3.4-3.7-1.4-3.8-3.4-3.8ZM417,398.3l14-21.9h1.8l-14,21.9h-1.8ZM430.6,387.9c3.1,0,5.3,2.4,5.3,5.5s-2.2,5.4-5.3,5.4-5.3-2.3-5.3-5.4,2.1-5.5,5.3-5.5ZM430.6,389.6c-2,0-3.3,1.6-3.3,3.8s1.3,3.7,3.3,3.7,3.4-1.6,3.4-3.7-1.4-3.8-3.4-3.8Z"/>
    <path class="cls-5" d="M454.7,382c4.8,0,7.6,3.7,7.6,8.5v.6h-12.9c.2,3,2.3,5.5,5.7,5.5s3.6-.7,4.9-2l1.2,1.6c-1.6,1.6-3.7,2.4-6.3,2.4-4.7,0-8.1-3.4-8.1-8.4s3.3-8.3,7.8-8.3ZM449.5,389.4h10.4c0-2.4-1.6-5.3-5.2-5.3s-5.1,2.9-5.2,5.3Z"/>
    <path class="cls-5" d="M473.3,382c2.9,0,4.6,1.2,5.8,2.8l-1.6,1.5c-1.1-1.4-2.4-2.1-4-2.1-3.4,0-5.5,2.6-5.5,6.1s2.1,6.1,5.5,6.1,3-.7,4-2.1l1.6,1.5c-1.2,1.6-2.9,2.8-5.8,2.8-4.7,0-7.9-3.6-7.9-8.4s3.2-8.3,7.9-8.3Z"/>
    <path class="cls-5" d="M481.7,390.4c0-4.6,3-8.3,7.9-8.3s7.9,3.7,7.9,8.3-3,8.4-7.9,8.4-7.9-3.7-7.9-8.4ZM494.8,390.4c0-3.2-1.9-6.1-5.3-6.1s-5.3,2.9-5.3,6.1,1.9,6.1,5.3,6.1,5.3-2.9,5.3-6.1Z"/>
    <path class="cls-5" d="M512.1,398.3v-10.4c0-2.8-1.4-3.7-3.6-3.7s-3.8,1.2-4.7,2.5v11.6h-2.5v-15.9h2.5v2.3c1.1-1.3,3.3-2.7,5.7-2.7s5.1,1.7,5.1,5.1v11.1h-2.5Z"/>
    <path class="cls-5" d="M518.6,390.4c0-4.6,3-8.3,7.9-8.3s7.9,3.7,7.9,8.3-3,8.4-7.9,8.4-7.9-3.7-7.9-8.4ZM531.7,390.4c0-3.2-1.9-6.1-5.3-6.1s-5.3,2.9-5.3,6.1,1.9,6.1,5.3,6.1,5.3-2.9,5.3-6.1Z"/>
    <path class="cls-5" d="M557.5,398.3v-10.8c0-2-.9-3.3-2.9-3.3s-3.4,1.2-4.2,2.4v11.6h-2.5v-10.8c0-2-.9-3.3-2.9-3.3s-3.3,1.2-4.2,2.5v11.6h-2.5v-15.9h2.5v2.3c.7-1,2.8-2.7,5.1-2.7s3.8,1.3,4.3,3c.9-1.4,3-3,5.3-3s4.4,1.6,4.4,4.8v11.5h-2.5Z"/>
    <path class="cls-5" d="M564.5,378.1c0-.9.8-1.6,1.6-1.6s1.7.7,1.7,1.6-.8,1.7-1.7,1.7-1.6-.8-1.6-1.7ZM564.9,398.3v-15.9h2.5v15.9h-2.5Z"/>
    <path class="cls-5" d="M579.3,382c2.9,0,4.6,1.2,5.8,2.8l-1.6,1.5c-1.1-1.4-2.4-2.1-4-2.1-3.4,0-5.5,2.6-5.5,6.1s2.1,6.1,5.5,6.1,3-.7,4-2.1l1.6,1.5c-1.2,1.6-2.9,2.8-5.8,2.8-4.7,0-7.9-3.6-7.9-8.4s3.2-8.3,7.9-8.3Z"/>
    <path class="cls-5" d="M596.6,378.1c0-.9.8-1.6,1.6-1.6s1.7.7,1.7,1.6-.8,1.7-1.7,1.7-1.6-.8-1.6-1.7ZM597.1,398.3v-15.9h2.5v15.9h-2.5Z"/>
    <path class="cls-5" d="M615.2,398.3v-10.4c0-2.8-1.4-3.7-3.6-3.7s-3.8,1.2-4.7,2.5v11.6h-2.5v-15.9h2.5v2.3c1.1-1.3,3.3-2.7,5.7-2.7s5.1,1.7,5.1,5.1v11.1h-2.5Z"/>
    <path class="cls-5" d="M623.1,395v-10.4h-2.6v-2.2h2.6v-4.3h2.5v4.3h3.2v2.2h-3.2v9.9c0,1.2.5,2,1.6,2s1.3-.3,1.7-.7l.7,1.8c-.6.6-1.5,1-3,1-2.3,0-3.5-1.3-3.5-3.7Z"/>
    <path class="cls-5" d="M639.2,382c4.8,0,7.6,3.7,7.6,8.5v.6h-12.9c.2,3,2.3,5.5,5.7,5.5s3.6-.7,4.9-2l1.2,1.6c-1.6,1.6-3.7,2.4-6.3,2.4-4.7,0-8.1-3.4-8.1-8.4s3.3-8.3,7.8-8.3ZM633.9,389.4h10.4c0-2.4-1.6-5.3-5.2-5.3s-5.1,2.9-5.2,5.3Z"/>
    <path class="cls-5" d="M650.8,398.3v-15.9h2.5v2.6c1.3-1.7,3.1-2.9,5.3-2.9v2.5c-.3,0-.6,0-1,0-1.5,0-3.6,1.2-4.3,2.5v11.2h-2.5Z"/>
    <path class="cls-5" d="M668.5,382c4.8,0,7.6,3.7,7.6,8.5v.6h-12.9c.2,3,2.3,5.5,5.7,5.5s3.6-.7,4.9-2l1.2,1.6c-1.6,1.6-3.7,2.4-6.3,2.4-4.7,0-8.1-3.4-8.1-8.4s3.3-8.3,7.8-8.3ZM663.3,389.4h10.4c0-2.4-1.6-5.3-5.2-5.3s-5.1,2.9-5.2,5.3Z"/>
    <path class="cls-5" d="M680,394.4c1.1,1.2,3.1,2.3,5.2,2.3s3.7-1.1,3.7-2.6-1.9-2.3-4.1-2.8c-2.7-.6-5.8-1.3-5.8-4.6s2.1-4.6,5.9-4.6,4.6,1,5.9,2.3l-1.2,1.7c-1-1.2-2.7-2-4.7-2s-3.5,1-3.5,2.4,1.8,2,3.9,2.5c2.8.6,6,1.4,6,4.9s-2.1,4.8-6.2,4.8-4.8-.8-6.4-2.5l1.3-1.8Z"/>
    <path class="cls-5" d="M695.9,395v-10.4h-2.6v-2.2h2.6v-4.3h2.5v4.3h3.2v2.2h-3.2v9.9c0,1.2.5,2,1.6,2s1.3-.3,1.7-.7l.7,1.8c-.6.6-1.5,1-3,1-2.3,0-3.5-1.3-3.5-3.7Z"/>
  </g>
  <g>
    <path class="cls-5" d="M1278,398.3l8.8-19.5h-11.8v-2.4h15v1.9l-9,20.1h-3Z"/>
    <path class="cls-5" d="M1302.4,398.3v-5.6h-10.4v-2.3l9.4-14.1h3.7v14h3.1v2.4h-3.1v5.6h-2.7ZM1302.4,378.9l-7.7,11.4h7.7v-11.4Z"/>
    <path class="cls-5" d="M1313.1,395c1,0,1.8.8,1.8,1.8s-.8,1.8-1.8,1.8-1.8-.8-1.8-1.8.8-1.8,1.8-1.8Z"/>
    <path class="cls-5" d="M1327.4,376.1c2.8,0,4.7,1.1,6.1,2.6l-1.4,2c-1.1-1.3-2.4-2.2-4.7-2.2-4.2,0-6.2,4.3-6.2,8.6s0,.6,0,.9c1-1.5,3.4-3.4,6.2-3.4s7.2,2.3,7.2,7-2.9,7.2-7.7,7.2-8.5-5.4-8.5-11.3,2.8-11.3,8.9-11.3ZM1326.8,386.9c-2.2,0-4.3,1.3-5.5,3.3.3,2.7,1.7,6.1,5.5,6.1s5-2.5,5-4.6c0-3.2-2.2-4.7-5.1-4.7Z"/>
    <path class="cls-5" d="M1342.5,376.1c3.2,0,5.3,2.4,5.3,5.5s-2.2,5.4-5.3,5.4-5.3-2.3-5.3-5.4,2.1-5.5,5.3-5.5ZM1342.5,377.7c-1.9,0-3.3,1.6-3.3,3.8s1.3,3.7,3.3,3.7,3.4-1.6,3.4-3.7-1.4-3.8-3.4-3.8ZM1340.5,398.3l14-21.9h1.8l-14,21.9h-1.8ZM1354,387.9c3.1,0,5.3,2.4,5.3,5.5s-2.2,5.4-5.3,5.4-5.3-2.3-5.3-5.4,2.1-5.5,5.3-5.5ZM1354,389.6c-2,0-3.3,1.6-3.3,3.8s1.3,3.7,3.3,3.7,3.4-1.6,3.4-3.7-1.4-3.8-3.4-3.8Z"/>
    <path class="cls-5" d="M1378.2,382c4.8,0,7.6,3.7,7.6,8.5v.6h-12.9c.2,3,2.3,5.5,5.7,5.5s3.6-.7,4.9-2l1.2,1.6c-1.6,1.6-3.7,2.4-6.3,2.4-4.7,0-8.1-3.4-8.1-8.4s3.3-8.3,7.8-8.3ZM1372.9,389.4h10.4c0-2.4-1.6-5.3-5.2-5.3s-5.1,2.9-5.2,5.3Z"/>
    <path class="cls-5" d="M1396.8,382c2.9,0,4.6,1.2,5.8,2.8l-1.6,1.5c-1.1-1.4-2.4-2.1-4-2.1-3.4,0-5.5,2.6-5.5,6.1s2.1,6.1,5.5,6.1,3-.7,4-2.1l1.6,1.5c-1.2,1.6-2.9,2.8-5.8,2.8-4.7,0-7.9-3.6-7.9-8.4s3.2-8.3,7.9-8.3Z"/>
    <path class="cls-5" d="M1405.1,390.4c0-4.6,3-8.3,7.9-8.3s7.9,3.7,7.9,8.3-3,8.4-7.9,8.4-7.9-3.7-7.9-8.4ZM1418.2,390.4c0-3.2-1.9-6.1-5.3-6.1s-5.3,2.9-5.3,6.1,1.9,6.1,5.3,6.1,5.3-2.9,5.3-6.1Z"/>
    <path class="cls-5" d="M1435.6,398.3v-10.4c0-2.8-1.4-3.7-3.6-3.7s-3.8,1.2-4.7,2.5v11.6h-2.5v-15.9h2.5v2.3c1.1-1.3,3.3-2.7,5.7-2.7s5.1,1.7,5.1,5.1v11.1h-2.5Z"/>
    <path class="cls-5" d="M1442,390.4c0-4.6,3-8.3,7.9-8.3s7.9,3.7,7.9,8.3-3,8.4-7.9,8.4-7.9-3.7-7.9-8.4ZM1455.2,390.4c0-3.2-1.9-6.1-5.3-6.1s-5.3,2.9-5.3,6.1,1.9,6.1,5.3,6.1,5.3-2.9,5.3-6.1Z"/>
    <path class="cls-5" d="M1480.9,398.3v-10.8c0-2-.9-3.3-2.9-3.3s-3.4,1.2-4.2,2.4v11.6h-2.5v-10.8c0-2-.9-3.3-2.9-3.3s-3.3,1.2-4.2,2.5v11.6h-2.5v-15.9h2.5v2.3c.7-1,2.8-2.7,5.1-2.7s3.8,1.3,4.3,3c.9-1.4,3-3,5.3-3s4.4,1.6,4.4,4.8v11.5h-2.5Z"/>
    <path class="cls-5" d="M1487.9,378.1c0-.9.8-1.6,1.6-1.6s1.7.7,1.7,1.6-.8,1.7-1.7,1.7-1.6-.8-1.6-1.7ZM1488.3,398.3v-15.9h2.5v15.9h-2.5Z"/>
    <path class="cls-5" d="M1502.7,382c2.9,0,4.6,1.2,5.8,2.8l-1.6,1.5c-1.1-1.4-2.4-2.1-4-2.1-3.4,0-5.5,2.6-5.5,6.1s2.1,6.1,5.5,6.1,3-.7,4-2.1l1.6,1.5c-1.2,1.6-2.9,2.8-5.8,2.8-4.7,0-7.9-3.6-7.9-8.4s3.2-8.3,7.9-8.3Z"/>
    <path class="cls-5" d="M1520.1,378.1c0-.9.8-1.6,1.6-1.6s1.7.7,1.7,1.6-.8,1.7-1.7,1.7-1.6-.8-1.6-1.7ZM1520.5,398.3v-15.9h2.5v15.9h-2.5Z"/>
    <path class="cls-5" d="M1538.6,398.3v-10.4c0-2.8-1.4-3.7-3.6-3.7s-3.8,1.2-4.7,2.5v11.6h-2.5v-15.9h2.5v2.3c1.1-1.3,3.3-2.7,5.7-2.7s5.1,1.7,5.1,5.1v11.1h-2.5Z"/>
    <path class="cls-5" d="M1546.5,395v-10.4h-2.6v-2.2h2.6v-4.3h2.5v4.3h3.2v2.2h-3.2v9.9c0,1.2.5,2,1.6,2s1.3-.3,1.7-.7l.7,1.8c-.6.6-1.5,1-3,1-2.3,0-3.5-1.3-3.5-3.7Z"/>
    <path class="cls-5" d="M1562.6,382c4.8,0,7.6,3.7,7.6,8.5v.6h-12.9c.2,3,2.3,5.5,5.7,5.5s3.6-.7,4.9-2l1.2,1.6c-1.6,1.6-3.7,2.4-6.3,2.4-4.7,0-8.1-3.4-8.1-8.4s3.3-8.3,7.8-8.3ZM1557.4,389.4h10.4c0-2.4-1.6-5.3-5.2-5.3s-5.1,2.9-5.2,5.3Z"/>
    <path class="cls-5" d="M1574.2,398.3v-15.9h2.5v2.6c1.3-1.7,3.1-2.9,5.3-2.9v2.5c-.3,0-.6,0-1,0-1.5,0-3.6,1.2-4.3,2.5v11.2h-2.5Z"/>
    <path class="cls-5" d="M1592,382c4.8,0,7.6,3.7,7.6,8.5v.6h-12.9c.2,3,2.3,5.5,5.7,5.5s3.6-.7,4.9-2l1.2,1.6c-1.6,1.6-3.7,2.4-6.3,2.4-4.7,0-8.1-3.4-8.1-8.4s3.3-8.3,7.8-8.3ZM1586.7,389.4h10.4c0-2.4-1.6-5.3-5.2-5.3s-5.1,2.9-5.2,5.3Z"/>
    <path class="cls-5" d="M1603.5,394.4c1.1,1.2,3.1,2.3,5.2,2.3s3.7-1.1,3.7-2.6-1.9-2.3-4.1-2.8c-2.7-.6-5.8-1.3-5.8-4.6s2.1-4.6,5.9-4.6,4.6,1,5.9,2.3l-1.2,1.7c-1-1.2-2.7-2-4.7-2s-3.5,1-3.5,2.4,1.8,2,3.9,2.5c2.8.6,6,1.4,6,4.9s-2.1,4.8-6.2,4.8-4.8-.8-6.4-2.5l1.3-1.8Z"/>
    <path class="cls-5" d="M1619.3,395v-10.4h-2.6v-2.2h2.6v-4.3h2.5v4.3h3.2v2.2h-3.2v9.9c0,1.2.5,2,1.6,2s1.3-.3,1.7-.7l.7,1.8c-.6.6-1.5,1-3,1-2.3,0-3.5-1.3-3.5-3.7Z"/>
  </g>
  <g>
    <path class="cls-5" d="M854.1,267.9l8.8-19.5h-11.8v-2.4h15v1.9l-9,20.1h-3Z"/>
    <path class="cls-5" d="M878.6,267.9v-5.6h-10.4v-2.3l9.4-14.1h3.7v14h3.1v2.4h-3.1v5.6h-2.7ZM878.6,248.5l-7.7,11.4h7.7v-11.4Z"/>
    <path class="cls-5" d="M889.2,264.6c1,0,1.8.8,1.8,1.8s-.8,1.8-1.8,1.8-1.8-.8-1.8-1.8.8-1.8,1.8-1.8Z"/>
    <path class="cls-5" d="M903.6,245.6c2.8,0,4.7,1.1,6.1,2.6l-1.4,2c-1.1-1.3-2.4-2.2-4.7-2.2-4.2,0-6.2,4.3-6.2,8.6s0,.6,0,.9c1-1.5,3.4-3.4,6.2-3.4s7.2,2.3,7.2,7-2.9,7.2-7.7,7.2-8.5-5.4-8.5-11.3,2.8-11.3,8.9-11.3ZM903,256.5c-2.2,0-4.3,1.3-5.5,3.3.3,2.7,1.7,6.1,5.5,6.1s5-2.5,5-4.6c0-3.2-2.2-4.7-5.1-4.7Z"/>
    <path class="cls-5" d="M918.7,245.6c3.2,0,5.3,2.4,5.3,5.5s-2.2,5.4-5.3,5.4-5.3-2.3-5.3-5.4,2.1-5.5,5.3-5.5ZM918.7,247.3c-1.9,0-3.3,1.6-3.3,3.8s1.3,3.7,3.3,3.7,3.4-1.6,3.4-3.7-1.4-3.8-3.4-3.8ZM916.6,267.9l14-21.9h1.8l-14,21.9h-1.8ZM930.2,257.5c3.1,0,5.3,2.4,5.3,5.5s-2.2,5.4-5.3,5.4-5.3-2.3-5.3-5.4,2.1-5.5,5.3-5.5ZM930.2,259.2c-2,0-3.3,1.6-3.3,3.8s1.3,3.7,3.3,3.7,3.4-1.6,3.4-3.7-1.4-3.8-3.4-3.8Z"/>
    <path class="cls-5" d="M951.7,267.9l-6.6-15.9h2.7l5.3,13,5.3-13h2.7l-6.6,15.9h-2.7Z"/>
    <path class="cls-5" d="M962.6,259.9c0-4.6,3-8.3,7.9-8.3s7.9,3.7,7.9,8.3-3,8.4-7.9,8.4-7.9-3.7-7.9-8.4ZM975.7,259.9c0-3.2-1.9-6.1-5.3-6.1s-5.3,2.9-5.3,6.1,1.9,6.1,5.3,6.1,5.3-2.9,5.3-6.1Z"/>
    <path class="cls-5" d="M982.8,264.6v-10.4h-2.6v-2.2h2.6v-4.3h2.5v4.3h3.2v2.2h-3.2v9.9c0,1.2.5,2,1.6,2s1.3-.3,1.7-.7l.7,1.8c-.6.6-1.5,1-3,1-2.3,0-3.5-1.3-3.5-3.7Z"/>
    <path class="cls-5" d="M991.6,247.7c0-.9.8-1.6,1.6-1.6s1.7.7,1.7,1.6-.8,1.7-1.7,1.7-1.6-.8-1.6-1.7ZM992,267.9v-15.9h2.5v15.9h-2.5Z"/>
    <path class="cls-5" d="M1010.1,267.9v-10.4c0-2.8-1.4-3.7-3.6-3.7s-3.8,1.2-4.7,2.5v11.6h-2.5v-15.9h2.5v2.3c1.1-1.3,3.3-2.7,5.7-2.7s5.1,1.7,5.1,5.1v11.1h-2.5Z"/>
    <path class="cls-5" d="M1018.7,270.1c1.3,1.6,2.9,2.2,5.2,2.2s5.1-1.3,5.1-4.8v-2.3c-1.2,1.6-3.1,2.8-5.3,2.8-4.1,0-7.1-3.1-7.1-8.2s2.9-8.3,7.1-8.3,4,1.1,5.3,2.8v-2.4h2.5v15.4c0,5.3-3.7,6.9-7.6,6.9s-4.5-.5-6.4-2.4l1.2-1.8ZM1029,256.4c-.9-1.4-2.8-2.6-4.7-2.6-3.2,0-5.1,2.5-5.1,6.1s1.9,6.1,5.1,6.1,3.9-1.2,4.7-2.6v-6.9Z"/>
    <path class="cls-5" d="M1044.5,247.7c0-.9.8-1.6,1.6-1.6s1.7.7,1.7,1.6-.8,1.7-1.7,1.7-1.6-.8-1.6-1.7ZM1044.9,267.9v-15.9h2.5v15.9h-2.5Z"/>
    <path class="cls-5" d="M1063,267.9v-10.4c0-2.8-1.4-3.7-3.6-3.7s-3.8,1.2-4.7,2.5v11.6h-2.5v-15.9h2.5v2.3c1.1-1.3,3.3-2.7,5.7-2.7s5.1,1.7,5.1,5.1v11.1h-2.5Z"/>
    <path class="cls-5" d="M1070.9,264.6v-10.4h-2.6v-2.2h2.6v-4.3h2.5v4.3h3.2v2.2h-3.2v9.9c0,1.2.5,2,1.6,2s1.3-.3,1.7-.7l.7,1.8c-.6.6-1.5,1-3,1-2.3,0-3.5-1.3-3.5-3.7Z"/>
    <path class="cls-5" d="M1087,251.6c4.8,0,7.6,3.7,7.6,8.5v.6h-12.9c.2,3,2.3,5.5,5.7,5.5s3.6-.7,4.9-2l1.2,1.6c-1.6,1.6-3.7,2.4-6.3,2.4-4.7,0-8.1-3.4-8.1-8.4s3.3-8.3,7.8-8.3ZM1081.7,259h10.4c0-2.4-1.6-5.3-5.2-5.3s-5.1,2.9-5.2,5.3Z"/>
    <path class="cls-5" d="M1098.6,267.9v-15.9h2.5v2.6c1.3-1.7,3.1-2.9,5.3-2.9v2.5c-.3,0-.6,0-1,0-1.5,0-3.6,1.2-4.3,2.5v11.2h-2.5Z"/>
    <path class="cls-5" d="M1116.3,251.6c4.8,0,7.6,3.7,7.6,8.5v.6h-12.9c.2,3,2.3,5.5,5.7,5.5s3.6-.7,4.9-2l1.2,1.6c-1.6,1.6-3.7,2.4-6.3,2.4-4.7,0-8.1-3.4-8.1-8.4s3.3-8.3,7.8-8.3ZM1111.1,259h10.4c0-2.4-1.6-5.3-5.2-5.3s-5.1,2.9-5.2,5.3Z"/>
    <path class="cls-5" d="M1127.8,264c1.1,1.2,3.1,2.3,5.2,2.3s3.7-1.1,3.7-2.6-1.9-2.3-4.1-2.8c-2.7-.6-5.8-1.3-5.8-4.6s2.1-4.6,5.9-4.6,4.6,1,5.9,2.3l-1.2,1.7c-1-1.2-2.7-2-4.7-2s-3.5,1-3.5,2.4,1.8,2,3.9,2.5c2.8.6,6,1.4,6,4.9s-2.1,4.8-6.2,4.8-4.8-.8-6.4-2.5l1.3-1.8Z"/>
    <path class="cls-5" d="M1143.7,264.6v-10.4h-2.6v-2.2h2.6v-4.3h2.5v4.3h3.2v2.2h-3.2v9.9c0,1.2.5,2,1.6,2s1.3-.3,1.7-.7l.7,1.8c-.6.6-1.5,1-3,1-2.3,0-3.5-1.3-3.5-3.7Z"/>
  </g>
</svg>