<?xml version="1.0" encoding="UTF-8"?>
<svg id="Layer_1" data-name="Layer 1" xmlns="http://www.w3.org/2000/svg" xmlns:xlink="http://www.w3.org/1999/xlink" version="1.1" viewBox="0 0 1512 975">
  <defs>
    <style>
      .cls-1 {
        clip-path: url(#clippath);
      }

      .cls-2, .cls-3, .cls-4, .cls-5, .cls-6, .cls-7, .cls-8 {
        stroke-width: 0px;
      }

      .cls-2, .cls-9, .cls-10 {
        fill: none;
      }

      .cls-11 {
        opacity: .1;
      }

      .cls-3 {
        fill: #dee2e6;
      }

      .cls-4 {
        fill: #222;
      }

      .cls-12 {
        clip-path: url(#clippath-1);
      }

      .cls-13 {
        clip-path: url(#clippath-3);
      }

      .cls-14 {
        clip-path: url(#clippath-2);
      }

      .cls-5 {
        fill: #000;
      }

      .cls-9 {
        stroke: #db1222;
      }

      .cls-15 {
        opacity: .2;
      }

      .cls-16 {
        opacity: .7;
      }

      .cls-17 {
        opacity: .8;
      }

      .cls-10 {
        stroke: #99a6b7;
      }

      .cls-6 {
        fill: #090909;
      }

      .cls-7 {
        fill: #db1222;
      }

      .cls-8 {
        fill: #fff;
      }

      .cls-18 {
        isolation: isolate;
        opacity: .5;
      }
    </style>
    <clipPath id="clippath">
      <rect class="cls-2" x="501.7" y="143.1" width="443.5" height="24.3"/>
    </clipPath>
    <clipPath id="clippath-1">
      <rect class="cls-2" x="502" y="143.1" width="443.1" height="24.7"/>
    </clipPath>
    <clipPath id="clippath-2">
      <rect class="cls-2" x="505.6" y="340.6" width="411.8" height="25.3"/>
    </clipPath>
    <clipPath id="clippath-3">
      <rect class="cls-2" x="505.6" y="468.2" width="411.8" height="25.3"/>
    </clipPath>
  </defs>
  <rect class="cls-8" y="0" width="1512" height="975"/>
  <rect class="cls-8" x="0" width="1512" height="975"/>
  <g>
    <path class="cls-6" d="M89.1,86.5v-16.2l-6.3,16.2h-2.1l-6.3-16.2v16.2h-4.8v-22.5h6.7l5.5,14,5.5-14h6.7v22.5h-4.8Z"/>
    <path class="cls-6" d="M109.3,86.5v-2.1c-1.1,1.2-3.1,2.5-5.7,2.5s-5.3-2-5.3-5.1v-11.6h4.3v9.9c0,2.3,1.2,3,3,3s3-.9,3.7-1.9v-11h4.3v16.3h-4.3Z"/>
    <path class="cls-6" d="M118.7,82.5v-8.5h-2.7v-3.7h2.7v-4.5h4.3v4.5h3.3v3.7h-3.3v7.3c0,1,.5,1.8,1.5,1.8s1.2-.2,1.5-.5l.9,3.2c-.6.6-1.8,1-3.6,1-3,0-4.6-1.6-4.6-4.5Z"/>
    <path class="cls-6" d="M140.2,86.5v-2.1c-1.1,1.2-3.1,2.5-5.7,2.5s-5.3-2-5.3-5.1v-11.6h4.3v9.9c0,2.3,1.2,3,3,3s3-.9,3.7-1.9v-11h4.3v16.3h-4.3Z"/>
    <path class="cls-6" d="M158.5,86.5v-1.7c-1.1,1.3-3,2.1-5.2,2.1s-5.7-1.8-5.7-5.4,3.1-5.2,5.7-5.2,4.1.7,5.2,2v-2.3c0-1.7-1.4-2.7-3.6-2.7s-3.4.6-4.8,1.9l-1.6-2.9c2-1.8,4.6-2.6,7.1-2.6,3.7,0,7.1,1.5,7.1,6.2v10.5h-4.3ZM158.5,80.6c-.7-.9-2.1-1.4-3.4-1.4s-3.1.9-3.1,2.5,1.4,2.4,3.1,2.4,2.7-.5,3.4-1.4v-2Z"/>
    <path class="cls-6" d="M167.1,86.5v-22.5h4.3v22.5h-4.3Z"/>
    <path class="cls-6" d="M184.3,86.5v-22.5h15.9v4.1h-11.1v4.9h10.9v4.1h-10.9v9.4h-4.8Z"/>
    <path class="cls-6" d="M214.5,86.5v-2.1c-1.1,1.2-3.1,2.5-5.7,2.5s-5.3-2-5.3-5.1v-11.6h4.3v9.9c0,2.3,1.2,3,3,3s3-.9,3.7-1.9v-11h4.3v16.3h-4.3Z"/>
    <path class="cls-6" d="M234,86.5v-9.8c0-2.3-1.2-3-3-3s-3,.9-3.7,1.9v11h-4.3v-16.3h4.3v2.1c1-1.2,3-2.5,5.7-2.5s5.3,2,5.3,5.2v11.5h-4.3Z"/>
    <path class="cls-6" d="M253.7,86.5v-2.1c-1.3,1.6-3.1,2.5-5,2.5-4.1,0-7.2-3.1-7.2-8.5s3.1-8.6,7.2-8.6,3.7.8,5,2.5v-8.3h4.3v22.5h-4.3ZM253.7,75.5c-.7-1.1-2.3-1.9-3.7-1.9-2.4,0-4.1,1.9-4.1,4.8s1.7,4.7,4.1,4.7,3-.8,3.7-1.9v-5.8Z"/>
    <path class="cls-6" d="M272.1,79.7c1.6,1.7,4,3,7.1,3s3.9-1.2,3.9-2.5-2-2.3-4.6-2.9c-3.7-.8-8.4-1.9-8.4-6.9s3.2-6.8,8.5-6.8,6.5,1.1,8.8,3.1l-2.7,3.5c-1.8-1.7-4.2-2.5-6.4-2.5s-3.3.9-3.3,2.3,1.9,2,4.5,2.6c3.7.8,8.4,2,8.4,6.9s-2.9,7.2-9,7.2-7.4-1.4-9.5-3.6l2.6-3.6Z"/>
    <path class="cls-6" d="M298.5,69.8c4.9,0,8.2,3.6,8.2,9v.9h-12.1c.3,2.1,1.9,3.8,4.7,3.8s3.3-.6,4.3-1.6l1.9,2.8c-1.7,1.5-4.2,2.3-6.7,2.3-5,0-8.7-3.3-8.7-8.6s3.5-8.5,8.4-8.5ZM294.5,76.9h8c-.1-1.6-1.2-3.6-4-3.6s-3.8,2-4,3.6Z"/>
    <path class="cls-6" d="M319.5,86.5v-1.7c-1.1,1.3-3,2.1-5.2,2.1s-5.7-1.8-5.7-5.4,3.1-5.2,5.7-5.2,4.1.7,5.2,2v-2.3c0-1.7-1.4-2.7-3.6-2.7s-3.4.6-4.8,1.9l-1.6-2.9c2-1.8,4.6-2.6,7.1-2.6,3.7,0,7.1,1.5,7.1,6.2v10.5h-4.3ZM319.5,80.6c-.7-.9-2.1-1.4-3.4-1.4s-3.1.9-3.1,2.5,1.4,2.4,3.1,2.4,2.7-.5,3.4-1.4v-2Z"/>
    <path class="cls-6" d="M328.1,86.5v-16.3h4.3v2.2c1.1-1.4,3.2-2.6,5.2-2.6v4.2c-.3,0-.7-.1-1.2-.1-1.4,0-3.3.8-4,1.8v10.8h-4.3Z"/>
    <path class="cls-6" d="M347.8,69.8c3.3,0,5.4,1.4,6.4,3l-2.8,2.6c-.8-1.1-2-1.8-3.4-1.8-2.6,0-4.4,1.9-4.4,4.7s1.8,4.8,4.4,4.8,2.7-.7,3.4-1.8l2.8,2.6c-1.1,1.5-3.1,3-6.4,3-5,0-8.6-3.5-8.6-8.6s3.6-8.5,8.6-8.5Z"/>
    <path class="cls-6" d="M368.1,86.5v-9.9c0-2.3-1.2-3-3-3s-3,.9-3.7,1.9v11h-4.3v-22.5h4.3v8.3c1-1.2,3.1-2.5,5.7-2.5s5.3,2,5.3,5.1v11.6h-4.3Z"/>
    <path class="cls-6" d="M390.5,86.5v-18.3h-6.6v-4.2h17.9v4.2h-6.5v18.3h-4.8Z"/>
    <path class="cls-6" d="M403.8,78.4c0-4.6,3.2-8.5,8.6-8.5s8.6,3.9,8.6,8.5-3.2,8.6-8.6,8.6-8.6-3.9-8.6-8.6ZM416.6,78.4c0-2.5-1.5-4.7-4.2-4.7s-4.1,2.2-4.1,4.7,1.5,4.8,4.1,4.8,4.2-2.2,4.2-4.8Z"/>
    <path class="cls-6" d="M423.1,78.4c0-4.6,3.2-8.5,8.6-8.5s8.6,3.9,8.6,8.5-3.2,8.6-8.6,8.6-8.6-3.9-8.6-8.6ZM435.9,78.4c0-2.5-1.5-4.7-4.2-4.7s-4.1,2.2-4.1,4.7,1.5,4.8,4.1,4.8,4.2-2.2,4.2-4.8Z"/>
    <path class="cls-6" d="M443.5,86.5v-22.5h4.3v22.5h-4.3Z"/>
  </g>
  <rect class="cls-3" x="67.4" y="302.1" width="1377.4" height="1.2"/>
  <rect class="cls-3" x="67.4" y="429.7" width="1377.4" height="1.2"/>
  <rect class="cls-3" x="67.4" y="557.3" width="1377.4" height="1.2"/>
  <rect class="cls-3" x="67.4" y="671.7" width="1377.4" height="1.2"/>
  <rect class="cls-3" x="67.4" y="831.8" width="1377.4" height="1.2"/>
  <g>
    <g class="cls-16">
      <path class="cls-4" d="M68.9,275.6v-12.8h8.4v1.4h-6.8v4.1h6.7v1.4h-6.7v5.9h-1.6Z"/>
      <path class="cls-4" d="M79.5,275.6v-12.8h1.6v12.8h-1.6Z"/>
      <path class="cls-4" d="M84.1,275.6v-12.8h1.6v11.4h6v1.4h-7.6Z"/>
    </g>
    <g class="cls-16">
      <path class="cls-4" d="M95.1,275.6v-11.4h-4.1v-1.4h9.7v1.4h-4.1v11.4h-1.6Z"/>
      <path class="cls-4" d="M102.9,275.6v-12.8h8.4v1.4h-6.8v4.1h6.7v1.4h-6.7v4.4h6.8v1.4h-8.4Z"/>
      <path class="cls-4" d="M121.3,275.6l-3.3-5.1h-2.6v5.1h-1.6v-12.8h5.2c2.3,0,4,1.5,4,3.9s-1.6,3.6-3.3,3.7l3.5,5.2h-1.9ZM118.9,264.1h-3.4v4.9h3.4c1.5,0,2.6-1,2.6-2.5s-1-2.4-2.6-2.4Z"/>
      <path class="cls-4" d="M125.8,272.5c.8.9,2.2,1.8,4,1.8s3-1.2,3-2.2c0-1.5-1.6-2-3.3-2.4-2.1-.5-4.4-1.1-4.4-3.6s1.9-3.6,4.4-3.6,3.5.7,4.6,1.8l-1,1.2c-1-1.1-2.3-1.5-3.7-1.5s-2.6.8-2.6,2,1.5,1.7,3.1,2.1c2.1.6,4.5,1.2,4.5,3.9s-1.3,3.8-4.7,3.8-3.9-.8-4.9-2l.9-1.2Z"/>
    </g>
  </g>
  <path class="cls-4" d="M72.4,358.6v-5.3l-5-7.5h2.6l3.5,5.5,3.5-5.5h2.6l-5,7.5v5.3h-2.3Z"/>
  <g>
    <path class="cls-4" d="M78,354c0-2.7,1.8-4.9,4.8-4.9s4.8,2.2,4.8,4.9-1.8,4.9-4.8,4.9-4.8-2.2-4.8-4.9ZM85.4,354c0-1.6-1-3.1-2.7-3.1s-2.7,1.4-2.7,3.1,1,3.1,2.7,3.1,2.7-1.4,2.7-3.1Z"/>
    <path class="cls-4" d="M95.9,358.6v-1.2c-.7.8-1.8,1.5-3.3,1.5s-3-1-3-2.9v-6.6h2v5.9c0,1.4.7,1.9,1.9,1.9s1.9-.6,2.4-1.2v-6.5h2v9.3h-2Z"/>
    <path class="cls-4" d="M100.5,358.6v-9.3h2v1.4c.7-.9,1.8-1.6,3-1.6v2c-.2,0-.4,0-.6,0-.8,0-2,.6-2.4,1.2v6.3h-2Z"/>
    <path class="cls-4" d="M111.6,352.2c0-3.9,2.9-6.6,6.6-6.6s4.3,1.3,5.3,2.9l-1.9,1c-.6-1.1-1.8-1.9-3.3-1.9-2.4,0-4.3,1.9-4.3,4.6s1.9,4.6,4.3,4.6,2.7-.8,3.3-1.9l1.9,1c-1,1.5-2.6,2.9-5.3,2.9s-6.6-2.7-6.6-6.6Z"/>
    <path class="cls-4" d="M124.7,354c0-2.7,1.8-4.9,4.8-4.9s4.8,2.2,4.8,4.9-1.8,4.9-4.8,4.9-4.8-2.2-4.8-4.9ZM132.2,354c0-1.6-1-3.1-2.7-3.1s-2.7,1.4-2.7,3.1,1,3.1,2.7,3.1,2.7-1.4,2.7-3.1Z"/>
    <path class="cls-4" d="M142.6,358.6v-1.2c-.7.8-1.8,1.5-3.3,1.5s-3-1-3-2.9v-6.6h2v5.9c0,1.4.7,1.9,1.9,1.9s1.9-.6,2.4-1.2v-6.5h2v9.3h-2Z"/>
    <path class="cls-4" d="M153.5,358.6v-5.8c0-1.4-.7-1.9-1.9-1.9s-1.9.6-2.4,1.3v6.5h-2v-9.3h2v1.3c.6-.7,1.8-1.5,3.3-1.5s3,1.1,3,3v6.5h-2Z"/>
    <path class="cls-4" d="M158.6,356.5v-5.4h-1.5v-1.8h1.5v-2.5h2v2.5h1.9v1.8h-1.9v4.9c0,.6.3,1.1.9,1.1s.8-.2.9-.3l.5,1.5c-.4.3-1,.6-1.9.6-1.6,0-2.4-.8-2.4-2.4Z"/>
    <path class="cls-4" d="M164.3,358.6v-9.3h2v1.4c.7-.9,1.8-1.6,3-1.6v2c-.2,0-.4,0-.6,0-.8,0-2,.6-2.4,1.2v6.3h-2Z"/>
    <path class="cls-4" d="M170.9,360.5c.2,0,.5.2.8.2.6,0,1.1-.2,1.3-.8l.5-1.1-3.8-9.4h2.2l2.7,7,2.7-7h2.2l-4.5,11c-.6,1.6-1.8,2.1-3.2,2.1-.3,0-.8,0-1.1-.1l.3-1.8Z"/>
    <path class="cls-4" d="M179.4,359l4.6-13.6h1.5l-4.6,13.6h-1.5Z"/>
    <path class="cls-4" d="M194.1,358.6l-2.9-4.8h-2.2v4.8h-2.3v-12.8h5.6c2.5,0,4.2,1.7,4.2,4s-1.5,3.5-3,3.8l3.1,5h-2.6ZM192.1,347.8h-3.1v4.1h3.1c1.3,0,2.2-.8,2.2-2s-.9-2-2.2-2Z"/>
    <path class="cls-4" d="M203,349.1c2.8,0,4.6,2.1,4.6,5.1v.5h-7.2c.2,1.4,1.2,2.6,3,2.6s2-.4,2.6-1l.9,1.3c-.9.9-2.3,1.3-3.8,1.3-2.8,0-4.9-1.9-4.9-4.9s2-4.9,4.7-4.9ZM200.4,353.2h5.2c0-1.1-.8-2.5-2.6-2.5s-2.5,1.3-2.6,2.5Z"/>
    <path class="cls-4" d="M210.4,359.6c.8.9,1.7,1.2,2.9,1.2s2.8-.6,2.8-2.5v-1.1c-.7.9-1.8,1.5-3,1.5-2.4,0-4.1-1.7-4.1-4.8s1.7-4.8,4.1-4.8,2.2.5,3,1.5v-1.3h2v8.8c0,3.4-2.5,4.3-4.8,4.3s-2.8-.3-3.9-1.4l.9-1.5ZM216.1,352.2c-.4-.7-1.4-1.3-2.4-1.3-1.6,0-2.6,1.2-2.6,3s1,3,2.6,3,1.9-.6,2.4-1.3v-3.5Z"/>
    <path class="cls-4" d="M220.5,346.5c0-.7.6-1.3,1.3-1.3s1.3.6,1.3,1.3-.6,1.3-1.3,1.3-1.3-.6-1.3-1.3ZM220.7,358.6v-9.3h2v9.3h-2Z"/>
    <path class="cls-4" d="M224.8,354c0-2.7,1.8-4.9,4.8-4.9s4.8,2.2,4.8,4.9-1.8,4.9-4.8,4.9-4.8-2.2-4.8-4.9ZM232.3,354c0-1.6-1-3.1-2.7-3.1s-2.7,1.4-2.7,3.1,1,3.1,2.7,3.1,2.7-1.4,2.7-3.1Z"/>
    <path class="cls-4" d="M242.7,358.6v-5.8c0-1.4-.7-1.9-1.9-1.9s-1.9.6-2.4,1.3v6.5h-2v-9.3h2v1.3c.6-.7,1.8-1.5,3.3-1.5s3,1.1,3,3v6.5h-2Z"/>
  </g>
  <g>
    <path class="cls-4" d="M68.7,486.3v-12.8h8.8v2h-6.5v3.3h6.4v2h-6.4v5.5h-2.3Z"/>
    <path class="cls-4" d="M85.8,486.3v-1.2c-.7.8-1.8,1.5-3.3,1.5s-3-1-3-2.9v-6.6h2v5.9c0,1.4.7,1.9,1.9,1.9s1.9-.6,2.4-1.2v-6.5h2v9.3h-2Z"/>
    <path class="cls-4" d="M96.7,486.3v-5.8c0-1.4-.7-1.9-1.9-1.9s-1.9.6-2.4,1.3v6.5h-2v-9.3h2v1.3c.6-.7,1.8-1.5,3.3-1.5s3,1.1,3,3v6.5h-2Z"/>
    <path class="cls-4" d="M107.9,486.3v-1.3c-.7.9-1.8,1.5-3,1.5-2.4,0-4.1-1.8-4.1-4.9s1.7-4.9,4.1-4.9,2.2.5,3,1.5v-4.8h2v12.8h-2ZM107.9,479.8c-.5-.7-1.4-1.3-2.4-1.3-1.6,0-2.6,1.3-2.6,3.1s1,3.1,2.6,3.1,1.9-.5,2.4-1.2v-3.7Z"/>
    <path class="cls-4" d="M117.6,486.3v-12.8h8.8v2h-6.5v3.3h6.4v2h-6.4v5.5h-2.3Z"/>
    <path class="cls-4" d="M134,486.3v-1c-.7.8-1.8,1.2-3,1.2s-3.2-1-3.2-3.1,1.7-3,3.2-3,2.3.4,3,1.2v-1.4c0-1.1-.9-1.7-2.2-1.7s-1.9.4-2.8,1.2l-.8-1.4c1.1-1,2.4-1.5,3.9-1.5s3.9.9,3.9,3.4v6.2h-2ZM134,482.7c-.5-.6-1.3-1-2.2-1s-2,.7-2,1.7.8,1.7,2,1.7,1.8-.3,2.2-1v-1.4Z"/>
    <path class="cls-4" d="M150,486.3v-6.1c0-1-.4-1.7-1.5-1.7s-1.8.6-2.2,1.2v6.5h-2v-6.1c0-1-.4-1.7-1.5-1.7s-1.7.6-2.1,1.3v6.5h-2v-9.3h2v1.3c.4-.6,1.6-1.5,3-1.5s2.2.7,2.5,1.7c.5-.8,1.8-1.7,3.2-1.7s2.7.9,2.7,2.8v6.7h-2Z"/>
    <path class="cls-4" d="M154.4,474.2c0-.7.6-1.3,1.3-1.3s1.3.6,1.3,1.3-.6,1.3-1.3,1.3-1.3-.6-1.3-1.3ZM154.7,486.3v-9.3h2v9.3h-2Z"/>
    <path class="cls-4" d="M159.3,486.3v-12.8h2v12.8h-2Z"/>
    <path class="cls-4" d="M163.9,488.1c.2,0,.5.2.8.2.6,0,1.1-.2,1.3-.8l.5-1.1-3.8-9.4h2.2l2.7,7,2.7-7h2.2l-4.5,11c-.6,1.6-1.8,2.1-3.2,2.1-.3,0-.8,0-1.1-.1l.3-1.8Z"/>
  </g>
  <g>
    <path class="cls-4" d="M68.2,600.3c0-3.9,2.9-6.6,6.6-6.6s4.3,1.3,5.3,2.9l-1.9,1c-.6-1.1-1.8-1.9-3.3-1.9-2.4,0-4.3,1.9-4.3,4.6s1.9,4.6,4.3,4.6,2.7-.8,3.3-1.9l1.9,1c-1,1.5-2.6,2.9-5.3,2.9s-6.6-2.7-6.6-6.6Z"/>
    <path class="cls-4" d="M81.2,602c0-2.7,1.8-4.9,4.8-4.9s4.8,2.2,4.8,4.9-1.8,4.9-4.8,4.9-4.8-2.2-4.8-4.9ZM88.7,602c0-1.6-1-3.1-2.7-3.1s-2.7,1.4-2.7,3.1,1,3.1,2.7,3.1,2.7-1.4,2.7-3.1Z"/>
    <path class="cls-4" d="M104.3,606.7v-6.1c0-1-.4-1.7-1.5-1.7s-1.8.6-2.2,1.2v6.5h-2v-6.1c0-1-.4-1.7-1.5-1.7s-1.7.6-2.1,1.3v6.5h-2v-9.3h2v1.3c.4-.6,1.6-1.5,3-1.5s2.2.7,2.5,1.7c.5-.8,1.8-1.7,3.2-1.7s2.7.9,2.7,2.8v6.7h-2Z"/>
    <path class="cls-4" d="M120.3,606.7v-6.1c0-1-.4-1.7-1.5-1.7s-1.8.6-2.2,1.2v6.5h-2v-6.1c0-1-.4-1.7-1.5-1.7s-1.7.6-2.1,1.3v6.5h-2v-9.3h2v1.3c.4-.6,1.6-1.5,3-1.5s2.2.7,2.5,1.7c.5-.8,1.8-1.7,3.2-1.7s2.7.9,2.7,2.8v6.7h-2Z"/>
    <path class="cls-4" d="M124.7,594.6c0-.7.6-1.3,1.3-1.3s1.3.6,1.3,1.3-.6,1.3-1.3,1.3-1.3-.6-1.3-1.3ZM125,606.7v-9.3h2v9.3h-2Z"/>
    <path class="cls-4" d="M129.7,604c.7.7,1.9,1.3,3.2,1.3s1.8-.4,1.8-1.1-1-1.1-2.1-1.3c-1.6-.3-3.5-.8-3.5-2.9s1.3-2.8,3.7-2.8,2.8.6,3.6,1.3l-.8,1.4c-.6-.6-1.6-1.1-2.8-1.1s-1.7.4-1.7,1,.9,1,2,1.2c1.6.3,3.6.8,3.6,3s-1.4,2.9-3.9,2.9-3-.5-4-1.4l.9-1.5Z"/>
    <path class="cls-4" d="M138.8,604c.7.7,1.9,1.3,3.2,1.3s1.8-.4,1.8-1.1-1-1.1-2.1-1.3c-1.6-.3-3.5-.8-3.5-2.9s1.3-2.8,3.7-2.8,2.8.6,3.6,1.3l-.8,1.4c-.6-.6-1.6-1.1-2.8-1.1s-1.7.4-1.7,1,.9,1,2,1.2c1.6.3,3.6.8,3.6,3s-1.4,2.9-3.9,2.9-3-.5-4-1.4l.9-1.5Z"/>
    <path class="cls-4" d="M147.5,594.6c0-.7.6-1.3,1.3-1.3s1.3.6,1.3,1.3-.6,1.3-1.3,1.3-1.3-.6-1.3-1.3ZM147.8,606.7v-9.3h2v9.3h-2Z"/>
    <path class="cls-4" d="M151.8,602c0-2.7,1.8-4.9,4.8-4.9s4.8,2.2,4.8,4.9-1.8,4.9-4.8,4.9-4.8-2.2-4.8-4.9ZM159.3,602c0-1.6-1-3.1-2.7-3.1s-2.7,1.4-2.7,3.1,1,3.1,2.7,3.1,2.7-1.4,2.7-3.1Z"/>
    <path class="cls-4" d="M169.7,606.7v-5.8c0-1.4-.7-1.9-1.9-1.9s-1.9.6-2.4,1.3v6.5h-2v-9.3h2v1.3c.6-.7,1.8-1.5,3.3-1.5s3,1.1,3,3v6.5h-2Z"/>
    <path class="cls-4" d="M178.8,600.3c0-3.9,2.9-6.6,6.6-6.6s4.3,1.3,5.3,2.9l-1.9,1c-.6-1.1-1.8-1.9-3.3-1.9-2.4,0-4.3,1.9-4.3,4.6s1.9,4.6,4.3,4.6,2.7-.8,3.3-1.9l1.9,1c-1,1.5-2.6,2.9-5.3,2.9s-6.6-2.7-6.6-6.6Z"/>
    <path class="cls-4" d="M198.8,606.7v-5.9c0-1.4-.8-1.9-1.9-1.9s-1.9.6-2.4,1.3v6.5h-2v-12.8h2v4.8c.6-.7,1.8-1.5,3.3-1.5s3,1,3,2.9v6.6h-2Z"/>
    <path class="cls-4" d="M209.1,606.7v-1c-.7.8-1.8,1.2-3,1.2s-3.2-1-3.2-3.1,1.7-3,3.2-3,2.3.4,3,1.2v-1.4c0-1.1-.9-1.7-2.2-1.7s-1.9.4-2.8,1.2l-.8-1.4c1.1-1,2.4-1.5,3.9-1.5s3.9.9,3.9,3.4v6.2h-2ZM209.1,603.1c-.5-.6-1.3-1-2.2-1s-2,.7-2,1.7.8,1.7,2,1.7,1.8-.3,2.2-1v-1.4Z"/>
    <path class="cls-4" d="M213.7,606.7v-9.3h2v1.4c.7-.9,1.8-1.6,3-1.6v2c-.2,0-.4,0-.6,0-.8,0-2,.6-2.4,1.2v6.3h-2Z"/>
    <path class="cls-4" d="M221.3,607.6c.8.9,1.7,1.2,2.9,1.2s2.8-.6,2.8-2.5v-1.1c-.7.9-1.8,1.5-3,1.5-2.4,0-4.1-1.7-4.1-4.8s1.7-4.8,4.1-4.8,2.2.5,3,1.5v-1.3h2v8.8c0,3.4-2.5,4.3-4.8,4.3s-2.8-.3-3.9-1.4l.9-1.5ZM227,600.2c-.4-.7-1.4-1.3-2.4-1.3-1.6,0-2.6,1.2-2.6,3s1,3,2.6,3,1.9-.6,2.4-1.3v-3.5Z"/>
    <path class="cls-4" d="M235.7,597.1c2.8,0,4.6,2.1,4.6,5.1v.5h-7.2c.2,1.4,1.2,2.6,3,2.6s2-.4,2.6-1l.9,1.3c-.9.9-2.3,1.3-3.8,1.3-2.8,0-4.9-1.9-4.9-4.9s2-4.9,4.7-4.9ZM233.1,601.3h5.2c0-1.1-.8-2.5-2.6-2.5s-2.5,1.3-2.6,2.5Z"/>
    <path class="cls-4" d="M248.9,606.7v-1.3c-.7.9-1.8,1.5-3,1.5-2.4,0-4.1-1.8-4.1-4.9s1.7-4.9,4.1-4.9,2.2.5,3,1.5v-4.8h2v12.8h-2ZM248.9,600.2c-.5-.7-1.4-1.3-2.4-1.3-1.6,0-2.6,1.3-2.6,3.1s1,3.1,2.6,3.1,1.9-.5,2.4-1.2v-3.7Z"/>
  </g>
  <g>
    <path class="cls-5" d="M530.8,606.7l-1.1-2.9h-6.5l-1.1,2.9h-1.8l5.2-12.8h2l5.2,12.8h-1.8ZM526.4,595.3l-2.8,7.1h5.6l-2.8-7.1Z"/>
    <path class="cls-5" d="M534.2,606.7v-12.8h1.4v12.8h-1.4Z"/>
    <path class="cls-5" d="M538.5,606.7v-12.8h1.4v12.8h-1.4Z"/>
  </g>
  <path class="cls-5" d="M604.5,606.7v-5.4l-5.1-7.4h1.9l4,6,4-6h1.9l-5,7.4v5.4h-1.6Z"/>
  <g>
    <path class="cls-5" d="M614.3,597.1c2.8,0,4.5,2.2,4.5,5v.4h-7.5c.1,1.8,1.3,3.2,3.4,3.2s2.1-.4,2.9-1.2l.7.9c-.9.9-2.2,1.4-3.7,1.4-2.8,0-4.7-2-4.7-4.9s1.9-4.9,4.6-4.9ZM611.3,601.4h6.1c0-1.4-.9-3.1-3.1-3.1s-3,1.7-3,3.1Z"/>
    <path class="cls-5" d="M621.1,604.4c.6.7,1.8,1.3,3.1,1.3s2.2-.6,2.2-1.5-1.1-1.3-2.4-1.7c-1.6-.4-3.4-.8-3.4-2.7s1.3-2.7,3.5-2.7,2.7.6,3.4,1.3l-.7,1c-.6-.7-1.6-1.2-2.8-1.2s-2.1.6-2.1,1.4,1.1,1.2,2.3,1.5c1.6.4,3.5.8,3.5,2.9s-1.3,2.8-3.7,2.8-2.8-.5-3.8-1.5l.8-1Z"/>
  </g>
  <g>
    <path class="cls-5" d="M697,606.7l-7.5-10.4v10.4h-1.6v-12.8h1.6l7.4,10.1v-10.1h1.6v12.8h-1.5Z"/>
    <path class="cls-5" d="M701,602c0-2.7,1.8-4.9,4.6-4.9s4.6,2.2,4.6,4.9-1.8,4.9-4.6,4.9-4.6-2.2-4.6-4.9ZM708.7,602c0-1.9-1.1-3.6-3.1-3.6s-3.1,1.7-3.1,3.6,1.1,3.6,3.1,3.6,3.1-1.7,3.1-3.6Z"/>
  </g>
  <g>
    <path class="cls-4" d="M68.7,721.1v-12.8h8.8v2h-6.5v3.3h6.4v2h-6.4v5.5h-2.3Z"/>
    <path class="cls-4" d="M85.8,721.1v-1.2c-.7.8-1.8,1.5-3.3,1.5s-3-1-3-2.9v-6.6h2v5.9c0,1.4.7,1.9,1.9,1.9s1.9-.6,2.4-1.2v-6.5h2v9.3h-2Z"/>
    <path class="cls-4" d="M96.7,721.1v-5.8c0-1.4-.7-1.9-1.9-1.9s-1.9.6-2.4,1.3v6.5h-2v-9.3h2v1.3c.6-.7,1.8-1.5,3.3-1.5s3,1.1,3,3v6.5h-2Z"/>
    <path class="cls-4" d="M107.9,721.1v-1.3c-.7.9-1.8,1.5-3,1.5-2.4,0-4.1-1.8-4.1-4.9s1.7-4.9,4.1-4.9,2.2.5,3,1.5v-4.8h2v12.8h-2ZM107.9,714.6c-.5-.7-1.4-1.3-2.4-1.3-1.6,0-2.6,1.3-2.6,3.1s1,3.1,2.6,3.1,1.9-.5,2.4-1.2v-3.7Z"/>
    <path class="cls-4" d="M120.6,721.1v-10.9h-3.9v-2h10v2h-3.9v10.9h-2.3Z"/>
    <path class="cls-4" d="M128.5,722.9c.2,0,.5.2.8.2.6,0,1.1-.2,1.3-.8l.5-1.1-3.8-9.4h2.2l2.7,7,2.7-7h2.2l-4.5,11c-.6,1.6-1.8,2.1-3.2,2.1-.3,0-.8,0-1.1-.1l.3-1.8Z"/>
    <path class="cls-4" d="M140.3,724.6h-2v-12.8h2v1.3c.7-.9,1.8-1.5,3-1.5,2.4,0,4.1,1.8,4.1,4.9s-1.7,4.9-4.1,4.9-2.2-.5-3-1.5v4.8ZM142.7,713.3c-.9,0-1.9.6-2.4,1.3v3.7c.4.7,1.4,1.3,2.4,1.3,1.6,0,2.6-1.3,2.6-3.1s-1-3.1-2.6-3.1Z"/>
    <path class="cls-4" d="M153.6,711.5c2.8,0,4.6,2.1,4.6,5.1v.5h-7.2c.2,1.4,1.2,2.6,3,2.6s2-.4,2.6-1l.9,1.3c-.9.9-2.3,1.3-3.8,1.3-2.8,0-4.9-1.9-4.9-4.9s2-4.9,4.7-4.9ZM151,715.6h5.2c0-1.1-.8-2.5-2.6-2.5s-2.5,1.3-2.6,2.5Z"/>
  </g>
  <g>
    <path class="cls-5" d="M530.8,721.1l-1.1-2.9h-6.5l-1.1,2.9h-1.8l5.2-12.8h2l5.2,12.8h-1.8ZM526.4,709.6l-2.8,7.1h5.6l-2.8-7.1Z"/>
    <path class="cls-5" d="M534.2,721.1v-12.8h1.4v12.8h-1.4Z"/>
    <path class="cls-5" d="M538.5,721.1v-12.8h1.4v12.8h-1.4Z"/>
  </g>
  <g>
    <path class="cls-5" d="M609.9,721.1l-1.1-2.9h-6.5l-1.1,2.9h-1.8l5.2-12.8h2l5.2,12.8h-1.8ZM605.6,709.6l-2.8,7.1h5.6l-2.8-7.1Z"/>
    <path class="cls-5" d="M613.3,721.1v-12.8h1.4v12.8h-1.4Z"/>
    <path class="cls-5" d="M618,719.1v-6.1h-1.5v-1.3h1.5v-2.5h1.4v2.5h1.9v1.3h-1.9v5.8c0,.7.3,1.2.9,1.2s.8-.2,1-.4l.4,1.1c-.4.3-.9.6-1.7.6-1.4,0-2.1-.8-2.1-2.2Z"/>
    <path class="cls-5" d="M627.4,711.5c2.8,0,4.5,2.2,4.5,5v.4h-7.5c.1,1.8,1.3,3.2,3.4,3.2s2.1-.4,2.9-1.2l.7.9c-.9.9-2.2,1.4-3.7,1.4-2.8,0-4.7-2-4.7-4.9s1.9-4.9,4.6-4.9ZM624.3,715.8h6.1c0-1.4-.9-3.1-3.1-3.1s-3,1.7-3,3.1Z"/>
    <path class="cls-5" d="M634.2,721.1v-9.3h1.4v1.5c.8-1,1.8-1.7,3.1-1.7v1.5c-.2,0-.3,0-.6,0-.9,0-2.1.7-2.5,1.5v6.6h-1.4Z"/>
    <path class="cls-5" d="M646.8,721.1v-6.1c0-1.6-.8-2.2-2.1-2.2s-2.2.7-2.8,1.4v6.8h-1.4v-9.3h1.4v1.3c.7-.8,1.9-1.6,3.3-1.6s3,1,3,3v6.5h-1.4Z"/>
    <path class="cls-5" d="M657,721.1v-1.1c-.8.8-1.8,1.3-3.1,1.3s-3.3-1.1-3.3-3.1,1.7-3.1,3.3-3.1,2.3.4,3.1,1.3v-1.7c0-1.3-1-2-2.3-2s-2,.4-2.8,1.3l-.7-1c1-1,2.2-1.5,3.7-1.5s3.6.9,3.6,3.1v6.4h-1.4ZM657,717.3c-.6-.8-1.5-1.2-2.6-1.2s-2.3.8-2.3,2,.9,2,2.3,2,2-.4,2.6-1.2v-1.8Z"/>
    <path class="cls-5" d="M661.6,719.1v-6.1h-1.5v-1.3h1.5v-2.5h1.4v2.5h1.9v1.3h-1.9v5.8c0,.7.3,1.2.9,1.2s.8-.2,1-.4l.4,1.1c-.4.3-.9.6-1.7.6-1.4,0-2.1-.8-2.1-2.2Z"/>
    <path class="cls-5" d="M666.7,709.2c0-.5.4-1,1-1s1,.4,1,1-.4,1-1,1-1-.4-1-1ZM667,721.1v-9.3h1.4v9.3h-1.4Z"/>
    <path class="cls-5" d="M673.8,721.1l-3.9-9.3h1.6l3.1,7.6,3.1-7.6h1.6l-3.9,9.3h-1.6Z"/>
    <path class="cls-5" d="M684.8,711.5c2.8,0,4.5,2.2,4.5,5v.4h-7.5c.1,1.8,1.3,3.2,3.4,3.2s2.1-.4,2.9-1.2l.7.9c-.9.9-2.2,1.4-3.7,1.4-2.8,0-4.7-2-4.7-4.9s1.9-4.9,4.6-4.9ZM681.7,715.8h6.1c0-1.4-.9-3.1-3.1-3.1s-3,1.7-3,3.1Z"/>
    <path class="cls-5" d="M691.5,718.8c.6.7,1.8,1.3,3.1,1.3s2.2-.6,2.2-1.5-1.1-1.3-2.4-1.7c-1.6-.4-3.4-.8-3.4-2.7s1.3-2.7,3.5-2.7,2.7.6,3.4,1.3l-.7,1c-.6-.7-1.6-1.2-2.8-1.2s-2.1.6-2.1,1.4,1.1,1.2,2.3,1.5c1.6.4,3.5.8,3.5,2.9s-1.3,2.8-3.7,2.8-2.8-.5-3.8-1.5l.8-1Z"/>
  </g>
  <g>
    <path class="cls-5" d="M758.4,721.1v-12.8h5.7c2.2,0,3.6,1.3,3.6,3.3s-1.1,2.7-2.3,2.9c1.4.2,2.5,1.6,2.5,3.2s-1.4,3.5-3.7,3.5h-5.9ZM760,713.8h3.9c1.4,0,2.2-.9,2.2-2.1s-.8-2.1-2.2-2.1h-3.9v4.1ZM760,719.6h3.9c1.5,0,2.4-.8,2.4-2.2s-.8-2.2-2.4-2.2h-3.9v4.4Z"/>
    <path class="cls-5" d="M776.2,721.1v-1.1c-.8.8-1.8,1.3-3.1,1.3s-3.3-1.1-3.3-3.1,1.7-3.1,3.3-3.1,2.3.4,3.1,1.3v-1.7c0-1.3-1-2-2.3-2s-2,.4-2.9,1.3l-.7-1c1-1,2.2-1.5,3.7-1.5s3.6.9,3.6,3.1v6.4h-1.4ZM776.2,717.3c-.6-.8-1.5-1.2-2.6-1.2s-2.3.8-2.3,2,.9,2,2.3,2,2-.4,2.6-1.2v-1.8Z"/>
    <path class="cls-5" d="M780.6,721.1v-12.8h1.4v12.8h-1.4Z"/>
    <path class="cls-5" d="M790.7,721.1v-1.1c-.8.8-1.8,1.3-3.1,1.3s-3.3-1.1-3.3-3.1,1.7-3.1,3.3-3.1,2.3.4,3.1,1.3v-1.7c0-1.3-1-2-2.3-2s-2,.4-2.9,1.3l-.7-1c1-1,2.2-1.5,3.7-1.5s3.6.9,3.6,3.1v6.4h-1.4ZM790.7,717.3c-.6-.8-1.5-1.2-2.6-1.2s-2.3.8-2.3,2,.9,2,2.3,2,2-.4,2.6-1.2v-1.8Z"/>
    <path class="cls-5" d="M801.3,721.1v-6.1c0-1.6-.8-2.2-2.1-2.2s-2.2.7-2.8,1.4v6.8h-1.4v-9.3h1.4v1.3c.7-.8,1.9-1.6,3.3-1.6s3,1,3,3v6.5h-1.4Z"/>
    <path class="cls-5" d="M809.8,711.5c1.7,0,2.7.7,3.4,1.6l-1,.9c-.6-.8-1.4-1.2-2.4-1.2-2,0-3.2,1.5-3.2,3.6s1.2,3.6,3.2,3.6,1.8-.4,2.4-1.2l1,.9c-.7.9-1.7,1.6-3.4,1.6-2.8,0-4.6-2.1-4.6-4.9s1.9-4.9,4.6-4.9Z"/>
    <path class="cls-5" d="M819.3,711.5c2.8,0,4.5,2.2,4.5,5v.4h-7.5c.1,1.8,1.3,3.2,3.4,3.2s2.1-.4,2.9-1.2l.7.9c-.9.9-2.2,1.4-3.7,1.4-2.8,0-4.7-2-4.7-4.9s1.9-4.9,4.6-4.9ZM816.2,715.8h6.1c0-1.4-.9-3.1-3.1-3.1s-3,1.7-3,3.1Z"/>
    <path class="cls-5" d="M832.8,721.1v-1.4c-.7.9-1.8,1.6-3.1,1.6-2.4,0-4.1-1.8-4.1-4.9s1.7-4.9,4.1-4.9,2.4.6,3.1,1.6v-4.9h1.4v12.8h-1.4ZM832.8,714.3c-.5-.8-1.6-1.5-2.8-1.5-1.9,0-3,1.5-3,3.6s1.1,3.6,3,3.6,2.3-.7,2.8-1.5v-4.2Z"/>
  </g>
  <g>
    <path class="cls-5" d="M895,721.1v-12.8h5.7c2.2,0,3.6,1.3,3.6,3.3s-1.1,2.7-2.3,2.9c1.4.2,2.5,1.6,2.5,3.2s-1.4,3.5-3.7,3.5h-5.9ZM896.6,713.8h3.9c1.4,0,2.2-.9,2.2-2.1s-.8-2.1-2.2-2.1h-3.9v4.1ZM896.6,719.6h3.9c1.5,0,2.4-.8,2.4-2.2s-.8-2.2-2.4-2.2h-3.9v4.4Z"/>
    <path class="cls-5" d="M906.5,716.4c0-2.7,1.8-4.9,4.6-4.9s4.6,2.2,4.6,4.9-1.8,4.9-4.6,4.9-4.6-2.2-4.6-4.9ZM914.2,716.4c0-1.9-1.1-3.6-3.1-3.6s-3.1,1.7-3.1,3.6,1.1,3.6,3.1,3.6,3.1-1.7,3.1-3.6Z"/>
    <path class="cls-5" d="M924.3,721.1v-6.1c0-1.6-.8-2.2-2.1-2.2s-2.2.7-2.8,1.4v6.8h-1.4v-9.3h1.4v1.3c.7-.8,1.9-1.6,3.3-1.6s3,1,3,3v6.5h-1.4Z"/>
    <path class="cls-5" d="M935.4,721.1v-1.4c-.7.9-1.8,1.6-3.1,1.6-2.4,0-4.1-1.8-4.1-4.9s1.7-4.9,4.1-4.9,2.4.6,3.1,1.6v-4.9h1.4v12.8h-1.4ZM935.4,714.3c-.5-.8-1.6-1.5-2.8-1.5-1.9,0-3,1.5-3,3.6s1.1,3.6,3,3.6,2.3-.7,2.8-1.5v-4.2Z"/>
  </g>
  <g>
    <path class="cls-5" d="M997,714.6c0-3.9,2.9-6.6,6.5-6.6s3.9,1.1,4.9,2.5l-1.3.8c-.7-1.1-2.1-1.9-3.6-1.9-2.8,0-4.9,2.2-4.9,5.2s2.1,5.2,4.9,5.2,2.9-.8,3.6-1.9l1.4.8c-1.1,1.5-2.6,2.5-4.9,2.5-3.6,0-6.5-2.7-6.5-6.6Z"/>
    <path class="cls-5" d="M1010,716.4c0-2.7,1.8-4.9,4.6-4.9s4.6,2.2,4.6,4.9-1.8,4.9-4.6,4.9-4.6-2.2-4.6-4.9ZM1017.7,716.4c0-1.9-1.1-3.6-3.1-3.6s-3.1,1.7-3.1,3.6,1.1,3.6,3.1,3.6,3.1-1.7,3.1-3.6Z"/>
    <path class="cls-5" d="M1032.8,721.1v-6.3c0-1.2-.5-1.9-1.7-1.9s-2,.7-2.5,1.4v6.8h-1.4v-6.3c0-1.2-.5-1.9-1.7-1.9s-1.9.7-2.4,1.4v6.8h-1.4v-9.3h1.4v1.3c.4-.6,1.6-1.6,3-1.6s2.2.8,2.5,1.7c.5-.8,1.8-1.7,3.1-1.7s2.6.9,2.6,2.8v6.7h-1.4Z"/>
    <path class="cls-5" d="M1048.3,721.1v-6.3c0-1.2-.5-1.9-1.7-1.9s-2,.7-2.5,1.4v6.8h-1.4v-6.3c0-1.2-.5-1.9-1.7-1.9s-1.9.7-2.4,1.4v6.8h-1.4v-9.3h1.4v1.3c.4-.6,1.6-1.6,3-1.6s2.2.8,2.5,1.7c.5-.8,1.8-1.7,3.1-1.7s2.6.9,2.6,2.8v6.7h-1.4Z"/>
    <path class="cls-5" d="M1052.1,716.4c0-2.7,1.8-4.9,4.6-4.9s4.6,2.2,4.6,4.9-1.8,4.9-4.6,4.9-4.6-2.2-4.6-4.9ZM1059.8,716.4c0-1.9-1.1-3.6-3.1-3.6s-3.1,1.7-3.1,3.6,1.1,3.6,3.1,3.6,3.1-1.7,3.1-3.6Z"/>
    <path class="cls-5" d="M1070.4,721.1v-1.4c-.7.9-1.8,1.6-3.1,1.6-2.4,0-4.1-1.8-4.1-4.9s1.7-4.9,4.1-4.9,2.4.6,3.1,1.6v-4.9h1.4v12.8h-1.4ZM1070.4,714.3c-.5-.8-1.6-1.5-2.8-1.5-1.9,0-3,1.5-3,3.6s1.1,3.6,3,3.6,2.3-.7,2.8-1.5v-4.2Z"/>
    <path class="cls-5" d="M1074.5,709.2c0-.5.4-1,1-1s1,.4,1,1-.4,1-1,1-1-.4-1-1ZM1074.8,721.1v-9.3h1.4v9.3h-1.4Z"/>
    <path class="cls-5" d="M1079.4,719.1v-6.1h-1.5v-1.3h1.5v-2.5h1.4v2.5h1.9v1.3h-1.9v5.8c0,.7.3,1.2.9,1.2s.8-.2,1-.4l.4,1.1c-.4.3-.9.6-1.7.6-1.4,0-2.1-.8-2.1-2.2Z"/>
    <path class="cls-5" d="M1084.5,723.4c.2,0,.6.2.8.2.6,0,1.1-.2,1.4-1l.6-1.4-3.9-9.4h1.6l3.1,7.6,3.1-7.6h1.6l-4.7,11.2c-.6,1.3-1.5,1.9-2.7,1.9-.3,0-.8,0-1.1-.1l.2-1.3Z"/>
  </g>
  <g>
    <path class="cls-5" d="M521.6,766.8v-12.8h8.4v1.4h-6.8v4.1h6.7v1.4h-6.7v4.4h6.8v1.4h-8.4Z"/>
    <path class="cls-5" d="M540.7,770.4h-1.4v-4.9c-.8,1-1.9,1.6-3.1,1.6-2.4,0-4.1-1.9-4.1-4.9s1.7-4.9,4.1-4.9,2.4.7,3.1,1.6v-1.4h1.4v12.8ZM539.2,760.1c-.5-.8-1.6-1.5-2.8-1.5-1.9,0-3,1.5-3,3.6s1.1,3.6,3,3.6,2.3-.7,2.8-1.5v-4.2Z"/>
    <path class="cls-5" d="M549.8,766.8v-1.3c-.7.8-1.9,1.5-3.3,1.5s-3-.9-3-3v-6.6h1.4v6.1c0,1.6.8,2.1,2.1,2.1s2.2-.7,2.8-1.4v-6.8h1.4v9.3h-1.4Z"/>
    <path class="cls-5" d="M553.9,755c0-.5.4-1,1-1s1,.4,1,1-.4,1-1,1-1-.4-1-1ZM554.2,766.8v-9.3h1.4v9.3h-1.4Z"/>
    <path class="cls-5" d="M558.8,764.9v-6.1h-1.5v-1.3h1.5v-2.5h1.4v2.5h1.9v1.3h-1.9v5.8c0,.7.3,1.2.9,1.2s.8-.2,1-.4l.4,1.1c-.4.3-.9.6-1.7.6-1.4,0-2.1-.8-2.1-2.2Z"/>
    <path class="cls-5" d="M563.9,769.1c.2,0,.6.2.8.2.6,0,1.1-.2,1.4-1l.6-1.4-3.9-9.4h1.6l3.1,7.6,3.1-7.6h1.6l-4.7,11.2c-.6,1.3-1.5,1.9-2.7,1.9-.3,0-.8,0-1.1-.1l.2-1.3Z"/>
  </g>
  <g>
    <path class="cls-5" d="M642.4,766.8v-10.7l-4.4,10.7h-.7l-4.4-10.7v10.7h-1.6v-12.8h2.3l4,9.8,4-9.8h2.3v12.8h-1.6Z"/>
    <path class="cls-5" d="M646.7,755c0-.5.4-1,1-1s1,.4,1,1-.4,1-1,1-1-.4-1-1ZM647,766.8v-9.3h1.4v9.3h-1.4Z"/>
    <path class="cls-5" d="M657.3,766.8l-2.8-3.8-2.8,3.8h-1.7l3.6-4.8-3.4-4.5h1.7l2.6,3.5,2.6-3.5h1.7l-3.4,4.5,3.6,4.8h-1.7Z"/>
  </g>
  <g>
    <path class="cls-5" d="M664.1,757.3c2.8,0,4.5,2.2,4.5,5v.4h-7.5c.1,1.8,1.3,3.2,3.4,3.2s2.1-.4,2.9-1.2l.7.9c-.9.9-2.2,1.4-3.7,1.4-2.8,0-4.7-2-4.7-4.9s1.9-4.9,4.6-4.9ZM661,761.6h6.1c0-1.4-.9-3.1-3.1-3.1s-3,1.7-3,3.1Z"/>
    <path class="cls-5" d="M677.6,766.8v-1.4c-.7.9-1.8,1.6-3.1,1.6-2.4,0-4.1-1.8-4.1-4.9s1.7-4.9,4.1-4.9,2.4.6,3.1,1.6v-4.9h1.4v12.8h-1.4ZM677.6,760.1c-.5-.8-1.6-1.5-2.8-1.5-1.9,0-3,1.5-3,3.6s1.1,3.6,3,3.6,2.3-.7,2.8-1.5v-4.2Z"/>
    <path class="cls-5" d="M687,766.8v-12.8h1.6v12.8h-1.6Z"/>
    <path class="cls-5" d="M697.8,766.8v-6.1c0-1.6-.8-2.2-2.1-2.2s-2.2.7-2.8,1.4v6.8h-1.4v-9.3h1.4v1.3c.7-.8,1.9-1.6,3.3-1.6s3,1,3,3v6.5h-1.4Z"/>
    <path class="cls-5" d="M704.7,766.8l-3.9-9.3h1.6l3.1,7.6,3.1-7.6h1.6l-3.9,9.3h-1.6Z"/>
    <path class="cls-5" d="M715.7,757.3c2.8,0,4.5,2.2,4.5,5v.4h-7.5c.1,1.8,1.3,3.2,3.4,3.2s2.1-.4,2.9-1.2l.7.9c-.9.9-2.2,1.4-3.7,1.4-2.8,0-4.7-2-4.7-4.9s1.9-4.9,4.6-4.9ZM712.6,761.6h6.1c0-1.4-.9-3.1-3.1-3.1s-3,1.7-3,3.1Z"/>
    <path class="cls-5" d="M722.4,764.5c.6.7,1.8,1.3,3.1,1.3s2.2-.6,2.2-1.5-1.1-1.3-2.4-1.7c-1.6-.4-3.4-.8-3.4-2.7s1.3-2.7,3.5-2.7,2.7.6,3.4,1.3l-.7,1c-.6-.7-1.6-1.2-2.8-1.2s-2.1.6-2.1,1.4,1.1,1.2,2.3,1.5c1.6.4,3.5.8,3.5,2.9s-1.3,2.8-3.7,2.8-2.8-.5-3.8-1.5l.8-1Z"/>
    <path class="cls-5" d="M731.7,764.9v-6.1h-1.5v-1.3h1.5v-2.5h1.4v2.5h1.9v1.3h-1.9v5.8c0,.7.3,1.2.9,1.2s.8-.2,1-.4l.4,1.1c-.4.3-.9.6-1.7.6-1.4,0-2.1-.8-2.1-2.2Z"/>
    <path class="cls-5" d="M748.3,766.8v-6.3c0-1.2-.5-1.9-1.7-1.9s-2,.7-2.5,1.4v6.8h-1.4v-6.3c0-1.2-.5-1.9-1.7-1.9s-1.9.7-2.4,1.4v6.8h-1.4v-9.3h1.4v1.3c.4-.6,1.6-1.6,3-1.6s2.2.8,2.5,1.7c.5-.8,1.8-1.7,3.1-1.7s2.6.9,2.6,2.8v6.7h-1.4Z"/>
    <path class="cls-5" d="M756.7,757.3c2.8,0,4.5,2.2,4.5,5v.4h-7.5c.1,1.8,1.3,3.2,3.4,3.2s2.1-.4,2.9-1.2l.7.9c-.9.9-2.2,1.4-3.7,1.4-2.8,0-4.7-2-4.7-4.9s1.9-4.9,4.6-4.9ZM753.6,761.6h6.1c0-1.4-.9-3.1-3.1-3.1s-3,1.7-3,3.1Z"/>
    <path class="cls-5" d="M769.8,766.8v-6.1c0-1.6-.8-2.2-2.1-2.2s-2.2.7-2.8,1.4v6.8h-1.4v-9.3h1.4v1.3c.7-.8,1.9-1.6,3.3-1.6s3,1,3,3v6.5h-1.4Z"/>
    <path class="cls-5" d="M774.4,764.9v-6.1h-1.5v-1.3h1.5v-2.5h1.4v2.5h1.9v1.3h-1.9v5.8c0,.7.3,1.2.9,1.2s.8-.2,1-.4l.4,1.1c-.4.3-.9.6-1.7.6-1.4,0-2.1-.8-2.1-2.2Z"/>
    <path class="cls-5" d="M779.7,764.5c.6.7,1.8,1.3,3.1,1.3s2.2-.6,2.2-1.5-1.1-1.3-2.4-1.7c-1.6-.4-3.4-.8-3.4-2.7s1.3-2.7,3.5-2.7,2.7.6,3.4,1.3l-.7,1c-.6-.7-1.6-1.2-2.8-1.2s-2.1.6-2.1,1.4,1.1,1.2,2.3,1.5c1.6.4,3.5.8,3.5,2.9s-1.3,2.8-3.7,2.8-2.8-.5-3.8-1.5l.8-1Z"/>
  </g>
  <g>
    <path class="cls-5" d="M857.5,766.8v-10.7l-4.4,10.7h-.7l-4.4-10.7v10.7h-1.6v-12.8h2.3l4,9.8,4-9.8h2.3v12.8h-1.6Z"/>
    <path class="cls-5" d="M861.5,762.2c0-2.7,1.8-4.9,4.6-4.9s4.6,2.2,4.6,4.9-1.8,4.9-4.6,4.9-4.6-2.2-4.6-4.9ZM869.2,762.2c0-1.9-1.1-3.6-3.1-3.6s-3.1,1.7-3.1,3.6,1.1,3.6,3.1,3.6,3.1-1.7,3.1-3.6Z"/>
    <path class="cls-5" d="M879.4,766.8v-6.1c0-1.6-.8-2.2-2.1-2.2s-2.2.7-2.8,1.4v6.8h-1.4v-9.3h1.4v1.3c.7-.8,1.9-1.6,3.3-1.6s3,1,3,3v6.5h-1.4Z"/>
    <path class="cls-5" d="M887.7,757.3c2.8,0,4.5,2.2,4.5,5v.4h-7.5c.1,1.8,1.3,3.2,3.4,3.2s2.1-.4,2.9-1.2l.7.9c-.9.9-2.2,1.4-3.7,1.4-2.8,0-4.7-2-4.7-4.9s1.9-4.9,4.6-4.9ZM884.7,761.6h6.1c0-1.4-.9-3.1-3.1-3.1s-3,1.7-3,3.1Z"/>
    <path class="cls-5" d="M894.3,769.1c.2,0,.6.2.8.2.6,0,1.1-.2,1.4-1l.6-1.4-3.9-9.4h1.6l3.1,7.6,3.1-7.6h1.6l-4.7,11.2c-.6,1.3-1.5,1.9-2.7,1.9-.3,0-.8,0-1.1-.1l.2-1.3Z"/>
    <path class="cls-5" d="M920,766.8v-10.7l-4.4,10.7h-.7l-4.4-10.7v10.7h-1.6v-12.8h2.3l4,9.8,4-9.8h2.3v12.8h-1.6Z"/>
    <path class="cls-5" d="M930.4,766.8v-1.1c-.8.8-1.8,1.3-3.1,1.3s-3.3-1.1-3.3-3.1,1.7-3.1,3.3-3.1,2.3.4,3.1,1.3v-1.7c0-1.3-1-2-2.3-2s-2,.4-2.9,1.3l-.7-1c1-1,2.2-1.5,3.7-1.5s3.6.9,3.6,3.1v6.4h-1.4ZM930.4,763.1c-.6-.8-1.5-1.2-2.6-1.2s-2.3.8-2.3,2,.9,2,2.3,2,2-.4,2.6-1.2v-1.8Z"/>
    <path class="cls-5" d="M934.7,766.8v-9.3h1.4v1.5c.8-1,1.8-1.7,3.1-1.7v1.5c-.2,0-.3,0-.6,0-.9,0-2.1.7-2.5,1.5v6.6h-1.4Z"/>
    <path class="cls-5" d="M947.4,766.8l-3.4-4.2-1.5,1.5v2.7h-1.4v-12.8h1.4v8.5l4.9-4.9h1.8l-4.1,4.2,4.1,5.1h-1.8Z"/>
  </g>
  <g>
    <path class="cls-5" d="M954.5,757.3c2.8,0,4.5,2.2,4.5,5v.4h-7.5c.1,1.8,1.3,3.2,3.4,3.2s2.1-.4,2.9-1.2l.7.9c-.9.9-2.2,1.4-3.7,1.4-2.8,0-4.7-2-4.7-4.9s1.9-4.9,4.6-4.9ZM951.4,761.6h6.1c0-1.4-.9-3.1-3.1-3.1s-3,1.7-3,3.1Z"/>
    <path class="cls-5" d="M961.6,764.9v-6.1h-1.5v-1.3h1.5v-2.5h1.4v2.5h1.9v1.3h-1.9v5.8c0,.7.3,1.2.9,1.2s.8-.2,1-.4l.4,1.1c-.4.3-.9.6-1.7.6-1.4,0-2.1-.8-2.1-2.2Z"/>
  </g>
  <path class="cls-5" d="M1025,763.8c.8.9,2.2,1.8,4,1.8s3-1.2,3-2.2c0-1.5-1.6-2-3.3-2.4-2.1-.5-4.4-1.1-4.4-3.6s1.9-3.6,4.4-3.6,3.5.7,4.6,1.8l-1,1.2c-1-1.1-2.3-1.5-3.7-1.5s-2.6.8-2.6,2,1.5,1.7,3.1,2.1c2.1.6,4.5,1.2,4.5,3.9s-1.3,3.8-4.7,3.8-3.9-.8-4.9-2l.9-1.2Z"/>
  <g>
    <path class="cls-5" d="M1036,764.9v-6.1h-1.5v-1.3h1.5v-2.5h1.4v2.5h1.9v1.3h-1.9v5.8c0,.7.3,1.2.9,1.2s.8-.2,1-.4l.4,1.1c-.4.3-.9.6-1.7.6-1.4,0-2.1-.8-2.1-2.2Z"/>
    <path class="cls-5" d="M1040.9,762.2c0-2.7,1.8-4.9,4.6-4.9s4.6,2.2,4.6,4.9-1.8,4.9-4.6,4.9-4.6-2.2-4.6-4.9ZM1048.5,762.2c0-1.9-1.1-3.6-3.1-3.6s-3.1,1.7-3.1,3.6,1.1,3.6,3.1,3.6,3.1-1.7,3.1-3.6Z"/>
    <path class="cls-5" d="M1056.5,757.3c1.7,0,2.7.7,3.4,1.6l-1,.9c-.6-.8-1.4-1.2-2.4-1.2-2,0-3.2,1.5-3.2,3.6s1.2,3.6,3.2,3.6,1.8-.4,2.4-1.2l1,.9c-.7.9-1.7,1.6-3.4,1.6-2.8,0-4.6-2.1-4.6-4.9s1.9-4.9,4.6-4.9Z"/>
    <path class="cls-5" d="M1068.3,766.8l-3.4-4.2-1.5,1.5v2.7h-1.4v-12.8h1.4v8.5l4.9-4.9h1.8l-4.1,4.2,4.1,5.1h-1.8Z"/>
  </g>
  <g class="cls-17">
    <rect class="cls-8" x="491.2" y="137.1" width="481.6" height="37.3"/>
  </g>
  <g class="cls-15">
    <path class="cls-5" d="M972.6,174.2h-481.2v-36.9h481.2v36.9ZM492.2,173.4h479.7v-35.4h-479.7v35.4Z"/>
  </g>
  <g class="cls-18">
    <g class="cls-1">
      <g class="cls-12">
        <g>
          <path class="cls-4" d="M503.7,158.2c.8.9,2.2,1.8,4,1.8s3-1.2,3-2.2c0-1.5-1.6-2-3.3-2.4-2.1-.5-4.4-1.1-4.4-3.6s1.9-3.6,4.4-3.6,3.5.7,4.6,1.8l-1,1.2c-1-1.1-2.3-1.5-3.7-1.5s-2.6.8-2.6,2,1.5,1.7,3.1,2.1c2.1.6,4.5,1.2,4.5,3.9s-1.3,3.8-4.7,3.8-3.9-.8-4.9-2l.9-1.2Z"/>
          <path class="cls-4" d="M518.8,151.6c2.8,0,4.5,2.2,4.5,5v.4h-7.5c.1,1.8,1.3,3.2,3.4,3.2s2.1-.4,2.9-1.2l.7.9c-.9.9-2.2,1.4-3.7,1.4-2.8,0-4.7-2-4.7-4.9s1.9-4.9,4.6-4.9ZM515.7,155.9h6.1c0-1.4-.9-3.1-3.1-3.1s-3,1.7-3,3.1Z"/>
          <path class="cls-4" d="M531.4,161.2v-1.1c-.8.8-1.8,1.3-3.1,1.3s-3.3-1.1-3.3-3.1,1.7-3.1,3.3-3.1,2.3.4,3.1,1.3v-1.7c0-1.3-1-2-2.3-2s-2,.4-2.8,1.3l-.7-1c1-1,2.2-1.5,3.7-1.5s3.6.9,3.6,3.1v6.4h-1.4ZM531.4,157.5c-.6-.8-1.5-1.2-2.6-1.2s-2.3.8-2.3,2,.9,2,2.3,2,2-.4,2.6-1.2v-1.8Z"/>
          <path class="cls-4" d="M535.8,161.2v-9.3h1.4v1.5c.8-1,1.8-1.7,3.1-1.7v1.5c-.2,0-.3,0-.6,0-.9,0-2.1.7-2.5,1.5v6.6h-1.4Z"/>
          <path class="cls-4" d="M546.2,151.6c1.7,0,2.7.7,3.4,1.6l-1,.9c-.6-.8-1.4-1.2-2.4-1.2-2,0-3.2,1.5-3.2,3.6s1.2,3.6,3.2,3.6,1.8-.4,2.4-1.2l1,.9c-.7.9-1.7,1.6-3.4,1.6-2.8,0-4.6-2.1-4.6-4.9s1.9-4.9,4.6-4.9Z"/>
          <path class="cls-4" d="M558,161.2v-6.1c0-1.6-.8-2.1-2.1-2.1s-2.2.7-2.8,1.4v6.8h-1.4v-12.8h1.4v4.9c.7-.8,1.9-1.6,3.3-1.6s3,.9,3,3v6.6h-1.4Z"/>
          <path class="cls-4" d="M567.3,161.2v-12.8h1.4v4.9c.8-1,1.9-1.6,3.1-1.6,2.4,0,4.1,1.9,4.1,4.9s-1.7,4.9-4.1,4.9-2.4-.7-3.1-1.6v1.4h-1.4ZM568.7,158.7c.5.8,1.6,1.5,2.8,1.5,1.9,0,3-1.5,3-3.6s-1.1-3.6-3-3.6-2.3.7-2.8,1.5v4.2Z"/>
          <path class="cls-4" d="M578,163.5c.2,0,.6.2.8.2.6,0,1.1-.2,1.4-1l.6-1.4-3.9-9.4h1.6l3.1,7.6,3.1-7.6h1.6l-4.7,11.2c-.6,1.3-1.5,1.9-2.7,1.9-.3,0-.8,0-1.1-.1l.2-1.3Z"/>
          <path class="cls-4" d="M592.8,161.2v-12.8h1.6v12.8h-1.6Z"/>
          <path class="cls-4" d="M597.6,158.2c.8.9,2.2,1.8,4,1.8s3-1.2,3-2.2c0-1.5-1.6-2-3.3-2.4-2.1-.5-4.4-1.1-4.4-3.6s1.9-3.6,4.4-3.6,3.5.7,4.6,1.8l-1,1.2c-1-1.1-2.3-1.5-3.7-1.5s-2.6.8-2.6,2,1.5,1.7,3.1,2.1c2.1.6,4.5,1.2,4.5,3.9s-1.3,3.8-4.7,3.8-3.9-.8-4.9-2l.9-1.2Z"/>
          <path class="cls-4" d="M608.7,161.2v-12.8h1.6v12.8h-1.6Z"/>
          <path class="cls-4" d="M622.4,161.2l-7.5-10.4v10.4h-1.6v-12.8h1.6l7.4,10.1v-10.1h1.6v12.8h-1.5Z"/>
          <path class="cls-4" d="M626.5,163c.6-.4,1.2-1.2,1.3-1.8,0,0-.2,0-.3,0-.5,0-.9-.4-.9-1s.4-1,1-1,1.2.5,1.2,1.5-.7,2.3-1.6,2.9l-.7-.6Z"/>
          <path class="cls-4" d="M635.8,154.8c0-3.9,2.9-6.6,6.5-6.6s3.9,1.1,4.9,2.5l-1.3.8c-.7-1.1-2.1-1.9-3.6-1.9-2.8,0-4.9,2.2-4.9,5.2s2.1,5.2,4.9,5.2,2.8-.8,3.6-1.9l1.4.8c-1.1,1.5-2.6,2.5-4.9,2.5-3.6,0-6.5-2.7-6.5-6.6Z"/>
          <path class="cls-4" d="M649.4,148.3h1.6v7.8c0,2.3,1.3,3.8,3.6,3.8s3.6-1.5,3.6-3.8v-7.8h1.6v7.8c0,3.2-1.8,5.2-5.2,5.2s-5.2-2.1-5.2-5.2v-7.9Z"/>
          <path class="cls-4" d="M663,158.2c.8.9,2.2,1.8,4,1.8s3-1.2,3-2.2c0-1.5-1.6-2-3.3-2.4-2.1-.5-4.4-1.1-4.4-3.6s1.9-3.6,4.4-3.6,3.5.7,4.6,1.8l-1,1.2c-1-1.1-2.3-1.5-3.7-1.5s-2.6.8-2.6,2,1.5,1.7,3.1,2.1c2.1.6,4.5,1.2,4.5,3.9s-1.3,3.8-4.7,3.8-3.9-.8-4.9-2l.9-1.2Z"/>
          <path class="cls-4" d="M674.1,161.2v-12.8h1.6v12.8h-1.6Z"/>
          <path class="cls-4" d="M678.7,161.2v-12.8h5.2c2.6,0,4,1.8,4,3.9s-1.5,3.9-4,3.9h-3.6v5.1h-1.6ZM683.7,149.8h-3.4v4.9h3.4c1.5,0,2.6-1,2.6-2.4s-1-2.4-2.6-2.4Z"/>
        </g>
        <g>
          <path class="cls-4" d="M687.8,163c.6-.4,1.2-1.2,1.3-1.8,0,0-.2,0-.3,0-.5,0-.9-.4-.9-1s.4-1,1-1,1.2.5,1.2,1.5-.7,2.3-1.6,2.9l-.7-.6Z"/>
          <path class="cls-4" d="M700.7,161.2v-11.4h-4.1v-1.4h9.7v1.4h-4.1v11.4h-1.6Z"/>
          <path class="cls-4" d="M708.2,149.3c0-.5.4-1,1-1s1,.4,1,1-.4,1-1,1-1-.4-1-1ZM708.5,161.2v-9.3h1.4v9.3h-1.4Z"/>
          <path class="cls-4" d="M716.9,151.6c1.7,0,2.7.7,3.4,1.6l-1,.9c-.6-.8-1.4-1.2-2.4-1.2-2,0-3.2,1.5-3.2,3.6s1.2,3.6,3.2,3.6,1.8-.4,2.4-1.2l1,.9c-.7.9-1.7,1.6-3.4,1.6-2.8,0-4.6-2.1-4.6-4.9s1.9-4.9,4.6-4.9Z"/>
          <path class="cls-4" d="M728.7,161.2l-3.4-4.2-1.5,1.5v2.7h-1.4v-12.8h1.4v8.5l4.9-4.9h1.8l-4.1,4.2,4.1,5.1h-1.8Z"/>
        </g>
        <g>
          <path class="cls-4" d="M735.8,151.6c2.8,0,4.5,2.2,4.5,5v.4h-7.5c.1,1.8,1.3,3.2,3.4,3.2s2.1-.4,2.9-1.2l.7.9c-.9.9-2.2,1.4-3.7,1.4-2.8,0-4.7-2-4.7-4.9s1.9-4.9,4.6-4.9ZM732.8,155.9h6.1c0-1.4-.9-3.1-3.1-3.1s-3,1.7-3,3.1Z"/>
          <path class="cls-4" d="M742.6,161.2v-9.3h1.4v1.5c.8-1,1.8-1.7,3.1-1.7v1.5c-.2,0-.3,0-.6,0-.9,0-2.1.7-2.5,1.5v6.6h-1.4Z"/>
          <path class="cls-4" d="M754.2,158.2c.8.9,2.2,1.8,4,1.8s3-1.2,3-2.2c0-1.5-1.6-2-3.3-2.4-2.1-.5-4.4-1.1-4.4-3.6s1.9-3.6,4.4-3.6,3.5.7,4.6,1.8l-1,1.2c-1-1.1-2.3-1.5-3.7-1.5s-2.6.8-2.6,2,1.5,1.7,3.1,2.1c2.1.6,4.5,1.2,4.5,3.9s-1.3,3.8-4.7,3.8-3.9-.8-4.9-2l.9-1.2Z"/>
        </g>
        <g>
          <path class="cls-4" d="M764.8,163.5c.2,0,.6.2.8.2.6,0,1.1-.2,1.4-1l.6-1.4-3.9-9.4h1.6l3.1,7.6,3.1-7.6h1.6l-4.7,11.2c-.6,1.3-1.5,1.9-2.7,1.9-.3,0-.8,0-1.1-.1l.2-1.3Z"/>
          <path class="cls-4" d="M785.8,161.2v-6.3c0-1.2-.5-1.9-1.7-1.9s-2,.7-2.5,1.4v6.8h-1.4v-6.3c0-1.2-.5-1.9-1.7-1.9s-1.9.7-2.4,1.4v6.8h-1.4v-9.3h1.4v1.3c.4-.6,1.6-1.6,3-1.6s2.2.8,2.5,1.7c.5-.8,1.8-1.7,3.1-1.7s2.6.9,2.6,2.8v6.7h-1.4Z"/>
          <path class="cls-4" d="M790.1,161.2v-12.8h1.4v4.9c.8-1,1.9-1.6,3.1-1.6,2.4,0,4.1,1.9,4.1,4.9s-1.7,4.9-4.1,4.9-2.4-.7-3.1-1.6v1.4h-1.4ZM791.6,158.7c.5.8,1.6,1.5,2.8,1.5,1.9,0,3-1.5,3-3.6s-1.1-3.6-3-3.6-2.3.7-2.8,1.5v4.2Z"/>
          <path class="cls-4" d="M800.7,156.5c0-2.7,1.8-4.9,4.6-4.9s4.6,2.2,4.6,4.9-1.8,4.9-4.6,4.9-4.6-2.2-4.6-4.9ZM808.3,156.5c0-1.9-1.1-3.6-3.1-3.6s-3.1,1.7-3.1,3.6,1.1,3.6,3.1,3.6,3.1-1.7,3.1-3.6Z"/>
          <path class="cls-4" d="M812.2,161.2v-12.8h1.4v12.8h-1.4Z"/>
          <path class="cls-4" d="M816.2,163c.6-.4,1.2-1.2,1.3-1.8,0,0-.2,0-.3,0-.5,0-.9-.4-.9-1s.4-1,1-1,1.2.5,1.2,1.5-.7,2.3-1.6,2.9l-.7-.6Z"/>
          <path class="cls-4" d="M825.4,156.5c0-2.7,1.8-4.9,4.6-4.9s4.6,2.2,4.6,4.9-1.8,4.9-4.6,4.9-4.6-2.2-4.6-4.9ZM833.1,156.5c0-1.9-1.1-3.6-3.1-3.6s-3.1,1.7-3.1,3.6,1.1,3.6,3.1,3.6,3.1-1.7,3.1-3.6Z"/>
          <path class="cls-4" d="M837,161.2v-9.3h1.4v1.5c.8-1,1.8-1.7,3.1-1.7v1.5c-.2,0-.3,0-.6,0-.9,0-2.1.7-2.5,1.5v6.6h-1.4Z"/>
          <path class="cls-4" d="M848.4,161.2v-12.8h8.4v1.4h-6.8v4.1h6.7v1.4h-6.7v5.9h-1.6Z"/>
          <path class="cls-4" d="M865.2,161.2v-1.3c-.7.8-1.9,1.5-3.3,1.5s-3-.9-3-3v-6.6h1.4v6.1c0,1.6.8,2.1,2.1,2.1s2.2-.7,2.8-1.4v-6.8h1.4v9.3h-1.4Z"/>
          <path class="cls-4" d="M875.8,161.2v-6.1c0-1.6-.8-2.2-2.1-2.2s-2.2.7-2.8,1.4v6.8h-1.4v-9.3h1.4v1.3c.7-.8,1.9-1.6,3.3-1.6s3,1,3,3v6.5h-1.4Z"/>
          <path class="cls-4" d="M886.9,161.2v-1.4c-.7.9-1.8,1.6-3.1,1.6-2.4,0-4.1-1.8-4.1-4.9s1.7-4.9,4.1-4.9,2.4.6,3.1,1.6v-4.9h1.4v12.8h-1.4ZM886.9,154.4c-.5-.8-1.6-1.5-2.8-1.5-1.9,0-3,1.5-3,3.6s1.1,3.6,3,3.6,2.3-.7,2.8-1.5v-4.2Z"/>
          <path class="cls-4" d="M905.3,161.2l-7.5-10.4v10.4h-1.6v-12.8h1.6l7.4,10.1v-10.1h1.6v12.8h-1.5Z"/>
          <path class="cls-4" d="M915.6,161.2v-1.1c-.8.8-1.8,1.3-3.1,1.3s-3.3-1.1-3.3-3.1,1.7-3.1,3.3-3.1,2.3.4,3.1,1.3v-1.7c0-1.3-1-2-2.3-2s-2,.4-2.9,1.3l-.7-1c1-1,2.2-1.5,3.7-1.5s3.6.9,3.6,3.1v6.4h-1.4ZM915.6,157.5c-.6-.8-1.5-1.2-2.6-1.2s-2.3.8-2.3,2,.9,2,2.3,2,2-.4,2.6-1.2v-1.8Z"/>
          <path class="cls-4" d="M931.2,161.2v-6.3c0-1.2-.5-1.9-1.7-1.9s-2,.7-2.5,1.4v6.8h-1.4v-6.3c0-1.2-.5-1.9-1.7-1.9s-1.9.7-2.4,1.4v6.8h-1.4v-9.3h1.4v1.3c.4-.6,1.6-1.6,3-1.6s2.2.8,2.5,1.7c.5-.8,1.8-1.7,3.1-1.7s2.6.9,2.6,2.8v6.7h-1.4Z"/>
          <path class="cls-4" d="M939.6,151.6c2.8,0,4.5,2.2,4.5,5v.4h-7.5c.1,1.8,1.3,3.2,3.4,3.2s2.1-.4,2.9-1.2l.7.9c-.9.9-2.2,1.4-3.7,1.4-2.8,0-4.7-2-4.7-4.9s1.9-4.9,4.6-4.9ZM936.5,155.9h6.1c0-1.4-.9-3.1-3.1-3.1s-3,1.7-3,3.1Z"/>
        </g>
      </g>
    </g>
  </g>
  <g class="cls-17">
    <rect class="cls-8" x="494.8" y="334.6" width="457.5" height="37.3"/>
  </g>
  <g class="cls-15">
    <path class="cls-5" d="M952.1,371.7h-457.1v-36.9h457.1v36.9ZM495.8,370.9h455.6v-35.4h-455.6v35.4Z"/>
  </g>
  <g class="cls-15">
    <path class="cls-5" d="M952.1,498.7h-457.1v-36.9h457.1v36.9ZM495.8,497.9h455.6v-35.4h-455.6v35.4Z"/>
  </g>
  <g class="cls-14">
    <g>
      <path class="cls-4" d="M507.1,345.8h1.6v7.8c0,2.3,1.3,3.8,3.6,3.8s3.6-1.5,3.6-3.8v-7.8h1.6v7.8c0,3.2-1.8,5.2-5.2,5.2s-5.2-2.1-5.2-5.2v-7.9Z"/>
      <path class="cls-4" d="M526.8,358.6v-6.1c0-1.6-.8-2.2-2.1-2.2s-2.2.7-2.8,1.4v6.8h-1.4v-9.3h1.4v1.3c.7-.8,1.9-1.6,3.3-1.6s3,1,3,3v6.5h-1.4Z"/>
      <path class="cls-4" d="M530.9,346.8c0-.5.4-1,1-1s1,.4,1,1-.4,1-1,1-1-.4-1-1ZM531.2,358.6v-9.3h1.4v9.3h-1.4Z"/>
      <path class="cls-4" d="M535.8,356.7v-6.1h-1.5v-1.3h1.5v-2.5h1.4v2.5h1.9v1.3h-1.9v5.8c0,.7.3,1.2.9,1.2s.8-.2,1-.4l.4,1.1c-.4.3-.9.6-1.7.6-1.4,0-2.1-.8-2.1-2.2Z"/>
      <path class="cls-4" d="M545.2,349.1c2.8,0,4.5,2.2,4.5,5v.4h-7.5c.1,1.8,1.3,3.2,3.4,3.2s2.1-.4,2.9-1.2l.7.9c-.9.9-2.2,1.4-3.7,1.4-2.8,0-4.7-2-4.7-4.9s1.9-4.9,4.6-4.9ZM542.2,353.4h6.1c0-1.4-.9-3.1-3.1-3.1s-3,1.7-3,3.1Z"/>
      <path class="cls-4" d="M558.8,358.6v-1.4c-.7.9-1.8,1.6-3.1,1.6-2.4,0-4.1-1.8-4.1-4.9s1.7-4.9,4.1-4.9,2.4.6,3.1,1.6v-4.9h1.4v12.8h-1.4ZM558.8,351.9c-.5-.8-1.6-1.5-2.8-1.5-1.9,0-3,1.5-3,3.6s1.1,3.6,3,3.6,2.3-.7,2.8-1.5v-4.2Z"/>
      <path class="cls-4" d="M568.3,355.6c.8.9,2.2,1.8,4,1.8s3-1.2,3-2.2c0-1.5-1.6-2-3.3-2.4-2.1-.5-4.4-1.1-4.4-3.6s1.9-3.6,4.4-3.6,3.5.7,4.6,1.8l-1,1.2c-1-1.1-2.3-1.5-3.7-1.5s-2.6.8-2.6,2,1.5,1.7,3.1,2.1c2.1.6,4.5,1.2,4.5,3.9s-1.3,3.8-4.7,3.8-3.9-.8-4.9-2l.9-1.2Z"/>
    </g>
    <g>
      <path class="cls-4" d="M579.3,356.7v-6.1h-1.5v-1.3h1.5v-2.5h1.4v2.5h1.9v1.3h-1.9v5.8c0,.7.3,1.2.9,1.2s.8-.2,1-.4l.4,1.1c-.4.3-.9.6-1.7.6-1.4,0-2.1-.8-2.1-2.2Z"/>
      <path class="cls-4" d="M590.5,358.6v-1.1c-.8.8-1.8,1.3-3.1,1.3s-3.3-1.1-3.3-3.1,1.7-3.1,3.3-3.1,2.3.4,3.1,1.3v-1.7c0-1.3-1-2-2.3-2s-2,.4-2.8,1.3l-.7-1c1-1,2.2-1.5,3.7-1.5s3.6.9,3.6,3.1v6.4h-1.4ZM590.5,354.9c-.6-.8-1.5-1.2-2.6-1.2s-2.3.8-2.3,2,.9,2,2.3,2,2-.4,2.6-1.2v-1.8Z"/>
      <path class="cls-4" d="M595.1,356.7v-6.1h-1.5v-1.3h1.5v-2.5h1.4v2.5h1.9v1.3h-1.9v5.8c0,.7.3,1.2.9,1.2s.8-.2,1-.4l.4,1.1c-.4.3-.9.6-1.7.6-1.4,0-2.1-.8-2.1-2.2Z"/>
      <path class="cls-4" d="M604.5,349.1c2.8,0,4.5,2.2,4.5,5v.4h-7.5c.1,1.8,1.3,3.2,3.4,3.2s2.1-.4,2.9-1.2l.7.9c-.9.9-2.2,1.4-3.7,1.4-2.8,0-4.7-2-4.7-4.9s1.9-4.9,4.6-4.9ZM601.5,353.4h6.1c0-1.4-.9-3.1-3.1-3.1s-3,1.7-3,3.1Z"/>
      <path class="cls-4" d="M611.3,356.4c.6.7,1.8,1.3,3.1,1.3s2.2-.6,2.2-1.5-1.1-1.3-2.4-1.7c-1.6-.4-3.4-.8-3.4-2.7s1.3-2.7,3.5-2.7,2.7.6,3.4,1.3l-.7,1c-.6-.7-1.6-1.2-2.8-1.2s-2.1.6-2.1,1.4,1.1,1.2,2.3,1.5c1.6.4,3.5.8,3.5,2.9s-1.3,2.8-3.7,2.8-2.8-.5-3.8-1.5l.8-1Z"/>
    </g>
  </g>
  <g class="cls-13">
    <g>
      <path class="cls-4" d="M516.4,486.3l-1.1-2.8h-6.5l-1.1,2.8h-1.8l5.2-12.8h2l5.2,12.8h-1.8ZM512,474.8l-2.8,7.1h5.6l-2.8-7.1Z"/>
      <path class="cls-4" d="M519.8,486.3v-12.8h1.4v12.8h-1.4Z"/>
      <path class="cls-4" d="M524.1,486.3v-12.8h1.4v12.8h-1.4Z"/>
    </g>
  </g>
  <g class="cls-15">
    <polyline class="cls-5" points="927.1 477.8 934.3 485.1 941.5 477.8"/>
  </g>
  <g class="cls-15">
    <polyline class="cls-5" points="927.1 352.8 934.3 360 941.5 352.8"/>
  </g>
  <path class="cls-7" d="M72.2,907.7v-49.4c0-.5,0-.9.3-1.4.2-.4.4-.8.8-1.2.3-.3.7-.6,1.2-.8.4-.2.9-.3,1.4-.3h255.3c.5,0,.9,0,1.4.3.4.2.8.4,1.2.8s.6.7.8,1.2c.2.4.3.9.3,1.4v49.4c0,.5,0,.9-.3,1.4s-.4.8-.8,1.2c-.3.3-.7.6-1.2.8-.4.2-.9.3-1.4.3H75.8c-.5,0-.9,0-1.4-.3-.4-.2-.8-.4-1.2-.8s-.6-.7-.8-1.2c-.2-.4-.3-.9-.3-1.4Z"/>
  <g class="cls-11">
    <path class="cls-5" d="M331.1,911.1H75.8c-.4,0-.9,0-1.3-.3-.4-.2-.8-.4-1.1-.7-.3-.3-.6-.7-.7-1.1-.2-.4-.3-.8-.3-1.3v-49.4c0-.4,0-.9.3-1.3.2-.4.4-.8.7-1.1.3-.3.7-.6,1.1-.7.4-.2.8-.3,1.3-.3h255.3c.4,0,.9,0,1.3.3.4.2.8.4,1.1.7.3.3.6.7.7,1.1.2.4.3.8.3,1.3v49.4c0,.4,0,.9-.3,1.3-.2.4-.4.8-.7,1.1-.3.3-.7.6-1.1.7-.4.2-.9.3-1.3.3ZM75.8,855.7c-.3,0-.7,0-1,.2-.3.1-.6.3-.9.6-.2.2-.4.5-.6.9-.1.3-.2.7-.2,1v49.4c0,.3,0,.7.2,1,.1.3.3.6.6.9.2.2.5.4.9.6.3.1.7.2,1,.2h255.3c.3,0,.7,0,1-.2.3-.1.6-.3.9-.6.2-.2.4-.5.6-.9.1-.3.2-.7.2-1v-49.4c0-.3,0-.7-.2-1-.1-.3-.3-.6-.6-.9-.2-.2-.5-.4-.9-.6-.3-.1-.7-.2-1-.2H75.8Z"/>
  </g>
  <g>
    <path class="cls-8" d="M154.6,888.4l-5.2-12.8h1.8l4.3,11.1,4.3-11.1h1.8l-5.2,12.8h-2Z"/>
    <path class="cls-8" d="M163.1,876.6c0-.5.4-1,1-1s1,.4,1,1-.4,1-1,1-1-.4-1-1ZM163.4,888.4v-9.3h1.4v9.3h-1.4Z"/>
    <path class="cls-8" d="M171.7,878.9c2.8,0,4.5,2.2,4.5,5v.4h-7.5c.1,1.8,1.3,3.2,3.4,3.2s2.1-.4,2.9-1.2l.7.9c-.9.9-2.2,1.4-3.7,1.4-2.8,0-4.7-2-4.7-4.9s1.9-4.9,4.6-4.9ZM168.7,883.2h6.1c0-1.4-.9-3.1-3.1-3.1s-3,1.7-3,3.1Z"/>
    <path class="cls-8" d="M186.6,888.4l-2.4-7.5-2.4,7.5h-1.4l-3-9.3h1.5l2.3,7.4,2.4-7.4h1.2l2.4,7.4,2.3-7.4h1.5l-3,9.3h-1.4Z"/>
    <path class="cls-8" d="M205.1,888.4l-3.3-5.1h-2.6v5.1h-1.6v-12.8h5.2c2.3,0,4,1.5,4,3.9s-1.6,3.6-3.3,3.7l3.5,5.2h-1.9ZM202.7,877h-3.4v4.9h3.4c1.5,0,2.6-1,2.6-2.5s-1-2.4-2.6-2.4Z"/>
  </g>
  <g>
    <path class="cls-8" d="M213.4,878.9c2.8,0,4.5,2.2,4.5,5v.4h-7.5c.1,1.8,1.3,3.2,3.4,3.2s2.1-.4,2.9-1.2l.7.9c-.9.9-2.2,1.4-3.7,1.4-2.8,0-4.7-2-4.7-4.9s1.9-4.9,4.6-4.9ZM210.4,883.2h6.1c0-1.4-.9-3.1-3.1-3.1s-3,1.7-3,3.1Z"/>
    <path class="cls-8" d="M220.2,886.1c.6.7,1.8,1.3,3.1,1.3s2.2-.6,2.2-1.5-1.1-1.3-2.4-1.7c-1.6-.4-3.4-.8-3.4-2.7s1.3-2.7,3.5-2.7,2.7.6,3.4,1.3l-.7,1c-.6-.7-1.6-1.2-2.8-1.2s-2.1.6-2.1,1.4,1.1,1.2,2.3,1.5c1.6.4,3.5.8,3.5,2.9s-1.3,2.8-3.7,2.8-2.8-.5-3.8-1.5l.8-1Z"/>
    <path class="cls-8" d="M235.5,888.4v-1.3c-.7.8-1.9,1.5-3.3,1.5s-3-.9-3-3v-6.6h1.4v6.1c0,1.6.8,2.1,2.1,2.1s2.2-.7,2.8-1.4v-6.8h1.4v9.3h-1.4Z"/>
    <path class="cls-8" d="M239.8,888.4v-12.8h1.4v12.8h-1.4Z"/>
    <path class="cls-8" d="M244.4,886.5v-6.1h-1.5v-1.3h1.5v-2.5h1.4v2.5h1.9v1.3h-1.9v5.8c0,.7.3,1.2.9,1.2s.8-.2,1-.4l.4,1.1c-.4.3-.9.6-1.7.6-1.4,0-2.1-.8-2.1-2.2Z"/>
    <path class="cls-8" d="M249.8,886.1c.6.7,1.8,1.3,3.1,1.3s2.2-.6,2.2-1.5-1.1-1.3-2.4-1.7c-1.6-.4-3.4-.8-3.4-2.7s1.3-2.7,3.5-2.7,2.7.6,3.4,1.3l-.7,1c-.6-.7-1.6-1.2-2.8-1.2s-2.1.6-2.1,1.4,1.1,1.2,2.3,1.5c1.6.4,3.5.8,3.5,2.9s-1.3,2.8-3.7,2.8-2.8-.5-3.8-1.5l.8-1Z"/>
  </g>
  <path class="cls-7" d="M382.4,888.4l-3.3-5.1h-2.6v5.1h-1.6v-12.8h5.2c2.3,0,4,1.5,4,3.9s-1.6,3.6-3.3,3.7l3.5,5.2h-1.9ZM380,877h-3.4v4.9h3.4c1.5,0,2.6-1,2.6-2.5s-1-2.4-2.6-2.4Z"/>
  <g>
    <path class="cls-7" d="M390.3,878.9c2.8,0,4.5,2.2,4.5,5v.4h-7.5c.1,1.8,1.3,3.2,3.4,3.2s2.1-.4,2.9-1.2l.7.9c-.9.9-2.2,1.4-3.7,1.4-2.8,0-4.7-2-4.7-4.9s1.9-4.9,4.6-4.9ZM387.2,883.2h6.1c0-1.4-.9-3.1-3.1-3.1s-3,1.7-3,3.1Z"/>
    <path class="cls-7" d="M397,886.1c.6.7,1.8,1.3,3.1,1.3s2.2-.6,2.2-1.5-1.1-1.3-2.4-1.7c-1.6-.4-3.4-.8-3.4-2.7s1.3-2.7,3.5-2.7,2.7.6,3.4,1.3l-.7,1c-.6-.7-1.6-1.2-2.8-1.2s-2.1.6-2.1,1.4,1.1,1.2,2.3,1.5c1.6.4,3.5.8,3.5,2.9s-1.3,2.8-3.7,2.8-2.8-.5-3.8-1.5l.8-1Z"/>
    <path class="cls-7" d="M410.1,878.9c2.8,0,4.5,2.2,4.5,5v.4h-7.5c.1,1.8,1.3,3.2,3.4,3.2s2.1-.4,2.9-1.2l.7.9c-.9.9-2.2,1.4-3.7,1.4-2.8,0-4.7-2-4.7-4.9s1.9-4.9,4.6-4.9ZM407,883.2h6.1c0-1.4-.9-3.1-3.1-3.1s-3,1.7-3,3.1Z"/>
    <path class="cls-7" d="M417.2,886.5v-6.1h-1.5v-1.3h1.5v-2.5h1.4v2.5h1.9v1.3h-1.9v5.8c0,.7.3,1.2.9,1.2s.8-.2,1-.4l.4,1.1c-.4.3-.9.6-1.7.6-1.4,0-2.1-.8-2.1-2.2Z"/>
    <path class="cls-7" d="M427.6,888.4v-12.8h8.4v1.4h-6.8v4.1h6.7v1.4h-6.7v5.9h-1.6Z"/>
    <path class="cls-7" d="M437.9,876.6c0-.5.4-1,1-1s1,.4,1,1-.4,1-1,1-1-.4-1-1ZM438.1,888.4v-9.3h1.4v9.3h-1.4Z"/>
    <path class="cls-7" d="M442.5,888.4v-12.8h1.4v12.8h-1.4Z"/>
    <path class="cls-7" d="M447.1,886.5v-6.1h-1.5v-1.3h1.5v-2.5h1.4v2.5h1.9v1.3h-1.9v5.8c0,.7.3,1.2.9,1.2s.8-.2,1-.4l.4,1.1c-.4.3-.9.6-1.7.6-1.4,0-2.1-.8-2.1-2.2Z"/>
    <path class="cls-7" d="M456.5,878.9c2.8,0,4.5,2.2,4.5,5v.4h-7.5c.1,1.8,1.3,3.2,3.4,3.2s2.1-.4,2.9-1.2l.7.9c-.9.9-2.2,1.4-3.7,1.4-2.8,0-4.7-2-4.7-4.9s1.9-4.9,4.6-4.9ZM453.4,883.2h6.1c0-1.4-.9-3.1-3.1-3.1s-3,1.7-3,3.1Z"/>
    <path class="cls-7" d="M463.3,888.4v-9.3h1.4v1.5c.8-1,1.8-1.7,3.1-1.7v1.5c-.2,0-.3,0-.6,0-.9,0-2.1.7-2.5,1.5v6.6h-1.4Z"/>
    <path class="cls-7" d="M469.6,886.1c.6.7,1.8,1.3,3.1,1.3s2.2-.6,2.2-1.5-1.1-1.3-2.4-1.7c-1.6-.4-3.4-.8-3.4-2.7s1.3-2.7,3.5-2.7,2.7.6,3.4,1.3l-.7,1c-.6-.7-1.6-1.2-2.8-1.2s-2.1.6-2.1,1.4,1.1,1.2,2.3,1.5c1.6.4,3.5.8,3.5,2.9s-1.3,2.8-3.7,2.8-2.8-.5-3.8-1.5l.8-1Z"/>
  </g>
  <g>
    <path class="cls-4" d="M68.5,149.4c.9.9,2.3,1.8,4.1,1.8s2.6-.9,2.6-1.8-1.4-1.5-2.9-1.9c-2.1-.5-4.6-1.1-4.6-3.9s1.9-3.8,4.7-3.8,3.6.6,4.8,1.8l-1.3,1.7c-1-1-2.4-1.5-3.7-1.5s-2.2.6-2.2,1.6,1.3,1.3,2.8,1.7c2.1.5,4.6,1.2,4.6,4s-1.5,4-5,4-4.1-.8-5.2-2l1.3-1.7Z"/>
    <path class="cls-4" d="M83.6,143.4c2.8,0,4.6,2.1,4.6,5.1v.5h-7.2c.2,1.4,1.2,2.6,3,2.6s2-.4,2.6-1l.9,1.3c-.9.9-2.3,1.3-3.8,1.3-2.8,0-4.9-1.9-4.9-4.9s2-4.9,4.7-4.9ZM80.9,147.5h5.2c0-1.1-.8-2.5-2.6-2.5s-2.5,1.3-2.6,2.5Z"/>
    <path class="cls-4" d="M90.1,152.9v-12.8h2v12.8h-2Z"/>
    <path class="cls-4" d="M98.9,143.4c2.8,0,4.6,2.1,4.6,5.1v.5h-7.2c.2,1.4,1.2,2.6,3,2.6s2-.4,2.6-1l.9,1.3c-.9.9-2.3,1.3-3.8,1.3-2.8,0-4.9-1.9-4.9-4.9s2-4.9,4.7-4.9ZM96.3,147.5h5.2c0-1.1-.8-2.5-2.6-2.5s-2.5,1.3-2.6,2.5Z"/>
    <path class="cls-4" d="M109.8,143.4c1.8,0,2.9.8,3.6,1.7l-1.3,1.2c-.5-.7-1.2-1.1-2.1-1.1-1.7,0-2.8,1.3-2.8,3.1s1.1,3.1,2.8,3.1,1.6-.4,2.1-1.1l1.3,1.2c-.7.9-1.8,1.7-3.6,1.7-2.8,0-4.8-2.1-4.8-4.9s2-4.9,4.8-4.9Z"/>
    <path class="cls-4" d="M115.5,150.7v-5.4h-1.5v-1.8h1.5v-2.5h2v2.5h1.9v1.8h-1.9v4.9c0,.6.3,1.1.9,1.1s.8-.2.9-.3l.5,1.5c-.4.3-1,.6-1.9.6-1.6,0-2.4-.8-2.4-2.4Z"/>
    <path class="cls-4" d="M129.9,152.9v-5.3l-5-7.5h2.6l3.5,5.5,3.5-5.5h2.6l-5,7.5v5.3h-2.3Z"/>
    <path class="cls-4" d="M137.9,148.2c0-2.7,1.8-4.9,4.8-4.9s4.8,2.2,4.8,4.9-1.8,4.9-4.8,4.9-4.8-2.2-4.8-4.9ZM145.4,148.2c0-1.6-1-3.1-2.7-3.1s-2.7,1.4-2.7,3.1,1,3.1,2.7,3.1,2.7-1.4,2.7-3.1Z"/>
    <path class="cls-4" d="M155.8,152.9v-1.2c-.7.8-1.8,1.5-3.3,1.5s-3-1-3-2.9v-6.6h2v5.9c0,1.4.7,1.9,1.9,1.9s1.9-.6,2.4-1.2v-6.5h2v9.3h-2Z"/>
    <path class="cls-4" d="M160.4,152.9v-9.3h2v1.4c.7-.9,1.8-1.6,3-1.6v2c-.2,0-.4,0-.6,0-.8,0-2,.6-2.4,1.2v6.3h-2Z"/>
    <path class="cls-4" d="M172.1,152.9v-12.8h8.8v2h-6.5v3.3h6.4v2h-6.4v5.5h-2.3Z"/>
    <path class="cls-4" d="M182.6,140.8c0-.7.6-1.3,1.3-1.3s1.3.6,1.3,1.3-.6,1.3-1.3,1.3-1.3-.6-1.3-1.3ZM182.9,152.9v-9.3h2v9.3h-2Z"/>
    <path class="cls-4" d="M187.5,152.9v-12.8h2v12.8h-2Z"/>
    <path class="cls-4" d="M192.6,150.7v-5.4h-1.5v-1.8h1.5v-2.5h2v2.5h1.9v1.8h-1.9v4.9c0,.6.3,1.1.9,1.1s.8-.2.9-.3l.5,1.5c-.4.3-1,.6-1.9.6-1.6,0-2.4-.8-2.4-2.4Z"/>
    <path class="cls-4" d="M202.5,143.4c2.8,0,4.6,2.1,4.6,5.1v.5h-7.2c.2,1.4,1.2,2.6,3,2.6s2-.4,2.6-1l.9,1.3c-.9.9-2.3,1.3-3.8,1.3-2.8,0-4.9-1.9-4.9-4.9s2-4.9,4.7-4.9ZM199.8,147.5h5.2c0-1.1-.8-2.5-2.6-2.5s-2.5,1.3-2.6,2.5Z"/>
    <path class="cls-4" d="M209,152.9v-9.3h2v1.4c.7-.9,1.8-1.6,3-1.6v2c-.2,0-.4,0-.6,0-.8,0-2,.6-2.4,1.2v6.3h-2Z"/>
    <path class="cls-4" d="M215.8,150.2c.7.7,1.9,1.3,3.2,1.3s1.8-.4,1.8-1.1-1-1.1-2.1-1.3c-1.6-.3-3.5-.8-3.5-2.8s1.3-2.8,3.7-2.8,2.8.6,3.6,1.3l-.8,1.4c-.6-.6-1.6-1.1-2.8-1.1s-1.7.4-1.7,1,.9,1,2,1.2c1.6.3,3.6.8,3.6,3s-1.4,2.9-3.9,2.9-3-.5-4-1.4l.9-1.5Z"/>
    <path class="cls-4" d="M238.9,152.9l-.9-2.5h-6.1l-.9,2.5h-2.5l5-12.8h2.8l5,12.8h-2.5ZM234.9,142l-2.4,6.5h4.8l-2.4-6.5Z"/>
    <path class="cls-4" d="M249,152.9v-5.8c0-1.4-.7-1.9-1.9-1.9s-1.9.6-2.4,1.3v6.5h-2v-9.3h2v1.3c.6-.7,1.8-1.5,3.3-1.5s3,1.1,3,3v6.5h-2Z"/>
    <path class="cls-4" d="M260.2,152.9v-1.3c-.7.9-1.8,1.5-3,1.5-2.4,0-4.1-1.8-4.1-4.9s1.7-4.9,4.1-4.9,2.2.5,3,1.5v-4.8h2v12.8h-2ZM260.2,146.4c-.5-.7-1.4-1.3-2.4-1.3-1.6,0-2.6,1.3-2.6,3.1s1,3.1,2.6,3.1,1.9-.5,2.4-1.2v-3.7Z"/>
    <path class="cls-4" d="M269.3,146.5c0-3.9,2.9-6.6,6.6-6.6s4.3,1.3,5.3,2.9l-1.9,1c-.6-1.1-1.8-1.9-3.3-1.9-2.4,0-4.3,1.9-4.3,4.6s1.9,4.6,4.3,4.6,2.7-.8,3.3-1.9l1.9,1c-1,1.5-2.6,2.9-5.3,2.9s-6.6-2.7-6.6-6.6Z"/>
    <path class="cls-4" d="M282.9,152.9v-12.8h2v12.8h-2Z"/>
    <path class="cls-4" d="M287.3,140.8c0-.7.6-1.3,1.3-1.3s1.3.6,1.3,1.3-.6,1.3-1.3,1.3-1.3-.6-1.3-1.3ZM287.6,152.9v-9.3h2v9.3h-2Z"/>
    <path class="cls-4" d="M296.5,143.4c1.8,0,2.9.8,3.6,1.7l-1.3,1.2c-.5-.7-1.2-1.1-2.1-1.1-1.7,0-2.8,1.3-2.8,3.1s1.1,3.1,2.8,3.1,1.6-.4,2.1-1.1l1.3,1.2c-.7.9-1.8,1.7-3.6,1.7-2.8,0-4.8-2.1-4.8-4.9s2-4.9,4.8-4.9Z"/>
    <path class="cls-4" d="M308,152.9l-2.8-3.8-1.3,1.3v2.5h-2v-12.8h2v8l4.1-4.5h2.5l-3.9,4.2,3.9,5.1h-2.5Z"/>
    <path class="cls-4" d="M320,152.9v-10.9h-3.9v-2h10v2h-3.9v10.9h-2.3Z"/>
    <path class="cls-4" d="M334.3,152.9v-5.9c0-1.4-.8-1.9-1.9-1.9s-1.9.6-2.4,1.3v6.5h-2v-12.8h2v4.8c.6-.7,1.8-1.5,3.3-1.5s3,1,3,2.9v6.6h-2Z"/>
    <path class="cls-4" d="M343.1,143.4c2.8,0,4.6,2.1,4.6,5.1v.5h-7.2c.2,1.4,1.2,2.6,3,2.6s2-.4,2.6-1l.9,1.3c-.9.9-2.3,1.3-3.8,1.3-2.8,0-4.9-1.9-4.9-4.9s2-4.9,4.7-4.9ZM340.5,147.5h5.2c0-1.1-.8-2.5-2.6-2.5s-2.5,1.3-2.6,2.5Z"/>
    <path class="cls-4" d="M358.4,152.9l-5-12.8h2.6l3.9,10.4,3.9-10.4h2.6l-5,12.8h-2.8Z"/>
    <path class="cls-4" d="M367.3,140.8c0-.7.6-1.3,1.3-1.3s1.3.6,1.3,1.3-.6,1.3-1.3,1.3-1.3-.6-1.3-1.3ZM367.6,152.9v-9.3h2v9.3h-2Z"/>
    <path class="cls-4" d="M376.4,143.4c2.8,0,4.6,2.1,4.6,5.1v.5h-7.2c.2,1.4,1.2,2.6,3,2.6s2-.4,2.6-1l.9,1.3c-.9.9-2.3,1.3-3.8,1.3-2.8,0-4.9-1.9-4.9-4.9s2-4.9,4.7-4.9ZM373.8,147.5h5.2c0-1.1-.8-2.5-2.6-2.5s-2.5,1.3-2.6,2.5Z"/>
    <path class="cls-4" d="M391.1,152.9l-2.2-6.8-2.2,6.8h-2.1l-2.9-9.3h2.1l2,6.8,2.2-6.8h1.8l2.2,6.8,2-6.8h2.1l-2.9,9.3h-2.1Z"/>
    <path class="cls-4" d="M75.4,178l-2.9-4.8h-2.2v4.8h-2.3v-12.8h5.6c2.5,0,4.2,1.7,4.2,4s-1.5,3.5-3,3.8l3.1,5h-2.6ZM73.4,167.2h-3.1v4.1h3.1c1.3,0,2.2-.8,2.2-2s-.9-2-2.2-2Z"/>
    <path class="cls-4" d="M84.2,168.5c2.8,0,4.6,2.1,4.6,5.1v.5h-7.2c.2,1.4,1.2,2.6,3,2.6s2-.4,2.6-1l.9,1.3c-.9.9-2.3,1.3-3.8,1.3-2.8,0-4.9-1.9-4.9-4.9s2-4.9,4.7-4.9ZM81.6,172.6h5.2c0-1.1-.8-2.5-2.6-2.5s-2.5,1.3-2.6,2.5Z"/>
    <path class="cls-4" d="M90.9,175.4c.7.7,1.9,1.3,3.2,1.3s1.8-.4,1.8-1.1-1-1.1-2.1-1.3c-1.6-.3-3.5-.8-3.5-2.8s1.3-2.8,3.7-2.8,2.8.6,3.6,1.3l-.8,1.4c-.6-.6-1.6-1.1-2.8-1.1s-1.7.4-1.7,1,.9,1,2,1.2c1.6.3,3.6.8,3.6,3s-1.4,2.9-3.9,2.9-3-.5-4-1.4l.9-1.5Z"/>
    <path class="cls-4" d="M106.2,178v-1.2c-.7.8-1.8,1.5-3.3,1.5s-3-1-3-2.9v-6.6h2v5.9c0,1.4.7,1.9,1.9,1.9s1.9-.6,2.4-1.2v-6.5h2v9.3h-2Z"/>
    <path class="cls-4" d="M110.8,178v-12.8h2v12.8h-2Z"/>
    <path class="cls-4" d="M115.9,175.9v-5.4h-1.5v-1.8h1.5v-2.5h2v2.5h1.9v1.8h-1.9v4.9c0,.6.3,1.1.9,1.1s.8-.2.9-.3l.5,1.5c-.4.3-1,.6-1.9.6-1.6,0-2.4-.8-2.4-2.4Z"/>
    <path class="cls-4" d="M121.7,175.4c.7.7,1.9,1.3,3.2,1.3s1.8-.4,1.8-1.1-1-1.1-2.1-1.3c-1.6-.3-3.5-.8-3.5-2.8s1.3-2.8,3.7-2.8,2.8.6,3.6,1.3l-.8,1.4c-.6-.6-1.6-1.1-2.8-1.1s-1.7.4-1.7,1,.9,1,2,1.2c1.6.3,3.6.8,3.6,3s-1.4,2.9-3.9,2.9-3-.5-4-1.4l.9-1.5Z"/>
    <path class="cls-4" d="M135.7,178v-12.8h6.3c2.3,0,3.7,1.5,3.7,3.3s-1,2.7-2.2,2.9c1.4.2,2.5,1.6,2.5,3.2s-1.3,3.5-3.7,3.5h-6.5ZM138,170.5h3.6c1.2,0,1.8-.7,1.8-1.7s-.7-1.7-1.8-1.7h-3.6v3.3ZM138,176.1h3.7c1.2,0,2-.7,2-1.8s-.7-1.8-2-1.8h-3.7v3.6Z"/>
    <path class="cls-4" d="M154.4,178v-1.2c-.7.8-1.8,1.5-3.3,1.5s-3-1-3-2.9v-6.6h2v5.9c0,1.4.7,1.9,1.9,1.9s1.9-.6,2.4-1.2v-6.5h2v9.3h-2Z"/>
    <path class="cls-4" d="M159.5,175.9v-5.4h-1.5v-1.8h1.5v-2.5h2v2.5h1.9v1.8h-1.9v4.9c0,.6.3,1.1.9,1.1s.8-.2.9-.3l.5,1.5c-.4.3-1,.6-1.9.6-1.6,0-2.4-.8-2.4-2.4Z"/>
    <path class="cls-4" d="M165.6,175.9v-5.4h-1.5v-1.8h1.5v-2.5h2v2.5h1.9v1.8h-1.9v4.9c0,.6.3,1.1.9,1.1s.8-.2.9-.3l.5,1.5c-.4.3-1,.6-1.9.6-1.6,0-2.4-.8-2.4-2.4Z"/>
    <path class="cls-4" d="M170.8,173.4c0-2.7,1.8-4.9,4.8-4.9s4.8,2.2,4.8,4.9-1.8,4.9-4.8,4.9-4.8-2.2-4.8-4.9ZM178.2,173.4c0-1.6-1-3.1-2.7-3.1s-2.7,1.4-2.7,3.1,1,3.1,2.7,3.1,2.7-1.4,2.7-3.1Z"/>
    <path class="cls-4" d="M188.7,178v-5.8c0-1.4-.7-1.9-1.9-1.9s-1.9.6-2.4,1.3v6.5h-2v-9.3h2v1.3c.6-.7,1.8-1.5,3.3-1.5s3,1.1,3,3v6.5h-2Z"/>
    <path class="cls-4" d="M207.4,178l-.9-2.5h-6.1l-.9,2.5h-2.5l5-12.8h2.8l5,12.8h-2.5ZM203.4,167.1l-2.4,6.5h4.8l-2.4-6.5Z"/>
    <path class="cls-4" d="M211.6,175.9v-5.4h-1.5v-1.8h1.5v-2.5h2v2.5h1.9v1.8h-1.9v4.9c0,.6.3,1.1.9,1.1s.8-.2.9-.3l.5,1.5c-.4.3-1,.6-1.9.6-1.6,0-2.4-.8-2.4-2.4Z"/>
    <path class="cls-4" d="M225.4,178v-10.9h-3.9v-2h10v2h-3.9v10.9h-2.3Z"/>
    <path class="cls-4" d="M239.7,178v-5.9c0-1.4-.8-1.9-1.9-1.9s-1.9.6-2.4,1.3v6.5h-2v-12.8h2v4.8c.6-.7,1.8-1.5,3.3-1.5s3,1,3,2.9v6.6h-2Z"/>
    <path class="cls-4" d="M248.5,168.5c2.8,0,4.6,2.1,4.6,5.1v.5h-7.2c.2,1.4,1.2,2.6,3,2.6s2-.4,2.6-1l.9,1.3c-.9.9-2.3,1.3-3.8,1.3-2.8,0-4.9-1.9-4.9-4.9s2-4.9,4.7-4.9ZM245.9,172.6h5.2c0-1.1-.8-2.5-2.6-2.5s-2.5,1.3-2.6,2.5Z"/>
    <path class="cls-4" d="M260.1,178v-12.8h6.3c2.3,0,3.7,1.5,3.7,3.3s-1,2.7-2.2,2.9c1.4.2,2.5,1.6,2.5,3.2s-1.3,3.5-3.7,3.5h-6.5ZM262.4,170.5h3.6c1.2,0,1.8-.7,1.8-1.7s-.7-1.7-1.8-1.7h-3.6v3.3ZM262.4,176.1h3.7c1.2,0,2-.7,2-1.8s-.7-1.8-2-1.8h-3.7v3.6Z"/>
    <path class="cls-4" d="M272,173.4c0-2.7,1.8-4.9,4.8-4.9s4.8,2.2,4.8,4.9-1.8,4.9-4.8,4.9-4.8-2.2-4.8-4.9ZM279.4,173.4c0-1.6-1-3.1-2.7-3.1s-2.7,1.4-2.7,3.1,1,3.1,2.7,3.1,2.7-1.4,2.7-3.1Z"/>
    <path class="cls-4" d="M284,175.9v-5.4h-1.5v-1.8h1.5v-2.5h2v2.5h1.9v1.8h-1.9v4.9c0,.6.3,1.1.9,1.1s.8-.2.9-.3l.5,1.5c-.4.3-1,.6-1.9.6-1.6,0-2.4-.8-2.4-2.4Z"/>
    <path class="cls-4" d="M290.1,175.9v-5.4h-1.5v-1.8h1.5v-2.5h2v2.5h1.9v1.8h-1.9v4.9c0,.6.3,1.1.9,1.1s.8-.2.9-.3l.5,1.5c-.4.3-1,.6-1.9.6-1.6,0-2.4-.8-2.4-2.4Z"/>
    <path class="cls-4" d="M295.3,173.4c0-2.7,1.8-4.9,4.8-4.9s4.8,2.2,4.8,4.9-1.8,4.9-4.8,4.9-4.8-2.2-4.8-4.9ZM302.8,173.4c0-1.6-1-3.1-2.7-3.1s-2.7,1.4-2.7,3.1,1,3.1,2.7,3.1,2.7-1.4,2.7-3.1Z"/>
    <path class="cls-4" d="M318.3,178v-6.1c0-1-.4-1.7-1.5-1.7s-1.8.6-2.2,1.2v6.5h-2v-6.1c0-1-.4-1.7-1.5-1.7s-1.7.6-2.1,1.3v6.5h-2v-9.3h2v1.3c.4-.6,1.6-1.5,3-1.5s2.2.7,2.5,1.7c.5-.8,1.8-1.7,3.2-1.7s2.7.9,2.7,2.8v6.7h-2Z"/>
    <path class="cls-4" d="M334,165c3.9,0,6.6,2.8,6.6,6.6s-2.7,6.6-6.6,6.6-6.6-2.8-6.6-6.6,2.7-6.6,6.6-6.6ZM334,167c-2.6,0-4.3,2-4.3,4.6s1.7,4.6,4.3,4.6,4.3-2,4.3-4.6-1.7-4.6-4.3-4.6Z"/>
    <path class="cls-4" d="M345.1,170.5v7.5h-2v-7.5h-1.5v-1.8h1.5v-.5c0-2.1,1.2-3.2,2.9-3.2s1.2.1,1.6.4l-.4,1.5c-.2-.1-.5-.2-.8-.2-.8,0-1.3.5-1.3,1.6v.5h1.9v1.8h-1.9Z"/>
    <path class="cls-4" d="M356.6,178v-10.9h-3.9v-2h10v2h-3.9v10.9h-2.3Z"/>
    <path class="cls-4" d="M370.9,178v-5.9c0-1.4-.8-1.9-1.9-1.9s-1.9.6-2.4,1.3v6.5h-2v-12.8h2v4.8c.6-.7,1.8-1.5,3.3-1.5s3,1,3,2.9v6.6h-2Z"/>
    <path class="cls-4" d="M379.7,168.5c2.8,0,4.6,2.1,4.6,5.1v.5h-7.2c.2,1.4,1.2,2.6,3,2.6s2-.4,2.6-1l.9,1.3c-.9.9-2.3,1.3-3.8,1.3-2.8,0-4.9-1.9-4.9-4.9s2-4.9,4.7-4.9ZM377.1,172.6h5.2c0-1.1-.8-2.5-2.6-2.5s-2.5,1.3-2.6,2.5Z"/>
    <path class="cls-4" d="M391.3,178v-12.8h5.6c2.7,0,4.2,1.8,4.2,4s-1.5,4-4.2,4h-3.4v4.8h-2.3ZM396.7,167.2h-3.1v4.1h3.1c1.3,0,2.2-.8,2.2-2s-.9-2-2.2-2Z"/>
    <path class="cls-4" d="M408.7,178v-1c-.7.8-1.8,1.2-3,1.2s-3.2-1-3.2-3.1,1.7-3,3.2-3,2.3.4,3,1.2v-1.4c0-1.1-.9-1.7-2.2-1.7s-1.9.4-2.8,1.2l-.8-1.4c1.1-1,2.4-1.5,3.9-1.5s3.9.9,3.9,3.4v6.2h-2ZM408.7,174.5c-.5-.6-1.3-1-2.2-1s-2,.7-2,1.7.8,1.7,2,1.7,1.8-.3,2.2-1v-1.4Z"/>
    <path class="cls-4" d="M414.1,179c.8.9,1.7,1.2,2.9,1.2s2.8-.6,2.8-2.5v-1.1c-.7.9-1.8,1.5-3,1.5-2.4,0-4.1-1.7-4.1-4.8s1.7-4.8,4.1-4.8,2.2.5,3,1.5v-1.3h2v8.8c0,3.4-2.5,4.3-4.8,4.3s-2.8-.3-3.9-1.4l.9-1.5ZM419.8,171.6c-.4-.7-1.4-1.3-2.4-1.3-1.6,0-2.6,1.2-2.6,3s1,3,2.6,3,1.9-.6,2.4-1.3v-3.5Z"/>
    <path class="cls-4" d="M428.6,168.5c2.8,0,4.6,2.1,4.6,5.1v.5h-7.2c.2,1.4,1.2,2.6,3,2.6s2-.4,2.6-1l.9,1.3c-.9.9-2.3,1.3-3.8,1.3-2.8,0-4.9-1.9-4.9-4.9s2-4.9,4.7-4.9ZM426,172.6h5.2c0-1.1-.8-2.5-2.6-2.5s-2.5,1.3-2.6,2.5Z"/>
    <path class="cls-4" d="M71.1,203.2v-10.9h-3.9v-2h10v2h-3.9v10.9h-2.3Z"/>
    <path class="cls-4" d="M78.5,198.5c0-2.7,1.8-4.9,4.8-4.9s4.8,2.2,4.8,4.9-1.8,4.9-4.8,4.9-4.8-2.2-4.8-4.9ZM86,198.5c0-1.6-1-3.1-2.7-3.1s-2.7,1.4-2.7,3.1,1,3.1,2.7,3.1,2.7-1.4,2.7-3.1Z"/>
    <path class="cls-4" d="M98.8,203.2l-5-12.8h2.6l3.9,10.4,3.9-10.4h2.6l-5,12.8h-2.8Z"/>
    <path class="cls-4" d="M107.8,191.1c0-.7.6-1.3,1.3-1.3s1.3.6,1.3,1.3-.6,1.3-1.3,1.3-1.3-.6-1.3-1.3ZM108,203.2v-9.3h2v9.3h-2Z"/>
    <path class="cls-4" d="M116.8,193.7c2.8,0,4.6,2.1,4.6,5.1v.5h-7.2c.2,1.4,1.2,2.6,3,2.6s2-.4,2.6-1l.9,1.3c-.9.9-2.3,1.3-3.8,1.3-2.8,0-4.9-1.9-4.9-4.9s2-4.9,4.7-4.9ZM114.2,197.8h5.2c0-1.1-.8-2.5-2.6-2.5s-2.5,1.3-2.6,2.5Z"/>
    <path class="cls-4" d="M131.5,203.2l-2.2-6.8-2.2,6.8h-2.1l-2.9-9.3h2.1l2,6.8,2.2-6.8h1.8l2.2,6.8,2-6.8h2.1l-2.9,9.3h-2.1Z"/>
    <path class="cls-4" d="M152,203.2l-.9-2.5h-6.1l-.9,2.5h-2.5l5-12.8h2.8l5,12.8h-2.5ZM148.1,192.2l-2.4,6.5h4.8l-2.4-6.5Z"/>
    <path class="cls-4" d="M158.3,203.2l-3.8-9.3h2.2l2.7,7,2.7-7h2.2l-3.8,9.3h-2.2Z"/>
    <path class="cls-4" d="M171.2,203.2v-1c-.7.8-1.8,1.2-3,1.2s-3.2-1-3.2-3.1,1.7-3,3.2-3,2.3.4,3,1.2v-1.4c0-1.1-.9-1.7-2.2-1.7s-1.9.4-2.8,1.2l-.8-1.4c1.1-1,2.4-1.5,3.9-1.5s3.9.9,3.9,3.4v6.2h-2ZM171.2,199.7c-.5-.6-1.3-1-2.2-1s-2,.7-2,1.7.8,1.7,2,1.7,1.8-.3,2.2-1v-1.4Z"/>
    <path class="cls-4" d="M175.6,191.1c0-.7.6-1.3,1.3-1.3s1.3.6,1.3,1.3-.6,1.3-1.3,1.3-1.3-.6-1.3-1.3ZM175.9,203.2v-9.3h2v9.3h-2Z"/>
    <path class="cls-4" d="M180.5,203.2v-12.8h2v12.8h-2Z"/>
    <path class="cls-4" d="M190.8,203.2v-1c-.7.8-1.8,1.2-3,1.2s-3.2-1-3.2-3.1,1.7-3,3.2-3,2.3.4,3,1.2v-1.4c0-1.1-.9-1.7-2.2-1.7s-1.9.4-2.8,1.2l-.8-1.4c1.1-1,2.4-1.5,3.9-1.5s3.9.9,3.9,3.4v6.2h-2ZM190.8,199.7c-.5-.6-1.3-1-2.2-1s-2,.7-2,1.7.8,1.7,2,1.7,1.8-.3,2.2-1v-1.4Z"/>
    <path class="cls-4" d="M195.5,203.2v-12.8h2v4.8c.7-1,1.8-1.5,3-1.5,2.4,0,4.1,1.9,4.1,4.9s-1.8,4.9-4.1,4.9-2.3-.6-3-1.5v1.3h-2ZM197.5,200.4c.4.7,1.4,1.2,2.4,1.2,1.6,0,2.6-1.3,2.6-3.1s-1-3.1-2.6-3.1-1.9.6-2.4,1.3v3.7Z"/>
    <path class="cls-4" d="M206.4,191.1c0-.7.6-1.3,1.3-1.3s1.3.6,1.3,1.3-.6,1.3-1.3,1.3-1.3-.6-1.3-1.3ZM206.7,203.2v-9.3h2v9.3h-2Z"/>
    <path class="cls-4" d="M211.3,203.2v-12.8h2v12.8h-2Z"/>
    <path class="cls-4" d="M215.7,191.1c0-.7.6-1.3,1.3-1.3s1.3.6,1.3,1.3-.6,1.3-1.3,1.3-1.3-.6-1.3-1.3ZM216,203.2v-9.3h2v9.3h-2Z"/>
    <path class="cls-4" d="M221,201v-5.4h-1.5v-1.8h1.5v-2.5h2v2.5h1.9v1.8h-1.9v4.9c0,.6.3,1.1.9,1.1s.8-.2.9-.3l.5,1.5c-.4.3-1,.6-1.9.6-1.6,0-2.4-.8-2.4-2.4Z"/>
    <path class="cls-4" d="M226.7,205c.2,0,.5.2.8.2.6,0,1.1-.2,1.3-.8l.5-1.1-3.8-9.4h2.2l2.7,7,2.7-7h2.2l-4.5,11c-.6,1.6-1.8,2.1-3.2,2.1-.3,0-.8,0-1.1-.1l.3-1.8Z"/>
  </g>
  <g>
    <circle class="cls-7" cx="501.3" cy="600.9" r="5"/>
    <path class="cls-9" d="M501.3,609.9c-5,0-9-4-9-9s4-9,9-9,9,4,9,9-4,9-9,9Z"/>
  </g>
  <path class="cls-10" d="M580.4,609.9c-5,0-9-4-9-9s4-9,9-9,9,4,9,9-4,9-9,9Z"/>
  <path class="cls-10" d="M580.4,723.9c-5,0-9-4-9-9s4-9,9-9,9,4,9,9-4,9-9,9Z"/>
  <path class="cls-10" d="M671.3,609.9c-5,0-9-4-9-9s4-9,9-9,9,4,9,9-4,9-9,9Z"/>
  <path class="cls-10" d="M737.8,723.9c-5,0-9-4-9-9s4-9,9-9,9,4,9,9-4,9-9,9Z"/>
  <circle class="cls-10" cx="874.1" cy="714.9" r="9"/>
  <circle class="cls-10" cx="976.3" cy="714.9" r="9"/>
  <circle class="cls-10" cx="1004" cy="760.7" r="9"/>
  <circle class="cls-10" cx="825.9" cy="760.7" r="9"/>
  <path class="cls-10" d="M610.5,769.7c-5,0-9-4-9-9s4-9,9-9,9,4,9,9-4,9-9,9Z"/>
  <path class="cls-10" d="M500.5,769.7c-5,0-9-4-9-9s4-9,9-9,9,4,9,9-4,9-9,9Z"/>
  <g>
    <circle class="cls-7" cx="501.3" cy="714.9" r="5"/>
    <path class="cls-9" d="M501.3,723.9c-5,0-9-4-9-9s4-9,9-9,9,4,9,9-4,9-9,9Z"/>
  </g>
</svg>